M48
; DRILL file {KiCad 9.0.7} date 2026-05-27T10:15:44-0300
; FORMAT={-:-/ absolute / metric / decimal}
; #@! TF.CreationDate,2026-05-27T10:15:44-03:00
; #@! TF.GenerationSoftware,Kicad,Pcbnew,9.0.7
; #@! TF.FileFunction,Plated,1,2,PTH
FMAT,2
METRIC
; #@! TA.AperFunction,Plated,PTH,ViaDrill
T1C0.300
; #@! TA.AperFunction,Plated,PTH,ViaDrill
T2C0.800
; #@! TA.AperFunction,Plated,PTH,ComponentDrill
T3C0.800
; #@! TA.AperFunction,Plated,PTH,ComponentDrill
T4C0.900
; #@! TA.AperFunction,Plated,PTH,ComponentDrill
T5C1.000
; #@! TA.AperFunction,Plated,PTH,ComponentDrill
T6C1.100
; #@! TA.AperFunction,Plated,PTH,ComponentDrill
T7C1.300
; #@! TA.AperFunction,Plated,PTH,ComponentDrill
T8C1.600
; #@! TA.AperFunction,Plated,PTH,ComponentDrill
T9C3.200
%
G90
G05
T1
X133.88Y-78.49
X133.89Y-74.74
X141.94Y-86.78
X146.55Y-86.79
X154.29Y-92.98
X164.74Y-131.15
X166.85Y-125.36
X172.17Y-124.093
X173.32Y-109.37
X179.29Y-106.85
X180.0Y-76.02
T2
X126.49Y-102.56
X128.61Y-102.56
X131.4Y-108.85
X131.43Y-110.56
X137.79Y-115.28
X139.45Y-115.28
X177.97Y-79.84
X189.14Y-137.82
X189.23Y-140.96
X189.25Y-134.69
X189.25Y-144.01
X190.57Y-131.7
X194.15Y-130.41
X197.88Y-131.7
X199.08Y-134.44
X199.35Y-144.1
X199.45Y-140.88
X199.48Y-137.83
T3
X141.24Y-128.11
X143.74Y-128.11
X144.78Y-71.442
X144.78Y-73.942
X146.64Y-81.11
X146.77Y-128.12
X149.14Y-81.11
X149.27Y-128.12
X155.5Y-121.755
X155.5Y-123.755
X155.51Y-116.23
X155.51Y-118.23
X155.61Y-127.26
X155.61Y-129.26
X161.21Y-115.465
X163.21Y-115.465
X167.515Y-118.475
X167.515Y-120.975
X186.535Y-118.318
X186.535Y-120.818
X200.23Y-118.63
X200.23Y-123.63
T4
X140.03Y-107.53
X142.57Y-107.53
X155.68Y-70.72
X158.22Y-70.72
X160.76Y-70.72
X163.21Y-70.72
X165.75Y-70.72
X168.29Y-70.72
T5
X119.525Y-90.27
X119.575Y-130.245
X134.6Y-90.27
X134.6Y-130.32
X146.68Y-83.99
X146.68Y-99.23
X147.76Y-117.35
X147.76Y-119.89
X149.22Y-83.99
X149.22Y-99.23
X151.76Y-83.99
X151.76Y-99.23
X154.3Y-83.99
X154.3Y-99.23
X155.31Y-105.26
X156.84Y-83.99
X156.84Y-99.23
X157.85Y-105.26
X159.21Y-137.56
X159.38Y-83.99
X159.38Y-99.23
X160.595Y-140.4
X161.92Y-83.99
X161.92Y-99.23
X161.98Y-137.56
X163.365Y-140.4
X164.46Y-83.99
X164.46Y-99.23
X164.75Y-137.56
X166.135Y-140.4
X167.0Y-83.99
X167.0Y-99.23
X167.52Y-137.56
X168.905Y-140.4
X169.54Y-83.99
X169.54Y-99.23
X170.29Y-137.56
X172.08Y-83.99
X172.08Y-99.23
X174.62Y-83.99
X174.62Y-99.23
X177.16Y-83.99
X177.16Y-99.23
X177.58Y-122.26
X177.97Y-70.58
X179.7Y-83.99
X179.7Y-99.23
X180.12Y-122.26
X180.51Y-70.58
X182.24Y-83.99
X182.24Y-99.23
X184.78Y-83.99
X184.78Y-99.23
X186.09Y-74.535
X186.09Y-77.075
X187.32Y-83.99
X187.32Y-99.23
X189.685Y-108.123
X189.685Y-110.663
X189.685Y-113.203
X189.685Y-115.743
X189.685Y-118.283
X189.685Y-120.823
X189.685Y-123.363
X189.86Y-83.99
X189.86Y-99.23
X192.4Y-83.99
X192.4Y-99.23
X194.94Y-83.99
X194.94Y-99.23
X200.28Y-96.3
X200.28Y-98.84
X204.08Y-96.305
X204.08Y-98.845
T6
X142.53Y-125.08
X145.07Y-125.08
X147.61Y-125.08
T7
X138.94Y-141.22
X143.94Y-141.22
T8
X128.9Y-135.53
X128.9Y-141.53
X133.6Y-138.53
X191.82Y-138.93
X191.82Y-144.01
X194.36Y-141.47
X196.9Y-138.93
X196.9Y-144.01
T9
X152.25Y-140.4
X177.25Y-140.4
M30
