M48
; DRILL file KiCad 10.0.3 date 2026-07-22T17:28:32
; FORMAT={-:-/ absolute / metric / decimal}
; #@! TF.CreationDate,2026-07-22T17:28:32-03:00
; #@! TF.GenerationSoftware,Kicad,Pcbnew,10.0.3
; #@! TF.FileFunction,Plated,1,2,PTH
FMAT,2
METRIC
; #@! TA.AperFunction,Plated,PTH,ViaDrill
T1C0.300
; #@! TA.AperFunction,Plated,PTH,ViaDrill
T2C0.800
; #@! TA.AperFunction,Plated,PTH,ComponentDrill
T3C0.800
; #@! TA.AperFunction,Plated,PTH,ComponentDrill
T4C0.900
; #@! TA.AperFunction,Plated,PTH,ComponentDrill
T5C1.000
; #@! TA.AperFunction,Plated,PTH,ComponentDrill
T6C1.100
; #@! TA.AperFunction,Plated,PTH,ComponentDrill
T7C1.300
; #@! TA.AperFunction,Plated,PTH,ComponentDrill
T8C1.600
; #@! TA.AperFunction,Plated,PTH,ComponentDrill
T9C3.200
%
G90
G05
T1
X138.96Y-115.76
X140.46Y-133.56
X155.66Y-118.86
X158.26Y-122.66
X158.96Y-93.26
X163.26Y-93.66
T2
X172.772Y-115.672
X189.8Y-137.85
X189.89Y-140.99
X189.91Y-134.72
X189.91Y-144.04
X191.23Y-131.73
X194.81Y-130.44
X198.54Y-131.73
X199.74Y-134.47
X200.01Y-144.13
X200.11Y-140.91
X200.14Y-137.86
T3
X118.06Y-91.46
X118.06Y-100.46
X120.56Y-100.46
X123.06Y-91.46
X131.705Y-75.71
X134.165Y-125.32
X134.165Y-127.32
X134.175Y-119.795
X134.175Y-121.795
X134.205Y-75.71
X134.275Y-130.825
X134.275Y-132.825
X137.305Y-75.71
X139.805Y-75.71
X139.875Y-119.03
X141.875Y-119.03
X144.045Y-75.36
X146.18Y-122.04
X146.18Y-124.54
X149.045Y-75.36
X154.94Y-126.885
X154.94Y-129.385
X191.563Y-109.96
X192.81Y-104.06
X195.31Y-104.06
X196.563Y-109.96
T4
X118.36Y-70.82
X118.36Y-73.36
X118.36Y-75.9
X118.36Y-78.26
X118.36Y-80.8
X118.36Y-83.34
T5
X118.04Y-97.22
X118.04Y-112.46
X120.58Y-97.22
X120.58Y-112.46
X123.12Y-97.22
X123.12Y-112.46
X125.66Y-97.22
X125.66Y-112.46
X125.695Y-116.16
X128.2Y-97.22
X128.2Y-112.46
X128.235Y-116.16
X130.74Y-97.22
X130.74Y-112.46
X133.16Y-84.36
X133.16Y-86.9
X133.28Y-97.22
X133.28Y-112.46
X134.74Y-137.49
X135.82Y-97.22
X135.82Y-112.46
X136.125Y-140.33
X137.51Y-137.49
X138.36Y-97.22
X138.36Y-112.46
X138.895Y-140.33
X140.28Y-137.49
X140.9Y-97.22
X140.9Y-112.46
X141.665Y-140.33
X143.05Y-137.49
X143.44Y-97.22
X143.44Y-112.46
X144.435Y-140.33
X145.82Y-137.49
X145.98Y-97.22
X145.98Y-112.46
X148.52Y-97.22
X148.52Y-112.46
X151.06Y-97.22
X151.06Y-112.46
X153.6Y-97.22
X153.6Y-112.46
X156.14Y-97.22
X156.14Y-112.46
X158.68Y-97.22
X158.68Y-112.46
X161.22Y-97.22
X161.22Y-112.46
X163.76Y-97.22
X163.76Y-112.46
X165.735Y-73.42
X165.735Y-75.96
X166.3Y-97.22
X166.3Y-112.46
X166.341Y-120.035
X166.341Y-122.575
X170.485Y-88.46
X170.56Y-73.435
X190.315Y-101.33
X192.855Y-101.33
X195.395Y-101.33
X197.935Y-101.33
X198.985Y-93.76
X200.475Y-101.33
X201.525Y-93.76
X203.015Y-101.33
X205.555Y-101.33
X210.535Y-73.385
X210.535Y-88.46
T6
X133.165Y-78.86
X135.705Y-78.86
X138.245Y-78.86
T7
X144.66Y-65.16
X149.66Y-65.16
T8
X131.145Y-68.16
X135.845Y-65.16
X135.845Y-71.16
X192.48Y-138.96
X192.48Y-144.04
X195.02Y-141.5
X197.56Y-138.96
X197.56Y-144.04
T9
X127.78Y-140.33
X152.78Y-140.33
M30
