%TF.GenerationSoftware,KiCad,Pcbnew,10.0.3*%
%TF.CreationDate,2026-07-23T11:09:39-03:00*%
%TF.ProjectId,Modulo_SIMA7670SA,4d6f6475-6c6f-45f5-9349-4d4137363730,rev?*%
%TF.SameCoordinates,Original*%
%TF.FileFunction,Copper,L1,Top*%
%TF.FilePolarity,Positive*%
%FSLAX46Y46*%
G04 Gerber Fmt 4.6, Leading zero omitted, Abs format (unit mm)*
G04 Created by KiCad (PCBNEW 10.0.3) date 2026-07-23 11:09:39*
%MOMM*%
%LPD*%
G01*
G04 APERTURE LIST*
G04 Aperture macros list*
%AMRoundRect*
0 Rectangle with rounded corners*
0 $1 Rounding radius*
0 $2 $3 $4 $5 $6 $7 $8 $9 X,Y pos of 4 corners*
0 Add a 4 corners polygon primitive as box body*
4,1,4,$2,$3,$4,$5,$6,$7,$8,$9,$2,$3,0*
0 Add four circle primitives for the rounded corners*
1,1,$1+$1,$2,$3*
1,1,$1+$1,$4,$5*
1,1,$1+$1,$6,$7*
1,1,$1+$1,$8,$9*
0 Add four rect primitives between the rounded corners*
20,1,$1+$1,$2,$3,$4,$5,0*
20,1,$1+$1,$4,$5,$6,$7,0*
20,1,$1+$1,$6,$7,$8,$9,0*
20,1,$1+$1,$8,$9,$2,$3,0*%
G04 Aperture macros list end*
%TA.AperFunction,ComponentPad*%
%ADD10R,2.600000X2.600000*%
%TD*%
%TA.AperFunction,ComponentPad*%
%ADD11C,2.600000*%
%TD*%
%TA.AperFunction,ComponentPad*%
%ADD12C,1.600000*%
%TD*%
%TA.AperFunction,ComponentPad*%
%ADD13RoundRect,0.250000X-1.050000X-1.050000X1.050000X-1.050000X1.050000X1.050000X-1.050000X1.050000X0*%
%TD*%
%TA.AperFunction,ComponentPad*%
%ADD14C,1.700000*%
%TD*%
%TA.AperFunction,ComponentPad*%
%ADD15R,1.700000X1.700000*%
%TD*%
%TA.AperFunction,ComponentPad*%
%ADD16C,2.400000*%
%TD*%
%TA.AperFunction,SMDPad,CuDef*%
%ADD17RoundRect,0.250000X0.250000X-0.275000X0.250000X0.275000X-0.250000X0.275000X-0.250000X-0.275000X0*%
%TD*%
%TA.AperFunction,SMDPad,CuDef*%
%ADD18RoundRect,0.250000X0.275000X-0.850000X0.275000X0.850000X-0.275000X0.850000X-0.275000X-0.850000X0*%
%TD*%
%TA.AperFunction,SMDPad,CuDef*%
%ADD19RoundRect,0.250000X0.262500X0.450000X-0.262500X0.450000X-0.262500X-0.450000X0.262500X-0.450000X0*%
%TD*%
%TA.AperFunction,ComponentPad*%
%ADD20R,1.800000X1.800000*%
%TD*%
%TA.AperFunction,ComponentPad*%
%ADD21C,1.800000*%
%TD*%
%TA.AperFunction,ComponentPad*%
%ADD22R,1.905000X2.000000*%
%TD*%
%TA.AperFunction,ComponentPad*%
%ADD23O,1.905000X2.000000*%
%TD*%
%TA.AperFunction,SMDPad,CuDef*%
%ADD24RoundRect,0.250000X0.450000X-0.262500X0.450000X0.262500X-0.450000X0.262500X-0.450000X-0.262500X0*%
%TD*%
%TA.AperFunction,ComponentPad*%
%ADD25RoundRect,0.250000X0.550000X0.550000X-0.550000X0.550000X-0.550000X-0.550000X0.550000X-0.550000X0*%
%TD*%
%TA.AperFunction,ComponentPad*%
%ADD26RoundRect,0.250000X-0.550000X0.550000X-0.550000X-0.550000X0.550000X-0.550000X0.550000X0.550000X0*%
%TD*%
%TA.AperFunction,ComponentPad*%
%ADD27RoundRect,0.250000X0.550000X-0.550000X0.550000X0.550000X-0.550000X0.550000X-0.550000X-0.550000X0*%
%TD*%
%TA.AperFunction,SMDPad,CuDef*%
%ADD28RoundRect,0.150000X0.587500X0.150000X-0.587500X0.150000X-0.587500X-0.150000X0.587500X-0.150000X0*%
%TD*%
%TA.AperFunction,SMDPad,CuDef*%
%ADD29RoundRect,0.250000X-0.262500X-0.450000X0.262500X-0.450000X0.262500X0.450000X-0.262500X0.450000X0*%
%TD*%
%TA.AperFunction,ComponentPad*%
%ADD30C,4.000000*%
%TD*%
%TA.AperFunction,ComponentPad*%
%ADD31R,1.600000X1.600000*%
%TD*%
%TA.AperFunction,ComponentPad*%
%ADD32RoundRect,0.250000X0.550000X-0.950000X0.550000X0.950000X-0.550000X0.950000X-0.550000X-0.950000X0*%
%TD*%
%TA.AperFunction,ComponentPad*%
%ADD33O,1.600000X2.400000*%
%TD*%
%TA.AperFunction,ComponentPad*%
%ADD34RoundRect,0.250000X-0.550000X-0.550000X0.550000X-0.550000X0.550000X0.550000X-0.550000X0.550000X0*%
%TD*%
%TA.AperFunction,SMDPad,CuDef*%
%ADD35RoundRect,0.150000X0.150000X-0.587500X0.150000X0.587500X-0.150000X0.587500X-0.150000X-0.587500X0*%
%TD*%
%TA.AperFunction,SMDPad,CuDef*%
%ADD36RoundRect,0.250000X-0.450000X0.262500X-0.450000X-0.262500X0.450000X-0.262500X0.450000X0.262500X0*%
%TD*%
%TA.AperFunction,SMDPad,CuDef*%
%ADD37RoundRect,0.150000X0.150000X-0.825000X0.150000X0.825000X-0.150000X0.825000X-0.150000X-0.825000X0*%
%TD*%
%TA.AperFunction,SMDPad,CuDef*%
%ADD38RoundRect,0.150000X-0.825000X-0.150000X0.825000X-0.150000X0.825000X0.150000X-0.825000X0.150000X0*%
%TD*%
%TA.AperFunction,SMDPad,CuDef*%
%ADD39RoundRect,0.150000X-0.150000X0.587500X-0.150000X-0.587500X0.150000X-0.587500X0.150000X0.587500X0*%
%TD*%
%TA.AperFunction,ViaPad*%
%ADD40C,1.600000*%
%TD*%
%TA.AperFunction,ViaPad*%
%ADD41C,0.600000*%
%TD*%
%TA.AperFunction,Conductor*%
%ADD42C,2.500000*%
%TD*%
%TA.AperFunction,Conductor*%
%ADD43C,0.750000*%
%TD*%
%TA.AperFunction,Conductor*%
%ADD44C,0.500000*%
%TD*%
%TA.AperFunction,Conductor*%
%ADD45C,2.000000*%
%TD*%
%TA.AperFunction,Conductor*%
%ADD46C,1.000000*%
%TD*%
%TA.AperFunction,Profile*%
%ADD47C,0.500000*%
%TD*%
G04 APERTURE END LIST*
D10*
%TO.P,J5,1*%
%TO.N,+12V*%
X129771385Y-71106444D03*
D11*
%TO.P,J5,2*%
%TO.N,GND*%
X129771385Y-65106444D03*
%TO.P,J5,3*%
%TO.N,N/C*%
X125071385Y-68106444D03*
%TD*%
D12*
%TO.P,C11,2*%
%TO.N,GND*%
X134205000Y-75710000D03*
%TO.P,C11,1*%
%TO.N,Net-(JP1-A)*%
X131705000Y-75710000D03*
%TD*%
%TO.P,C10,2*%
%TO.N,GND*%
X137305000Y-75710000D03*
%TO.P,C10,1*%
%TO.N,+12V*%
X139805000Y-75710000D03*
%TD*%
D13*
%TO.P,J1,1,1_1*%
%TO.N,GND*%
X138586385Y-65106444D03*
D11*
%TO.P,J1,2,2_2*%
%TO.N,+12V*%
X143586385Y-65106444D03*
%TD*%
D14*
%TO.P,JP4,2,B_2*%
%TO.N,12V_StepDown*%
X148660000Y-67560000D03*
D15*
%TO.P,JP4,1,A_1*%
%TO.N,+12V*%
X148660000Y-65020000D03*
%TD*%
D16*
%TO.P,J4,1*%
%TO.N,Net-(J3-In)*%
X185540000Y-141300000D03*
%TO.P,J4,2*%
%TO.N,GND*%
X188080000Y-138760000D03*
%TO.P,J4,3*%
X183000000Y-138760000D03*
%TO.P,J4,4*%
X183000000Y-143840000D03*
%TO.P,J4,5*%
X188080000Y-143840000D03*
%TD*%
D17*
%TO.P,J3,1,In_1*%
%TO.N,Net-(J3-In)*%
X185545000Y-136105000D03*
D18*
%TO.P,J3,2,Ext_2*%
%TO.N,GND*%
X184070000Y-134580000D03*
X187020000Y-134580000D03*
%TD*%
D15*
%TO.P,U3,6,GND_6*%
%TO.N,GND*%
X190552349Y-99130000D03*
D14*
%TO.P,U3,5,RxD_5*%
%TO.N,UART2_TX*%
X188012349Y-99130000D03*
%TO.P,U3,4,TxD_4*%
%TO.N,UART2_RX*%
X185472349Y-99130000D03*
%TO.P,U3,3,PWRKEY_3*%
%TO.N,unconnected-(U3-PWRKEY-Pad3)*%
X182932349Y-99130000D03*
%TO.P,U3,2,VCC_2*%
%TO.N,5V_MODEM*%
X180392349Y-99130000D03*
%TO.P,U3,1,GND_1*%
%TO.N,GND*%
X177852349Y-99130000D03*
%TO.P,U3,0,SLEEP_0*%
%TO.N,SLEEP_MODEM*%
X175312349Y-99130000D03*
%TD*%
D19*
%TO.P,R16,1*%
%TO.N,Net-(U5-PA5)*%
X124272500Y-79160000D03*
%TO.P,R16,2*%
%TO.N,Net-(D3-K2)*%
X122447500Y-79160000D03*
%TD*%
D12*
%TO.P,C9,1*%
%TO.N,3V3_MEM*%
X154940000Y-126885000D03*
%TO.P,C9,2*%
%TO.N,GND*%
X154940000Y-129385000D03*
%TD*%
D20*
%TO.P,D2,1,K1_1*%
%TO.N,Net-(D2-K1)*%
X118360000Y-78260000D03*
D21*
%TO.P,D2,2,A_2*%
%TO.N,+5V*%
X118360000Y-80800000D03*
%TO.P,D2,3,K2_3*%
%TO.N,Net-(D2-K2)*%
X118360000Y-83340000D03*
%TD*%
D22*
%TO.P,U7,1,VI_1*%
%TO.N,+12V*%
X138245000Y-78860000D03*
D23*
%TO.P,U7,2,GND_2*%
%TO.N,GND*%
X135705000Y-78860000D03*
%TO.P,U7,3,VO_3*%
%TO.N,Net-(JP1-A)*%
X133165000Y-78860000D03*
%TD*%
D24*
%TO.P,R2,1*%
%TO.N,UART1_RX*%
X149260000Y-127160000D03*
%TO.P,R2,2*%
%TO.N,GND*%
X149260000Y-125335000D03*
%TD*%
D25*
%TO.P,C7,1*%
%TO.N,5V_MODEM*%
X181560000Y-107760000D03*
D12*
%TO.P,C7,2*%
%TO.N,GND*%
X176560000Y-107760000D03*
%TD*%
D25*
%TO.P,C12,1*%
%TO.N,+12V*%
X148360000Y-75360000D03*
D12*
%TO.P,C12,2*%
%TO.N,GND*%
X143360000Y-75360000D03*
%TD*%
D15*
%TO.P,JP1,1,A_1*%
%TO.N,Net-(JP1-A)*%
X133160000Y-84360000D03*
D14*
%TO.P,JP1,2,B_2*%
%TO.N,+5V*%
X133160000Y-86900000D03*
%TD*%
D26*
%TO.P,C2,1*%
%TO.N,Net-(U1-C2+)*%
X134165000Y-125319888D03*
D12*
%TO.P,C2,2*%
%TO.N,Net-(U1-C2-)*%
X134165000Y-127319888D03*
%TD*%
D19*
%TO.P,R4,1*%
%TO.N,+12V*%
X155872500Y-73960000D03*
%TO.P,R4,2*%
%TO.N,Net-(Q2-G)*%
X154047500Y-73960000D03*
%TD*%
D20*
%TO.P,D3,1,K1_1*%
%TO.N,Net-(D3-K1)*%
X118360000Y-70820000D03*
D21*
%TO.P,D3,2,A_2*%
%TO.N,+5V*%
X118360000Y-73360000D03*
%TO.P,D3,3,K2_3*%
%TO.N,Net-(D3-K2)*%
X118360000Y-75900000D03*
%TD*%
D27*
%TO.P,C4,1*%
%TO.N,GND*%
X134275000Y-132825000D03*
D12*
%TO.P,C4,2*%
%TO.N,Net-(U1-VS-)*%
X134275000Y-130825000D03*
%TD*%
D28*
%TO.P,Q3,1,G_1*%
%TO.N,Net-(Q3-G)*%
X171216250Y-123472500D03*
%TO.P,Q3,2,S_2*%
%TO.N,3V3_b*%
X171216250Y-121572500D03*
%TO.P,Q3,3,D_3*%
%TO.N,3V3_MEM*%
X169341250Y-122522500D03*
%TD*%
D29*
%TO.P,R18,1*%
%TO.N,3V3_MEM*%
X155177500Y-120685000D03*
%TO.P,R18,2*%
%TO.N,SDA I2C1*%
X157002500Y-120685000D03*
%TD*%
D30*
%TO.P,J2,0,0_0*%
%TO.N,GND*%
X127780000Y-140330000D03*
X152780000Y-140330000D03*
D31*
%TO.P,J2,1,1_1*%
%TO.N,unconnected-(J2-Pad1)*%
X145820000Y-137490000D03*
D12*
%TO.P,J2,2,2_2*%
%TO.N,Net-(U1-T1OUT)*%
X143050000Y-137490000D03*
%TO.P,J2,3,3_3*%
%TO.N,Net-(U1-R1IN)*%
X140280000Y-137490000D03*
%TO.P,J2,4,4_4*%
%TO.N,unconnected-(J2-Pad4)*%
X137510000Y-137490000D03*
%TO.P,J2,5,5_5*%
%TO.N,GND*%
X134740000Y-137490000D03*
%TO.P,J2,6,6_6*%
%TO.N,unconnected-(J2-Pad6)*%
X144435000Y-140330000D03*
%TO.P,J2,7,7_7*%
%TO.N,unconnected-(J2-Pad7)*%
X141665000Y-140330000D03*
%TO.P,J2,8,8_8*%
%TO.N,unconnected-(J2-Pad8)*%
X138895000Y-140330000D03*
%TO.P,J2,9,9_9*%
%TO.N,unconnected-(J2-Pad9)*%
X136125000Y-140330000D03*
%TD*%
D32*
%TO.P,U5,1,PB12_1*%
%TO.N,unconnected-(U5-PB12-Pad1)*%
X118040000Y-112460000D03*
D33*
%TO.P,U5,2,PB13_2*%
%TO.N,unconnected-(U5-PB13-Pad2)*%
X120580000Y-112460000D03*
%TO.P,U5,3,PB14_3*%
%TO.N,unconnected-(U5-PB14-Pad3)*%
X123120000Y-112460000D03*
%TO.P,U5,4,PB15_4*%
%TO.N,Net-(JP3-B)*%
X125660000Y-112460000D03*
%TO.P,U5,5,PA8_5*%
%TO.N,unconnected-(U5-PA8-Pad5)*%
X128200000Y-112460000D03*
%TO.P,U5,6,PA9_6*%
%TO.N,UART1_TX*%
X130740000Y-112460000D03*
%TO.P,U5,7,PA10_7*%
%TO.N,UART1_RX*%
X133280000Y-112460000D03*
%TO.P,U5,8,PA11_8*%
%TO.N,unconnected-(U5-PA11-Pad8)*%
X135820000Y-112460000D03*
%TO.P,U5,9,PA12_9*%
%TO.N,unconnected-(U5-PA12-Pad9)*%
X138360000Y-112460000D03*
%TO.P,U5,10,PA15_10*%
%TO.N,unconnected-(U5-PA15-Pad10)*%
X140900000Y-112460000D03*
%TO.P,U5,11,PB3_11*%
%TO.N,unconnected-(U5-PB3-Pad11)*%
X143440000Y-112460000D03*
%TO.P,U5,12,PB4_12*%
%TO.N,unconnected-(U5-PB4-Pad12)*%
X145980000Y-112460000D03*
%TO.P,U5,13,PB5_13*%
%TO.N,unconnected-(U5-PB5-Pad13)*%
X148520000Y-112460000D03*
%TO.P,U5,14,PB6_14*%
%TO.N,SCL I2C1*%
X151060000Y-112460000D03*
%TO.P,U5,15,PB7_15*%
%TO.N,SDA I2C1*%
X153600000Y-112460000D03*
%TO.P,U5,16,PB8_16*%
%TO.N,ON_MEM*%
X156140000Y-112460000D03*
%TO.P,U5,17,PB9_17*%
%TO.N,SLEEP_MODEM*%
X158680000Y-112460000D03*
%TO.P,U5,18,5V_18*%
%TO.N,+5V_b*%
X161220000Y-112460000D03*
%TO.P,U5,19,GND_19*%
%TO.N,GND*%
X163760000Y-112460000D03*
%TO.P,U5,20,3V3_20*%
%TO.N,3V3_b*%
X166300000Y-112460000D03*
%TO.P,U5,21,VBAT_21*%
%TO.N,unconnected-(U5-VBAT-Pad21)*%
X166300000Y-97220000D03*
%TO.P,U5,22,PC13/LED_22*%
%TO.N,unconnected-(U5-PC13{slash}LED-Pad22)*%
X163760000Y-97220000D03*
%TO.P,U5,23,PC14_23*%
%TO.N,unconnected-(U5-PC14-Pad23)*%
X161220000Y-97220000D03*
%TO.P,U5,24,PC15_24*%
%TO.N,unconnected-(U5-PC15-Pad24)*%
X158680000Y-97220000D03*
%TO.P,U5,25,~{NRST}_25*%
%TO.N,unconnected-(U5-~{NRST}-Pad25)*%
X156140000Y-97220000D03*
%TO.P,U5,26,PA0/KEY_26*%
%TO.N,Net-(U5-PA0{slash}KEY)*%
X153600000Y-97220000D03*
%TO.P,U5,27,PA1_27*%
%TO.N,ON_MODEM*%
X151060000Y-97220000D03*
%TO.P,U5,28,PA2_28*%
%TO.N,UART2_TX*%
X148520000Y-97220000D03*
%TO.P,U5,29,PA3_29*%
%TO.N,UART2_RX*%
X145980000Y-97220000D03*
%TO.P,U5,30,PA4_30*%
%TO.N,Net-(U5-PA4)*%
X143440000Y-97220000D03*
%TO.P,U5,31,PA5_31*%
%TO.N,Net-(U5-PA5)*%
X140900000Y-97220000D03*
%TO.P,U5,32,PA6_32*%
%TO.N,Net-(U5-PA6)*%
X138360000Y-97220000D03*
%TO.P,U5,33,PA7_33*%
%TO.N,Net-(U5-PA7)*%
X135820000Y-97220000D03*
%TO.P,U5,34,PB0_34*%
%TO.N,unconnected-(U5-PB0-Pad34)*%
X133280000Y-97220000D03*
%TO.P,U5,35,PB1_35*%
%TO.N,unconnected-(U5-PB1-Pad35)*%
X130740000Y-97220000D03*
%TO.P,U5,36,PB2/PullDown_36*%
%TO.N,unconnected-(U5-PB2{slash}PullDown-Pad36)*%
X128200000Y-97220000D03*
%TO.P,U5,37,PB10_37*%
%TO.N,unconnected-(U5-PB10-Pad37)*%
X125660000Y-97220000D03*
%TO.P,U5,38,3V3_38*%
%TO.N,3V3*%
X123120000Y-97220000D03*
%TO.P,U5,39,GND_39*%
%TO.N,GND*%
X120580000Y-97220000D03*
%TO.P,U5,40,5V_40*%
%TO.N,+5V*%
X118040000Y-97220000D03*
%TD*%
D12*
%TO.P,C5,1*%
%TO.N,+5V_b*%
X146180000Y-122040000D03*
%TO.P,C5,2*%
%TO.N,GND*%
X146180000Y-124540000D03*
%TD*%
D34*
%TO.P,C3,1*%
%TO.N,Net-(U1-VS+)*%
X139874888Y-119030000D03*
D12*
%TO.P,C3,2*%
%TO.N,+5V_b*%
X141874888Y-119030000D03*
%TD*%
D19*
%TO.P,R12,1*%
%TO.N,Net-(Q4-G)*%
X176210000Y-113672500D03*
%TO.P,R12,2*%
%TO.N,ON_MEM*%
X174385000Y-113672500D03*
%TD*%
D35*
%TO.P,Q2,1,G_1*%
%TO.N,Net-(Q2-G)*%
X153960000Y-71960000D03*
%TO.P,Q2,2,S_2*%
%TO.N,+12V*%
X155860000Y-71960000D03*
%TO.P,Q2,3,D_3*%
%TO.N,12V_StepDown*%
X154910000Y-70085000D03*
%TD*%
D29*
%TO.P,R7,1*%
%TO.N,Net-(Q1-G)*%
X160110000Y-81985000D03*
%TO.P,R7,2*%
%TO.N,ON_MODEM*%
X161935000Y-81985000D03*
%TD*%
D12*
%TO.P,C6,1*%
%TO.N,5V_MODEM*%
X180307349Y-101860000D03*
%TO.P,C6,2*%
%TO.N,GND*%
X177807349Y-101860000D03*
%TD*%
D19*
%TO.P,R15,1*%
%TO.N,Net-(U5-PA6)*%
X124260000Y-81260000D03*
%TO.P,R15,2*%
%TO.N,Net-(D2-K1)*%
X122435000Y-81260000D03*
%TD*%
D26*
%TO.P,C1,1*%
%TO.N,Net-(U1-C1+)*%
X134175000Y-119795000D03*
D12*
%TO.P,C1,2*%
%TO.N,Net-(U1-C1-)*%
X134175000Y-121795000D03*
%TD*%
D15*
%TO.P,JP5,1,A_1*%
%TO.N,3V3_b*%
X166341250Y-120035000D03*
D14*
%TO.P,JP5,2,B_2*%
%TO.N,3V3_MEM*%
X166341250Y-122575000D03*
%TD*%
D29*
%TO.P,R6,1*%
%TO.N,Net-(Q1-G)*%
X160110000Y-79985000D03*
%TO.P,R6,2*%
%TO.N,GND*%
X161935000Y-79985000D03*
%TD*%
D34*
%TO.P,C13,1*%
%TO.N,+5V*%
X118060000Y-91460000D03*
D12*
%TO.P,C13,2*%
%TO.N,GND*%
X123060000Y-91460000D03*
%TD*%
D19*
%TO.P,R14,1*%
%TO.N,Net-(U5-PA7)*%
X124260000Y-83360000D03*
%TO.P,R14,2*%
%TO.N,Net-(D2-K2)*%
X122435000Y-83360000D03*
%TD*%
D36*
%TO.P,R8,1*%
%TO.N,3V3*%
X125560000Y-107747500D03*
%TO.P,R8,2*%
%TO.N,Net-(JP3-B)*%
X125560000Y-109572500D03*
%TD*%
D15*
%TO.P,JP2,1,A_1*%
%TO.N,Net-(JP2-A)*%
X183635000Y-87960000D03*
D14*
%TO.P,JP2,2,B_2*%
%TO.N,5V_MODEM*%
X181095000Y-87960000D03*
%TD*%
D19*
%TO.P,R1,1*%
%TO.N,UART1_RX*%
X147372500Y-127160000D03*
%TO.P,R1,2*%
%TO.N,Net-(U1-R1OUT)*%
X145547500Y-127160000D03*
%TD*%
D29*
%TO.P,R13,1*%
%TO.N,3V3_MEM*%
X155177500Y-122685000D03*
%TO.P,R13,2*%
%TO.N,SCL I2C1*%
X157002500Y-122685000D03*
%TD*%
D14*
%TO.P,U6,1,VIN_1*%
%TO.N,12V_StepDown*%
X154935000Y-67635000D03*
%TO.P,U6,2,GND_2*%
%TO.N,GND*%
X154860000Y-82660000D03*
%TO.P,U6,3,GND_3*%
X194910000Y-82660000D03*
%TO.P,U6,4,VOUT_4*%
%TO.N,Net-(JP2-A)*%
X194910000Y-67585000D03*
%TD*%
D12*
%TO.P,C8,1*%
%TO.N,+5V*%
X118060000Y-100460000D03*
%TO.P,C8,2*%
%TO.N,GND*%
X120560000Y-100460000D03*
%TD*%
D37*
%TO.P,U2,1,A0_1*%
%TO.N,GND*%
X157285000Y-130660000D03*
%TO.P,U2,2,A1_2*%
X158555000Y-130660000D03*
%TO.P,U2,3,A2_3*%
X159825000Y-130660000D03*
%TO.P,U2,4,GND_4*%
X161095000Y-130660000D03*
%TO.P,U2,5,SDA_5*%
%TO.N,SDA I2C1*%
X161095000Y-125710000D03*
%TO.P,U2,6,SCL_6*%
%TO.N,SCL I2C1*%
X159825000Y-125710000D03*
%TO.P,U2,7,WP_7*%
%TO.N,GND*%
X158555000Y-125710000D03*
%TO.P,U2,8,VCC_8*%
%TO.N,3V3_MEM*%
X157285000Y-125710000D03*
%TD*%
D24*
%TO.P,R10,1*%
%TO.N,Net-(Q3-G)*%
X175341250Y-123435000D03*
%TO.P,R10,2*%
%TO.N,Net-(Q4-D)*%
X175341250Y-121610000D03*
%TD*%
D19*
%TO.P,R11,1*%
%TO.N,Net-(Q4-G)*%
X176260000Y-115672500D03*
%TO.P,R11,2*%
%TO.N,GND*%
X174435000Y-115672500D03*
%TD*%
D35*
%TO.P,Q1,1,G_1*%
%TO.N,Net-(Q1-G)*%
X160160000Y-77860000D03*
%TO.P,Q1,2,S_2*%
%TO.N,GND*%
X162060000Y-77860000D03*
%TO.P,Q1,3,D_3*%
%TO.N,Net-(Q1-D)*%
X161110000Y-75985000D03*
%TD*%
D36*
%TO.P,R3,1*%
%TO.N,Net-(U5-PA0{slash}KEY)*%
X153660000Y-100147500D03*
%TO.P,R3,2*%
%TO.N,3V3*%
X153660000Y-101972500D03*
%TD*%
D38*
%TO.P,U1,1,C1+_1*%
%TO.N,Net-(U1-C1+)*%
X138410000Y-122580000D03*
%TO.P,U1,2,VS+_2*%
%TO.N,Net-(U1-VS+)*%
X138410000Y-123850000D03*
%TO.P,U1,3,C1-_3*%
%TO.N,Net-(U1-C1-)*%
X138410000Y-125120000D03*
%TO.P,U1,4,C2+_4*%
%TO.N,Net-(U1-C2+)*%
X138410000Y-126390000D03*
%TO.P,U1,5,C2-_5*%
%TO.N,Net-(U1-C2-)*%
X138410000Y-127660000D03*
%TO.P,U1,6,VS-_6*%
%TO.N,Net-(U1-VS-)*%
X138410000Y-128930000D03*
%TO.P,U1,7,T2OUT_7*%
%TO.N,unconnected-(U1-T2OUT-Pad7)*%
X138410000Y-130200000D03*
%TO.P,U1,8,R2IN_8*%
%TO.N,unconnected-(U1-R2IN-Pad8)*%
X138410000Y-131470000D03*
%TO.P,U1,9,R2OUT_9*%
%TO.N,unconnected-(U1-R2OUT-Pad9)*%
X143360000Y-131470000D03*
%TO.P,U1,10,T2IN_10*%
%TO.N,unconnected-(U1-T2IN-Pad10)*%
X143360000Y-130200000D03*
%TO.P,U1,11,T1IN_11*%
%TO.N,UART1_TX*%
X143360000Y-128930000D03*
%TO.P,U1,12,R1OUT_12*%
%TO.N,Net-(U1-R1OUT)*%
X143360000Y-127660000D03*
%TO.P,U1,13,R1IN_13*%
%TO.N,Net-(U1-R1IN)*%
X143360000Y-126390000D03*
%TO.P,U1,14,T1OUT_14*%
%TO.N,Net-(U1-T1OUT)*%
X143360000Y-125120000D03*
%TO.P,U1,15,GND_15*%
%TO.N,GND*%
X143360000Y-123850000D03*
%TO.P,U1,16,VCC_16*%
%TO.N,+5V_b*%
X143360000Y-122580000D03*
%TD*%
D15*
%TO.P,JP3,1,A_1*%
%TO.N,GND*%
X128235000Y-116160000D03*
D14*
%TO.P,JP3,2,B_2*%
%TO.N,Net-(JP3-B)*%
X125695000Y-116160000D03*
%TD*%
D36*
%TO.P,R9,1*%
%TO.N,3V3_b*%
X173341250Y-121610000D03*
%TO.P,R9,2*%
%TO.N,Net-(Q3-G)*%
X173341250Y-123435000D03*
%TD*%
D29*
%TO.P,R5,1*%
%TO.N,Net-(Q2-G)*%
X154047500Y-75960000D03*
%TO.P,R5,2*%
%TO.N,Net-(Q1-D)*%
X155872500Y-75960000D03*
%TD*%
D19*
%TO.P,R17,1*%
%TO.N,Net-(U5-PA4)*%
X124272500Y-77060000D03*
%TO.P,R17,2*%
%TO.N,Net-(D3-K1)*%
X122447500Y-77060000D03*
%TD*%
D39*
%TO.P,Q4,1,G_1*%
%TO.N,Net-(Q4-G)*%
X176297500Y-117697500D03*
%TO.P,Q4,2,S_2*%
%TO.N,GND*%
X174397500Y-117697500D03*
%TO.P,Q4,3,D_3*%
%TO.N,Net-(Q4-D)*%
X175347500Y-119572500D03*
%TD*%
D40*
%TO.N,GND*%
X163560000Y-79960000D03*
X185330000Y-130240000D03*
X190260000Y-134270000D03*
X190630000Y-140710000D03*
X181750000Y-131530000D03*
X180320000Y-137650000D03*
X190660000Y-137660000D03*
X180430000Y-143840000D03*
X189060000Y-131530000D03*
X190530000Y-143930000D03*
X180430000Y-134520000D03*
X180410000Y-140790000D03*
X172772500Y-115672500D03*
D41*
%TO.N,Net-(U1-T1OUT)*%
X140460000Y-133560000D03*
%TO.N,UART1_TX*%
X138960000Y-115760000D03*
%TO.N,SCL I2C1*%
X152360000Y-119060000D03*
X158260000Y-122660000D03*
%TO.N,UART2_TX*%
X163760000Y-93160000D03*
%TO.N,UART2_RX*%
X158960000Y-93260000D03*
%TD*%
%TO.N,+12V*%
D42*
X140386385Y-71106444D02*
X143586385Y-67906444D01*
X129771385Y-71106444D02*
X140386385Y-71106444D01*
X148360000Y-72680059D02*
X143686385Y-68006444D01*
X148360000Y-75360000D02*
X148360000Y-72680059D01*
%TO.N,SLEEP_MODEM*%
D43*
X158680000Y-110440000D02*
X158680000Y-112460000D01*
X162760000Y-106360000D02*
X158680000Y-110440000D01*
X172560000Y-106360000D02*
X162760000Y-106360000D01*
X175312349Y-103607651D02*
X172560000Y-106360000D01*
X175312349Y-99130000D02*
X175312349Y-103607651D01*
%TO.N,GND*%
D44*
X163535000Y-79985000D02*
X163560000Y-79960000D01*
X161935000Y-79985000D02*
X163535000Y-79985000D01*
%TO.N,UART2_TX*%
D43*
X188012349Y-94212349D02*
X188012349Y-99130000D01*
X186060000Y-92260000D02*
X188012349Y-94212349D01*
X163760000Y-93160000D02*
X164660000Y-92260000D01*
X164660000Y-92260000D02*
X186060000Y-92260000D01*
%TO.N,UART2_RX*%
X184760000Y-93560000D02*
X166260000Y-93560000D01*
X166260000Y-93560000D02*
X165060000Y-94760000D01*
X185472349Y-94272349D02*
X184760000Y-93560000D01*
X185472349Y-99130000D02*
X185472349Y-94272349D01*
%TO.N,Net-(JP2-A)*%
D45*
X183635000Y-78860000D02*
X183635000Y-87960000D01*
X194910000Y-67585000D02*
X183635000Y-78860000D01*
%TO.N,ON_MODEM*%
D43*
X153160000Y-90660000D02*
X151060000Y-92760000D01*
X155060000Y-90660000D02*
X153160000Y-90660000D01*
X161935000Y-83785000D02*
X155060000Y-90660000D01*
X151060000Y-92760000D02*
X151060000Y-94260000D01*
X161935000Y-81985000D02*
X161935000Y-83785000D01*
%TO.N,Net-(Q1-D)*%
X161085000Y-75960000D02*
X161110000Y-75985000D01*
X155872500Y-75960000D02*
X161085000Y-75960000D01*
%TO.N,+12V*%
X156360000Y-70460000D02*
X157760000Y-70460000D01*
X155860000Y-71960000D02*
X155860000Y-70960000D01*
X155860000Y-70960000D02*
X156360000Y-70460000D01*
D45*
X157760000Y-70460000D02*
X157760000Y-66760000D01*
X156020000Y-65020000D02*
X148660000Y-65020000D01*
X157760000Y-66760000D02*
X156020000Y-65020000D01*
%TO.N,12V_StepDown*%
X154910000Y-67660000D02*
X154935000Y-67635000D01*
D46*
X154910000Y-70085000D02*
X154910000Y-67660000D01*
D45*
X154860000Y-67560000D02*
X154935000Y-67635000D01*
X148660000Y-67560000D02*
X154860000Y-67560000D01*
%TO.N,Net-(U5-PA4)*%
D43*
X137860000Y-90960000D02*
X143440000Y-96540000D01*
X129160000Y-88960000D02*
X131160000Y-90960000D01*
X131160000Y-90960000D02*
X137860000Y-90960000D01*
X129160000Y-80960000D02*
X129160000Y-88960000D01*
X143440000Y-96540000D02*
X143440000Y-97220000D01*
X125260000Y-77060000D02*
X129160000Y-80960000D01*
X124272500Y-77060000D02*
X125260000Y-77060000D01*
%TO.N,Net-(U5-PA7)*%
X135820000Y-95020000D02*
X135820000Y-97220000D01*
X129210000Y-93810000D02*
X134610000Y-93810000D01*
X134610000Y-93810000D02*
X135820000Y-95020000D01*
X125860000Y-90460000D02*
X129210000Y-93810000D01*
X125860000Y-84160000D02*
X125860000Y-90460000D01*
X125060000Y-83360000D02*
X125860000Y-84160000D01*
X124260000Y-83360000D02*
X125060000Y-83360000D01*
%TO.N,Net-(U5-PA6)*%
X135760000Y-92860000D02*
X138360000Y-95460000D01*
X129760000Y-92860000D02*
X135760000Y-92860000D01*
X125160000Y-81260000D02*
X126960000Y-83060000D01*
X126960000Y-90060000D02*
X129760000Y-92860000D01*
X124260000Y-81260000D02*
X125160000Y-81260000D01*
X126960000Y-83060000D02*
X126960000Y-90060000D01*
X138360000Y-95460000D02*
X138360000Y-97220000D01*
%TO.N,Net-(U5-PA5)*%
X137010000Y-91910000D02*
X140900000Y-95800000D01*
X128060000Y-89460000D02*
X130510000Y-91910000D01*
X128060000Y-81960000D02*
X128060000Y-89460000D01*
X140900000Y-95800000D02*
X140900000Y-97220000D01*
X125260000Y-79160000D02*
X128060000Y-81960000D01*
X130510000Y-91910000D02*
X137010000Y-91910000D01*
X124272500Y-79160000D02*
X125260000Y-79160000D01*
%TO.N,+12V*%
D42*
X143672829Y-65020000D02*
X143586385Y-65106444D01*
D45*
X148660000Y-65020000D02*
X143672829Y-65020000D01*
D42*
X143586385Y-67906444D02*
X143586385Y-65106444D01*
%TO.N,GND*%
D45*
X186909628Y-132479000D02*
X188080000Y-133649372D01*
X188080000Y-133649372D02*
X188080000Y-138760000D01*
X183020000Y-133639372D02*
X184180372Y-132479000D01*
X184180372Y-132479000D02*
X186909628Y-132479000D01*
X183000000Y-138760000D02*
X183000000Y-133659372D01*
%TO.N,Net-(J3-In)*%
X185540000Y-141300000D02*
X185540000Y-136576000D01*
X185540000Y-136576000D02*
X185545000Y-136571000D01*
%TO.N,SCL I2C1*%
D43*
X151060000Y-114260000D02*
X151060000Y-112460000D01*
X152360000Y-115560000D02*
X151060000Y-114260000D01*
X152360000Y-119060000D02*
X152360000Y-115560000D01*
%TO.N,Net-(D3-K2)*%
X118400000Y-75860000D02*
X118360000Y-75900000D01*
D44*
X118600000Y-75900000D02*
X118360000Y-75900000D01*
D43*
X121860000Y-79160000D02*
X120460000Y-77760000D01*
X119733274Y-75900000D02*
X118360000Y-75900000D01*
X120460000Y-76626726D02*
X119733274Y-75900000D01*
X120460000Y-77760000D02*
X120460000Y-76626726D01*
X122447500Y-79160000D02*
X121860000Y-79160000D01*
%TO.N,3V3_MEM*%
X155177500Y-120685000D02*
X155177500Y-122685000D01*
X169341250Y-122522500D02*
X166393750Y-122522500D01*
X155177500Y-126647500D02*
X154940000Y-126885000D01*
X157285000Y-126580000D02*
X156980000Y-126885000D01*
X166393750Y-122522500D02*
X166341250Y-122575000D01*
X157285000Y-125710000D02*
X157285000Y-126580000D01*
X155177500Y-122685000D02*
X155177500Y-126647500D01*
X156980000Y-126885000D02*
X154940000Y-126885000D01*
%TO.N,GND*%
X172772500Y-115672500D02*
X174435000Y-115672500D01*
X158555000Y-127860000D02*
X157030000Y-129385000D01*
X157285000Y-129640000D02*
X157285000Y-130660000D01*
D45*
X154940000Y-138170000D02*
X152780000Y-140330000D01*
X154940000Y-129385000D02*
X154940000Y-138170000D01*
D43*
X149260000Y-125335000D02*
X146975000Y-125335000D01*
D44*
X143360000Y-123850000D02*
X144514193Y-123850000D01*
D43*
X174397500Y-115710000D02*
X174435000Y-115672500D01*
D44*
X162060000Y-79860000D02*
X161935000Y-79985000D01*
X162060000Y-77860000D02*
X162060000Y-79860000D01*
D43*
X174397500Y-117697500D02*
X174397500Y-115710000D01*
X172772500Y-115672500D02*
X172885000Y-115560000D01*
X157030000Y-129385000D02*
X157285000Y-129640000D01*
X161095000Y-130660000D02*
X159825000Y-130660000D01*
X172885000Y-115560000D02*
X172960000Y-115560000D01*
X158555000Y-125710000D02*
X158555000Y-127860000D01*
X158555000Y-130660000D02*
X157285000Y-130660000D01*
X159825000Y-130660000D02*
X158555000Y-130660000D01*
X154940000Y-129385000D02*
X157030000Y-129385000D01*
X172960000Y-115560000D02*
X173060000Y-115660000D01*
X146975000Y-125335000D02*
X146180000Y-124540000D01*
D44*
X144514193Y-123850000D02*
G75*
G02*
X146180002Y-124539998I7J-2355800D01*
G01*
%TO.N,+12V*%
X155872500Y-73960000D02*
X155872500Y-71972500D01*
%TO.N,Net-(D2-K1)*%
D43*
X118360000Y-78260000D02*
X118460000Y-78260000D01*
X121460000Y-81260000D02*
X122435000Y-81260000D01*
X122435000Y-81235000D02*
X122435000Y-81260000D01*
X118460000Y-78260000D02*
X121460000Y-81260000D01*
%TO.N,Net-(D2-K2)*%
X118380000Y-83360000D02*
X118360000Y-83340000D01*
X122247500Y-83360000D02*
X118380000Y-83360000D01*
%TO.N,UART1_RX*%
X151360000Y-122560000D02*
X151360000Y-126160000D01*
X151360000Y-126160000D02*
X150360000Y-127160000D01*
X138475000Y-117655000D02*
X146455000Y-117655000D01*
X146455000Y-117655000D02*
X151360000Y-122560000D01*
X150360000Y-127160000D02*
X147372500Y-127160000D01*
X133280000Y-112460000D02*
X138475000Y-117655000D01*
%TO.N,Net-(U1-C2+)*%
D44*
X138410000Y-126390000D02*
X136748479Y-126390000D01*
X136748479Y-126390000D02*
G75*
G02*
X134165009Y-125319879I21J3653600D01*
G01*
%TO.N,Net-(U1-C2-)*%
X138410000Y-127660000D02*
X134986103Y-127660000D01*
X134986103Y-127660000D02*
G75*
G02*
X134165002Y-127319886I-3J1161200D01*
G01*
%TO.N,Net-(Q2-G)*%
D46*
X154047500Y-75960000D02*
X154047500Y-73960000D01*
D44*
X153960000Y-71960000D02*
X153960000Y-73872500D01*
X153960000Y-73872500D02*
X154047500Y-73960000D01*
%TO.N,Net-(D3-K1)*%
D43*
X122447500Y-77060000D02*
X122447500Y-74907500D01*
X118420000Y-70760000D02*
X118360000Y-70820000D01*
X122447500Y-74907500D02*
X118360000Y-70820000D01*
%TO.N,Net-(U1-VS-)*%
D44*
X135743665Y-129356335D02*
X134275000Y-130825000D01*
X138397929Y-128925000D02*
X136785000Y-128925000D01*
X138410000Y-128930000D02*
G75*
G03*
X138397929Y-128924988I-12100J-12100D01*
G01*
X136785000Y-128925000D02*
G75*
G03*
X135743659Y-129356329I0J-1472700D01*
G01*
%TO.N,Net-(Q3-G)*%
D43*
X173303750Y-123472500D02*
X173341250Y-123435000D01*
X175341250Y-123435000D02*
X173341250Y-123435000D01*
X171216250Y-123472500D02*
X173303750Y-123472500D01*
%TO.N,3V3_b*%
X169403750Y-121572500D02*
X171216250Y-121572500D01*
X173303750Y-121572500D02*
X173341250Y-121610000D01*
X167866250Y-120035000D02*
X169403750Y-121572500D01*
X166341250Y-120035000D02*
X167866250Y-120035000D01*
X171216250Y-121572500D02*
X173303750Y-121572500D01*
%TO.N,SDA I2C1*%
X157002500Y-118117500D02*
X157002500Y-120685000D01*
X157010000Y-118110000D02*
X157002500Y-118117500D01*
X161095000Y-125710000D02*
X161095000Y-122150000D01*
X153600000Y-112460000D02*
X153600000Y-114700000D01*
X159630000Y-120685000D02*
X157002500Y-120685000D01*
X153600000Y-114700000D02*
X157010000Y-118110000D01*
X161095000Y-122150000D02*
X159630000Y-120685000D01*
%TO.N,Net-(U1-T1OUT)*%
X140460000Y-133560000D02*
X140460000Y-125890000D01*
X141230000Y-125120000D02*
X143360000Y-125120000D01*
X140460000Y-125890000D02*
X141230000Y-125120000D01*
%TO.N,Net-(U1-R1IN)*%
X141560000Y-134460000D02*
X140280000Y-135740000D01*
X140280000Y-135740000D02*
X140280000Y-137490000D01*
X143360000Y-126390000D02*
X141840000Y-126390000D01*
X141840000Y-126390000D02*
X141560000Y-126670000D01*
X141560000Y-126670000D02*
X141560000Y-134460000D01*
%TO.N,Net-(JP3-B)*%
D46*
X125660000Y-109672500D02*
X125560000Y-109572500D01*
X125660000Y-112460000D02*
X125660000Y-109672500D01*
%TO.N,UART1_TX*%
D43*
X152310000Y-122166497D02*
X145903503Y-115760000D01*
X149933502Y-128930000D02*
X152310000Y-126553502D01*
X143360000Y-128930000D02*
X149933502Y-128930000D01*
X145903503Y-115760000D02*
X138960000Y-115760000D01*
X152310000Y-126553502D02*
X152310000Y-122166497D01*
%TO.N,SCL I2C1*%
X159825000Y-123480000D02*
X159030000Y-122685000D01*
X159825000Y-125710000D02*
X159825000Y-123480000D01*
X159030000Y-122685000D02*
X157002500Y-122685000D01*
%TO.N,ON_MEM*%
X156140000Y-114040000D02*
X156960000Y-114860000D01*
X156960000Y-114860000D02*
X171360000Y-114860000D01*
X156140000Y-112460000D02*
X156140000Y-114040000D01*
X171360000Y-114860000D02*
X172547500Y-113672500D01*
X172547500Y-113672500D02*
X174385000Y-113672500D01*
%TO.N,+5V_b*%
D44*
X141874888Y-119030000D02*
X143969106Y-121124218D01*
X143372071Y-122575000D02*
X144888396Y-122575000D01*
X143969106Y-121124218D02*
G75*
G03*
X146180000Y-122039993I2210894J2210918D01*
G01*
X144888396Y-122575000D02*
G75*
G03*
X146180001Y-122040001I4J1826600D01*
G01*
X143360000Y-122580000D02*
G75*
G02*
X143372071Y-122574988I12100J-12100D01*
G01*
%TO.N,Net-(U5-PA0{slash}KEY)*%
D46*
X153660000Y-100147500D02*
X153660000Y-97280000D01*
X153660000Y-97280000D02*
X153600000Y-97220000D01*
%TO.N,ON_MODEM*%
X151060000Y-94260000D02*
X151060000Y-97220000D01*
%TO.N,UART2_RX*%
D43*
X162360000Y-94760000D02*
X165060000Y-94760000D01*
X160860000Y-93260000D02*
X162360000Y-94760000D01*
X158960000Y-93260000D02*
X160860000Y-93260000D01*
%TO.N,3V3*%
D46*
X123120000Y-99260000D02*
X123120000Y-105307500D01*
X123120000Y-105307500D02*
X125560000Y-107747500D01*
X153660000Y-101972500D02*
X125832500Y-101972500D01*
X123120000Y-97220000D02*
X123120000Y-99260000D01*
X125832500Y-101972500D02*
X123120000Y-99260000D01*
%TO.N,Net-(U1-VS+)*%
D44*
X139832375Y-122986725D02*
X139836000Y-122983100D01*
X139838576Y-119093586D02*
X139845127Y-119073407D01*
X139755196Y-123312177D02*
X139773779Y-123259202D01*
X139803011Y-123156823D02*
X139813451Y-123110168D01*
X138434143Y-123835941D02*
X138442157Y-123834674D01*
X139667210Y-123503289D02*
X139692888Y-123454741D01*
X139714746Y-123409374D02*
X139736956Y-123358609D01*
X139612928Y-123593433D02*
X139641909Y-123547203D01*
X139692888Y-123454741D02*
X139714746Y-123409374D01*
X139520576Y-123719425D02*
X139552244Y-123679345D01*
X139835264Y-119114541D02*
X139838576Y-119093586D01*
X139854755Y-119054502D02*
X139867223Y-119037337D01*
X139552244Y-123679345D02*
X139584352Y-123635568D01*
X138410000Y-123850000D02*
X138412635Y-123846898D01*
X138412635Y-123846898D02*
X138419198Y-123842130D01*
X138446213Y-123835000D02*
X139415000Y-123835000D01*
X139830340Y-119130285D02*
X139835476Y-119125149D01*
X139584352Y-123635568D02*
X139612928Y-123593433D01*
X139835476Y-119125149D02*
X139835264Y-119114541D01*
X138419198Y-123842130D02*
X138426427Y-123838447D01*
X139824207Y-123051356D02*
X139830340Y-123006915D01*
X139836000Y-122983100D02*
X139836000Y-122176900D01*
X139415000Y-123835000D02*
X139450965Y-123798387D01*
X139830340Y-123006915D02*
X139832375Y-122986725D01*
X139830340Y-122171240D02*
X139830340Y-119130285D01*
X139736956Y-123358609D02*
X139755196Y-123312177D01*
X139845127Y-119073407D02*
X139854755Y-119054502D01*
X139641909Y-123547203D02*
X139667210Y-123503289D01*
X138442157Y-123834674D02*
X138446213Y-123835000D01*
X139813451Y-123110168D02*
X139824207Y-123051356D01*
X139450965Y-123798387D02*
X139485527Y-123760598D01*
X139836000Y-122176900D02*
X139830340Y-122171240D01*
X138426427Y-123838447D02*
X138434143Y-123835941D01*
X139773779Y-123259202D02*
X139788221Y-123212233D01*
X139485527Y-123760598D02*
X139520576Y-123719425D01*
X139867223Y-119037337D02*
X139874888Y-119030000D01*
X139788221Y-123212233D02*
X139803011Y-123156823D01*
%TO.N,Net-(Q4-G)*%
D43*
X176210000Y-115622500D02*
X176260000Y-115672500D01*
X176260000Y-115672500D02*
X176260000Y-117660000D01*
X176210000Y-113672500D02*
X176210000Y-115622500D01*
X176260000Y-117660000D02*
X176297500Y-117697500D01*
%TO.N,Net-(Q1-G)*%
D44*
X160160000Y-77860000D02*
X160160000Y-79935000D01*
X160160000Y-79935000D02*
X160110000Y-79985000D01*
X160110000Y-81985000D02*
X160110000Y-79985000D01*
%TO.N,Net-(U1-C1+)*%
X138397929Y-122585000D02*
X137325000Y-122585000D01*
X137325000Y-122585000D02*
X134789558Y-120049558D01*
X138410000Y-122580000D02*
G75*
G02*
X138397929Y-122585012I-12100J12100D01*
G01*
X134789558Y-120049558D02*
G75*
G03*
X134175000Y-119794995I-614558J-614542D01*
G01*
%TO.N,Net-(U1-C1-)*%
X134620961Y-122870478D02*
X134620478Y-122870478D01*
X138397929Y-125115000D02*
X136865483Y-125115000D01*
X136865483Y-125115000D02*
X134620961Y-122870478D01*
X134620478Y-122870478D02*
G75*
G02*
X134175013Y-121795000I1075522J1075478D01*
G01*
X138410000Y-125120000D02*
G75*
G03*
X138397929Y-125114988I-12100J-12100D01*
G01*
%TO.N,Net-(U1-R1OUT)*%
D43*
X143360000Y-127660000D02*
X145047500Y-127660000D01*
X145047500Y-127660000D02*
X145547500Y-127160000D01*
%TO.N,Net-(Q4-D)*%
X175347500Y-121603750D02*
X175341250Y-121610000D01*
X175347500Y-119572500D02*
X175347500Y-121603750D01*
%TD*%
%TA.AperFunction,Conductor*%
%TO.N,Net-(JP2-A)*%
G36*
X187038315Y-65192487D02*
G01*
X191259037Y-65208393D01*
X194372642Y-65219609D01*
X197335195Y-65230282D01*
X197364365Y-65238961D01*
X197394105Y-65245411D01*
X197399436Y-65249396D01*
X197402163Y-65250208D01*
X197422373Y-65266544D01*
X197450611Y-65294746D01*
X197484135Y-65356048D01*
X197486985Y-65381878D01*
X197552545Y-78808462D01*
X197533188Y-78875596D01*
X197516442Y-78896533D01*
X197489641Y-78923466D01*
X197428401Y-78957101D01*
X197401745Y-78960000D01*
X188013564Y-78960000D01*
X188014457Y-79059995D01*
X188014457Y-79059996D01*
X188104961Y-89194834D01*
X188096579Y-89224351D01*
X188090325Y-89254393D01*
X188086615Y-89259441D01*
X188085876Y-89262046D01*
X188069427Y-89282835D01*
X188042311Y-89310440D01*
X187981290Y-89344472D01*
X187954957Y-89347541D01*
X185416322Y-89370213D01*
X184935333Y-89374508D01*
X184868121Y-89355423D01*
X184821896Y-89303030D01*
X184811335Y-89233963D01*
X184837678Y-89174889D01*
X184836875Y-89174288D01*
X184839525Y-89170747D01*
X184839792Y-89170150D01*
X184840748Y-89169113D01*
X184928350Y-89052093D01*
X184928354Y-89052086D01*
X184978596Y-88917379D01*
X184978598Y-88917372D01*
X184984999Y-88857844D01*
X184985000Y-88857827D01*
X184985000Y-88210000D01*
X184068012Y-88210000D01*
X184100925Y-88152993D01*
X184135000Y-88025826D01*
X184135000Y-87894174D01*
X184100925Y-87767007D01*
X184068012Y-87710000D01*
X184985000Y-87710000D01*
X184985000Y-87062172D01*
X184984999Y-87062155D01*
X184978598Y-87002627D01*
X184978596Y-87002620D01*
X184928354Y-86867913D01*
X184928350Y-86867906D01*
X184842190Y-86752812D01*
X184842187Y-86752809D01*
X184727093Y-86666649D01*
X184727086Y-86666645D01*
X184592379Y-86616403D01*
X184592372Y-86616401D01*
X184532844Y-86610000D01*
X183885000Y-86610000D01*
X183885000Y-87526988D01*
X183827993Y-87494075D01*
X183700826Y-87460000D01*
X183569174Y-87460000D01*
X183442007Y-87494075D01*
X183385000Y-87526988D01*
X183385000Y-86610000D01*
X182861292Y-86610000D01*
X182794253Y-86590315D01*
X182748498Y-86537511D01*
X182737293Y-86485533D01*
X182765276Y-79059996D01*
X182808918Y-67478753D01*
X193560000Y-67478753D01*
X193560000Y-67691246D01*
X193593242Y-67901127D01*
X193593242Y-67901130D01*
X193658904Y-68103217D01*
X193755375Y-68292550D01*
X193794728Y-68346716D01*
X194427037Y-67714408D01*
X194444075Y-67777993D01*
X194509901Y-67892007D01*
X194602993Y-67985099D01*
X194717007Y-68050925D01*
X194780590Y-68067962D01*
X194148282Y-68700269D01*
X194148282Y-68700270D01*
X194202449Y-68739624D01*
X194391782Y-68836095D01*
X194593870Y-68901757D01*
X194803754Y-68935000D01*
X195016246Y-68935000D01*
X195226127Y-68901757D01*
X195226130Y-68901757D01*
X195428217Y-68836095D01*
X195617554Y-68739622D01*
X195671716Y-68700270D01*
X195671717Y-68700270D01*
X195039408Y-68067962D01*
X195102993Y-68050925D01*
X195217007Y-67985099D01*
X195310099Y-67892007D01*
X195375925Y-67777993D01*
X195392962Y-67714408D01*
X196025270Y-68346717D01*
X196025270Y-68346716D01*
X196064622Y-68292554D01*
X196161095Y-68103217D01*
X196226757Y-67901130D01*
X196226757Y-67901127D01*
X196260000Y-67691246D01*
X196260000Y-67478753D01*
X196226757Y-67268872D01*
X196226757Y-67268869D01*
X196161095Y-67066782D01*
X196064624Y-66877449D01*
X196025270Y-66823282D01*
X196025269Y-66823282D01*
X195392962Y-67455590D01*
X195375925Y-67392007D01*
X195310099Y-67277993D01*
X195217007Y-67184901D01*
X195102993Y-67119075D01*
X195039409Y-67102037D01*
X195671716Y-66469728D01*
X195617550Y-66430375D01*
X195428217Y-66333904D01*
X195226129Y-66268242D01*
X195016246Y-66235000D01*
X194803754Y-66235000D01*
X194593872Y-66268242D01*
X194593869Y-66268242D01*
X194391782Y-66333904D01*
X194202439Y-66430380D01*
X194148282Y-66469727D01*
X194148282Y-66469728D01*
X194780591Y-67102037D01*
X194717007Y-67119075D01*
X194602993Y-67184901D01*
X194509901Y-67277993D01*
X194444075Y-67392007D01*
X194427037Y-67455590D01*
X193794728Y-66823282D01*
X193794727Y-66823282D01*
X193755380Y-66877439D01*
X193658904Y-67066782D01*
X193593242Y-67268869D01*
X193593242Y-67268872D01*
X193560000Y-67478753D01*
X182808918Y-67478753D01*
X182817023Y-65327941D01*
X182825778Y-65298534D01*
X182832414Y-65268574D01*
X182836187Y-65263572D01*
X182836960Y-65260978D01*
X182853663Y-65240408D01*
X182881140Y-65213137D01*
X182942585Y-65179886D01*
X182968948Y-65177152D01*
X187038315Y-65192487D01*
G37*
%TD.AperFunction*%
%TD*%
%TA.AperFunction,Conductor*%
%TO.N,GND*%
G36*
X132544723Y-118159038D02*
G01*
X132565609Y-118175677D01*
X132592785Y-118202593D01*
X132626564Y-118263755D01*
X132629525Y-118290292D01*
X132683937Y-135019954D01*
X132683938Y-135019953D01*
X132683938Y-135019956D01*
X115360500Y-135058801D01*
X115360500Y-118361103D01*
X115380185Y-118294064D01*
X115432989Y-118248309D01*
X115484189Y-118237104D01*
X116135656Y-118235497D01*
X116588470Y-118234381D01*
X117584697Y-118231923D01*
X118216941Y-118230365D01*
X118217121Y-118230364D01*
X118217132Y-118234895D01*
X118217138Y-118234895D01*
X118217127Y-118230364D01*
X118217654Y-118230362D01*
X118316941Y-118230118D01*
X118317059Y-118230117D01*
X118317158Y-118230117D01*
X125472987Y-118184467D01*
X132477560Y-118139782D01*
X132544723Y-118159038D01*
G37*
%TD.AperFunction*%
%TD*%
%TA.AperFunction,Conductor*%
%TO.N,GND*%
G36*
X133013289Y-135024949D02*
G01*
X133060838Y-135038795D01*
X133081515Y-135055381D01*
X133086065Y-135059910D01*
X133108939Y-135082682D01*
X133142563Y-135143928D01*
X133145457Y-135170283D01*
X133150179Y-137276062D01*
X133159999Y-141655524D01*
X133159999Y-141655523D01*
X133160000Y-141655525D01*
X147608265Y-141623025D01*
X147608265Y-145159500D01*
X115484500Y-145159500D01*
X115417461Y-145139815D01*
X115371706Y-145087011D01*
X115360500Y-145035500D01*
X115360500Y-141512486D01*
X116609500Y-141512486D01*
X116609500Y-141807513D01*
X116641571Y-142051113D01*
X116648007Y-142099993D01*
X116720922Y-142372116D01*
X116724361Y-142384951D01*
X116724364Y-142384961D01*
X116837254Y-142657500D01*
X116837258Y-142657510D01*
X116984761Y-142912993D01*
X117164352Y-143147040D01*
X117164358Y-143147047D01*
X117372952Y-143355641D01*
X117372959Y-143355647D01*
X117607006Y-143535238D01*
X117862489Y-143682741D01*
X117862490Y-143682741D01*
X117862493Y-143682743D01*
X118135048Y-143795639D01*
X118420007Y-143871993D01*
X118712494Y-143910500D01*
X118712501Y-143910500D01*
X119007499Y-143910500D01*
X119007506Y-143910500D01*
X119299993Y-143871993D01*
X119584952Y-143795639D01*
X119857507Y-143682743D01*
X120112994Y-143535238D01*
X120347042Y-143355646D01*
X120555646Y-143147042D01*
X120735238Y-142912994D01*
X120882743Y-142657507D01*
X120995639Y-142384952D01*
X121071993Y-142099993D01*
X121110500Y-141807506D01*
X121110500Y-141512494D01*
X121071993Y-141220007D01*
X120995639Y-140935048D01*
X120882743Y-140662493D01*
X120735238Y-140407006D01*
X120568414Y-140189598D01*
X125280000Y-140189598D01*
X125280000Y-140470401D01*
X125311437Y-140749412D01*
X125311439Y-140749424D01*
X125373921Y-141023178D01*
X125373922Y-141023180D01*
X125466662Y-141288217D01*
X125588492Y-141541200D01*
X125737884Y-141778956D01*
X125844187Y-141912257D01*
X126485747Y-141270697D01*
X126559588Y-141372330D01*
X126737670Y-141550412D01*
X126839300Y-141624251D01*
X126197741Y-142265810D01*
X126197741Y-142265811D01*
X126331043Y-142372115D01*
X126568799Y-142521507D01*
X126821782Y-142643337D01*
X127086819Y-142736077D01*
X127086821Y-142736078D01*
X127360575Y-142798560D01*
X127360587Y-142798562D01*
X127639598Y-142829999D01*
X127639600Y-142830000D01*
X127920400Y-142830000D01*
X127920401Y-142829999D01*
X128199412Y-142798562D01*
X128199424Y-142798560D01*
X128473178Y-142736078D01*
X128473180Y-142736077D01*
X128738217Y-142643337D01*
X128991200Y-142521507D01*
X129228956Y-142372116D01*
X129362257Y-142265810D01*
X128720698Y-141624251D01*
X128822330Y-141550412D01*
X129000412Y-141372330D01*
X129074251Y-141270698D01*
X129715810Y-141912257D01*
X129822116Y-141778956D01*
X129971507Y-141541200D01*
X130093337Y-141288217D01*
X130186077Y-141023180D01*
X130186078Y-141023178D01*
X130248560Y-140749424D01*
X130248562Y-140749412D01*
X130279999Y-140470401D01*
X130280000Y-140470399D01*
X130280000Y-140189600D01*
X130279999Y-140189598D01*
X130248562Y-139910587D01*
X130248560Y-139910575D01*
X130186078Y-139636821D01*
X130186077Y-139636819D01*
X130093337Y-139371782D01*
X129971507Y-139118799D01*
X129822115Y-138881043D01*
X129715810Y-138747741D01*
X129074251Y-139389300D01*
X129000412Y-139287670D01*
X128822330Y-139109588D01*
X128720697Y-139035747D01*
X129362257Y-138394187D01*
X129228956Y-138287884D01*
X128991200Y-138138492D01*
X128738217Y-138016662D01*
X128473180Y-137923922D01*
X128473178Y-137923921D01*
X128199424Y-137861439D01*
X128199412Y-137861437D01*
X127920401Y-137830000D01*
X127639598Y-137830000D01*
X127360587Y-137861437D01*
X127360575Y-137861439D01*
X127086821Y-137923921D01*
X127086819Y-137923922D01*
X126821782Y-138016662D01*
X126568799Y-138138492D01*
X126331043Y-138287884D01*
X126197741Y-138394187D01*
X126839301Y-139035747D01*
X126737670Y-139109588D01*
X126559588Y-139287670D01*
X126485747Y-139389301D01*
X125844187Y-138747741D01*
X125737884Y-138881043D01*
X125588492Y-139118799D01*
X125466662Y-139371782D01*
X125373922Y-139636819D01*
X125373921Y-139636821D01*
X125311439Y-139910575D01*
X125311437Y-139910587D01*
X125280000Y-140189598D01*
X120568414Y-140189598D01*
X120555646Y-140172958D01*
X120555644Y-140172956D01*
X120555641Y-140172952D01*
X120347047Y-139964358D01*
X120347040Y-139964352D01*
X120112993Y-139784761D01*
X119857510Y-139637258D01*
X119857500Y-139637254D01*
X119584961Y-139524364D01*
X119584954Y-139524362D01*
X119584952Y-139524361D01*
X119299993Y-139448007D01*
X119251113Y-139441571D01*
X119007513Y-139409500D01*
X119007506Y-139409500D01*
X118712494Y-139409500D01*
X118712486Y-139409500D01*
X118434085Y-139446153D01*
X118420007Y-139448007D01*
X118257998Y-139491417D01*
X118135048Y-139524361D01*
X118135038Y-139524364D01*
X117862499Y-139637254D01*
X117862489Y-139637258D01*
X117607006Y-139784761D01*
X117372959Y-139964352D01*
X117372952Y-139964358D01*
X117164358Y-140172952D01*
X117164352Y-140172959D01*
X116984761Y-140407006D01*
X116837258Y-140662489D01*
X116837254Y-140662499D01*
X116724364Y-140935038D01*
X116724361Y-140935048D01*
X116648008Y-141220004D01*
X116648006Y-141220015D01*
X116609500Y-141512486D01*
X115360500Y-141512486D01*
X115360500Y-135058801D01*
X132783937Y-135019731D01*
X132783938Y-135019732D01*
X132866225Y-135019547D01*
X132993755Y-135019261D01*
X133013289Y-135024949D01*
G37*
%TD.AperFunction*%
%TD*%
%TA.AperFunction,Conductor*%
%TO.N,GND*%
G36*
X177969879Y-127911773D02*
G01*
X177990834Y-127928540D01*
X178017773Y-127955364D01*
X178017774Y-127955364D01*
X178017774Y-127955365D01*
X176763542Y-127954708D01*
X176660762Y-145159500D01*
X147608265Y-145159500D01*
X147608265Y-140189598D01*
X150280000Y-140189598D01*
X150280000Y-140470401D01*
X150311437Y-140749412D01*
X150311439Y-140749424D01*
X150373921Y-141023178D01*
X150373922Y-141023180D01*
X150466662Y-141288217D01*
X150588492Y-141541200D01*
X150737884Y-141778956D01*
X150844187Y-141912257D01*
X151485747Y-141270697D01*
X151559588Y-141372330D01*
X151737670Y-141550412D01*
X151839300Y-141624251D01*
X151197741Y-142265810D01*
X151197741Y-142265811D01*
X151331043Y-142372115D01*
X151568799Y-142521507D01*
X151821782Y-142643337D01*
X152086819Y-142736077D01*
X152086821Y-142736078D01*
X152360575Y-142798560D01*
X152360587Y-142798562D01*
X152639598Y-142829999D01*
X152639600Y-142830000D01*
X152920400Y-142830000D01*
X152920401Y-142829999D01*
X153199412Y-142798562D01*
X153199424Y-142798560D01*
X153473178Y-142736078D01*
X153473180Y-142736077D01*
X153738217Y-142643337D01*
X153991200Y-142521507D01*
X154228956Y-142372116D01*
X154362257Y-142265810D01*
X153720698Y-141624251D01*
X153822330Y-141550412D01*
X154000412Y-141372330D01*
X154074251Y-141270698D01*
X154715810Y-141912257D01*
X154822116Y-141778956D01*
X154971507Y-141541200D01*
X155093337Y-141288217D01*
X155186077Y-141023180D01*
X155186078Y-141023178D01*
X155248560Y-140749424D01*
X155248562Y-140749412D01*
X155279999Y-140470401D01*
X155280000Y-140470399D01*
X155280000Y-140189600D01*
X155279999Y-140189598D01*
X155248562Y-139910587D01*
X155248560Y-139910575D01*
X155186078Y-139636821D01*
X155186077Y-139636819D01*
X155093337Y-139371782D01*
X154971507Y-139118799D01*
X154822115Y-138881043D01*
X154715810Y-138747741D01*
X154074251Y-139389300D01*
X154000412Y-139287670D01*
X153822330Y-139109588D01*
X153720697Y-139035747D01*
X154362257Y-138394187D01*
X154228956Y-138287884D01*
X153991200Y-138138492D01*
X153738217Y-138016662D01*
X153473180Y-137923922D01*
X153473178Y-137923921D01*
X153199424Y-137861439D01*
X153199412Y-137861437D01*
X152920401Y-137830000D01*
X152639598Y-137830000D01*
X152360587Y-137861437D01*
X152360575Y-137861439D01*
X152086821Y-137923921D01*
X152086819Y-137923922D01*
X151821782Y-138016662D01*
X151568799Y-138138492D01*
X151331043Y-138287884D01*
X151197741Y-138394187D01*
X151839301Y-139035747D01*
X151737670Y-139109588D01*
X151559588Y-139287670D01*
X151485747Y-139389301D01*
X150844187Y-138747741D01*
X150737884Y-138881043D01*
X150588492Y-139118799D01*
X150466662Y-139371782D01*
X150373922Y-139636819D01*
X150373921Y-139636821D01*
X150311439Y-139910575D01*
X150311437Y-139910587D01*
X150280000Y-140189598D01*
X147608265Y-140189598D01*
X147608265Y-135223481D01*
X147608267Y-135222711D01*
X147609506Y-135023293D01*
X147609514Y-135022522D01*
X147645433Y-132132100D01*
X147650994Y-131684599D01*
X147666105Y-131626802D01*
X147707612Y-131550649D01*
X156485000Y-131550649D01*
X156487899Y-131587489D01*
X156487900Y-131587495D01*
X156533716Y-131745193D01*
X156533717Y-131745196D01*
X156617314Y-131886552D01*
X156617321Y-131886561D01*
X156733438Y-132002678D01*
X156733447Y-132002685D01*
X156874801Y-132086281D01*
X157032514Y-132132100D01*
X157032511Y-132132100D01*
X157034998Y-132132295D01*
X157035000Y-132132295D01*
X157535000Y-132132295D01*
X157535001Y-132132295D01*
X157537486Y-132132100D01*
X157695198Y-132086281D01*
X157836552Y-132002685D01*
X157842722Y-131997900D01*
X157844546Y-132000252D01*
X157893595Y-131973445D01*
X157963288Y-131978402D01*
X157996063Y-131999465D01*
X157997278Y-131997900D01*
X158003447Y-132002685D01*
X158144801Y-132086281D01*
X158302514Y-132132100D01*
X158302511Y-132132100D01*
X158304998Y-132132295D01*
X158305000Y-132132295D01*
X158805000Y-132132295D01*
X158805001Y-132132295D01*
X158807486Y-132132100D01*
X158965198Y-132086281D01*
X159106552Y-132002685D01*
X159112722Y-131997900D01*
X159114546Y-132000252D01*
X159163595Y-131973445D01*
X159233288Y-131978402D01*
X159266063Y-131999465D01*
X159267278Y-131997900D01*
X159273447Y-132002685D01*
X159414801Y-132086281D01*
X159572514Y-132132100D01*
X159572511Y-132132100D01*
X159574998Y-132132295D01*
X159575000Y-132132295D01*
X160075000Y-132132295D01*
X160075001Y-132132295D01*
X160077486Y-132132100D01*
X160235198Y-132086281D01*
X160376552Y-132002685D01*
X160382722Y-131997900D01*
X160384546Y-132000252D01*
X160433595Y-131973445D01*
X160503288Y-131978402D01*
X160536063Y-131999465D01*
X160537278Y-131997900D01*
X160543447Y-132002685D01*
X160684801Y-132086281D01*
X160842514Y-132132100D01*
X160842511Y-132132100D01*
X160844998Y-132132295D01*
X160845000Y-132132295D01*
X161345000Y-132132295D01*
X161345001Y-132132295D01*
X161347486Y-132132100D01*
X161505198Y-132086281D01*
X161646552Y-132002685D01*
X161646561Y-132002678D01*
X161762678Y-131886561D01*
X161762685Y-131886552D01*
X161846282Y-131745196D01*
X161846283Y-131745193D01*
X161892099Y-131587495D01*
X161892100Y-131587489D01*
X161894999Y-131550649D01*
X161895000Y-131550634D01*
X161895000Y-130910000D01*
X161345000Y-130910000D01*
X161345000Y-132132295D01*
X160845000Y-132132295D01*
X160845000Y-130910000D01*
X160075000Y-130910000D01*
X160075000Y-132132295D01*
X159575000Y-132132295D01*
X159575000Y-130910000D01*
X158805000Y-130910000D01*
X158805000Y-132132295D01*
X158305000Y-132132295D01*
X158305000Y-130910000D01*
X157535000Y-130910000D01*
X157535000Y-132132295D01*
X157035000Y-132132295D01*
X157035000Y-130910000D01*
X156485000Y-130910000D01*
X156485000Y-131550649D01*
X147707612Y-131550649D01*
X147721253Y-131525621D01*
X147761641Y-131481598D01*
X152899975Y-128077082D01*
X152900317Y-128076920D01*
X152900444Y-128076772D01*
X152932406Y-128061811D01*
X153081095Y-128016632D01*
X153116548Y-128011278D01*
X154266316Y-128005764D01*
X154333449Y-128025127D01*
X154379457Y-128077711D01*
X154389732Y-128146821D01*
X154361012Y-128210515D01*
X154323206Y-128240248D01*
X154258644Y-128273143D01*
X154214077Y-128305523D01*
X154214077Y-128305524D01*
X154893554Y-128985000D01*
X154887339Y-128985000D01*
X154785606Y-129012259D01*
X154694394Y-129064920D01*
X154619920Y-129139394D01*
X154567259Y-129230606D01*
X154540000Y-129332339D01*
X154540000Y-129338553D01*
X153860524Y-128659077D01*
X153860523Y-128659077D01*
X153828143Y-128703644D01*
X153735244Y-128885968D01*
X153672009Y-129080582D01*
X153640000Y-129282682D01*
X153640000Y-129487317D01*
X153672009Y-129689417D01*
X153735244Y-129884031D01*
X153828141Y-130066350D01*
X153828147Y-130066359D01*
X153860523Y-130110921D01*
X153860524Y-130110922D01*
X154540000Y-129431446D01*
X154540000Y-129437661D01*
X154567259Y-129539394D01*
X154619920Y-129630606D01*
X154694394Y-129705080D01*
X154785606Y-129757741D01*
X154887339Y-129785000D01*
X154893553Y-129785000D01*
X154214076Y-130464474D01*
X154258650Y-130496859D01*
X154440968Y-130589755D01*
X154635582Y-130652990D01*
X154837683Y-130685000D01*
X155042317Y-130685000D01*
X155244417Y-130652990D01*
X155439031Y-130589755D01*
X155621349Y-130496859D01*
X155665921Y-130464474D01*
X154986447Y-129785000D01*
X154992661Y-129785000D01*
X155094394Y-129757741D01*
X155185606Y-129705080D01*
X155260080Y-129630606D01*
X155312741Y-129539394D01*
X155340000Y-129437661D01*
X155340000Y-129431447D01*
X156019474Y-130110921D01*
X156051859Y-130066349D01*
X156144754Y-129884031D01*
X156182017Y-129769350D01*
X156485000Y-129769350D01*
X156485000Y-130410000D01*
X157035000Y-130410000D01*
X157035000Y-129187703D01*
X157535000Y-129187703D01*
X157535000Y-130410000D01*
X158305000Y-130410000D01*
X158305000Y-129187703D01*
X158805000Y-129187703D01*
X158805000Y-130410000D01*
X159575000Y-130410000D01*
X159575000Y-129187703D01*
X160075000Y-129187703D01*
X160075000Y-130410000D01*
X160845000Y-130410000D01*
X161345000Y-130410000D01*
X161895000Y-130410000D01*
X161895000Y-129769365D01*
X161894999Y-129769350D01*
X161892100Y-129732510D01*
X161892099Y-129732504D01*
X161846283Y-129574806D01*
X161846282Y-129574803D01*
X161762685Y-129433447D01*
X161762678Y-129433438D01*
X161646561Y-129317321D01*
X161646552Y-129317314D01*
X161505196Y-129233717D01*
X161505193Y-129233716D01*
X161347494Y-129187900D01*
X161347497Y-129187900D01*
X161345000Y-129187703D01*
X161345000Y-130410000D01*
X160845000Y-130410000D01*
X160845000Y-129187703D01*
X160842503Y-129187900D01*
X160684806Y-129233716D01*
X160684803Y-129233717D01*
X160543447Y-129317314D01*
X160537278Y-129322100D01*
X160535457Y-129319753D01*
X160486358Y-129346564D01*
X160416666Y-129341580D01*
X160383930Y-129320541D01*
X160382722Y-129322100D01*
X160376552Y-129317314D01*
X160235196Y-129233717D01*
X160235193Y-129233716D01*
X160077494Y-129187900D01*
X160077497Y-129187900D01*
X160075000Y-129187703D01*
X159575000Y-129187703D01*
X159572503Y-129187900D01*
X159414806Y-129233716D01*
X159414803Y-129233717D01*
X159273447Y-129317314D01*
X159267278Y-129322100D01*
X159265457Y-129319753D01*
X159216358Y-129346564D01*
X159146666Y-129341580D01*
X159113930Y-129320541D01*
X159112722Y-129322100D01*
X159106552Y-129317314D01*
X158965196Y-129233717D01*
X158965193Y-129233716D01*
X158807494Y-129187900D01*
X158807497Y-129187900D01*
X158805000Y-129187703D01*
X158305000Y-129187703D01*
X158302503Y-129187900D01*
X158144806Y-129233716D01*
X158144803Y-129233717D01*
X158003447Y-129317314D01*
X157997278Y-129322100D01*
X157995457Y-129319753D01*
X157946358Y-129346564D01*
X157876666Y-129341580D01*
X157843930Y-129320541D01*
X157842722Y-129322100D01*
X157836552Y-129317314D01*
X157695196Y-129233717D01*
X157695193Y-129233716D01*
X157537494Y-129187900D01*
X157537497Y-129187900D01*
X157535000Y-129187703D01*
X157035000Y-129187703D01*
X157032503Y-129187900D01*
X156874806Y-129233716D01*
X156874803Y-129233717D01*
X156733447Y-129317314D01*
X156733438Y-129317321D01*
X156617321Y-129433438D01*
X156617314Y-129433447D01*
X156533717Y-129574803D01*
X156533716Y-129574806D01*
X156487900Y-129732504D01*
X156487899Y-129732510D01*
X156485000Y-129769350D01*
X156182017Y-129769350D01*
X156195257Y-129728604D01*
X156195258Y-129728602D01*
X156207988Y-129689424D01*
X156207989Y-129689418D01*
X156240000Y-129487317D01*
X156240000Y-129282682D01*
X156207990Y-129080582D01*
X156144755Y-128885968D01*
X156051859Y-128703650D01*
X156019474Y-128659077D01*
X156019474Y-128659076D01*
X155340000Y-129338551D01*
X155340000Y-129332339D01*
X155312741Y-129230606D01*
X155260080Y-129139394D01*
X155185606Y-129064920D01*
X155094394Y-129012259D01*
X154992661Y-128985000D01*
X154986446Y-128985000D01*
X155665922Y-128305524D01*
X155665921Y-128305523D01*
X155621359Y-128273147D01*
X155621350Y-128273141D01*
X155544241Y-128233852D01*
X155493445Y-128185877D01*
X155476650Y-128118056D01*
X155499187Y-128051921D01*
X155553903Y-128008470D01*
X155599938Y-127999368D01*
X177902749Y-127892410D01*
X177969879Y-127911773D01*
G37*
%TD.AperFunction*%
%TD*%
%TA.AperFunction,Conductor*%
%TO.N,GND*%
G36*
X178049525Y-127955381D02*
G01*
X178049526Y-127955382D01*
X196724318Y-127965170D01*
X196791347Y-127984890D01*
X196812042Y-128001596D01*
X196839222Y-128028845D01*
X196872630Y-128090209D01*
X196875431Y-128116663D01*
X196861681Y-135023040D01*
X196841743Y-145035747D01*
X196821925Y-145102747D01*
X196769030Y-145148397D01*
X196717743Y-145159500D01*
X189097309Y-145159500D01*
X189030270Y-145139815D01*
X189009628Y-145123181D01*
X188442293Y-144555846D01*
X188458942Y-144548951D01*
X188589970Y-144461401D01*
X188701401Y-144349970D01*
X188788951Y-144218942D01*
X188795846Y-144202294D01*
X189445956Y-144852404D01*
X189445957Y-144852403D01*
X189496530Y-144786498D01*
X189607949Y-144593514D01*
X189607954Y-144593502D01*
X189693236Y-144387618D01*
X189750911Y-144172367D01*
X189750914Y-144172354D01*
X189780000Y-143951424D01*
X189780000Y-143728575D01*
X189750914Y-143507645D01*
X189750911Y-143507632D01*
X189693236Y-143292381D01*
X189607954Y-143086497D01*
X189607949Y-143086485D01*
X189496533Y-142893507D01*
X189445956Y-142827595D01*
X189445955Y-142827595D01*
X188795846Y-143477704D01*
X188788951Y-143461058D01*
X188701401Y-143330030D01*
X188589970Y-143218599D01*
X188458942Y-143131049D01*
X188442293Y-143124152D01*
X189092403Y-142474043D01*
X189092403Y-142474040D01*
X189026504Y-142423473D01*
X189026491Y-142423464D01*
X188833520Y-142312054D01*
X188833502Y-142312045D01*
X188627618Y-142226763D01*
X188412367Y-142169088D01*
X188412354Y-142169085D01*
X188191425Y-142140000D01*
X187968575Y-142140000D01*
X187747645Y-142169085D01*
X187747632Y-142169088D01*
X187532381Y-142226763D01*
X187326497Y-142312045D01*
X187326479Y-142312054D01*
X187133511Y-142423462D01*
X187067595Y-142474042D01*
X187717706Y-143124152D01*
X187701058Y-143131049D01*
X187570030Y-143218599D01*
X187458599Y-143330030D01*
X187371049Y-143461058D01*
X187364153Y-143477706D01*
X186714042Y-142827595D01*
X186663462Y-142893511D01*
X186552054Y-143086479D01*
X186552045Y-143086497D01*
X186466763Y-143292381D01*
X186409088Y-143507632D01*
X186409085Y-143507645D01*
X186380000Y-143728575D01*
X186380000Y-143951424D01*
X186409085Y-144172354D01*
X186409088Y-144172367D01*
X186466763Y-144387618D01*
X186552045Y-144593502D01*
X186552054Y-144593520D01*
X186663464Y-144786491D01*
X186663473Y-144786504D01*
X186714040Y-144852403D01*
X186714043Y-144852403D01*
X187364152Y-144202293D01*
X187371049Y-144218942D01*
X187458599Y-144349970D01*
X187570030Y-144461401D01*
X187701058Y-144548951D01*
X187717706Y-144555846D01*
X187150372Y-145123181D01*
X187089049Y-145156666D01*
X187062691Y-145159500D01*
X184017309Y-145159500D01*
X183950270Y-145139815D01*
X183929628Y-145123181D01*
X183362293Y-144555846D01*
X183378942Y-144548951D01*
X183509970Y-144461401D01*
X183621401Y-144349970D01*
X183708951Y-144218942D01*
X183715846Y-144202294D01*
X184365956Y-144852404D01*
X184365957Y-144852403D01*
X184416530Y-144786498D01*
X184527949Y-144593514D01*
X184527954Y-144593502D01*
X184613236Y-144387618D01*
X184670911Y-144172367D01*
X184670914Y-144172354D01*
X184700000Y-143951424D01*
X184700000Y-143728575D01*
X184670914Y-143507645D01*
X184670911Y-143507632D01*
X184613236Y-143292381D01*
X184527954Y-143086497D01*
X184527949Y-143086485D01*
X184416533Y-142893507D01*
X184365956Y-142827595D01*
X184365955Y-142827595D01*
X183715846Y-143477704D01*
X183708951Y-143461058D01*
X183621401Y-143330030D01*
X183509970Y-143218599D01*
X183378942Y-143131049D01*
X183362293Y-143124152D01*
X184012403Y-142474043D01*
X184012403Y-142474040D01*
X183946504Y-142423473D01*
X183946491Y-142423464D01*
X183753520Y-142312054D01*
X183753502Y-142312045D01*
X183547618Y-142226763D01*
X183332367Y-142169088D01*
X183332354Y-142169085D01*
X183111425Y-142140000D01*
X182888575Y-142140000D01*
X182667645Y-142169085D01*
X182667632Y-142169088D01*
X182452381Y-142226763D01*
X182246497Y-142312045D01*
X182246479Y-142312054D01*
X182053511Y-142423462D01*
X181987595Y-142474042D01*
X182637706Y-143124152D01*
X182621058Y-143131049D01*
X182490030Y-143218599D01*
X182378599Y-143330030D01*
X182291049Y-143461058D01*
X182284153Y-143477706D01*
X181634042Y-142827595D01*
X181583462Y-142893511D01*
X181472054Y-143086479D01*
X181472045Y-143086497D01*
X181386763Y-143292381D01*
X181329088Y-143507632D01*
X181329085Y-143507645D01*
X181300000Y-143728575D01*
X181300000Y-143951424D01*
X181329085Y-144172354D01*
X181329088Y-144172367D01*
X181386763Y-144387618D01*
X181472045Y-144593502D01*
X181472054Y-144593520D01*
X181583464Y-144786491D01*
X181583473Y-144786504D01*
X181634040Y-144852403D01*
X181634043Y-144852403D01*
X182284152Y-144202293D01*
X182291049Y-144218942D01*
X182378599Y-144349970D01*
X182490030Y-144461401D01*
X182621058Y-144548951D01*
X182637706Y-144555846D01*
X182070372Y-145123181D01*
X182009049Y-145156666D01*
X181982691Y-145159500D01*
X176660762Y-145159500D01*
X176699658Y-138648575D01*
X181300000Y-138648575D01*
X181300000Y-138871424D01*
X181329085Y-139092354D01*
X181329088Y-139092367D01*
X181386763Y-139307618D01*
X181472045Y-139513502D01*
X181472054Y-139513520D01*
X181583464Y-139706491D01*
X181583473Y-139706504D01*
X181634040Y-139772403D01*
X181634043Y-139772403D01*
X182284152Y-139122293D01*
X182291049Y-139138942D01*
X182378599Y-139269970D01*
X182490030Y-139381401D01*
X182621058Y-139468951D01*
X182637704Y-139475846D01*
X181987595Y-140125955D01*
X181987595Y-140125956D01*
X182053507Y-140176533D01*
X182246485Y-140287949D01*
X182246497Y-140287954D01*
X182452381Y-140373236D01*
X182667632Y-140430911D01*
X182667645Y-140430914D01*
X182888575Y-140460000D01*
X183111425Y-140460000D01*
X183332354Y-140430914D01*
X183332367Y-140430911D01*
X183547618Y-140373236D01*
X183753502Y-140287954D01*
X183753520Y-140287945D01*
X183946491Y-140176535D01*
X183946494Y-140176533D01*
X184090013Y-140066406D01*
X184155182Y-140041211D01*
X184223627Y-140055249D01*
X184273617Y-140104062D01*
X184289500Y-140164781D01*
X184289500Y-140529472D01*
X184275985Y-140585767D01*
X184195771Y-140743196D01*
X184125215Y-140960339D01*
X184089500Y-141185837D01*
X184089500Y-141414162D01*
X184125215Y-141639660D01*
X184195770Y-141856803D01*
X184299421Y-142060228D01*
X184433621Y-142244937D01*
X184595063Y-142406379D01*
X184779772Y-142540579D01*
X184875884Y-142589550D01*
X184983196Y-142644229D01*
X184983198Y-142644229D01*
X184983201Y-142644231D01*
X185099592Y-142682049D01*
X185200339Y-142714784D01*
X185425838Y-142750500D01*
X185425843Y-142750500D01*
X185654162Y-142750500D01*
X185879660Y-142714784D01*
X186096799Y-142644231D01*
X186300228Y-142540579D01*
X186484937Y-142406379D01*
X186646379Y-142244937D01*
X186780579Y-142060228D01*
X186884231Y-141856799D01*
X186954784Y-141639660D01*
X186990500Y-141414162D01*
X186990500Y-141185837D01*
X186954784Y-140960339D01*
X186941301Y-140918844D01*
X186884231Y-140743201D01*
X186804015Y-140585767D01*
X186790500Y-140529472D01*
X186790500Y-140164781D01*
X186810185Y-140097742D01*
X186862989Y-140051987D01*
X186932147Y-140042043D01*
X186989987Y-140066406D01*
X187133505Y-140176533D01*
X187133508Y-140176535D01*
X187326479Y-140287945D01*
X187326497Y-140287954D01*
X187532381Y-140373236D01*
X187747632Y-140430911D01*
X187747645Y-140430914D01*
X187968575Y-140460000D01*
X188191425Y-140460000D01*
X188412354Y-140430914D01*
X188412367Y-140430911D01*
X188627618Y-140373236D01*
X188833502Y-140287954D01*
X188833514Y-140287949D01*
X189026498Y-140176530D01*
X189092403Y-140125957D01*
X189092404Y-140125956D01*
X188442294Y-139475846D01*
X188458942Y-139468951D01*
X188589970Y-139381401D01*
X188701401Y-139269970D01*
X188788951Y-139138942D01*
X188795846Y-139122294D01*
X189445956Y-139772404D01*
X189445957Y-139772403D01*
X189496530Y-139706498D01*
X189607949Y-139513514D01*
X189607954Y-139513502D01*
X189693236Y-139307618D01*
X189750911Y-139092367D01*
X189750914Y-139092354D01*
X189780000Y-138871424D01*
X189780000Y-138648575D01*
X189750914Y-138427645D01*
X189750911Y-138427632D01*
X189693236Y-138212381D01*
X189607954Y-138006497D01*
X189607949Y-138006485D01*
X189496533Y-137813507D01*
X189445956Y-137747595D01*
X189445955Y-137747595D01*
X188795846Y-138397704D01*
X188788951Y-138381058D01*
X188701401Y-138250030D01*
X188589970Y-138138599D01*
X188458942Y-138051049D01*
X188442293Y-138044152D01*
X189092403Y-137394043D01*
X189092403Y-137394040D01*
X189026504Y-137343473D01*
X189026491Y-137343464D01*
X188833520Y-137232054D01*
X188833502Y-137232045D01*
X188627618Y-137146763D01*
X188412367Y-137089088D01*
X188412354Y-137089085D01*
X188191425Y-137060000D01*
X187968575Y-137060000D01*
X187747645Y-137089085D01*
X187747632Y-137089088D01*
X187532381Y-137146763D01*
X187326497Y-137232045D01*
X187326479Y-137232054D01*
X187133508Y-137343464D01*
X187133504Y-137343466D01*
X186989987Y-137453593D01*
X186924818Y-137478788D01*
X186856373Y-137464750D01*
X186806383Y-137415936D01*
X186790500Y-137355218D01*
X186790500Y-136710744D01*
X186792027Y-136691343D01*
X186795500Y-136669418D01*
X186795500Y-136472578D01*
X186777587Y-136359483D01*
X186764709Y-136278174D01*
X186764707Y-136278167D01*
X186763570Y-136273427D01*
X186765201Y-136273035D01*
X186763419Y-136210485D01*
X186770000Y-136199025D01*
X186770000Y-136179999D01*
X187270000Y-136179999D01*
X187344972Y-136179999D01*
X187344986Y-136179998D01*
X187447697Y-136169505D01*
X187614119Y-136114358D01*
X187614124Y-136114356D01*
X187763345Y-136022315D01*
X187887315Y-135898345D01*
X187979356Y-135749124D01*
X187979358Y-135749119D01*
X188034505Y-135582697D01*
X188034506Y-135582690D01*
X188044999Y-135479986D01*
X188045000Y-135479973D01*
X188045000Y-134830000D01*
X187270000Y-134830000D01*
X187270000Y-136179999D01*
X186770000Y-136179999D01*
X186770000Y-134330000D01*
X187270000Y-134330000D01*
X188044999Y-134330000D01*
X188044999Y-133680028D01*
X188044998Y-133680013D01*
X188034505Y-133577302D01*
X187979358Y-133410880D01*
X187979356Y-133410875D01*
X187887315Y-133261654D01*
X187763345Y-133137684D01*
X187614124Y-133045643D01*
X187614119Y-133045641D01*
X187447697Y-132990494D01*
X187447690Y-132990493D01*
X187344986Y-132980000D01*
X187270000Y-132980000D01*
X187270000Y-134330000D01*
X186770000Y-134330000D01*
X186770000Y-132980000D01*
X186769999Y-132979999D01*
X186695028Y-132980000D01*
X186695011Y-132980001D01*
X186592302Y-132990494D01*
X186425880Y-133045641D01*
X186425875Y-133045643D01*
X186276654Y-133137684D01*
X186152684Y-133261654D01*
X186056851Y-133417025D01*
X186055137Y-133415967D01*
X186015619Y-133460847D01*
X185949413Y-133480000D01*
X185140587Y-133480000D01*
X185073548Y-133460315D01*
X185034828Y-133415989D01*
X185033149Y-133417025D01*
X184937315Y-133261654D01*
X184813345Y-133137684D01*
X184664124Y-133045643D01*
X184664119Y-133045641D01*
X184497697Y-132990494D01*
X184497690Y-132990493D01*
X184394986Y-132980000D01*
X184320000Y-132980000D01*
X184320000Y-136203451D01*
X184325275Y-136213112D01*
X184322042Y-136277781D01*
X184320291Y-136283168D01*
X184320291Y-136283170D01*
X184289500Y-136477577D01*
X184289500Y-137355218D01*
X184269815Y-137422257D01*
X184217011Y-137468012D01*
X184147853Y-137477956D01*
X184090013Y-137453593D01*
X183946495Y-137343466D01*
X183946491Y-137343464D01*
X183753520Y-137232054D01*
X183753502Y-137232045D01*
X183547618Y-137146763D01*
X183332367Y-137089088D01*
X183332354Y-137089085D01*
X183111425Y-137060000D01*
X182888575Y-137060000D01*
X182667645Y-137089085D01*
X182667632Y-137089088D01*
X182452381Y-137146763D01*
X182246497Y-137232045D01*
X182246479Y-137232054D01*
X182053511Y-137343462D01*
X181987595Y-137394042D01*
X182637706Y-138044153D01*
X182621058Y-138051049D01*
X182490030Y-138138599D01*
X182378599Y-138250030D01*
X182291049Y-138381058D01*
X182284153Y-138397706D01*
X181634042Y-137747595D01*
X181583462Y-137813511D01*
X181472054Y-138006479D01*
X181472045Y-138006497D01*
X181386763Y-138212381D01*
X181329088Y-138427632D01*
X181329085Y-138427645D01*
X181300000Y-138648575D01*
X176699658Y-138648575D01*
X176718587Y-135479986D01*
X183045001Y-135479986D01*
X183055494Y-135582697D01*
X183110641Y-135749119D01*
X183110643Y-135749124D01*
X183202684Y-135898345D01*
X183326654Y-136022315D01*
X183475875Y-136114356D01*
X183475880Y-136114358D01*
X183642302Y-136169505D01*
X183642309Y-136169506D01*
X183745019Y-136179999D01*
X183819999Y-136179998D01*
X183820000Y-136179998D01*
X183820000Y-134830000D01*
X183045001Y-134830000D01*
X183045001Y-135479986D01*
X176718587Y-135479986D01*
X176729340Y-133680013D01*
X183045000Y-133680013D01*
X183045000Y-134330000D01*
X183820000Y-134330000D01*
X183820000Y-132980000D01*
X183819999Y-132979999D01*
X183745028Y-132980000D01*
X183745011Y-132980001D01*
X183642302Y-132990494D01*
X183475880Y-133045641D01*
X183475875Y-133045643D01*
X183326654Y-133137684D01*
X183202684Y-133261654D01*
X183110643Y-133410875D01*
X183110641Y-133410880D01*
X183055494Y-133577302D01*
X183055493Y-133577309D01*
X183045000Y-133680013D01*
X176729340Y-133680013D01*
X176763542Y-127954708D01*
X178049525Y-127955381D01*
G37*
%TD.AperFunction*%
%TD*%
%TA.AperFunction,Conductor*%
%TO.N,+12V*%
G36*
X146602062Y-62726129D02*
G01*
X146622704Y-62742763D01*
X146650066Y-62770125D01*
X146683551Y-62831448D01*
X146686385Y-62857806D01*
X146686385Y-73355285D01*
X146677741Y-73384722D01*
X146671220Y-73414706D01*
X146667463Y-73419725D01*
X146666700Y-73422324D01*
X146650071Y-73442961D01*
X146622696Y-73470339D01*
X146561375Y-73503828D01*
X146535028Y-73506663D01*
X136836810Y-73508037D01*
X127138597Y-73509410D01*
X127071554Y-73489735D01*
X127050911Y-73473104D01*
X127023545Y-73445746D01*
X126990051Y-73384428D01*
X126987213Y-73358076D01*
X126986703Y-69758599D01*
X127971385Y-69758599D01*
X127971385Y-70856444D01*
X129009024Y-70856444D01*
X129002128Y-70873093D01*
X128971385Y-71027651D01*
X128971385Y-71185237D01*
X129002128Y-71339795D01*
X129009024Y-71356444D01*
X127971385Y-71356444D01*
X127971385Y-72454288D01*
X127977786Y-72513816D01*
X127977788Y-72513823D01*
X128028030Y-72648530D01*
X128028034Y-72648537D01*
X128114194Y-72763631D01*
X128114197Y-72763634D01*
X128229291Y-72849794D01*
X128229298Y-72849798D01*
X128364005Y-72900040D01*
X128364012Y-72900042D01*
X128423540Y-72906443D01*
X128423557Y-72906444D01*
X129521385Y-72906444D01*
X129521385Y-71868804D01*
X129538034Y-71875701D01*
X129692592Y-71906444D01*
X129850178Y-71906444D01*
X130004736Y-71875701D01*
X130021385Y-71868804D01*
X130021385Y-72906444D01*
X131119213Y-72906444D01*
X131119229Y-72906443D01*
X131178757Y-72900042D01*
X131178764Y-72900040D01*
X131313471Y-72849798D01*
X131313478Y-72849794D01*
X131428572Y-72763634D01*
X131428575Y-72763631D01*
X131514735Y-72648537D01*
X131514739Y-72648530D01*
X131564981Y-72513823D01*
X131564983Y-72513816D01*
X131571384Y-72454288D01*
X131571385Y-72454271D01*
X131571385Y-71356444D01*
X130533746Y-71356444D01*
X130540642Y-71339795D01*
X130571385Y-71185237D01*
X130571385Y-71027651D01*
X130540642Y-70873093D01*
X130533746Y-70856444D01*
X131571385Y-70856444D01*
X131571385Y-69758616D01*
X131571384Y-69758599D01*
X131564983Y-69699071D01*
X131564981Y-69699064D01*
X131514739Y-69564357D01*
X131514735Y-69564350D01*
X131428575Y-69449256D01*
X131428572Y-69449253D01*
X131313478Y-69363093D01*
X131313471Y-69363089D01*
X131178764Y-69312847D01*
X131178757Y-69312845D01*
X131119229Y-69306444D01*
X130021385Y-69306444D01*
X130021385Y-70344083D01*
X130004736Y-70337187D01*
X129850178Y-70306444D01*
X129692592Y-70306444D01*
X129538034Y-70337187D01*
X129521385Y-70344083D01*
X129521385Y-69306444D01*
X128423540Y-69306444D01*
X128364012Y-69312845D01*
X128364005Y-69312847D01*
X128229298Y-69363089D01*
X128229291Y-69363093D01*
X128114197Y-69449253D01*
X128114194Y-69449256D01*
X128028034Y-69564350D01*
X128028030Y-69564357D01*
X127977788Y-69699064D01*
X127977786Y-69699071D01*
X127971385Y-69758599D01*
X126986703Y-69758599D01*
X126986406Y-67657810D01*
X126995048Y-67628360D01*
X127001571Y-67598372D01*
X127005318Y-67593364D01*
X127006081Y-67590768D01*
X127022716Y-67570121D01*
X127050066Y-67542767D01*
X127111387Y-67509279D01*
X127137752Y-67506444D01*
X140786385Y-67506444D01*
X140786385Y-64988458D01*
X141786385Y-64988458D01*
X141786385Y-65224429D01*
X141817184Y-65458358D01*
X141878255Y-65686281D01*
X141968545Y-65904263D01*
X141968550Y-65904272D01*
X142086529Y-66108615D01*
X142086530Y-66108616D01*
X142149106Y-66190167D01*
X142985343Y-65353931D01*
X143010363Y-65414334D01*
X143081497Y-65520795D01*
X143172034Y-65611332D01*
X143278495Y-65682466D01*
X143338896Y-65707485D01*
X142502660Y-66543721D01*
X142584212Y-66606298D01*
X142584213Y-66606299D01*
X142788556Y-66724278D01*
X142788565Y-66724283D01*
X143006548Y-66814573D01*
X143006546Y-66814573D01*
X143234470Y-66875644D01*
X143468399Y-66906443D01*
X143468414Y-66906444D01*
X143704356Y-66906444D01*
X143704370Y-66906443D01*
X143938299Y-66875644D01*
X144166222Y-66814573D01*
X144384204Y-66724283D01*
X144384213Y-66724278D01*
X144588566Y-66606294D01*
X144670108Y-66543723D01*
X144670108Y-66543720D01*
X143833872Y-65707485D01*
X143894275Y-65682466D01*
X144000736Y-65611332D01*
X144091273Y-65520795D01*
X144162407Y-65414334D01*
X144187426Y-65353932D01*
X145023661Y-66190167D01*
X145023664Y-66190167D01*
X145086235Y-66108625D01*
X145204219Y-65904272D01*
X145204224Y-65904263D01*
X145294514Y-65686281D01*
X145355585Y-65458358D01*
X145386384Y-65224429D01*
X145386385Y-65224415D01*
X145386385Y-64988472D01*
X145386384Y-64988458D01*
X145355585Y-64754529D01*
X145294514Y-64526606D01*
X145204224Y-64308624D01*
X145204219Y-64308615D01*
X145086240Y-64104272D01*
X145086239Y-64104271D01*
X145023662Y-64022719D01*
X144187426Y-64858955D01*
X144162407Y-64798554D01*
X144091273Y-64692093D01*
X144000736Y-64601556D01*
X143894275Y-64530422D01*
X143833873Y-64505402D01*
X144670108Y-63669165D01*
X144588557Y-63606589D01*
X144588556Y-63606588D01*
X144384213Y-63488609D01*
X144384204Y-63488604D01*
X144166221Y-63398314D01*
X144166223Y-63398314D01*
X143938299Y-63337243D01*
X143704370Y-63306444D01*
X143468399Y-63306444D01*
X143234470Y-63337243D01*
X143006547Y-63398314D01*
X142788565Y-63488604D01*
X142788556Y-63488609D01*
X142584213Y-63606588D01*
X142584203Y-63606594D01*
X142502660Y-63669164D01*
X142502660Y-63669165D01*
X143338897Y-64505402D01*
X143278495Y-64530422D01*
X143172034Y-64601556D01*
X143081497Y-64692093D01*
X143010363Y-64798554D01*
X142985343Y-64858955D01*
X142149106Y-64022719D01*
X142149105Y-64022719D01*
X142086535Y-64104262D01*
X142086529Y-64104272D01*
X141968550Y-64308615D01*
X141968545Y-64308624D01*
X141878255Y-64526606D01*
X141817184Y-64754529D01*
X141786385Y-64988458D01*
X140786385Y-64988458D01*
X140786385Y-62857806D01*
X140795029Y-62828365D01*
X140801553Y-62798379D01*
X140805307Y-62793363D01*
X140806070Y-62790767D01*
X140822704Y-62770125D01*
X140850066Y-62742763D01*
X140911389Y-62709278D01*
X140937747Y-62706444D01*
X146535023Y-62706444D01*
X146602062Y-62726129D01*
G37*
%TD.AperFunction*%
%TD*%
D47*
X114860000Y-60660000D02*
X205160000Y-60660000D01*
X205160000Y-145660000D01*
X114860000Y-145660000D01*
X114860000Y-60660000D01*
M02*
