%TF.GenerationSoftware,KiCad,Pcbnew,10.0.3*%
%TF.CreationDate,2026-07-23T11:09:39-03:00*%
%TF.ProjectId,Modulo_SIMA7670SA,4d6f6475-6c6f-45f5-9349-4d4137363730,rev?*%
%TF.SameCoordinates,Original*%
%TF.FileFunction,Soldermask,Bot*%
%TF.FilePolarity,Negative*%
%FSLAX46Y46*%
G04 Gerber Fmt 4.6, Leading zero omitted, Abs format (unit mm)*
G04 Created by KiCad (PCBNEW 10.0.3) date 2026-07-23 11:09:39*
%MOMM*%
%LPD*%
G01*
G04 APERTURE LIST*
G04 Aperture macros list*
%AMRoundRect*
0 Rectangle with rounded corners*
0 $1 Rounding radius*
0 $2 $3 $4 $5 $6 $7 $8 $9 X,Y pos of 4 corners*
0 Add a 4 corners polygon primitive as box body*
4,1,4,$2,$3,$4,$5,$6,$7,$8,$9,$2,$3,0*
0 Add four circle primitives for the rounded corners*
1,1,$1+$1,$2,$3*
1,1,$1+$1,$4,$5*
1,1,$1+$1,$6,$7*
1,1,$1+$1,$8,$9*
0 Add four rect primitives between the rounded corners*
20,1,$1+$1,$2,$3,$4,$5,0*
20,1,$1+$1,$4,$5,$6,$7,0*
20,1,$1+$1,$6,$7,$8,$9,0*
20,1,$1+$1,$8,$9,$2,$3,0*%
G04 Aperture macros list end*
%ADD10R,2.600000X2.600000*%
%ADD11C,2.600000*%
%ADD12C,1.600000*%
%ADD13RoundRect,0.250000X-1.050000X-1.050000X1.050000X-1.050000X1.050000X1.050000X-1.050000X1.050000X0*%
%ADD14C,1.700000*%
%ADD15R,1.700000X1.700000*%
%ADD16C,2.604000*%
%ADD17R,1.800000X1.800000*%
%ADD18C,1.800000*%
%ADD19R,1.905000X2.000000*%
%ADD20O,1.905000X2.000000*%
%ADD21RoundRect,0.250000X0.550000X0.550000X-0.550000X0.550000X-0.550000X-0.550000X0.550000X-0.550000X0*%
%ADD22RoundRect,0.250000X-0.550000X0.550000X-0.550000X-0.550000X0.550000X-0.550000X0.550000X0.550000X0*%
%ADD23C,4.000000*%
%ADD24RoundRect,0.250000X0.550000X-0.550000X0.550000X0.550000X-0.550000X0.550000X-0.550000X-0.550000X0*%
%ADD25R,1.600000X1.600000*%
%ADD26RoundRect,0.250000X0.550000X-0.950000X0.550000X0.950000X-0.550000X0.950000X-0.550000X-0.950000X0*%
%ADD27O,1.600000X2.400000*%
%ADD28RoundRect,0.250000X-0.550000X-0.550000X0.550000X-0.550000X0.550000X0.550000X-0.550000X0.550000X0*%
%TA.AperFunction,Profile*%
%ADD29C,0.500000*%
%TD*%
G04 APERTURE END LIST*
D10*
%TO.C,J5*%
X129771385Y-71106444D03*
D11*
X129771385Y-65106444D03*
X125071385Y-68106444D03*
%TD*%
D12*
%TO.C,C11*%
X134205000Y-75710000D03*
X131705000Y-75710000D03*
%TD*%
%TO.C,C10*%
X137305000Y-75710000D03*
X139805000Y-75710000D03*
%TD*%
D13*
%TO.C,J1*%
X138586385Y-65106444D03*
D11*
X143586385Y-65106444D03*
%TD*%
D14*
%TO.C,JP4*%
X148660000Y-67560000D03*
D15*
X148660000Y-65020000D03*
%TD*%
D16*
%TO.C,J4*%
X185540000Y-141300000D03*
X188080000Y-138760000D03*
X183000000Y-138760000D03*
X183000000Y-143840000D03*
X188080000Y-143840000D03*
%TD*%
D15*
%TO.C,U3*%
X190552349Y-99130000D03*
D14*
X188012349Y-99130000D03*
X185472349Y-99130000D03*
X182932349Y-99130000D03*
X180392349Y-99130000D03*
X177852349Y-99130000D03*
X175312349Y-99130000D03*
%TD*%
D12*
%TO.C,C9*%
X154940000Y-126885000D03*
X154940000Y-129385000D03*
%TD*%
D17*
%TO.C,D2*%
X118360000Y-78260000D03*
D18*
X118360000Y-80800000D03*
X118360000Y-83340000D03*
%TD*%
D19*
%TO.C,U7*%
X138245000Y-78860000D03*
D20*
X135705000Y-78860000D03*
X133165000Y-78860000D03*
%TD*%
D21*
%TO.C,C7*%
X181560000Y-107760000D03*
D12*
X176560000Y-107760000D03*
%TD*%
D21*
%TO.C,C12*%
X148360000Y-75360000D03*
D12*
X143360000Y-75360000D03*
%TD*%
D15*
%TO.C,JP1*%
X133160000Y-84360000D03*
D14*
X133160000Y-86900000D03*
%TD*%
D22*
%TO.C,C2*%
X134165000Y-125319888D03*
D12*
X134165000Y-127319888D03*
%TD*%
D23*
%TO.C,H4*%
X201160000Y-141560000D03*
%TD*%
D17*
%TO.C,D3*%
X118360000Y-70820000D03*
D18*
X118360000Y-73360000D03*
X118360000Y-75900000D03*
%TD*%
D24*
%TO.C,C4*%
X134275000Y-132825000D03*
D12*
X134275000Y-130825000D03*
%TD*%
D23*
%TO.C,H1*%
X118860000Y-141660000D03*
%TD*%
%TO.C,H2*%
X118960000Y-64760000D03*
%TD*%
%TO.C,J2*%
X127780000Y-140330000D03*
X152780000Y-140330000D03*
D25*
X145820000Y-137490000D03*
D12*
X143050000Y-137490000D03*
X140280000Y-137490000D03*
X137510000Y-137490000D03*
X134740000Y-137490000D03*
X144435000Y-140330000D03*
X141665000Y-140330000D03*
X138895000Y-140330000D03*
X136125000Y-140330000D03*
%TD*%
D23*
%TO.C,H3*%
X201060000Y-64760000D03*
%TD*%
D26*
%TO.C,U5*%
X118040000Y-112460000D03*
D27*
X120580000Y-112460000D03*
X123120000Y-112460000D03*
X125660000Y-112460000D03*
X128200000Y-112460000D03*
X130740000Y-112460000D03*
X133280000Y-112460000D03*
X135820000Y-112460000D03*
X138360000Y-112460000D03*
X140900000Y-112460000D03*
X143440000Y-112460000D03*
X145980000Y-112460000D03*
X148520000Y-112460000D03*
X151060000Y-112460000D03*
X153600000Y-112460000D03*
X156140000Y-112460000D03*
X158680000Y-112460000D03*
X161220000Y-112460000D03*
X163760000Y-112460000D03*
X166300000Y-112460000D03*
X166300000Y-97220000D03*
X163760000Y-97220000D03*
X161220000Y-97220000D03*
X158680000Y-97220000D03*
X156140000Y-97220000D03*
X153600000Y-97220000D03*
X151060000Y-97220000D03*
X148520000Y-97220000D03*
X145980000Y-97220000D03*
X143440000Y-97220000D03*
X140900000Y-97220000D03*
X138360000Y-97220000D03*
X135820000Y-97220000D03*
X133280000Y-97220000D03*
X130740000Y-97220000D03*
X128200000Y-97220000D03*
X125660000Y-97220000D03*
X123120000Y-97220000D03*
X120580000Y-97220000D03*
X118040000Y-97220000D03*
%TD*%
D12*
%TO.C,C5*%
X146180000Y-122040000D03*
X146180000Y-124540000D03*
%TD*%
D28*
%TO.C,C3*%
X139874888Y-119030000D03*
D12*
X141874888Y-119030000D03*
%TD*%
%TO.C,C6*%
X180307349Y-101860000D03*
X177807349Y-101860000D03*
%TD*%
D22*
%TO.C,C1*%
X134175000Y-119795000D03*
D12*
X134175000Y-121795000D03*
%TD*%
D15*
%TO.C,JP5*%
X166341250Y-120035000D03*
D14*
X166341250Y-122575000D03*
%TD*%
D28*
%TO.C,C13*%
X118060000Y-91460000D03*
D12*
X123060000Y-91460000D03*
%TD*%
D15*
%TO.C,JP2*%
X183635000Y-87960000D03*
D14*
X181095000Y-87960000D03*
%TD*%
%TO.C,U6*%
X154935000Y-67635000D03*
X154860000Y-82660000D03*
X194910000Y-82660000D03*
X194910000Y-67585000D03*
%TD*%
D12*
%TO.C,C8*%
X118060000Y-100460000D03*
X120560000Y-100460000D03*
%TD*%
D15*
%TO.C,JP3*%
X128235000Y-116160000D03*
D14*
X125695000Y-116160000D03*
%TD*%
D29*
X114860000Y-60660000D02*
X205160000Y-60660000D01*
X205160000Y-145660000D01*
X114860000Y-145660000D01*
X114860000Y-60660000D01*
M02*
