%TF.GenerationSoftware,KiCad,Pcbnew,10.0.3*%
%TF.CreationDate,2026-09-10T08:43:52-03:00*%
%TF.ProjectId,Modulo_SIMA7670SA,4d6f6475-6c6f-45f5-9349-4d4137363730,rev?*%
%TF.SameCoordinates,Original*%
%TF.FileFunction,AssemblyDrawing,Top*%
%FSLAX46Y46*%
G04 Gerber Fmt 4.6, Leading zero omitted, Abs format (unit mm)*
G04 Created by KiCad (PCBNEW 10.0.3) date 2026-09-10 08:43:52*
%MOMM*%
%LPD*%
G01*
G04 APERTURE LIST*
%ADD10C,0.090000*%
%ADD11C,0.120000*%
%ADD12C,0.150000*%
%ADD13C,0.100000*%
%TA.AperFunction,Profile*%
%ADD14C,0.500000*%
%TD*%
G04 APERTURE END LIST*
D10*
X185344999Y-134252891D02*
X185344999Y-134681462D01*
X185344999Y-134681462D02*
X185316428Y-134767177D01*
X185316428Y-134767177D02*
X185259285Y-134824320D01*
X185259285Y-134824320D02*
X185173571Y-134852891D01*
X185173571Y-134852891D02*
X185116428Y-134852891D01*
X185573571Y-134252891D02*
X185944999Y-134252891D01*
X185944999Y-134252891D02*
X185744999Y-134481462D01*
X185744999Y-134481462D02*
X185830714Y-134481462D01*
X185830714Y-134481462D02*
X185887857Y-134510034D01*
X185887857Y-134510034D02*
X185916428Y-134538605D01*
X185916428Y-134538605D02*
X185944999Y-134595748D01*
X185944999Y-134595748D02*
X185944999Y-134738605D01*
X185944999Y-134738605D02*
X185916428Y-134795748D01*
X185916428Y-134795748D02*
X185887857Y-134824320D01*
X185887857Y-134824320D02*
X185830714Y-134852891D01*
X185830714Y-134852891D02*
X185659285Y-134852891D01*
X185659285Y-134852891D02*
X185602142Y-134824320D01*
X185602142Y-134824320D02*
X185573571Y-134795748D01*
D11*
X118723855Y-81390475D02*
X117923855Y-81390475D01*
X117923855Y-81390475D02*
X117923855Y-81199999D01*
X117923855Y-81199999D02*
X117961950Y-81085713D01*
X117961950Y-81085713D02*
X118038140Y-81009523D01*
X118038140Y-81009523D02*
X118114331Y-80971428D01*
X118114331Y-80971428D02*
X118266712Y-80933332D01*
X118266712Y-80933332D02*
X118380998Y-80933332D01*
X118380998Y-80933332D02*
X118533379Y-80971428D01*
X118533379Y-80971428D02*
X118609569Y-81009523D01*
X118609569Y-81009523D02*
X118685760Y-81085713D01*
X118685760Y-81085713D02*
X118723855Y-81199999D01*
X118723855Y-81199999D02*
X118723855Y-81390475D01*
X118000045Y-80628571D02*
X117961950Y-80590475D01*
X117961950Y-80590475D02*
X117923855Y-80514285D01*
X117923855Y-80514285D02*
X117923855Y-80323809D01*
X117923855Y-80323809D02*
X117961950Y-80247618D01*
X117961950Y-80247618D02*
X118000045Y-80209523D01*
X118000045Y-80209523D02*
X118076236Y-80171428D01*
X118076236Y-80171428D02*
X118152426Y-80171428D01*
X118152426Y-80171428D02*
X118266712Y-80209523D01*
X118266712Y-80209523D02*
X118723855Y-80666666D01*
X118723855Y-80666666D02*
X118723855Y-80171428D01*
D12*
X134524580Y-126486554D02*
X134572200Y-126534173D01*
X134572200Y-126534173D02*
X134619819Y-126677030D01*
X134619819Y-126677030D02*
X134619819Y-126772268D01*
X134619819Y-126772268D02*
X134572200Y-126915125D01*
X134572200Y-126915125D02*
X134476961Y-127010363D01*
X134476961Y-127010363D02*
X134381723Y-127057982D01*
X134381723Y-127057982D02*
X134191247Y-127105601D01*
X134191247Y-127105601D02*
X134048390Y-127105601D01*
X134048390Y-127105601D02*
X133857914Y-127057982D01*
X133857914Y-127057982D02*
X133762676Y-127010363D01*
X133762676Y-127010363D02*
X133667438Y-126915125D01*
X133667438Y-126915125D02*
X133619819Y-126772268D01*
X133619819Y-126772268D02*
X133619819Y-126677030D01*
X133619819Y-126677030D02*
X133667438Y-126534173D01*
X133667438Y-126534173D02*
X133715057Y-126486554D01*
X133715057Y-126105601D02*
X133667438Y-126057982D01*
X133667438Y-126057982D02*
X133619819Y-125962744D01*
X133619819Y-125962744D02*
X133619819Y-125724649D01*
X133619819Y-125724649D02*
X133667438Y-125629411D01*
X133667438Y-125629411D02*
X133715057Y-125581792D01*
X133715057Y-125581792D02*
X133810295Y-125534173D01*
X133810295Y-125534173D02*
X133905533Y-125534173D01*
X133905533Y-125534173D02*
X134048390Y-125581792D01*
X134048390Y-125581792D02*
X134619819Y-126153220D01*
X134619819Y-126153220D02*
X134619819Y-125534173D01*
X129438051Y-64061263D02*
X129438051Y-64775548D01*
X129438051Y-64775548D02*
X129390432Y-64918405D01*
X129390432Y-64918405D02*
X129295194Y-65013644D01*
X129295194Y-65013644D02*
X129152337Y-65061263D01*
X129152337Y-65061263D02*
X129057099Y-65061263D01*
X130390432Y-64061263D02*
X129914242Y-64061263D01*
X129914242Y-64061263D02*
X129866623Y-64537453D01*
X129866623Y-64537453D02*
X129914242Y-64489834D01*
X129914242Y-64489834D02*
X130009480Y-64442215D01*
X130009480Y-64442215D02*
X130247575Y-64442215D01*
X130247575Y-64442215D02*
X130342813Y-64489834D01*
X130342813Y-64489834D02*
X130390432Y-64537453D01*
X130390432Y-64537453D02*
X130438051Y-64632691D01*
X130438051Y-64632691D02*
X130438051Y-64870786D01*
X130438051Y-64870786D02*
X130390432Y-64966024D01*
X130390432Y-64966024D02*
X130342813Y-65013644D01*
X130342813Y-65013644D02*
X130247575Y-65061263D01*
X130247575Y-65061263D02*
X130009480Y-65061263D01*
X130009480Y-65061263D02*
X129914242Y-65013644D01*
X129914242Y-65013644D02*
X129866623Y-64966024D01*
X200398095Y-142014819D02*
X200398095Y-141014819D01*
X200398095Y-141491009D02*
X200969523Y-141491009D01*
X200969523Y-142014819D02*
X200969523Y-141014819D01*
X201874285Y-141348152D02*
X201874285Y-142014819D01*
X201636190Y-140967200D02*
X201398095Y-141681485D01*
X201398095Y-141681485D02*
X202017142Y-141681485D01*
D11*
X118723855Y-73950475D02*
X117923855Y-73950475D01*
X117923855Y-73950475D02*
X117923855Y-73759999D01*
X117923855Y-73759999D02*
X117961950Y-73645713D01*
X117961950Y-73645713D02*
X118038140Y-73569523D01*
X118038140Y-73569523D02*
X118114331Y-73531428D01*
X118114331Y-73531428D02*
X118266712Y-73493332D01*
X118266712Y-73493332D02*
X118380998Y-73493332D01*
X118380998Y-73493332D02*
X118533379Y-73531428D01*
X118533379Y-73531428D02*
X118609569Y-73569523D01*
X118609569Y-73569523D02*
X118685760Y-73645713D01*
X118685760Y-73645713D02*
X118723855Y-73759999D01*
X118723855Y-73759999D02*
X118723855Y-73950475D01*
X117923855Y-73226666D02*
X117923855Y-72731428D01*
X117923855Y-72731428D02*
X118228617Y-72998094D01*
X118228617Y-72998094D02*
X118228617Y-72883809D01*
X118228617Y-72883809D02*
X118266712Y-72807618D01*
X118266712Y-72807618D02*
X118304807Y-72769523D01*
X118304807Y-72769523D02*
X118380998Y-72731428D01*
X118380998Y-72731428D02*
X118571474Y-72731428D01*
X118571474Y-72731428D02*
X118647664Y-72769523D01*
X118647664Y-72769523D02*
X118685760Y-72807618D01*
X118685760Y-72807618D02*
X118723855Y-72883809D01*
X118723855Y-72883809D02*
X118723855Y-73112380D01*
X118723855Y-73112380D02*
X118685760Y-73188571D01*
X118685760Y-73188571D02*
X118647664Y-73226666D01*
D12*
X134634580Y-131991666D02*
X134682200Y-132039285D01*
X134682200Y-132039285D02*
X134729819Y-132182142D01*
X134729819Y-132182142D02*
X134729819Y-132277380D01*
X134729819Y-132277380D02*
X134682200Y-132420237D01*
X134682200Y-132420237D02*
X134586961Y-132515475D01*
X134586961Y-132515475D02*
X134491723Y-132563094D01*
X134491723Y-132563094D02*
X134301247Y-132610713D01*
X134301247Y-132610713D02*
X134158390Y-132610713D01*
X134158390Y-132610713D02*
X133967914Y-132563094D01*
X133967914Y-132563094D02*
X133872676Y-132515475D01*
X133872676Y-132515475D02*
X133777438Y-132420237D01*
X133777438Y-132420237D02*
X133729819Y-132277380D01*
X133729819Y-132277380D02*
X133729819Y-132182142D01*
X133729819Y-132182142D02*
X133777438Y-132039285D01*
X133777438Y-132039285D02*
X133825057Y-131991666D01*
X134063152Y-131134523D02*
X134729819Y-131134523D01*
X133682200Y-131372618D02*
X134396485Y-131610713D01*
X134396485Y-131610713D02*
X134396485Y-130991666D01*
X118098095Y-142114819D02*
X118098095Y-141114819D01*
X118098095Y-141591009D02*
X118669523Y-141591009D01*
X118669523Y-142114819D02*
X118669523Y-141114819D01*
X119669523Y-142114819D02*
X119098095Y-142114819D01*
X119383809Y-142114819D02*
X119383809Y-141114819D01*
X119383809Y-141114819D02*
X119288571Y-141257676D01*
X119288571Y-141257676D02*
X119193333Y-141352914D01*
X119193333Y-141352914D02*
X119098095Y-141400533D01*
X118198095Y-65214819D02*
X118198095Y-64214819D01*
X118198095Y-64691009D02*
X118769523Y-64691009D01*
X118769523Y-65214819D02*
X118769523Y-64214819D01*
X119198095Y-64310057D02*
X119245714Y-64262438D01*
X119245714Y-64262438D02*
X119340952Y-64214819D01*
X119340952Y-64214819D02*
X119579047Y-64214819D01*
X119579047Y-64214819D02*
X119674285Y-64262438D01*
X119674285Y-64262438D02*
X119721904Y-64310057D01*
X119721904Y-64310057D02*
X119769523Y-64405295D01*
X119769523Y-64405295D02*
X119769523Y-64500533D01*
X119769523Y-64500533D02*
X119721904Y-64643390D01*
X119721904Y-64643390D02*
X119150476Y-65214819D01*
X119150476Y-65214819D02*
X119769523Y-65214819D01*
X130779999Y-153794819D02*
X130779999Y-152794819D01*
X130779999Y-152794819D02*
X131018094Y-152794819D01*
X131018094Y-152794819D02*
X131160951Y-152842438D01*
X131160951Y-152842438D02*
X131256189Y-152937676D01*
X131256189Y-152937676D02*
X131303808Y-153032914D01*
X131303808Y-153032914D02*
X131351427Y-153223390D01*
X131351427Y-153223390D02*
X131351427Y-153366247D01*
X131351427Y-153366247D02*
X131303808Y-153556723D01*
X131303808Y-153556723D02*
X131256189Y-153651961D01*
X131256189Y-153651961D02*
X131160951Y-153747200D01*
X131160951Y-153747200D02*
X131018094Y-153794819D01*
X131018094Y-153794819D02*
X130779999Y-153794819D01*
X132113332Y-153271009D02*
X132256189Y-153318628D01*
X132256189Y-153318628D02*
X132303808Y-153366247D01*
X132303808Y-153366247D02*
X132351427Y-153461485D01*
X132351427Y-153461485D02*
X132351427Y-153604342D01*
X132351427Y-153604342D02*
X132303808Y-153699580D01*
X132303808Y-153699580D02*
X132256189Y-153747200D01*
X132256189Y-153747200D02*
X132160951Y-153794819D01*
X132160951Y-153794819D02*
X131779999Y-153794819D01*
X131779999Y-153794819D02*
X131779999Y-152794819D01*
X131779999Y-152794819D02*
X132113332Y-152794819D01*
X132113332Y-152794819D02*
X132208570Y-152842438D01*
X132208570Y-152842438D02*
X132256189Y-152890057D01*
X132256189Y-152890057D02*
X132303808Y-152985295D01*
X132303808Y-152985295D02*
X132303808Y-153080533D01*
X132303808Y-153080533D02*
X132256189Y-153175771D01*
X132256189Y-153175771D02*
X132208570Y-153223390D01*
X132208570Y-153223390D02*
X132113332Y-153271009D01*
X132113332Y-153271009D02*
X131779999Y-153271009D01*
X132827618Y-153794819D02*
X133018094Y-153794819D01*
X133018094Y-153794819D02*
X133113332Y-153747200D01*
X133113332Y-153747200D02*
X133160951Y-153699580D01*
X133160951Y-153699580D02*
X133256189Y-153556723D01*
X133256189Y-153556723D02*
X133303808Y-153366247D01*
X133303808Y-153366247D02*
X133303808Y-152985295D01*
X133303808Y-152985295D02*
X133256189Y-152890057D01*
X133256189Y-152890057D02*
X133208570Y-152842438D01*
X133208570Y-152842438D02*
X133113332Y-152794819D01*
X133113332Y-152794819D02*
X132922856Y-152794819D01*
X132922856Y-152794819D02*
X132827618Y-152842438D01*
X132827618Y-152842438D02*
X132779999Y-152890057D01*
X132779999Y-152890057D02*
X132732380Y-152985295D01*
X132732380Y-152985295D02*
X132732380Y-153223390D01*
X132732380Y-153223390D02*
X132779999Y-153318628D01*
X132779999Y-153318628D02*
X132827618Y-153366247D01*
X132827618Y-153366247D02*
X132922856Y-153413866D01*
X132922856Y-153413866D02*
X133113332Y-153413866D01*
X133113332Y-153413866D02*
X133208570Y-153366247D01*
X133208570Y-153366247D02*
X133256189Y-153318628D01*
X133256189Y-153318628D02*
X133303808Y-153223390D01*
X134494285Y-153794819D02*
X134494285Y-152794819D01*
X134494285Y-153271009D02*
X135065713Y-153271009D01*
X135065713Y-153794819D02*
X135065713Y-152794819D01*
X135922856Y-153747200D02*
X135827618Y-153794819D01*
X135827618Y-153794819D02*
X135637142Y-153794819D01*
X135637142Y-153794819D02*
X135541904Y-153747200D01*
X135541904Y-153747200D02*
X135494285Y-153651961D01*
X135494285Y-153651961D02*
X135494285Y-153271009D01*
X135494285Y-153271009D02*
X135541904Y-153175771D01*
X135541904Y-153175771D02*
X135637142Y-153128152D01*
X135637142Y-153128152D02*
X135827618Y-153128152D01*
X135827618Y-153128152D02*
X135922856Y-153175771D01*
X135922856Y-153175771D02*
X135970475Y-153271009D01*
X135970475Y-153271009D02*
X135970475Y-153366247D01*
X135970475Y-153366247D02*
X135494285Y-153461485D01*
X136399047Y-153794819D02*
X136399047Y-153128152D01*
X136399047Y-153223390D02*
X136446666Y-153175771D01*
X136446666Y-153175771D02*
X136541904Y-153128152D01*
X136541904Y-153128152D02*
X136684761Y-153128152D01*
X136684761Y-153128152D02*
X136779999Y-153175771D01*
X136779999Y-153175771D02*
X136827618Y-153271009D01*
X136827618Y-153271009D02*
X136827618Y-153794819D01*
X136827618Y-153271009D02*
X136875237Y-153175771D01*
X136875237Y-153175771D02*
X136970475Y-153128152D01*
X136970475Y-153128152D02*
X137113332Y-153128152D01*
X137113332Y-153128152D02*
X137208571Y-153175771D01*
X137208571Y-153175771D02*
X137256190Y-153271009D01*
X137256190Y-153271009D02*
X137256190Y-153794819D01*
X137732380Y-153794819D02*
X137732380Y-152794819D01*
X137732380Y-153175771D02*
X137827618Y-153128152D01*
X137827618Y-153128152D02*
X138018094Y-153128152D01*
X138018094Y-153128152D02*
X138113332Y-153175771D01*
X138113332Y-153175771D02*
X138160951Y-153223390D01*
X138160951Y-153223390D02*
X138208570Y-153318628D01*
X138208570Y-153318628D02*
X138208570Y-153604342D01*
X138208570Y-153604342D02*
X138160951Y-153699580D01*
X138160951Y-153699580D02*
X138113332Y-153747200D01*
X138113332Y-153747200D02*
X138018094Y-153794819D01*
X138018094Y-153794819D02*
X137827618Y-153794819D01*
X137827618Y-153794819D02*
X137732380Y-153747200D01*
X138637142Y-153794819D02*
X138637142Y-153128152D01*
X138637142Y-153318628D02*
X138684761Y-153223390D01*
X138684761Y-153223390D02*
X138732380Y-153175771D01*
X138732380Y-153175771D02*
X138827618Y-153128152D01*
X138827618Y-153128152D02*
X138922856Y-153128152D01*
X139684761Y-153794819D02*
X139684761Y-153271009D01*
X139684761Y-153271009D02*
X139637142Y-153175771D01*
X139637142Y-153175771D02*
X139541904Y-153128152D01*
X139541904Y-153128152D02*
X139351428Y-153128152D01*
X139351428Y-153128152D02*
X139256190Y-153175771D01*
X139684761Y-153747200D02*
X139589523Y-153794819D01*
X139589523Y-153794819D02*
X139351428Y-153794819D01*
X139351428Y-153794819D02*
X139256190Y-153747200D01*
X139256190Y-153747200D02*
X139208571Y-153651961D01*
X139208571Y-153651961D02*
X139208571Y-153556723D01*
X139208571Y-153556723D02*
X139256190Y-153461485D01*
X139256190Y-153461485D02*
X139351428Y-153413866D01*
X139351428Y-153413866D02*
X139589523Y-153413866D01*
X139589523Y-153413866D02*
X139684761Y-153366247D01*
X140922857Y-153794819D02*
X140922857Y-152794819D01*
X141399047Y-153794819D02*
X141399047Y-153128152D01*
X141399047Y-153223390D02*
X141446666Y-153175771D01*
X141446666Y-153175771D02*
X141541904Y-153128152D01*
X141541904Y-153128152D02*
X141684761Y-153128152D01*
X141684761Y-153128152D02*
X141779999Y-153175771D01*
X141779999Y-153175771D02*
X141827618Y-153271009D01*
X141827618Y-153271009D02*
X141827618Y-153794819D01*
X141827618Y-153271009D02*
X141875237Y-153175771D01*
X141875237Y-153175771D02*
X141970475Y-153128152D01*
X141970475Y-153128152D02*
X142113332Y-153128152D01*
X142113332Y-153128152D02*
X142208571Y-153175771D01*
X142208571Y-153175771D02*
X142256190Y-153271009D01*
X142256190Y-153271009D02*
X142256190Y-153794819D01*
X142732380Y-153128152D02*
X142732380Y-154128152D01*
X142732380Y-153175771D02*
X142827618Y-153128152D01*
X142827618Y-153128152D02*
X143018094Y-153128152D01*
X143018094Y-153128152D02*
X143113332Y-153175771D01*
X143113332Y-153175771D02*
X143160951Y-153223390D01*
X143160951Y-153223390D02*
X143208570Y-153318628D01*
X143208570Y-153318628D02*
X143208570Y-153604342D01*
X143208570Y-153604342D02*
X143160951Y-153699580D01*
X143160951Y-153699580D02*
X143113332Y-153747200D01*
X143113332Y-153747200D02*
X143018094Y-153794819D01*
X143018094Y-153794819D02*
X142827618Y-153794819D01*
X142827618Y-153794819D02*
X142732380Y-153747200D01*
X143637142Y-153794819D02*
X143637142Y-153128152D01*
X143637142Y-153318628D02*
X143684761Y-153223390D01*
X143684761Y-153223390D02*
X143732380Y-153175771D01*
X143732380Y-153175771D02*
X143827618Y-153128152D01*
X143827618Y-153128152D02*
X143922856Y-153128152D01*
X144637142Y-153747200D02*
X144541904Y-153794819D01*
X144541904Y-153794819D02*
X144351428Y-153794819D01*
X144351428Y-153794819D02*
X144256190Y-153747200D01*
X144256190Y-153747200D02*
X144208571Y-153651961D01*
X144208571Y-153651961D02*
X144208571Y-153271009D01*
X144208571Y-153271009D02*
X144256190Y-153175771D01*
X144256190Y-153175771D02*
X144351428Y-153128152D01*
X144351428Y-153128152D02*
X144541904Y-153128152D01*
X144541904Y-153128152D02*
X144637142Y-153175771D01*
X144637142Y-153175771D02*
X144684761Y-153271009D01*
X144684761Y-153271009D02*
X144684761Y-153366247D01*
X144684761Y-153366247D02*
X144208571Y-153461485D01*
X145065714Y-153747200D02*
X145160952Y-153794819D01*
X145160952Y-153794819D02*
X145351428Y-153794819D01*
X145351428Y-153794819D02*
X145446666Y-153747200D01*
X145446666Y-153747200D02*
X145494285Y-153651961D01*
X145494285Y-153651961D02*
X145494285Y-153604342D01*
X145494285Y-153604342D02*
X145446666Y-153509104D01*
X145446666Y-153509104D02*
X145351428Y-153461485D01*
X145351428Y-153461485D02*
X145208571Y-153461485D01*
X145208571Y-153461485D02*
X145113333Y-153413866D01*
X145113333Y-153413866D02*
X145065714Y-153318628D01*
X145065714Y-153318628D02*
X145065714Y-153271009D01*
X145065714Y-153271009D02*
X145113333Y-153175771D01*
X145113333Y-153175771D02*
X145208571Y-153128152D01*
X145208571Y-153128152D02*
X145351428Y-153128152D01*
X145351428Y-153128152D02*
X145446666Y-153175771D01*
X146065714Y-153794819D02*
X145970476Y-153747200D01*
X145970476Y-153747200D02*
X145922857Y-153699580D01*
X145922857Y-153699580D02*
X145875238Y-153604342D01*
X145875238Y-153604342D02*
X145875238Y-153318628D01*
X145875238Y-153318628D02*
X145922857Y-153223390D01*
X145922857Y-153223390D02*
X145970476Y-153175771D01*
X145970476Y-153175771D02*
X146065714Y-153128152D01*
X146065714Y-153128152D02*
X146208571Y-153128152D01*
X146208571Y-153128152D02*
X146303809Y-153175771D01*
X146303809Y-153175771D02*
X146351428Y-153223390D01*
X146351428Y-153223390D02*
X146399047Y-153318628D01*
X146399047Y-153318628D02*
X146399047Y-153604342D01*
X146399047Y-153604342D02*
X146351428Y-153699580D01*
X146351428Y-153699580D02*
X146303809Y-153747200D01*
X146303809Y-153747200D02*
X146208571Y-153794819D01*
X146208571Y-153794819D02*
X146065714Y-153794819D01*
X147637143Y-153794819D02*
X147827619Y-153794819D01*
X147827619Y-153794819D02*
X147922857Y-153747200D01*
X147922857Y-153747200D02*
X147970476Y-153699580D01*
X147970476Y-153699580D02*
X148065714Y-153556723D01*
X148065714Y-153556723D02*
X148113333Y-153366247D01*
X148113333Y-153366247D02*
X148113333Y-152985295D01*
X148113333Y-152985295D02*
X148065714Y-152890057D01*
X148065714Y-152890057D02*
X148018095Y-152842438D01*
X148018095Y-152842438D02*
X147922857Y-152794819D01*
X147922857Y-152794819D02*
X147732381Y-152794819D01*
X147732381Y-152794819D02*
X147637143Y-152842438D01*
X147637143Y-152842438D02*
X147589524Y-152890057D01*
X147589524Y-152890057D02*
X147541905Y-152985295D01*
X147541905Y-152985295D02*
X147541905Y-153223390D01*
X147541905Y-153223390D02*
X147589524Y-153318628D01*
X147589524Y-153318628D02*
X147637143Y-153366247D01*
X147637143Y-153366247D02*
X147732381Y-153413866D01*
X147732381Y-153413866D02*
X147922857Y-153413866D01*
X147922857Y-153413866D02*
X148018095Y-153366247D01*
X148018095Y-153366247D02*
X148065714Y-153318628D01*
X148065714Y-153318628D02*
X148113333Y-153223390D01*
X148732381Y-152794819D02*
X148827619Y-152794819D01*
X148827619Y-152794819D02*
X148922857Y-152842438D01*
X148922857Y-152842438D02*
X148970476Y-152890057D01*
X148970476Y-152890057D02*
X149018095Y-152985295D01*
X149018095Y-152985295D02*
X149065714Y-153175771D01*
X149065714Y-153175771D02*
X149065714Y-153413866D01*
X149065714Y-153413866D02*
X149018095Y-153604342D01*
X149018095Y-153604342D02*
X148970476Y-153699580D01*
X148970476Y-153699580D02*
X148922857Y-153747200D01*
X148922857Y-153747200D02*
X148827619Y-153794819D01*
X148827619Y-153794819D02*
X148732381Y-153794819D01*
X148732381Y-153794819D02*
X148637143Y-153747200D01*
X148637143Y-153747200D02*
X148589524Y-153699580D01*
X148589524Y-153699580D02*
X148541905Y-153604342D01*
X148541905Y-153604342D02*
X148494286Y-153413866D01*
X148494286Y-153413866D02*
X148494286Y-153175771D01*
X148494286Y-153175771D02*
X148541905Y-152985295D01*
X148541905Y-152985295D02*
X148589524Y-152890057D01*
X148589524Y-152890057D02*
X148637143Y-152842438D01*
X148637143Y-152842438D02*
X148732381Y-152794819D01*
X149637143Y-152794819D02*
X149541905Y-152842438D01*
X149541905Y-152842438D02*
X149494286Y-152937676D01*
X149494286Y-152937676D02*
X149541905Y-153032914D01*
X149541905Y-153032914D02*
X149637143Y-153080533D01*
X149637143Y-153080533D02*
X149732381Y-153032914D01*
X149732381Y-153032914D02*
X149780000Y-152937676D01*
X149780000Y-152937676D02*
X149732381Y-152842438D01*
X149732381Y-152842438D02*
X149637143Y-152794819D01*
X139946666Y-148209819D02*
X139946666Y-148924104D01*
X139946666Y-148924104D02*
X139899047Y-149066961D01*
X139899047Y-149066961D02*
X139803809Y-149162200D01*
X139803809Y-149162200D02*
X139660952Y-149209819D01*
X139660952Y-149209819D02*
X139565714Y-149209819D01*
X140375238Y-148305057D02*
X140422857Y-148257438D01*
X140422857Y-148257438D02*
X140518095Y-148209819D01*
X140518095Y-148209819D02*
X140756190Y-148209819D01*
X140756190Y-148209819D02*
X140851428Y-148257438D01*
X140851428Y-148257438D02*
X140899047Y-148305057D01*
X140899047Y-148305057D02*
X140946666Y-148400295D01*
X140946666Y-148400295D02*
X140946666Y-148495533D01*
X140946666Y-148495533D02*
X140899047Y-148638390D01*
X140899047Y-148638390D02*
X140327619Y-149209819D01*
X140327619Y-149209819D02*
X140946666Y-149209819D01*
X146539580Y-123456666D02*
X146587200Y-123504285D01*
X146587200Y-123504285D02*
X146634819Y-123647142D01*
X146634819Y-123647142D02*
X146634819Y-123742380D01*
X146634819Y-123742380D02*
X146587200Y-123885237D01*
X146587200Y-123885237D02*
X146491961Y-123980475D01*
X146491961Y-123980475D02*
X146396723Y-124028094D01*
X146396723Y-124028094D02*
X146206247Y-124075713D01*
X146206247Y-124075713D02*
X146063390Y-124075713D01*
X146063390Y-124075713D02*
X145872914Y-124028094D01*
X145872914Y-124028094D02*
X145777676Y-123980475D01*
X145777676Y-123980475D02*
X145682438Y-123885237D01*
X145682438Y-123885237D02*
X145634819Y-123742380D01*
X145634819Y-123742380D02*
X145634819Y-123647142D01*
X145634819Y-123647142D02*
X145682438Y-123504285D01*
X145682438Y-123504285D02*
X145730057Y-123456666D01*
X145634819Y-122551904D02*
X145634819Y-123028094D01*
X145634819Y-123028094D02*
X146111009Y-123075713D01*
X146111009Y-123075713D02*
X146063390Y-123028094D01*
X146063390Y-123028094D02*
X146015771Y-122932856D01*
X146015771Y-122932856D02*
X146015771Y-122694761D01*
X146015771Y-122694761D02*
X146063390Y-122599523D01*
X146063390Y-122599523D02*
X146111009Y-122551904D01*
X146111009Y-122551904D02*
X146206247Y-122504285D01*
X146206247Y-122504285D02*
X146444342Y-122504285D01*
X146444342Y-122504285D02*
X146539580Y-122551904D01*
X146539580Y-122551904D02*
X146587200Y-122599523D01*
X146587200Y-122599523D02*
X146634819Y-122694761D01*
X146634819Y-122694761D02*
X146634819Y-122932856D01*
X146634819Y-122932856D02*
X146587200Y-123028094D01*
X146587200Y-123028094D02*
X146539580Y-123075713D01*
X140708221Y-119389580D02*
X140660602Y-119437200D01*
X140660602Y-119437200D02*
X140517745Y-119484819D01*
X140517745Y-119484819D02*
X140422507Y-119484819D01*
X140422507Y-119484819D02*
X140279650Y-119437200D01*
X140279650Y-119437200D02*
X140184412Y-119341961D01*
X140184412Y-119341961D02*
X140136793Y-119246723D01*
X140136793Y-119246723D02*
X140089174Y-119056247D01*
X140089174Y-119056247D02*
X140089174Y-118913390D01*
X140089174Y-118913390D02*
X140136793Y-118722914D01*
X140136793Y-118722914D02*
X140184412Y-118627676D01*
X140184412Y-118627676D02*
X140279650Y-118532438D01*
X140279650Y-118532438D02*
X140422507Y-118484819D01*
X140422507Y-118484819D02*
X140517745Y-118484819D01*
X140517745Y-118484819D02*
X140660602Y-118532438D01*
X140660602Y-118532438D02*
X140708221Y-118580057D01*
X141041555Y-118484819D02*
X141660602Y-118484819D01*
X141660602Y-118484819D02*
X141327269Y-118865771D01*
X141327269Y-118865771D02*
X141470126Y-118865771D01*
X141470126Y-118865771D02*
X141565364Y-118913390D01*
X141565364Y-118913390D02*
X141612983Y-118961009D01*
X141612983Y-118961009D02*
X141660602Y-119056247D01*
X141660602Y-119056247D02*
X141660602Y-119294342D01*
X141660602Y-119294342D02*
X141612983Y-119389580D01*
X141612983Y-119389580D02*
X141565364Y-119437200D01*
X141565364Y-119437200D02*
X141470126Y-119484819D01*
X141470126Y-119484819D02*
X141184412Y-119484819D01*
X141184412Y-119484819D02*
X141089174Y-119437200D01*
X141089174Y-119437200D02*
X141041555Y-119389580D01*
X178890682Y-102219580D02*
X178843063Y-102267200D01*
X178843063Y-102267200D02*
X178700206Y-102314819D01*
X178700206Y-102314819D02*
X178604968Y-102314819D01*
X178604968Y-102314819D02*
X178462111Y-102267200D01*
X178462111Y-102267200D02*
X178366873Y-102171961D01*
X178366873Y-102171961D02*
X178319254Y-102076723D01*
X178319254Y-102076723D02*
X178271635Y-101886247D01*
X178271635Y-101886247D02*
X178271635Y-101743390D01*
X178271635Y-101743390D02*
X178319254Y-101552914D01*
X178319254Y-101552914D02*
X178366873Y-101457676D01*
X178366873Y-101457676D02*
X178462111Y-101362438D01*
X178462111Y-101362438D02*
X178604968Y-101314819D01*
X178604968Y-101314819D02*
X178700206Y-101314819D01*
X178700206Y-101314819D02*
X178843063Y-101362438D01*
X178843063Y-101362438D02*
X178890682Y-101410057D01*
X179747825Y-101314819D02*
X179557349Y-101314819D01*
X179557349Y-101314819D02*
X179462111Y-101362438D01*
X179462111Y-101362438D02*
X179414492Y-101410057D01*
X179414492Y-101410057D02*
X179319254Y-101552914D01*
X179319254Y-101552914D02*
X179271635Y-101743390D01*
X179271635Y-101743390D02*
X179271635Y-102124342D01*
X179271635Y-102124342D02*
X179319254Y-102219580D01*
X179319254Y-102219580D02*
X179366873Y-102267200D01*
X179366873Y-102267200D02*
X179462111Y-102314819D01*
X179462111Y-102314819D02*
X179652587Y-102314819D01*
X179652587Y-102314819D02*
X179747825Y-102267200D01*
X179747825Y-102267200D02*
X179795444Y-102219580D01*
X179795444Y-102219580D02*
X179843063Y-102124342D01*
X179843063Y-102124342D02*
X179843063Y-101886247D01*
X179843063Y-101886247D02*
X179795444Y-101791009D01*
X179795444Y-101791009D02*
X179747825Y-101743390D01*
X179747825Y-101743390D02*
X179652587Y-101695771D01*
X179652587Y-101695771D02*
X179462111Y-101695771D01*
X179462111Y-101695771D02*
X179366873Y-101743390D01*
X179366873Y-101743390D02*
X179319254Y-101791009D01*
X179319254Y-101791009D02*
X179271635Y-101886247D01*
X178890682Y-102219580D02*
X178843063Y-102267200D01*
X178843063Y-102267200D02*
X178700206Y-102314819D01*
X178700206Y-102314819D02*
X178604968Y-102314819D01*
X178604968Y-102314819D02*
X178462111Y-102267200D01*
X178462111Y-102267200D02*
X178366873Y-102171961D01*
X178366873Y-102171961D02*
X178319254Y-102076723D01*
X178319254Y-102076723D02*
X178271635Y-101886247D01*
X178271635Y-101886247D02*
X178271635Y-101743390D01*
X178271635Y-101743390D02*
X178319254Y-101552914D01*
X178319254Y-101552914D02*
X178366873Y-101457676D01*
X178366873Y-101457676D02*
X178462111Y-101362438D01*
X178462111Y-101362438D02*
X178604968Y-101314819D01*
X178604968Y-101314819D02*
X178700206Y-101314819D01*
X178700206Y-101314819D02*
X178843063Y-101362438D01*
X178843063Y-101362438D02*
X178890682Y-101410057D01*
X179747825Y-101314819D02*
X179557349Y-101314819D01*
X179557349Y-101314819D02*
X179462111Y-101362438D01*
X179462111Y-101362438D02*
X179414492Y-101410057D01*
X179414492Y-101410057D02*
X179319254Y-101552914D01*
X179319254Y-101552914D02*
X179271635Y-101743390D01*
X179271635Y-101743390D02*
X179271635Y-102124342D01*
X179271635Y-102124342D02*
X179319254Y-102219580D01*
X179319254Y-102219580D02*
X179366873Y-102267200D01*
X179366873Y-102267200D02*
X179462111Y-102314819D01*
X179462111Y-102314819D02*
X179652587Y-102314819D01*
X179652587Y-102314819D02*
X179747825Y-102267200D01*
X179747825Y-102267200D02*
X179795444Y-102219580D01*
X179795444Y-102219580D02*
X179843063Y-102124342D01*
X179843063Y-102124342D02*
X179843063Y-101886247D01*
X179843063Y-101886247D02*
X179795444Y-101791009D01*
X179795444Y-101791009D02*
X179747825Y-101743390D01*
X179747825Y-101743390D02*
X179652587Y-101695771D01*
X179652587Y-101695771D02*
X179462111Y-101695771D01*
X179462111Y-101695771D02*
X179366873Y-101743390D01*
X179366873Y-101743390D02*
X179319254Y-101791009D01*
X179319254Y-101791009D02*
X179271635Y-101886247D01*
X140726666Y-61714819D02*
X140726666Y-62429104D01*
X140726666Y-62429104D02*
X140679047Y-62571961D01*
X140679047Y-62571961D02*
X140583809Y-62667200D01*
X140583809Y-62667200D02*
X140440952Y-62714819D01*
X140440952Y-62714819D02*
X140345714Y-62714819D01*
X141726666Y-62714819D02*
X141155238Y-62714819D01*
X141440952Y-62714819D02*
X141440952Y-61714819D01*
X141440952Y-61714819D02*
X141345714Y-61857676D01*
X141345714Y-61857676D02*
X141250476Y-61952914D01*
X141250476Y-61952914D02*
X141155238Y-62000533D01*
X134534580Y-120961666D02*
X134582200Y-121009285D01*
X134582200Y-121009285D02*
X134629819Y-121152142D01*
X134629819Y-121152142D02*
X134629819Y-121247380D01*
X134629819Y-121247380D02*
X134582200Y-121390237D01*
X134582200Y-121390237D02*
X134486961Y-121485475D01*
X134486961Y-121485475D02*
X134391723Y-121533094D01*
X134391723Y-121533094D02*
X134201247Y-121580713D01*
X134201247Y-121580713D02*
X134058390Y-121580713D01*
X134058390Y-121580713D02*
X133867914Y-121533094D01*
X133867914Y-121533094D02*
X133772676Y-121485475D01*
X133772676Y-121485475D02*
X133677438Y-121390237D01*
X133677438Y-121390237D02*
X133629819Y-121247380D01*
X133629819Y-121247380D02*
X133629819Y-121152142D01*
X133629819Y-121152142D02*
X133677438Y-121009285D01*
X133677438Y-121009285D02*
X133725057Y-120961666D01*
X134629819Y-120009285D02*
X134629819Y-120580713D01*
X134629819Y-120294999D02*
X133629819Y-120294999D01*
X133629819Y-120294999D02*
X133772676Y-120390237D01*
X133772676Y-120390237D02*
X133867914Y-120485475D01*
X133867914Y-120485475D02*
X133915533Y-120580713D01*
X119917142Y-91819580D02*
X119869523Y-91867200D01*
X119869523Y-91867200D02*
X119726666Y-91914819D01*
X119726666Y-91914819D02*
X119631428Y-91914819D01*
X119631428Y-91914819D02*
X119488571Y-91867200D01*
X119488571Y-91867200D02*
X119393333Y-91771961D01*
X119393333Y-91771961D02*
X119345714Y-91676723D01*
X119345714Y-91676723D02*
X119298095Y-91486247D01*
X119298095Y-91486247D02*
X119298095Y-91343390D01*
X119298095Y-91343390D02*
X119345714Y-91152914D01*
X119345714Y-91152914D02*
X119393333Y-91057676D01*
X119393333Y-91057676D02*
X119488571Y-90962438D01*
X119488571Y-90962438D02*
X119631428Y-90914819D01*
X119631428Y-90914819D02*
X119726666Y-90914819D01*
X119726666Y-90914819D02*
X119869523Y-90962438D01*
X119869523Y-90962438D02*
X119917142Y-91010057D01*
X120869523Y-91914819D02*
X120298095Y-91914819D01*
X120583809Y-91914819D02*
X120583809Y-90914819D01*
X120583809Y-90914819D02*
X120488571Y-91057676D01*
X120488571Y-91057676D02*
X120393333Y-91152914D01*
X120393333Y-91152914D02*
X120298095Y-91200533D01*
X121202857Y-90914819D02*
X121821904Y-90914819D01*
X121821904Y-90914819D02*
X121488571Y-91295771D01*
X121488571Y-91295771D02*
X121631428Y-91295771D01*
X121631428Y-91295771D02*
X121726666Y-91343390D01*
X121726666Y-91343390D02*
X121774285Y-91391009D01*
X121774285Y-91391009D02*
X121821904Y-91486247D01*
X121821904Y-91486247D02*
X121821904Y-91724342D01*
X121821904Y-91724342D02*
X121774285Y-91819580D01*
X121774285Y-91819580D02*
X121726666Y-91867200D01*
X121726666Y-91867200D02*
X121631428Y-91914819D01*
X121631428Y-91914819D02*
X121345714Y-91914819D01*
X121345714Y-91914819D02*
X121250476Y-91867200D01*
X121250476Y-91867200D02*
X121202857Y-91819580D01*
X140339819Y-127786904D02*
X141149342Y-127786904D01*
X141149342Y-127786904D02*
X141244580Y-127739285D01*
X141244580Y-127739285D02*
X141292200Y-127691666D01*
X141292200Y-127691666D02*
X141339819Y-127596428D01*
X141339819Y-127596428D02*
X141339819Y-127405952D01*
X141339819Y-127405952D02*
X141292200Y-127310714D01*
X141292200Y-127310714D02*
X141244580Y-127263095D01*
X141244580Y-127263095D02*
X141149342Y-127215476D01*
X141149342Y-127215476D02*
X140339819Y-127215476D01*
X141339819Y-126215476D02*
X141339819Y-126786904D01*
X141339819Y-126501190D02*
X140339819Y-126501190D01*
X140339819Y-126501190D02*
X140482676Y-126596428D01*
X140482676Y-126596428D02*
X140577914Y-126691666D01*
X140577914Y-126691666D02*
X140625533Y-126786904D01*
%TO.C,R16*%
D13*
X122360000Y-78535000D02*
X124360000Y-78535000D01*
X124360000Y-79785000D01*
X122360000Y-79785000D01*
X122360000Y-78535000D01*
%TO.C,C9*%
X153690000Y-125635000D02*
X156190000Y-125635000D01*
X156190000Y-130635000D01*
X153690000Y-130635000D01*
X153690000Y-125635000D01*
%TO.C,J3*%
X184045000Y-133680000D02*
X184245000Y-133680000D01*
X184045000Y-135480000D02*
X184045000Y-133680000D01*
X184045000Y-135480000D02*
X184245000Y-135480000D01*
X184245000Y-133280000D02*
X184245000Y-133680000D01*
X184245000Y-133280000D02*
X186845000Y-133280000D01*
X184245000Y-135480000D02*
X184245000Y-135880000D01*
X185245000Y-135880000D02*
X184245000Y-135880000D01*
X185245000Y-135980000D02*
X185245000Y-135880000D01*
X185245000Y-135980000D02*
X185395000Y-136130000D01*
X185845000Y-135880000D02*
X186845000Y-135880000D01*
X185845000Y-136130000D02*
X185395000Y-136130000D01*
X185845000Y-136130000D02*
X185845000Y-135880000D01*
X186845000Y-133280000D02*
X186845000Y-133680000D01*
X186845000Y-135480000D02*
X186845000Y-135880000D01*
X187045000Y-133680000D02*
X186845000Y-133680000D01*
X187045000Y-135480000D02*
X186845000Y-135480000D01*
X187045000Y-135480000D02*
X187045000Y-133680000D01*
%TO.C,JP4*%
X147390000Y-64385000D02*
X148025000Y-63750000D01*
X147390000Y-68830000D02*
X147390000Y-64385000D01*
X148025000Y-63750000D02*
X149930000Y-63750000D01*
X149930000Y-63750000D02*
X149930000Y-68830000D01*
X149930000Y-68830000D02*
X147390000Y-68830000D01*
%TO.C,D2*%
X119829694Y-78300000D02*
X116890306Y-78300000D01*
X119829694Y-78300000D02*
G75*
G02*
X116890306Y-78300000I-1469694J-2500000D01*
G01*
X120860000Y-80800000D02*
G75*
G02*
X115860000Y-80800000I-2500000J0D01*
G01*
X115860000Y-80800000D02*
G75*
G02*
X120860000Y-80800000I2500000J0D01*
G01*
%TO.C,U7*%
X133855000Y-82010000D02*
X133855000Y-80740000D01*
X137555000Y-82010000D02*
X137555000Y-80740000D01*
X140705000Y-80740000D02*
X130705000Y-80740000D01*
X130705000Y-77610000D02*
X140705000Y-77610000D01*
X140705000Y-82010000D01*
X130705000Y-82010000D01*
X130705000Y-77610000D01*
%TO.C,R2*%
X148635000Y-125247500D02*
X149885000Y-125247500D01*
X149885000Y-127247500D01*
X148635000Y-127247500D01*
X148635000Y-125247500D01*
%TO.C,C7*%
X182086759Y-109907500D02*
X182086759Y-109107500D01*
X182486759Y-109507500D02*
X181686759Y-109507500D01*
X183060000Y-107760000D02*
G75*
G02*
X175060000Y-107760000I-4000000J0D01*
G01*
X175060000Y-107760000D02*
G75*
G02*
X183060000Y-107760000I4000000J0D01*
G01*
%TO.C,C12*%
X148886759Y-77507500D02*
X148886759Y-76707500D01*
X149286759Y-77107500D02*
X148486759Y-77107500D01*
X149860000Y-75360000D02*
G75*
G02*
X141860000Y-75360000I-4000000J0D01*
G01*
X141860000Y-75360000D02*
G75*
G02*
X149860000Y-75360000I4000000J0D01*
G01*
%TO.C,JP1*%
X131890000Y-83725000D02*
X132525000Y-83090000D01*
X131890000Y-88170000D02*
X131890000Y-83725000D01*
X132525000Y-83090000D02*
X134430000Y-83090000D01*
X134430000Y-83090000D02*
X134430000Y-88170000D01*
X134430000Y-88170000D02*
X131890000Y-88170000D01*
%TO.C,C2*%
X135252500Y-124186283D02*
X135252500Y-124686283D01*
X135502500Y-124436283D02*
X135002500Y-124436283D01*
X136665000Y-126319888D02*
G75*
G02*
X131665000Y-126319888I-2500000J0D01*
G01*
X131665000Y-126319888D02*
G75*
G02*
X136665000Y-126319888I2500000J0D01*
G01*
%TO.C,J5*%
X125271385Y-57406444D02*
X134271385Y-57406444D01*
X125271385Y-71806444D02*
X125271385Y-57406444D01*
X133271385Y-71806444D02*
X125271385Y-71806444D01*
X134271385Y-57406444D02*
X134271385Y-70806444D01*
X134271385Y-60906444D02*
X125271385Y-60906444D01*
X134271385Y-70806444D02*
X133271385Y-71806444D01*
%TO.C,R4*%
X153960000Y-73335000D02*
X155960000Y-73335000D01*
X155960000Y-74585000D01*
X153960000Y-74585000D01*
X153960000Y-73335000D01*
%TO.C,D3*%
X119829694Y-70860000D02*
X116890306Y-70860000D01*
X119829694Y-70860000D02*
G75*
G02*
X116890306Y-70860000I-1469694J-2500000D01*
G01*
X120860000Y-73360000D02*
G75*
G02*
X115860000Y-73360000I-2500000J0D01*
G01*
X115860000Y-73360000D02*
G75*
G02*
X120860000Y-73360000I2500000J0D01*
G01*
%TO.C,C4*%
X132937500Y-133708605D02*
X133437500Y-133708605D01*
X133187500Y-133958605D02*
X133187500Y-133458605D01*
X136775000Y-131825000D02*
G75*
G02*
X131775000Y-131825000I-2500000J0D01*
G01*
X131775000Y-131825000D02*
G75*
G02*
X136775000Y-131825000I2500000J0D01*
G01*
%TO.C,Q3*%
X170603750Y-123972500D02*
X169628750Y-123972500D01*
X169628750Y-121072500D01*
X170928750Y-121072500D01*
X170928750Y-123647500D01*
X170603750Y-123972500D01*
%TO.C,R18*%
X155090000Y-120060000D02*
X157090000Y-120060000D01*
X157090000Y-121310000D01*
X155090000Y-121310000D01*
X155090000Y-120060000D01*
%TO.C,J2*%
X126180000Y-145270000D02*
X126180000Y-140330000D01*
X129380000Y-145270000D02*
X129380000Y-140330000D01*
X151180000Y-145270000D02*
X151180000Y-140330000D01*
X154380000Y-145270000D02*
X154380000Y-140330000D01*
X124855000Y-135690000D02*
X155705000Y-135690000D01*
X155705000Y-145270000D01*
X124855000Y-145270000D01*
X124855000Y-135690000D01*
X124855000Y-145270000D02*
X155705000Y-145270000D01*
X155705000Y-145670000D01*
X124855000Y-145670000D01*
X124855000Y-145270000D01*
X125280000Y-145670000D02*
X130280000Y-145670000D01*
X130280000Y-150670000D01*
X125280000Y-150670000D01*
X125280000Y-145670000D01*
X132130000Y-145670000D02*
X148430000Y-145670000D01*
X148430000Y-151840000D01*
X132130000Y-151840000D01*
X132130000Y-145670000D01*
X150280000Y-145670000D02*
X155280000Y-145670000D01*
X155280000Y-150670000D01*
X150280000Y-150670000D01*
X150280000Y-145670000D01*
X126180000Y-140330000D02*
G75*
G02*
X129380000Y-140330000I1600000J0D01*
G01*
X151180000Y-140330000D02*
G75*
G02*
X154380000Y-140330000I1600000J0D01*
G01*
%TO.C,U5*%
X116770000Y-97475000D02*
X167570000Y-97475000D01*
X116770000Y-111205000D02*
X116770000Y-97475000D01*
X117770000Y-112205000D02*
X116770000Y-111205000D01*
X167570000Y-97475000D02*
X167570000Y-112205000D01*
X167570000Y-112205000D02*
X117770000Y-112205000D01*
X120980000Y-100970000D02*
X115980000Y-100970000D01*
X115980000Y-100760000D01*
X115380000Y-100760000D01*
X115380000Y-108760000D01*
X115980000Y-108760000D01*
X115980000Y-108550000D01*
X120980000Y-108550000D01*
X120980000Y-100970000D01*
%TO.C,C5*%
X144930000Y-120790000D02*
X147430000Y-120790000D01*
X147430000Y-125790000D01*
X144930000Y-125790000D01*
X144930000Y-120790000D01*
%TO.C,C3*%
X138741283Y-117942500D02*
X139241283Y-117942500D01*
X138991283Y-117692500D02*
X138991283Y-118192500D01*
X143374888Y-119030000D02*
G75*
G02*
X138374888Y-119030000I-2500000J0D01*
G01*
X138374888Y-119030000D02*
G75*
G02*
X143374888Y-119030000I2500000J0D01*
G01*
%TO.C,R12*%
X174297500Y-113047500D02*
X176297500Y-113047500D01*
X176297500Y-114297500D01*
X174297500Y-114297500D01*
X174297500Y-113047500D01*
%TO.C,C11*%
X130455000Y-74460000D02*
X135455000Y-74460000D01*
X135455000Y-76960000D01*
X130455000Y-76960000D01*
X130455000Y-74460000D01*
%TO.C,Q2*%
X153460000Y-71347500D02*
X153460000Y-70372500D01*
X156360000Y-70372500D01*
X156360000Y-71672500D01*
X153785000Y-71672500D01*
X153460000Y-71347500D01*
%TO.C,R7*%
X160022500Y-81360000D02*
X162022500Y-81360000D01*
X162022500Y-82610000D01*
X160022500Y-82610000D01*
X160022500Y-81360000D01*
%TO.C,C6*%
X176557349Y-100610000D02*
X181557349Y-100610000D01*
X181557349Y-103110000D01*
X176557349Y-103110000D01*
X176557349Y-100610000D01*
%TO.C,J1*%
X136060000Y-60160000D02*
X145660000Y-60160000D01*
X136060000Y-69160000D02*
X136060000Y-60160000D01*
X137043000Y-66433000D02*
X139833000Y-63643000D01*
X137287000Y-66677000D02*
X140077000Y-63887000D01*
X142043000Y-66433000D02*
X144833000Y-63643000D01*
X142287000Y-66677000D02*
X145077000Y-63887000D01*
X145660000Y-60160000D02*
X146060000Y-60560000D01*
X146060000Y-60560000D02*
X136060000Y-60560000D01*
X146060000Y-60560000D02*
X146060000Y-69160000D01*
X146060000Y-61660000D02*
X136060000Y-61660000D01*
X146060000Y-69160000D02*
X136060000Y-69160000D01*
X140560000Y-65160000D02*
G75*
G02*
X136560000Y-65160000I-2000000J0D01*
G01*
X136560000Y-65160000D02*
G75*
G02*
X140560000Y-65160000I2000000J0D01*
G01*
X145560000Y-65160000D02*
G75*
G02*
X141560000Y-65160000I-2000000J0D01*
G01*
X141560000Y-65160000D02*
G75*
G02*
X145560000Y-65160000I2000000J0D01*
G01*
%TO.C,C10*%
X136055000Y-74460000D02*
X141055000Y-74460000D01*
X141055000Y-76960000D01*
X136055000Y-76960000D01*
X136055000Y-74460000D01*
%TO.C,R15*%
X122347500Y-80635000D02*
X124347500Y-80635000D01*
X124347500Y-81885000D01*
X122347500Y-81885000D01*
X122347500Y-80635000D01*
%TO.C,C1*%
X135262500Y-118661395D02*
X135262500Y-119161395D01*
X135512500Y-118911395D02*
X135012500Y-118911395D01*
X136675000Y-120795000D02*
G75*
G02*
X131675000Y-120795000I-2500000J0D01*
G01*
X131675000Y-120795000D02*
G75*
G02*
X136675000Y-120795000I2500000J0D01*
G01*
%TO.C,JP5*%
X165071250Y-119400000D02*
X165706250Y-118765000D01*
X165071250Y-123845000D02*
X165071250Y-119400000D01*
X165706250Y-118765000D02*
X167611250Y-118765000D01*
X167611250Y-118765000D02*
X167611250Y-123845000D01*
X167611250Y-123845000D02*
X165071250Y-123845000D01*
%TO.C,R6*%
X160022500Y-79360000D02*
X162022500Y-79360000D01*
X162022500Y-80610000D01*
X160022500Y-80610000D01*
X160022500Y-79360000D01*
%TO.C,C13*%
X117133241Y-89712500D02*
X117933241Y-89712500D01*
X117533241Y-89312500D02*
X117533241Y-90112500D01*
X124560000Y-91460000D02*
G75*
G02*
X116560000Y-91460000I-4000000J0D01*
G01*
X116560000Y-91460000D02*
G75*
G02*
X124560000Y-91460000I4000000J0D01*
G01*
%TO.C,R14*%
X122347500Y-82735000D02*
X124347500Y-82735000D01*
X124347500Y-83985000D01*
X122347500Y-83985000D01*
X122347500Y-82735000D01*
%TO.C,R8*%
X124935000Y-107660000D02*
X126185000Y-107660000D01*
X126185000Y-109660000D01*
X124935000Y-109660000D01*
X124935000Y-107660000D01*
%TO.C,JP2*%
X179825000Y-86690000D02*
X184270000Y-86690000D01*
X179825000Y-89230000D02*
X179825000Y-86690000D01*
X184270000Y-86690000D02*
X184905000Y-87325000D01*
X184905000Y-87325000D02*
X184905000Y-89230000D01*
X184905000Y-89230000D02*
X179825000Y-89230000D01*
%TO.C,J4*%
X182040000Y-137800000D02*
X189040000Y-137800000D01*
X182040000Y-144800000D02*
X182040000Y-137800000D01*
X182375000Y-144800000D02*
X182040000Y-144800000D01*
X182375000Y-144800000D02*
X182375000Y-152900000D01*
X182375000Y-152900000D02*
X188705000Y-152900000D01*
X188705000Y-144800000D02*
X182375000Y-144800000D01*
X188705000Y-152900000D02*
X188705000Y-144800000D01*
X189040000Y-137800000D02*
X189040000Y-144800000D01*
X189040000Y-144800000D02*
X188705000Y-144800000D01*
%TO.C,R1*%
X145460000Y-126535000D02*
X147460000Y-126535000D01*
X147460000Y-127785000D01*
X145460000Y-127785000D01*
X145460000Y-126535000D01*
%TO.C,R13*%
X155090000Y-122060000D02*
X157090000Y-122060000D01*
X157090000Y-123310000D01*
X155090000Y-123310000D01*
X155090000Y-122060000D01*
%TO.C,U6*%
X152185000Y-85410000D02*
X152185000Y-64910000D01*
X197685000Y-64910000D02*
X152185000Y-64910000D01*
X197685000Y-64910000D02*
X197685000Y-85410000D01*
X197685000Y-85410000D02*
X152185000Y-85410000D01*
%TO.C,C8*%
X116810000Y-99210000D02*
X121810000Y-99210000D01*
X121810000Y-101710000D01*
X116810000Y-101710000D01*
X116810000Y-99210000D01*
%TO.C,U2*%
X156740000Y-129160000D02*
X156740000Y-126235000D01*
X161640000Y-126235000D01*
X161640000Y-130135000D01*
X157715000Y-130135000D01*
X156740000Y-129160000D01*
%TO.C,R10*%
X174716250Y-121522500D02*
X175966250Y-121522500D01*
X175966250Y-123522500D01*
X174716250Y-123522500D01*
X174716250Y-121522500D01*
%TO.C,R11*%
X174347500Y-115047500D02*
X176347500Y-115047500D01*
X176347500Y-116297500D01*
X174347500Y-116297500D01*
X174347500Y-115047500D01*
%TO.C,Q1*%
X159660000Y-77247500D02*
X159660000Y-76272500D01*
X162560000Y-76272500D01*
X162560000Y-77572500D01*
X159985000Y-77572500D01*
X159660000Y-77247500D01*
%TO.C,R3*%
X153035000Y-100060000D02*
X154285000Y-100060000D01*
X154285000Y-102060000D01*
X153035000Y-102060000D01*
X153035000Y-100060000D01*
%TO.C,U1*%
X139910000Y-122075000D02*
X142835000Y-122075000D01*
X142835000Y-131975000D01*
X138935000Y-131975000D01*
X138935000Y-123050000D01*
X139910000Y-122075000D01*
%TO.C,JP3*%
X124425000Y-114890000D02*
X128870000Y-114890000D01*
X124425000Y-117430000D02*
X124425000Y-114890000D01*
X128870000Y-114890000D02*
X129505000Y-115525000D01*
X129505000Y-115525000D02*
X129505000Y-117430000D01*
X129505000Y-117430000D02*
X124425000Y-117430000D01*
%TO.C,U3*%
X169357349Y-97860000D02*
X196757349Y-97860000D01*
X196757349Y-123260000D01*
X169357349Y-123260000D01*
X169357349Y-97860000D01*
X196032349Y-102124700D02*
X196032349Y-97124700D01*
X196242349Y-97124700D01*
X196242349Y-96524700D01*
X191817349Y-96524700D01*
X191817349Y-97124700D01*
X192077349Y-97124700D01*
X192077349Y-102124700D01*
X196032349Y-102124700D01*
%TO.C,R9*%
X172716250Y-121522500D02*
X173966250Y-121522500D01*
X173966250Y-123522500D01*
X172716250Y-123522500D01*
X172716250Y-121522500D01*
%TO.C,R5*%
X153960000Y-75335000D02*
X155960000Y-75335000D01*
X155960000Y-76585000D01*
X153960000Y-76585000D01*
X153960000Y-75335000D01*
%TO.C,R17*%
X122360000Y-76435000D02*
X124360000Y-76435000D01*
X124360000Y-77685000D01*
X122360000Y-77685000D01*
X122360000Y-76435000D01*
%TO.C,Q4*%
X176797500Y-118310000D02*
X176797500Y-119285000D01*
X173897500Y-119285000D01*
X173897500Y-117985000D01*
X176472500Y-117985000D01*
X176797500Y-118310000D01*
%TD*%
D14*
X114860000Y-60660000D02*
X205160000Y-60660000D01*
X205160000Y-145660000D01*
X114860000Y-145660000D01*
X114860000Y-60660000D01*
M02*
