%TF.GenerationSoftware,KiCad,Pcbnew,10.0.3*%
%TF.CreationDate,2026-09-16T10:22:22-03:00*%
%TF.ProjectId,Modulo_SIMA7670SA,4d6f6475-6c6f-45f5-9349-4d4137363730,rev?*%
%TF.SameCoordinates,Original*%
%TF.FileFunction,Copper,L2,Bot*%
%TF.FilePolarity,Positive*%
%FSLAX46Y46*%
G04 Gerber Fmt 4.6, Leading zero omitted, Abs format (unit mm)*
G04 Created by KiCad (PCBNEW 10.0.3) date 2026-09-16 10:22:22*
%MOMM*%
%LPD*%
G01*
G04 APERTURE LIST*
G04 Aperture macros list*
%AMRoundRect*
0 Rectangle with rounded corners*
0 $1 Rounding radius*
0 $2 $3 $4 $5 $6 $7 $8 $9 X,Y pos of 4 corners*
0 Add a 4 corners polygon primitive as box body*
4,1,4,$2,$3,$4,$5,$6,$7,$8,$9,$2,$3,0*
0 Add four circle primitives for the rounded corners*
1,1,$1+$1,$2,$3*
1,1,$1+$1,$4,$5*
1,1,$1+$1,$6,$7*
1,1,$1+$1,$8,$9*
0 Add four rect primitives between the rounded corners*
20,1,$1+$1,$2,$3,$4,$5,0*
20,1,$1+$1,$4,$5,$6,$7,0*
20,1,$1+$1,$6,$7,$8,$9,0*
20,1,$1+$1,$8,$9,$2,$3,0*%
G04 Aperture macros list end*
%TA.AperFunction,ComponentPad*%
%ADD10C,1.600000*%
%TD*%
%TA.AperFunction,ComponentPad*%
%ADD11R,1.700000X1.700000*%
%TD*%
%TA.AperFunction,ComponentPad*%
%ADD12C,1.700000*%
%TD*%
%TA.AperFunction,ComponentPad*%
%ADD13R,1.800000X1.800000*%
%TD*%
%TA.AperFunction,ComponentPad*%
%ADD14C,1.800000*%
%TD*%
%TA.AperFunction,ComponentPad*%
%ADD15R,1.905000X2.000000*%
%TD*%
%TA.AperFunction,ComponentPad*%
%ADD16O,1.905000X2.000000*%
%TD*%
%TA.AperFunction,ComponentPad*%
%ADD17RoundRect,0.250000X0.550000X0.550000X-0.550000X0.550000X-0.550000X-0.550000X0.550000X-0.550000X0*%
%TD*%
%TA.AperFunction,ComponentPad*%
%ADD18R,4.000000X3.000000*%
%TD*%
%TA.AperFunction,ComponentPad*%
%ADD19R,4.000000X2.000000*%
%TD*%
%TA.AperFunction,ComponentPad*%
%ADD20R,3.000000X4.500000*%
%TD*%
%TA.AperFunction,ComponentPad*%
%ADD21C,4.000000*%
%TD*%
%TA.AperFunction,ComponentPad*%
%ADD22R,1.600000X1.600000*%
%TD*%
%TA.AperFunction,ComponentPad*%
%ADD23RoundRect,0.250000X0.550000X-0.950000X0.550000X0.950000X-0.550000X0.950000X-0.550000X-0.950000X0*%
%TD*%
%TA.AperFunction,ComponentPad*%
%ADD24O,1.600000X2.400000*%
%TD*%
%TA.AperFunction,ComponentPad*%
%ADD25RoundRect,0.250000X1.050000X1.050000X-1.050000X1.050000X-1.050000X-1.050000X1.050000X-1.050000X0*%
%TD*%
%TA.AperFunction,ComponentPad*%
%ADD26C,2.600000*%
%TD*%
%TA.AperFunction,ComponentPad*%
%ADD27C,3.500000*%
%TD*%
%TA.AperFunction,ComponentPad*%
%ADD28RoundRect,0.250000X-0.550000X-0.550000X0.550000X-0.550000X0.550000X0.550000X-0.550000X0.550000X0*%
%TD*%
%TA.AperFunction,ComponentPad*%
%ADD29C,2.400000*%
%TD*%
%TA.AperFunction,ViaPad*%
%ADD30C,1.600000*%
%TD*%
%TA.AperFunction,ViaPad*%
%ADD31C,0.600000*%
%TD*%
%TA.AperFunction,Conductor*%
%ADD32C,2.000000*%
%TD*%
%TA.AperFunction,Conductor*%
%ADD33C,1.500000*%
%TD*%
%TA.AperFunction,Conductor*%
%ADD34C,2.500000*%
%TD*%
%TA.AperFunction,Conductor*%
%ADD35C,1.000000*%
%TD*%
%TA.AperFunction,Conductor*%
%ADD36C,0.750000*%
%TD*%
%TA.AperFunction,Conductor*%
%ADD37C,0.500000*%
%TD*%
%TA.AperFunction,Profile*%
%ADD38C,0.500000*%
%TD*%
G04 APERTURE END LIST*
D10*
%TO.P,C2,1*%
%TO.N,Net-(U1-C2+)*%
X134160000Y-125310000D03*
%TO.P,C2,2*%
%TO.N,Net-(U1-C2-)*%
X134160000Y-127810000D03*
%TD*%
%TO.P,C9,1*%
%TO.N,3V3_MEM*%
X154940000Y-126885000D03*
%TO.P,C9,2*%
%TO.N,GND*%
X154940000Y-129385000D03*
%TD*%
D11*
%TO.P,JP4,1,A_1*%
%TO.N,+12V*%
X148660000Y-65020000D03*
D12*
%TO.P,JP4,2,B_2*%
%TO.N,12V_StepDown*%
X148660000Y-67560000D03*
%TD*%
D13*
%TO.P,D2,1,K1_1*%
%TO.N,Net-(D2-K1)*%
X118360000Y-78260000D03*
D14*
%TO.P,D2,2,A_2*%
%TO.N,+5V*%
X118360000Y-80800000D03*
%TO.P,D2,3,K2_3*%
%TO.N,Net-(D2-K2)*%
X118360000Y-83340000D03*
%TD*%
D15*
%TO.P,U7,1,VI_1*%
%TO.N,+12V*%
X138245000Y-78860000D03*
D16*
%TO.P,U7,2,GND_2*%
%TO.N,GND*%
X135705000Y-78860000D03*
%TO.P,U7,3,VO_3*%
%TO.N,Net-(JP1-A)*%
X133165000Y-78860000D03*
%TD*%
D17*
%TO.P,C7,1*%
%TO.N,5V_MODEM*%
X186660000Y-107660000D03*
D10*
%TO.P,C7,2*%
%TO.N,GND*%
X181660000Y-107660000D03*
%TD*%
D17*
%TO.P,C12,1*%
%TO.N,+12V*%
X148360000Y-75360000D03*
D10*
%TO.P,C12,2*%
%TO.N,GND*%
X143360000Y-75360000D03*
%TD*%
D11*
%TO.P,JP1,1,A_1*%
%TO.N,Net-(JP1-A)*%
X133160000Y-84360000D03*
D12*
%TO.P,JP1,2,B_2*%
%TO.N,+5V*%
X133160000Y-86900000D03*
%TD*%
D18*
%TO.P,J5,1*%
%TO.N,+12V*%
X129771385Y-71106444D03*
D19*
%TO.P,J5,2*%
%TO.N,GND*%
X129771385Y-65106444D03*
D20*
%TO.P,J5,3*%
%TO.N,N/C*%
X125071385Y-68106444D03*
%TD*%
D13*
%TO.P,D3,1,K1_1*%
%TO.N,Net-(D3-K1)*%
X118360000Y-70820000D03*
D14*
%TO.P,D3,2,A_2*%
%TO.N,+5V*%
X118360000Y-73360000D03*
%TO.P,D3,3,K2_3*%
%TO.N,Net-(D3-K2)*%
X118360000Y-75900000D03*
%TD*%
D10*
%TO.P,C4,1*%
%TO.N,Net-(U1-VS-)*%
X134160000Y-130860000D03*
%TO.P,C4,2*%
%TO.N,GND*%
X134160000Y-133360000D03*
%TD*%
D21*
%TO.P,J2,0,0_0*%
%TO.N,GND*%
X127780000Y-140330000D03*
X152780000Y-140330000D03*
D22*
%TO.P,J2,1,1_1*%
%TO.N,unconnected-(J2-Pad1)*%
X145820000Y-137490000D03*
D10*
%TO.P,J2,2,2_2*%
%TO.N,Net-(D4-K2)*%
X143050000Y-137490000D03*
%TO.P,J2,3,3_3*%
%TO.N,Net-(D1-K1)*%
X140280000Y-137490000D03*
%TO.P,J2,4,4_4*%
%TO.N,unconnected-(J2-Pad4)*%
X137510000Y-137490000D03*
%TO.P,J2,5,5_5*%
%TO.N,GND*%
X134740000Y-137490000D03*
%TO.P,J2,6,6_6*%
%TO.N,unconnected-(J2-Pad6)*%
X144435000Y-140330000D03*
%TO.P,J2,7,7_7*%
%TO.N,unconnected-(J2-Pad7)*%
X141665000Y-140330000D03*
%TO.P,J2,8,8_8*%
%TO.N,unconnected-(J2-Pad8)*%
X138895000Y-140330000D03*
%TO.P,J2,9,9_9*%
%TO.N,unconnected-(J2-Pad9)*%
X136125000Y-140330000D03*
%TD*%
D23*
%TO.P,U5,1,PB12_1*%
%TO.N,unconnected-(U5-PB12-Pad1)*%
X118040000Y-112460000D03*
D24*
%TO.P,U5,2,PB13_2*%
%TO.N,unconnected-(U5-PB13-Pad2)*%
X120580000Y-112460000D03*
%TO.P,U5,3,PB14_3*%
%TO.N,unconnected-(U5-PB14-Pad3)*%
X123120000Y-112460000D03*
%TO.P,U5,4,PB15_4*%
%TO.N,Net-(JP3-B)*%
X125660000Y-112460000D03*
%TO.P,U5,5,PA8_5*%
%TO.N,unconnected-(U5-PA8-Pad5)*%
X128200000Y-112460000D03*
%TO.P,U5,6,PA9_6*%
%TO.N,UART1_TX*%
X130740000Y-112460000D03*
%TO.P,U5,7,PA10_7*%
%TO.N,UART1_RX*%
X133280000Y-112460000D03*
%TO.P,U5,8,PA11_8*%
%TO.N,unconnected-(U5-PA11-Pad8)*%
X135820000Y-112460000D03*
%TO.P,U5,9,PA12_9*%
%TO.N,unconnected-(U5-PA12-Pad9)*%
X138360000Y-112460000D03*
%TO.P,U5,10,PA15_10*%
%TO.N,unconnected-(U5-PA15-Pad10)*%
X140900000Y-112460000D03*
%TO.P,U5,11,PB3_11*%
%TO.N,unconnected-(U5-PB3-Pad11)*%
X143440000Y-112460000D03*
%TO.P,U5,12,PB4_12*%
%TO.N,unconnected-(U5-PB4-Pad12)*%
X145980000Y-112460000D03*
%TO.P,U5,13,PB5_13*%
%TO.N,unconnected-(U5-PB5-Pad13)*%
X148520000Y-112460000D03*
%TO.P,U5,14,PB6_14*%
%TO.N,SCL I2C1*%
X151060000Y-112460000D03*
%TO.P,U5,15,PB7_15*%
%TO.N,SDA I2C1*%
X153600000Y-112460000D03*
%TO.P,U5,16,PB8_16*%
%TO.N,ON_MEM*%
X156140000Y-112460000D03*
%TO.P,U5,17,PB9_17*%
%TO.N,SLEEP_MODEM*%
X158680000Y-112460000D03*
%TO.P,U5,18,5V_18*%
%TO.N,+5V_b*%
X161220000Y-112460000D03*
%TO.P,U5,19,GND_19*%
%TO.N,GND*%
X163760000Y-112460000D03*
%TO.P,U5,20,3V3_20*%
%TO.N,3V3_b*%
X166300000Y-112460000D03*
%TO.P,U5,21,VBAT_21*%
%TO.N,unconnected-(U5-VBAT-Pad21)*%
X166300000Y-97220000D03*
%TO.P,U5,22,PC13/LED_22*%
%TO.N,unconnected-(U5-PC13{slash}LED-Pad22)*%
X163760000Y-97220000D03*
%TO.P,U5,23,PC14_23*%
%TO.N,unconnected-(U5-PC14-Pad23)*%
X161220000Y-97220000D03*
%TO.P,U5,24,PC15_24*%
%TO.N,unconnected-(U5-PC15-Pad24)*%
X158680000Y-97220000D03*
%TO.P,U5,25,~{NRST}_25*%
%TO.N,unconnected-(U5-~{NRST}-Pad25)*%
X156140000Y-97220000D03*
%TO.P,U5,26,PA0/KEY_26*%
%TO.N,Net-(U5-PA0{slash}KEY)*%
X153600000Y-97220000D03*
%TO.P,U5,27,PA1_27*%
%TO.N,ON_MODEM*%
X151060000Y-97220000D03*
%TO.P,U5,28,PA2_28*%
%TO.N,UART2_TX*%
X148520000Y-97220000D03*
%TO.P,U5,29,PA3_29*%
%TO.N,UART2_RX*%
X145980000Y-97220000D03*
%TO.P,U5,30,PA4_30*%
%TO.N,Net-(U5-PA4)*%
X143440000Y-97220000D03*
%TO.P,U5,31,PA5_31*%
%TO.N,Net-(U5-PA5)*%
X140900000Y-97220000D03*
%TO.P,U5,32,PA6_32*%
%TO.N,Net-(U5-PA6)*%
X138360000Y-97220000D03*
%TO.P,U5,33,PA7_33*%
%TO.N,Net-(U5-PA7)*%
X135820000Y-97220000D03*
%TO.P,U5,34,PB0_34*%
%TO.N,unconnected-(U5-PB0-Pad34)*%
X133280000Y-97220000D03*
%TO.P,U5,35,PB1_35*%
%TO.N,unconnected-(U5-PB1-Pad35)*%
X130740000Y-97220000D03*
%TO.P,U5,36,PB2/PullDown_36*%
%TO.N,unconnected-(U5-PB2{slash}PullDown-Pad36)*%
X128200000Y-97220000D03*
%TO.P,U5,37,PB10_37*%
%TO.N,unconnected-(U5-PB10-Pad37)*%
X125660000Y-97220000D03*
%TO.P,U5,38,3V3_38*%
%TO.N,3V3*%
X123120000Y-97220000D03*
%TO.P,U5,39,GND_39*%
%TO.N,GND*%
X120580000Y-97220000D03*
%TO.P,U5,40,5V_40*%
%TO.N,+5V*%
X118040000Y-97220000D03*
%TD*%
D10*
%TO.P,C5,1*%
%TO.N,Net-(U1-VCC)*%
X146180000Y-122040000D03*
%TO.P,C5,2*%
%TO.N,GND*%
X146180000Y-124540000D03*
%TD*%
%TO.P,C11,1*%
%TO.N,Net-(JP1-A)*%
X131705000Y-75710000D03*
%TO.P,C11,2*%
%TO.N,GND*%
X134205000Y-75710000D03*
%TD*%
%TO.P,C3,1*%
%TO.N,Net-(U1-VS+)*%
X139860000Y-119960000D03*
%TO.P,C3,2*%
%TO.N,+5V_b*%
X142360000Y-119960000D03*
%TD*%
%TO.P,C6,1*%
%TO.N,5V_MODEM*%
X185110000Y-101760000D03*
%TO.P,C6,2*%
%TO.N,GND*%
X182610000Y-101760000D03*
%TD*%
D25*
%TO.P,J1,1,1_1*%
%TO.N,+12V*%
X143560000Y-65160000D03*
D26*
%TO.P,J1,2,2_2*%
%TO.N,GND*%
X138560000Y-65160000D03*
%TD*%
D10*
%TO.P,C10,1*%
%TO.N,+12V*%
X139805000Y-75710000D03*
%TO.P,C10,2*%
%TO.N,GND*%
X137305000Y-75710000D03*
%TD*%
D12*
%TO.P,U3,0,SLEEP_0*%
%TO.N,SLEEP_MODEM*%
X180060000Y-98060000D03*
%TO.P,U3,1,GND_1*%
%TO.N,GND*%
X182600000Y-98060000D03*
D27*
X203180000Y-129860000D03*
D12*
%TO.P,U3,2,VCC_2*%
%TO.N,5V_MODEM*%
X185140000Y-98060000D03*
%TO.P,U3,3,PWRKEY_3*%
%TO.N,unconnected-(U3-PWRKEY-Pad3)*%
X187680000Y-98060000D03*
%TO.P,U3,4,TxD_4*%
%TO.N,UART2_RX*%
X190220000Y-98060000D03*
%TO.P,U3,5,RxD_5*%
%TO.N,UART2_TX*%
X192760000Y-98060000D03*
D11*
%TO.P,U3,6,GND_6*%
%TO.N,GND*%
X195300000Y-98060000D03*
%TD*%
%TO.P,JP5,1,A_1*%
%TO.N,3V3_b*%
X166341250Y-120035000D03*
D12*
%TO.P,JP5,2,B_2*%
%TO.N,3V3_MEM*%
X166341250Y-122575000D03*
%TD*%
D28*
%TO.P,C13,1*%
%TO.N,+5V*%
X118060000Y-91460000D03*
D10*
%TO.P,C13,2*%
%TO.N,GND*%
X123060000Y-91460000D03*
%TD*%
D11*
%TO.P,JP2,1,A_1*%
%TO.N,Net-(JP2-A)*%
X183635000Y-87960000D03*
D12*
%TO.P,JP2,2,B_2*%
%TO.N,5V_MODEM*%
X181095000Y-87960000D03*
%TD*%
D29*
%TO.P,J4,1*%
%TO.N,Net-(J3-In)*%
X185540000Y-141300000D03*
%TO.P,J4,2*%
%TO.N,GND*%
X188080000Y-138760000D03*
%TO.P,J4,3*%
X183000000Y-138760000D03*
%TO.P,J4,4*%
X183000000Y-143840000D03*
%TO.P,J4,5*%
X188080000Y-143840000D03*
%TD*%
D12*
%TO.P,U6,1,VIN_1*%
%TO.N,12V_StepDown*%
X154935000Y-67635000D03*
%TO.P,U6,2,GND_2*%
%TO.N,GND*%
X154860000Y-82660000D03*
%TO.P,U6,3,GND_3*%
X194910000Y-82660000D03*
%TO.P,U6,4,VOUT_4*%
%TO.N,Net-(JP2-A)*%
X194910000Y-67585000D03*
%TD*%
D10*
%TO.P,C8,1*%
%TO.N,+5V*%
X118060000Y-102060000D03*
%TO.P,C8,2*%
%TO.N,GND*%
X120560000Y-102060000D03*
%TD*%
D11*
%TO.P,JP3,1,A_1*%
%TO.N,GND*%
X128235000Y-116160000D03*
D12*
%TO.P,JP3,2,B_2*%
%TO.N,Net-(JP3-B)*%
X125695000Y-116160000D03*
%TD*%
D10*
%TO.P,C1,1*%
%TO.N,Net-(U1-C1+)*%
X134160000Y-119810000D03*
%TO.P,C1,2*%
%TO.N,Net-(U1-C1-)*%
X134160000Y-122310000D03*
%TD*%
D30*
%TO.N,GND*%
X190530000Y-143930000D03*
X181750000Y-131530000D03*
X190660000Y-137660000D03*
X190260000Y-134270000D03*
X180320000Y-137650000D03*
X180430000Y-143840000D03*
X185330000Y-130240000D03*
X189060000Y-131530000D03*
X163560000Y-79960000D03*
X172772500Y-115672500D03*
X180430000Y-134520000D03*
X190630000Y-140710000D03*
X180410000Y-140790000D03*
D31*
%TO.N,UART1_RX*%
X137560000Y-116960000D03*
X150860000Y-122060000D03*
%TO.N,Net-(U1-R1IN)*%
X141460000Y-126460000D03*
X140260000Y-131060000D03*
%TO.N,UART1_TX*%
X152310000Y-122166497D03*
%TO.N,SCL I2C1*%
X155660000Y-118860000D03*
X158260000Y-122660000D03*
D30*
%TO.N,+5V_b*%
X153260000Y-119460000D03*
D31*
%TO.N,UART2_TX*%
X163760000Y-93160000D03*
%TO.N,UART2_RX*%
X158960000Y-93260000D03*
%TD*%
%TO.N,GND*%
D32*
X120560000Y-97240000D02*
X120580000Y-97220000D01*
X120560000Y-102060000D02*
X120560000Y-97240000D01*
%TO.N,+5V*%
X118060000Y-97240000D02*
X118040000Y-97220000D01*
X118060000Y-102060000D02*
X118060000Y-97240000D01*
%TO.N,3V3_MEM*%
D33*
X154940000Y-126885000D02*
X159635000Y-126885000D01*
X163945000Y-122575000D02*
X166341250Y-122575000D01*
X159635000Y-126885000D02*
X163945000Y-122575000D01*
%TO.N,GND*%
D32*
X136092500Y-81060000D02*
X135705000Y-80672500D01*
X180430000Y-143840000D02*
X180430000Y-140810000D01*
X134740000Y-133940000D02*
X134740000Y-137490000D01*
X188080000Y-143840000D02*
X188080000Y-138510000D01*
X190380000Y-137380000D02*
X190660000Y-137660000D01*
X195300000Y-83050000D02*
X194910000Y-82660000D01*
X183000000Y-143840000D02*
X180430000Y-143840000D01*
D34*
X138560000Y-67560000D02*
X138586385Y-67533615D01*
D32*
X120580000Y-97220000D02*
X120580000Y-92340000D01*
X134160000Y-133360000D02*
X134740000Y-133940000D01*
X137660000Y-125760000D02*
X138880000Y-124540000D01*
X183000000Y-143840000D02*
X188080000Y-143840000D01*
X172772500Y-110972500D02*
X171460000Y-109660000D01*
X180410000Y-137740000D02*
X180320000Y-137650000D01*
X135660000Y-78905000D02*
X135705000Y-78860000D01*
D35*
X134160000Y-133360000D02*
X132760000Y-133360000D01*
D32*
X182610000Y-106710000D02*
X181660000Y-107660000D01*
X183040000Y-130240000D02*
X185330000Y-130240000D01*
X190630000Y-140710000D02*
X190630000Y-143830000D01*
X190630000Y-143830000D02*
X190530000Y-143930000D01*
X190260000Y-132730000D02*
X189060000Y-131530000D01*
D35*
X128160000Y-128760000D02*
X128160000Y-116235000D01*
D32*
X180410000Y-140790000D02*
X180410000Y-137740000D01*
X185330000Y-130240000D02*
X187770000Y-130240000D01*
X134275000Y-133835000D02*
X127780000Y-140330000D01*
X121460000Y-91460000D02*
X123060000Y-91460000D01*
X180320000Y-137650000D02*
X180320000Y-134630000D01*
X171460000Y-109660000D02*
X164860000Y-109660000D01*
X182610000Y-101760000D02*
X182610000Y-106710000D01*
X135860000Y-75710000D02*
X137305000Y-75710000D01*
X188170000Y-143930000D02*
X188080000Y-143840000D01*
X190260000Y-134270000D02*
X190380000Y-134390000D01*
X135705000Y-80672500D02*
X135705000Y-78860000D01*
X190660000Y-140680000D02*
X190630000Y-140710000D01*
X190380000Y-134390000D02*
X190380000Y-137380000D01*
X180320000Y-134630000D02*
X180430000Y-134520000D01*
X180430000Y-132850000D02*
X181750000Y-131530000D01*
X123160000Y-91360000D02*
X133960000Y-91360000D01*
X180430000Y-140810000D02*
X180410000Y-140790000D01*
X135705000Y-78860000D02*
X135705000Y-75865000D01*
X135660000Y-89660000D02*
X135660000Y-78905000D01*
X127780000Y-140330000D02*
X131440000Y-143990000D01*
D34*
X143360000Y-72360000D02*
X138560000Y-67560000D01*
X143360000Y-78160000D02*
X143260000Y-78260000D01*
X138586385Y-67533615D02*
X138586385Y-65106444D01*
D32*
X135705000Y-75865000D02*
X135860000Y-75710000D01*
X123060000Y-91460000D02*
X123160000Y-91360000D01*
X181750000Y-131530000D02*
X183040000Y-130240000D01*
X136960000Y-133360000D02*
X137660000Y-132660000D01*
D35*
X128160000Y-116235000D02*
X128235000Y-116160000D01*
D32*
X149120000Y-143990000D02*
X152780000Y-140330000D01*
X172772500Y-115672500D02*
X172772500Y-110972500D01*
X134160000Y-133360000D02*
X134275000Y-133475000D01*
D35*
X132760000Y-133360000D02*
X128160000Y-128760000D01*
D32*
X134275000Y-133475000D02*
X134275000Y-133835000D01*
D34*
X154860000Y-82660000D02*
X150460000Y-78260000D01*
D32*
X190660000Y-137660000D02*
X190660000Y-140680000D01*
X137660000Y-132660000D02*
X137660000Y-125760000D01*
X181560000Y-107760000D02*
X175985000Y-107760000D01*
X181660000Y-107660000D02*
X181560000Y-107760000D01*
X133960000Y-91360000D02*
X135660000Y-89660000D01*
D34*
X143360000Y-75360000D02*
X143360000Y-78160000D01*
D32*
X134160000Y-133360000D02*
X136960000Y-133360000D01*
X190260000Y-134270000D02*
X190260000Y-132730000D01*
X163760000Y-110760000D02*
X163760000Y-112460000D01*
X138880000Y-124540000D02*
X146180000Y-124540000D01*
X183000000Y-138760000D02*
X183000000Y-143840000D01*
X140460000Y-81060000D02*
X136092500Y-81060000D01*
X143260000Y-78260000D02*
X140460000Y-81060000D01*
D34*
X143360000Y-75360000D02*
X143360000Y-72360000D01*
D32*
X175985000Y-107760000D02*
X172772500Y-110972500D01*
X182600000Y-98060000D02*
X182600000Y-101500000D01*
X195300000Y-98060000D02*
X195300000Y-83050000D01*
X131440000Y-143990000D02*
X149120000Y-143990000D01*
X134205000Y-75710000D02*
X135860000Y-75710000D01*
X188080000Y-138760000D02*
X188080000Y-143840000D01*
X129771385Y-65106444D02*
X138586385Y-65106444D01*
X180430000Y-134520000D02*
X180430000Y-132850000D01*
X120580000Y-92340000D02*
X121460000Y-91460000D01*
D34*
X150460000Y-78260000D02*
X143260000Y-78260000D01*
D32*
X190530000Y-143930000D02*
X188170000Y-143930000D01*
X164860000Y-109660000D02*
X163760000Y-110760000D01*
X187770000Y-130240000D02*
X189060000Y-131530000D01*
%TO.N,+12V*%
D34*
X148360000Y-72560000D02*
X148360000Y-75360000D01*
D32*
X139805000Y-72815000D02*
X139805000Y-75710000D01*
X129771385Y-71106444D02*
X138096444Y-71106444D01*
X138096444Y-71106444D02*
X139805000Y-72815000D01*
D34*
X143586385Y-67786385D02*
X148360000Y-72560000D01*
X143586385Y-65106444D02*
X143586385Y-67786385D01*
D32*
X138245000Y-78860000D02*
X139805000Y-77300000D01*
X139805000Y-77300000D02*
X139805000Y-75710000D01*
%TO.N,+5V*%
X131800000Y-88260000D02*
X119660000Y-88260000D01*
D33*
X117960000Y-91360000D02*
X117960000Y-88360000D01*
X117960000Y-88360000D02*
X116110000Y-86510000D01*
D32*
X118060000Y-97200000D02*
X118040000Y-97220000D01*
X118060000Y-91460000D02*
X118060000Y-97200000D01*
D33*
X118060000Y-91460000D02*
X117960000Y-91360000D01*
X118360000Y-73360000D02*
X117087208Y-73360000D01*
X116110000Y-74337208D02*
X116110000Y-80160000D01*
X117087208Y-73360000D02*
X116110000Y-74337208D01*
D32*
X118060000Y-89860000D02*
X118060000Y-91460000D01*
X119660000Y-88260000D02*
X118060000Y-89860000D01*
D33*
X116110000Y-80160000D02*
X116750000Y-80800000D01*
D32*
X133160000Y-86900000D02*
X131800000Y-88260000D01*
D33*
X116110000Y-86510000D02*
X116110000Y-80160000D01*
X116750000Y-80800000D02*
X118360000Y-80800000D01*
%TO.N,Net-(JP1-A)*%
D32*
X133160000Y-84360000D02*
X133160000Y-78865000D01*
X131705000Y-77400000D02*
X133165000Y-78860000D01*
X133160000Y-78865000D02*
X133165000Y-78860000D01*
X131705000Y-75710000D02*
X131705000Y-77400000D01*
%TO.N,UART1_RX*%
D36*
X150860000Y-121060000D02*
X150860000Y-122060000D01*
X146760000Y-116960000D02*
X150860000Y-121060000D01*
X137560000Y-116960000D02*
X146760000Y-116960000D01*
%TO.N,5V_MODEM*%
D32*
X185140000Y-98060000D02*
X185140000Y-101730000D01*
X185110000Y-101760000D02*
X185110000Y-106110000D01*
X181095000Y-90595000D02*
X185140000Y-94640000D01*
X185110000Y-106110000D02*
X186660000Y-107660000D01*
X185140000Y-94640000D02*
X185140000Y-98060000D01*
X185140000Y-101730000D02*
X185110000Y-101760000D01*
X181095000Y-87960000D02*
X181095000Y-90595000D01*
%TO.N,3V3_b*%
D33*
X166300000Y-112460000D02*
X166300000Y-119993750D01*
X166300000Y-119993750D02*
X166341250Y-120035000D01*
%TO.N,Net-(U1-R1IN)*%
D37*
X140260000Y-127660000D02*
X141460000Y-126460000D01*
X140260000Y-131060000D02*
X140260000Y-127660000D01*
%TO.N,Net-(JP3-B)*%
D36*
X125660000Y-116095000D02*
X125660000Y-112460000D01*
%TO.N,UART1_TX*%
X147260000Y-115760000D02*
X132460000Y-115760000D01*
X132460000Y-115760000D02*
X130740000Y-114040000D01*
X152310000Y-120810000D02*
X147260000Y-115760000D01*
X152310000Y-122166497D02*
X152310000Y-120810000D01*
X130740000Y-114040000D02*
X130740000Y-112460000D01*
%TO.N,SCL I2C1*%
X156560000Y-122660000D02*
X158260000Y-122660000D01*
X155660000Y-121760000D02*
X156560000Y-122660000D01*
X155660000Y-118860000D02*
X155660000Y-121760000D01*
%TO.N,+5V_b*%
D33*
X154860000Y-116760000D02*
X159260000Y-116760000D01*
X159260000Y-116760000D02*
X161220000Y-114800000D01*
X153260000Y-119460000D02*
X153260000Y-118360000D01*
X153260000Y-118360000D02*
X154860000Y-116760000D01*
X161220000Y-114800000D02*
X161220000Y-112460000D01*
%TO.N,UART2_TX*%
D36*
X149860000Y-94660000D02*
X148520000Y-96000000D01*
X163760000Y-93160000D02*
X162260000Y-94660000D01*
X148520000Y-96000000D02*
X148520000Y-97220000D01*
X162260000Y-94660000D02*
X149860000Y-94660000D01*
%TO.N,UART2_RX*%
X158960000Y-93260000D02*
X148790000Y-93260000D01*
X145980000Y-96070000D02*
X145980000Y-97220000D01*
X148790000Y-93260000D02*
X145980000Y-96070000D01*
%TD*%
%TA.AperFunction,Conductor*%
%TO.N,GND*%
G36*
X132544723Y-118159038D02*
G01*
X132565609Y-118175677D01*
X132592785Y-118202593D01*
X132626564Y-118263755D01*
X132629525Y-118290292D01*
X132683937Y-135019954D01*
X132683938Y-135019953D01*
X132683938Y-135019956D01*
X115360500Y-135058801D01*
X115360500Y-118361103D01*
X115380185Y-118294064D01*
X115432989Y-118248309D01*
X115484189Y-118237104D01*
X116135656Y-118235497D01*
X116588470Y-118234381D01*
X117584697Y-118231923D01*
X118216941Y-118230365D01*
X118217121Y-118230364D01*
X118217132Y-118234895D01*
X118217138Y-118234895D01*
X118217127Y-118230364D01*
X118217654Y-118230362D01*
X118316941Y-118230118D01*
X118317059Y-118230117D01*
X118317158Y-118230117D01*
X125472987Y-118184467D01*
X132477560Y-118139782D01*
X132544723Y-118159038D01*
G37*
%TD.AperFunction*%
%TD*%
%TA.AperFunction,Conductor*%
%TO.N,GND*%
G36*
X168187816Y-128860000D02*
G01*
X176758134Y-128860000D01*
X176660762Y-145159500D01*
X147611113Y-145159500D01*
X147641647Y-140189598D01*
X150280000Y-140189598D01*
X150280000Y-140470401D01*
X150311437Y-140749412D01*
X150311439Y-140749424D01*
X150373921Y-141023178D01*
X150373922Y-141023180D01*
X150466662Y-141288217D01*
X150588492Y-141541200D01*
X150737884Y-141778956D01*
X150844187Y-141912257D01*
X151485747Y-141270697D01*
X151559588Y-141372330D01*
X151737670Y-141550412D01*
X151839300Y-141624251D01*
X151197741Y-142265810D01*
X151197741Y-142265811D01*
X151331043Y-142372115D01*
X151568799Y-142521507D01*
X151821782Y-142643337D01*
X152086819Y-142736077D01*
X152086821Y-142736078D01*
X152360575Y-142798560D01*
X152360587Y-142798562D01*
X152639598Y-142829999D01*
X152639600Y-142830000D01*
X152920400Y-142830000D01*
X152920401Y-142829999D01*
X153199412Y-142798562D01*
X153199424Y-142798560D01*
X153473178Y-142736078D01*
X153473180Y-142736077D01*
X153738217Y-142643337D01*
X153991200Y-142521507D01*
X154228956Y-142372116D01*
X154362257Y-142265810D01*
X153720698Y-141624251D01*
X153822330Y-141550412D01*
X154000412Y-141372330D01*
X154074251Y-141270698D01*
X154715810Y-141912257D01*
X154822116Y-141778956D01*
X154971507Y-141541200D01*
X155093337Y-141288217D01*
X155186077Y-141023180D01*
X155186078Y-141023178D01*
X155248560Y-140749424D01*
X155248562Y-140749412D01*
X155279999Y-140470401D01*
X155280000Y-140470399D01*
X155280000Y-140189600D01*
X155279999Y-140189598D01*
X155248562Y-139910587D01*
X155248560Y-139910575D01*
X155186078Y-139636821D01*
X155186077Y-139636819D01*
X155093337Y-139371782D01*
X154971507Y-139118799D01*
X154822115Y-138881043D01*
X154715810Y-138747741D01*
X154074251Y-139389300D01*
X154000412Y-139287670D01*
X153822330Y-139109588D01*
X153720697Y-139035747D01*
X154362257Y-138394187D01*
X154228956Y-138287884D01*
X153991200Y-138138492D01*
X153738217Y-138016662D01*
X153473180Y-137923922D01*
X153473178Y-137923921D01*
X153199424Y-137861439D01*
X153199412Y-137861437D01*
X152920401Y-137830000D01*
X152639598Y-137830000D01*
X152360587Y-137861437D01*
X152360575Y-137861439D01*
X152086821Y-137923921D01*
X152086819Y-137923922D01*
X151821782Y-138016662D01*
X151568799Y-138138492D01*
X151331043Y-138287884D01*
X151197741Y-138394187D01*
X151839301Y-139035747D01*
X151737670Y-139109588D01*
X151559588Y-139287670D01*
X151485747Y-139389301D01*
X150844187Y-138747741D01*
X150737884Y-138881043D01*
X150588492Y-139118799D01*
X150466662Y-139371782D01*
X150373922Y-139636819D01*
X150373921Y-139636821D01*
X150311439Y-139910575D01*
X150311437Y-139910587D01*
X150280000Y-140189598D01*
X147641647Y-140189598D01*
X147672131Y-135227672D01*
X147680958Y-135198279D01*
X147687663Y-135168344D01*
X147691447Y-135163352D01*
X147692227Y-135160757D01*
X147708986Y-135140220D01*
X147736515Y-135113026D01*
X147798042Y-135079917D01*
X147824414Y-135077244D01*
X150344860Y-135092730D01*
X152916662Y-135108531D01*
X152916662Y-135108530D01*
X152934951Y-135108642D01*
X153016660Y-135109145D01*
X152998824Y-128163121D01*
X153007375Y-128133722D01*
X153013774Y-128103780D01*
X153017570Y-128098668D01*
X153018337Y-128096035D01*
X153034815Y-128075454D01*
X153062307Y-128047759D01*
X153123505Y-128014050D01*
X153149713Y-128011119D01*
X154266316Y-128005764D01*
X154333449Y-128025127D01*
X154379457Y-128077711D01*
X154389732Y-128146821D01*
X154361012Y-128210515D01*
X154323206Y-128240248D01*
X154258644Y-128273143D01*
X154214077Y-128305523D01*
X154214077Y-128305524D01*
X154893554Y-128985000D01*
X154887339Y-128985000D01*
X154785606Y-129012259D01*
X154694394Y-129064920D01*
X154619920Y-129139394D01*
X154567259Y-129230606D01*
X154540000Y-129332339D01*
X154540000Y-129338553D01*
X153860524Y-128659077D01*
X153860523Y-128659077D01*
X153828143Y-128703644D01*
X153735244Y-128885968D01*
X153672009Y-129080582D01*
X153640000Y-129282682D01*
X153640000Y-129487317D01*
X153672009Y-129689417D01*
X153735244Y-129884031D01*
X153828141Y-130066350D01*
X153828147Y-130066359D01*
X153860523Y-130110921D01*
X153860524Y-130110922D01*
X154540000Y-129431446D01*
X154540000Y-129437661D01*
X154567259Y-129539394D01*
X154619920Y-129630606D01*
X154694394Y-129705080D01*
X154785606Y-129757741D01*
X154887339Y-129785000D01*
X154893553Y-129785000D01*
X154214076Y-130464474D01*
X154258650Y-130496859D01*
X154440968Y-130589755D01*
X154635582Y-130652990D01*
X154837683Y-130685000D01*
X155042317Y-130685000D01*
X155244417Y-130652990D01*
X155439031Y-130589755D01*
X155621349Y-130496859D01*
X155665921Y-130464474D01*
X154986447Y-129785000D01*
X154992661Y-129785000D01*
X155094394Y-129757741D01*
X155185606Y-129705080D01*
X155260080Y-129630606D01*
X155312741Y-129539394D01*
X155340000Y-129437661D01*
X155340000Y-129431447D01*
X156019474Y-130110921D01*
X156051859Y-130066349D01*
X156144755Y-129884031D01*
X156207990Y-129689417D01*
X156240000Y-129487317D01*
X156240000Y-129282682D01*
X156207990Y-129080582D01*
X156144755Y-128885968D01*
X156051859Y-128703650D01*
X156019474Y-128659077D01*
X156019474Y-128659076D01*
X155340000Y-129338551D01*
X155340000Y-129332339D01*
X155312741Y-129230606D01*
X155260080Y-129139394D01*
X155185606Y-129064920D01*
X155094394Y-129012259D01*
X154992661Y-128985000D01*
X154986446Y-128985000D01*
X155665922Y-128305524D01*
X155665921Y-128305523D01*
X155621359Y-128273147D01*
X155621350Y-128273141D01*
X155544241Y-128233852D01*
X155493445Y-128185877D01*
X155476650Y-128118056D01*
X155499187Y-128051921D01*
X155553903Y-128008470D01*
X155599938Y-127999368D01*
X168186272Y-127939008D01*
X168187816Y-128860000D01*
G37*
%TD.AperFunction*%
%TD*%
%TA.AperFunction,Conductor*%
%TO.N,GND*%
G36*
X133013289Y-135024949D02*
G01*
X133060838Y-135038795D01*
X133081515Y-135055381D01*
X133086065Y-135059910D01*
X133108939Y-135082682D01*
X133142563Y-135143928D01*
X133145457Y-135170283D01*
X133159999Y-141655524D01*
X133159999Y-141655523D01*
X133160000Y-141655525D01*
X147632840Y-141622970D01*
X147611113Y-145159500D01*
X115484500Y-145159500D01*
X115417461Y-145139815D01*
X115371706Y-145087011D01*
X115360500Y-145035500D01*
X115360500Y-141512486D01*
X116609500Y-141512486D01*
X116609500Y-141807513D01*
X116641571Y-142051113D01*
X116648007Y-142099993D01*
X116720922Y-142372116D01*
X116724361Y-142384951D01*
X116724364Y-142384961D01*
X116837254Y-142657500D01*
X116837258Y-142657510D01*
X116984761Y-142912993D01*
X117164352Y-143147040D01*
X117164358Y-143147047D01*
X117372952Y-143355641D01*
X117372959Y-143355647D01*
X117607006Y-143535238D01*
X117862489Y-143682741D01*
X117862490Y-143682741D01*
X117862493Y-143682743D01*
X118135048Y-143795639D01*
X118420007Y-143871993D01*
X118712494Y-143910500D01*
X118712501Y-143910500D01*
X119007499Y-143910500D01*
X119007506Y-143910500D01*
X119299993Y-143871993D01*
X119584952Y-143795639D01*
X119857507Y-143682743D01*
X120112994Y-143535238D01*
X120347042Y-143355646D01*
X120555646Y-143147042D01*
X120735238Y-142912994D01*
X120882743Y-142657507D01*
X120995639Y-142384952D01*
X121071993Y-142099993D01*
X121110500Y-141807506D01*
X121110500Y-141512494D01*
X121071993Y-141220007D01*
X120995639Y-140935048D01*
X120882743Y-140662493D01*
X120735238Y-140407006D01*
X120568414Y-140189598D01*
X125280000Y-140189598D01*
X125280000Y-140470401D01*
X125311437Y-140749412D01*
X125311439Y-140749424D01*
X125373921Y-141023178D01*
X125373922Y-141023180D01*
X125466662Y-141288217D01*
X125588492Y-141541200D01*
X125737884Y-141778956D01*
X125844187Y-141912257D01*
X126485747Y-141270697D01*
X126559588Y-141372330D01*
X126737670Y-141550412D01*
X126839300Y-141624251D01*
X126197741Y-142265810D01*
X126197741Y-142265811D01*
X126331043Y-142372115D01*
X126568799Y-142521507D01*
X126821782Y-142643337D01*
X127086819Y-142736077D01*
X127086821Y-142736078D01*
X127360575Y-142798560D01*
X127360587Y-142798562D01*
X127639598Y-142829999D01*
X127639600Y-142830000D01*
X127920400Y-142830000D01*
X127920401Y-142829999D01*
X128199412Y-142798562D01*
X128199424Y-142798560D01*
X128473178Y-142736078D01*
X128473180Y-142736077D01*
X128738217Y-142643337D01*
X128991200Y-142521507D01*
X129228956Y-142372116D01*
X129362257Y-142265810D01*
X128720698Y-141624251D01*
X128822330Y-141550412D01*
X129000412Y-141372330D01*
X129074251Y-141270698D01*
X129715810Y-141912257D01*
X129822116Y-141778956D01*
X129971507Y-141541200D01*
X130093337Y-141288217D01*
X130186077Y-141023180D01*
X130186078Y-141023178D01*
X130248560Y-140749424D01*
X130248562Y-140749412D01*
X130279999Y-140470401D01*
X130280000Y-140470399D01*
X130280000Y-140189600D01*
X130279999Y-140189598D01*
X130248562Y-139910587D01*
X130248560Y-139910575D01*
X130186078Y-139636821D01*
X130186077Y-139636819D01*
X130093337Y-139371782D01*
X129971507Y-139118799D01*
X129822115Y-138881043D01*
X129715810Y-138747741D01*
X129074251Y-139389300D01*
X129000412Y-139287670D01*
X128822330Y-139109588D01*
X128720697Y-139035747D01*
X129362257Y-138394187D01*
X129228956Y-138287884D01*
X128991200Y-138138492D01*
X128738217Y-138016662D01*
X128473180Y-137923922D01*
X128473178Y-137923921D01*
X128199424Y-137861439D01*
X128199412Y-137861437D01*
X127920401Y-137830000D01*
X127639598Y-137830000D01*
X127360587Y-137861437D01*
X127360575Y-137861439D01*
X127086821Y-137923921D01*
X127086819Y-137923922D01*
X126821782Y-138016662D01*
X126568799Y-138138492D01*
X126331043Y-138287884D01*
X126197741Y-138394187D01*
X126839301Y-139035747D01*
X126737670Y-139109588D01*
X126559588Y-139287670D01*
X126485747Y-139389301D01*
X125844187Y-138747741D01*
X125737884Y-138881043D01*
X125588492Y-139118799D01*
X125466662Y-139371782D01*
X125373922Y-139636819D01*
X125373921Y-139636821D01*
X125311439Y-139910575D01*
X125311437Y-139910587D01*
X125280000Y-140189598D01*
X120568414Y-140189598D01*
X120555646Y-140172958D01*
X120555644Y-140172956D01*
X120555641Y-140172952D01*
X120347047Y-139964358D01*
X120347040Y-139964352D01*
X120112993Y-139784761D01*
X119857510Y-139637258D01*
X119857500Y-139637254D01*
X119584961Y-139524364D01*
X119584954Y-139524362D01*
X119584952Y-139524361D01*
X119299993Y-139448007D01*
X119251113Y-139441571D01*
X119007513Y-139409500D01*
X119007506Y-139409500D01*
X118712494Y-139409500D01*
X118712486Y-139409500D01*
X118434085Y-139446153D01*
X118420007Y-139448007D01*
X118257998Y-139491417D01*
X118135048Y-139524361D01*
X118135038Y-139524364D01*
X117862499Y-139637254D01*
X117862489Y-139637258D01*
X117607006Y-139784761D01*
X117372959Y-139964352D01*
X117372952Y-139964358D01*
X117164358Y-140172952D01*
X117164352Y-140172959D01*
X116984761Y-140407006D01*
X116837258Y-140662489D01*
X116837254Y-140662499D01*
X116724364Y-140935038D01*
X116724361Y-140935048D01*
X116648008Y-141220004D01*
X116648006Y-141220015D01*
X116609500Y-141512486D01*
X115360500Y-141512486D01*
X115360500Y-135058801D01*
X132783937Y-135019731D01*
X132783938Y-135019732D01*
X132866225Y-135019547D01*
X132993755Y-135019261D01*
X133013289Y-135024949D01*
G37*
%TD.AperFunction*%
%TD*%
%TA.AperFunction,Conductor*%
%TO.N,GND*%
G36*
X196875734Y-127965249D02*
G01*
X196841498Y-145159500D01*
X176660762Y-145159500D01*
X176684500Y-141185837D01*
X184089500Y-141185837D01*
X184089500Y-141414162D01*
X184125215Y-141639660D01*
X184195770Y-141856803D01*
X184299421Y-142060228D01*
X184433621Y-142244937D01*
X184595063Y-142406379D01*
X184779772Y-142540579D01*
X184875884Y-142589550D01*
X184983196Y-142644229D01*
X184983198Y-142644229D01*
X184983201Y-142644231D01*
X185099592Y-142682049D01*
X185200339Y-142714784D01*
X185425838Y-142750500D01*
X185425843Y-142750500D01*
X185654162Y-142750500D01*
X185879660Y-142714784D01*
X186096799Y-142644231D01*
X186300228Y-142540579D01*
X186484937Y-142406379D01*
X186646379Y-142244937D01*
X186780579Y-142060228D01*
X186884231Y-141856799D01*
X186954784Y-141639660D01*
X186990500Y-141414162D01*
X186990500Y-141185837D01*
X186954784Y-140960339D01*
X186884229Y-140743196D01*
X186780578Y-140539771D01*
X186646379Y-140355063D01*
X186484937Y-140193621D01*
X186300228Y-140059421D01*
X186096803Y-139955770D01*
X185879660Y-139885215D01*
X185654162Y-139849500D01*
X185654157Y-139849500D01*
X185425843Y-139849500D01*
X185425838Y-139849500D01*
X185200339Y-139885215D01*
X184983196Y-139955770D01*
X184779771Y-140059421D01*
X184595061Y-140193622D01*
X184433622Y-140355061D01*
X184299421Y-140539771D01*
X184195770Y-140743196D01*
X184125215Y-140960339D01*
X184089500Y-141185837D01*
X176684500Y-141185837D01*
X176718049Y-135570000D01*
X184595000Y-135570000D01*
X186495000Y-135570000D01*
X186495000Y-133480000D01*
X184595000Y-133480000D01*
X184595000Y-135570000D01*
X176718049Y-135570000D01*
X176763542Y-127954708D01*
X196875734Y-127965249D01*
G37*
%TD.AperFunction*%
%TD*%
%TA.AperFunction,Conductor*%
%TO.N,GND*%
G36*
X206302539Y-61180185D02*
G01*
X206348294Y-61232989D01*
X206359500Y-61284500D01*
X206359500Y-145035500D01*
X206339815Y-145102539D01*
X206287011Y-145148294D01*
X206235500Y-145159500D01*
X196841498Y-145159500D01*
X196849556Y-141112486D01*
X200309500Y-141112486D01*
X200309500Y-141407513D01*
X200341571Y-141651113D01*
X200348007Y-141699993D01*
X200348008Y-141699995D01*
X200424361Y-141984951D01*
X200424364Y-141984961D01*
X200537254Y-142257500D01*
X200537258Y-142257510D01*
X200684761Y-142512993D01*
X200864352Y-142747040D01*
X200864358Y-142747047D01*
X201072952Y-142955641D01*
X201072959Y-142955647D01*
X201307006Y-143135238D01*
X201562489Y-143282741D01*
X201562490Y-143282741D01*
X201562493Y-143282743D01*
X201835048Y-143395639D01*
X202120007Y-143471993D01*
X202412494Y-143510500D01*
X202412501Y-143510500D01*
X202707499Y-143510500D01*
X202707506Y-143510500D01*
X202999993Y-143471993D01*
X203284952Y-143395639D01*
X203557507Y-143282743D01*
X203812994Y-143135238D01*
X204047042Y-142955646D01*
X204255646Y-142747042D01*
X204435238Y-142512994D01*
X204582743Y-142257507D01*
X204695639Y-141984952D01*
X204771993Y-141699993D01*
X204810500Y-141407506D01*
X204810500Y-141112494D01*
X204771993Y-140820007D01*
X204695639Y-140535048D01*
X204582743Y-140262493D01*
X204435238Y-140007006D01*
X204255646Y-139772958D01*
X204255641Y-139772952D01*
X204047047Y-139564358D01*
X204047040Y-139564352D01*
X203812993Y-139384761D01*
X203557510Y-139237258D01*
X203557500Y-139237254D01*
X203284961Y-139124364D01*
X203284954Y-139124362D01*
X203284952Y-139124361D01*
X202999993Y-139048007D01*
X202951113Y-139041571D01*
X202707513Y-139009500D01*
X202707506Y-139009500D01*
X202412494Y-139009500D01*
X202412486Y-139009500D01*
X202134085Y-139046153D01*
X202120007Y-139048007D01*
X201954501Y-139092354D01*
X201835048Y-139124361D01*
X201835038Y-139124364D01*
X201562499Y-139237254D01*
X201562489Y-139237258D01*
X201307006Y-139384761D01*
X201072959Y-139564352D01*
X201072952Y-139564358D01*
X200864358Y-139772952D01*
X200864352Y-139772959D01*
X200684761Y-140007006D01*
X200537258Y-140262489D01*
X200537254Y-140262499D01*
X200424364Y-140535038D01*
X200424361Y-140535048D01*
X200348008Y-140820004D01*
X200348006Y-140820015D01*
X200309500Y-141112486D01*
X196849556Y-141112486D01*
X196872255Y-129712533D01*
X200930000Y-129712533D01*
X200930000Y-130007466D01*
X200930001Y-130007483D01*
X200968496Y-130299884D01*
X200968499Y-130299897D01*
X201044835Y-130584790D01*
X201044838Y-130584800D01*
X201157704Y-130857281D01*
X201157709Y-130857292D01*
X201305174Y-131112707D01*
X201305180Y-131112715D01*
X201421777Y-131264667D01*
X202317425Y-130369019D01*
X202403249Y-130497463D01*
X202542537Y-130636751D01*
X202670979Y-130722573D01*
X201775331Y-131618221D01*
X201927284Y-131734819D01*
X201927292Y-131734825D01*
X202182707Y-131882290D01*
X202182718Y-131882295D01*
X202455199Y-131995161D01*
X202455209Y-131995164D01*
X202740102Y-132071500D01*
X202740115Y-132071503D01*
X203032516Y-132109998D01*
X203032534Y-132110000D01*
X203327466Y-132110000D01*
X203327483Y-132109998D01*
X203619884Y-132071503D01*
X203619897Y-132071500D01*
X203904790Y-131995164D01*
X203904800Y-131995161D01*
X204177281Y-131882295D01*
X204177292Y-131882290D01*
X204432707Y-131734825D01*
X204432725Y-131734813D01*
X204584667Y-131618222D01*
X204584667Y-131618220D01*
X203689020Y-130722573D01*
X203817463Y-130636751D01*
X203956751Y-130497463D01*
X204042573Y-130369020D01*
X204938220Y-131264667D01*
X204938222Y-131264667D01*
X205054813Y-131112725D01*
X205054825Y-131112707D01*
X205202290Y-130857292D01*
X205202295Y-130857281D01*
X205315161Y-130584800D01*
X205315164Y-130584790D01*
X205391500Y-130299897D01*
X205391503Y-130299884D01*
X205429998Y-130007483D01*
X205430000Y-130007466D01*
X205430000Y-129712533D01*
X205429998Y-129712516D01*
X205391503Y-129420115D01*
X205391500Y-129420102D01*
X205315164Y-129135209D01*
X205315161Y-129135199D01*
X205202295Y-128862718D01*
X205202290Y-128862707D01*
X205054825Y-128607292D01*
X205054819Y-128607284D01*
X204938221Y-128455331D01*
X204042573Y-129350979D01*
X203956751Y-129222537D01*
X203817463Y-129083249D01*
X203689020Y-128997425D01*
X204584667Y-128101777D01*
X204432715Y-127985180D01*
X204432707Y-127985174D01*
X204177292Y-127837709D01*
X204177281Y-127837704D01*
X203904800Y-127724838D01*
X203904790Y-127724835D01*
X203619897Y-127648499D01*
X203619884Y-127648496D01*
X203327483Y-127610001D01*
X203327466Y-127610000D01*
X203032534Y-127610000D01*
X203032516Y-127610001D01*
X202740115Y-127648496D01*
X202740102Y-127648499D01*
X202455209Y-127724835D01*
X202455199Y-127724838D01*
X202182718Y-127837704D01*
X202182707Y-127837709D01*
X201927292Y-127985174D01*
X201927276Y-127985185D01*
X201775331Y-128101775D01*
X201775331Y-128101777D01*
X202670979Y-128997425D01*
X202542537Y-129083249D01*
X202403249Y-129222537D01*
X202317425Y-129350979D01*
X201421777Y-128455331D01*
X201421775Y-128455331D01*
X201305185Y-128607276D01*
X201305174Y-128607292D01*
X201157709Y-128862707D01*
X201157704Y-128862718D01*
X201044838Y-129135199D01*
X201044835Y-129135209D01*
X200968499Y-129420102D01*
X200968496Y-129420115D01*
X200930001Y-129712516D01*
X200930000Y-129712533D01*
X196872255Y-129712533D01*
X196875734Y-127965249D01*
X189360000Y-127961309D01*
X189360000Y-98748593D01*
X189380586Y-98776928D01*
X189503072Y-98899414D01*
X189643212Y-99001232D01*
X189797555Y-99079873D01*
X189962299Y-99133402D01*
X190133389Y-99160500D01*
X190133390Y-99160500D01*
X190306610Y-99160500D01*
X190306611Y-99160500D01*
X190477701Y-99133402D01*
X190642445Y-99079873D01*
X190796788Y-99001232D01*
X190936928Y-98899414D01*
X191059414Y-98776928D01*
X191161232Y-98636788D01*
X191239873Y-98482445D01*
X191293402Y-98317701D01*
X191320500Y-98146611D01*
X191320500Y-97973389D01*
X191659500Y-97973389D01*
X191659500Y-98146611D01*
X191686598Y-98317701D01*
X191740127Y-98482445D01*
X191818768Y-98636788D01*
X191920586Y-98776928D01*
X192043072Y-98899414D01*
X192183212Y-99001232D01*
X192337555Y-99079873D01*
X192502299Y-99133402D01*
X192673389Y-99160500D01*
X192673390Y-99160500D01*
X192846610Y-99160500D01*
X192846611Y-99160500D01*
X193017701Y-99133402D01*
X193182445Y-99079873D01*
X193336788Y-99001232D01*
X193476928Y-98899414D01*
X193599414Y-98776928D01*
X193701232Y-98636788D01*
X193715515Y-98608756D01*
X193763489Y-98557960D01*
X193831309Y-98541164D01*
X193897445Y-98563701D01*
X193940897Y-98618415D01*
X193950000Y-98665050D01*
X193950000Y-98957844D01*
X193956401Y-99017372D01*
X193956403Y-99017379D01*
X194006645Y-99152086D01*
X194006649Y-99152093D01*
X194092809Y-99267187D01*
X194092812Y-99267190D01*
X194207906Y-99353350D01*
X194207913Y-99353354D01*
X194342620Y-99403596D01*
X194342627Y-99403598D01*
X194402155Y-99409999D01*
X194402172Y-99410000D01*
X195050000Y-99410000D01*
X195050000Y-98493012D01*
X195107007Y-98525925D01*
X195234174Y-98560000D01*
X195365826Y-98560000D01*
X195492993Y-98525925D01*
X195550000Y-98493012D01*
X195550000Y-99410000D01*
X196197828Y-99410000D01*
X196197844Y-99409999D01*
X196257372Y-99403598D01*
X196257379Y-99403596D01*
X196392086Y-99353354D01*
X196392093Y-99353350D01*
X196507187Y-99267190D01*
X196507190Y-99267187D01*
X196593350Y-99152093D01*
X196593354Y-99152086D01*
X196643596Y-99017379D01*
X196643598Y-99017372D01*
X196649999Y-98957844D01*
X196650000Y-98957827D01*
X196650000Y-98310000D01*
X195733012Y-98310000D01*
X195765925Y-98252993D01*
X195800000Y-98125826D01*
X195800000Y-97994174D01*
X195765925Y-97867007D01*
X195733012Y-97810000D01*
X196650000Y-97810000D01*
X196650000Y-97162172D01*
X196649999Y-97162155D01*
X196643598Y-97102627D01*
X196643596Y-97102620D01*
X196593354Y-96967913D01*
X196593350Y-96967906D01*
X196507190Y-96852812D01*
X196507187Y-96852809D01*
X196392093Y-96766649D01*
X196392086Y-96766645D01*
X196257379Y-96716403D01*
X196257372Y-96716401D01*
X196197844Y-96710000D01*
X195550000Y-96710000D01*
X195550000Y-97626988D01*
X195492993Y-97594075D01*
X195365826Y-97560000D01*
X195234174Y-97560000D01*
X195107007Y-97594075D01*
X195050000Y-97626988D01*
X195050000Y-96710000D01*
X194402155Y-96710000D01*
X194342627Y-96716401D01*
X194342620Y-96716403D01*
X194207913Y-96766645D01*
X194207906Y-96766649D01*
X194092812Y-96852809D01*
X194092809Y-96852812D01*
X194006649Y-96967906D01*
X194006645Y-96967913D01*
X193956403Y-97102620D01*
X193956401Y-97102627D01*
X193950000Y-97162155D01*
X193950000Y-97454949D01*
X193930315Y-97521988D01*
X193877511Y-97567743D01*
X193808353Y-97577687D01*
X193744797Y-97548662D01*
X193715515Y-97511244D01*
X193701231Y-97483211D01*
X193599414Y-97343072D01*
X193476928Y-97220586D01*
X193336788Y-97118768D01*
X193182445Y-97040127D01*
X193017701Y-96986598D01*
X193017699Y-96986597D01*
X193017698Y-96986597D01*
X192886271Y-96965781D01*
X192846611Y-96959500D01*
X192673389Y-96959500D01*
X192633728Y-96965781D01*
X192502302Y-96986597D01*
X192337552Y-97040128D01*
X192183211Y-97118768D01*
X192103256Y-97176859D01*
X192043072Y-97220586D01*
X192043070Y-97220588D01*
X192043069Y-97220588D01*
X191920588Y-97343069D01*
X191920588Y-97343070D01*
X191920586Y-97343072D01*
X191920582Y-97343078D01*
X191818768Y-97483211D01*
X191740128Y-97637552D01*
X191686597Y-97802302D01*
X191685378Y-97810000D01*
X191659500Y-97973389D01*
X191320500Y-97973389D01*
X191293402Y-97802299D01*
X191239873Y-97637555D01*
X191161232Y-97483212D01*
X191059414Y-97343072D01*
X190936928Y-97220586D01*
X190796788Y-97118768D01*
X190642445Y-97040127D01*
X190477701Y-96986598D01*
X190477699Y-96986597D01*
X190477698Y-96986597D01*
X190346271Y-96965781D01*
X190306611Y-96959500D01*
X190133389Y-96959500D01*
X190093728Y-96965781D01*
X189962302Y-96986597D01*
X189797552Y-97040128D01*
X189643211Y-97118768D01*
X189563256Y-97176859D01*
X189503072Y-97220586D01*
X189503070Y-97220588D01*
X189503069Y-97220588D01*
X189380588Y-97343069D01*
X189380581Y-97343078D01*
X189360000Y-97371404D01*
X189360000Y-91366428D01*
X192415304Y-91361308D01*
X192415304Y-82553753D01*
X193560000Y-82553753D01*
X193560000Y-82766246D01*
X193593242Y-82976127D01*
X193593242Y-82976130D01*
X193658904Y-83178217D01*
X193755375Y-83367550D01*
X193794728Y-83421716D01*
X194427037Y-82789408D01*
X194444075Y-82852993D01*
X194509901Y-82967007D01*
X194602993Y-83060099D01*
X194717007Y-83125925D01*
X194780590Y-83142962D01*
X194148282Y-83775269D01*
X194148282Y-83775270D01*
X194202449Y-83814624D01*
X194391782Y-83911095D01*
X194593870Y-83976757D01*
X194803754Y-84010000D01*
X195016246Y-84010000D01*
X195226127Y-83976757D01*
X195226130Y-83976757D01*
X195428217Y-83911095D01*
X195617554Y-83814622D01*
X195671716Y-83775270D01*
X195671717Y-83775270D01*
X195039408Y-83142962D01*
X195102993Y-83125925D01*
X195217007Y-83060099D01*
X195310099Y-82967007D01*
X195375925Y-82852993D01*
X195392962Y-82789408D01*
X196025270Y-83421717D01*
X196025270Y-83421716D01*
X196064622Y-83367554D01*
X196161095Y-83178217D01*
X196226757Y-82976130D01*
X196226757Y-82976127D01*
X196260000Y-82766246D01*
X196260000Y-82553753D01*
X196226757Y-82343872D01*
X196226757Y-82343869D01*
X196161095Y-82141782D01*
X196064624Y-81952449D01*
X196025270Y-81898282D01*
X196025269Y-81898282D01*
X195392962Y-82530590D01*
X195375925Y-82467007D01*
X195310099Y-82352993D01*
X195217007Y-82259901D01*
X195102993Y-82194075D01*
X195039409Y-82177037D01*
X195671716Y-81544728D01*
X195617550Y-81505375D01*
X195428217Y-81408904D01*
X195226129Y-81343242D01*
X195016246Y-81310000D01*
X194803754Y-81310000D01*
X194593872Y-81343242D01*
X194593869Y-81343242D01*
X194391782Y-81408904D01*
X194202439Y-81505380D01*
X194148282Y-81544727D01*
X194148282Y-81544728D01*
X194780591Y-82177037D01*
X194717007Y-82194075D01*
X194602993Y-82259901D01*
X194509901Y-82352993D01*
X194444075Y-82467007D01*
X194427037Y-82530590D01*
X193794728Y-81898282D01*
X193794727Y-81898282D01*
X193755380Y-81952439D01*
X193658904Y-82141782D01*
X193593242Y-82343869D01*
X193593242Y-82343872D01*
X193560000Y-82553753D01*
X192415304Y-82553753D01*
X192415304Y-67498389D01*
X193809500Y-67498389D01*
X193809500Y-67671611D01*
X193836598Y-67842701D01*
X193890127Y-68007445D01*
X193968768Y-68161788D01*
X194070586Y-68301928D01*
X194193072Y-68424414D01*
X194333212Y-68526232D01*
X194487555Y-68604873D01*
X194652299Y-68658402D01*
X194823389Y-68685500D01*
X194823390Y-68685500D01*
X194996610Y-68685500D01*
X194996611Y-68685500D01*
X195167701Y-68658402D01*
X195332445Y-68604873D01*
X195486788Y-68526232D01*
X195626928Y-68424414D01*
X195749414Y-68301928D01*
X195851232Y-68161788D01*
X195929873Y-68007445D01*
X195983402Y-67842701D01*
X196010500Y-67671611D01*
X196010500Y-67498389D01*
X195983402Y-67327299D01*
X195929873Y-67162555D01*
X195851232Y-67008212D01*
X195749414Y-66868072D01*
X195626928Y-66745586D01*
X195486788Y-66643768D01*
X195332445Y-66565127D01*
X195167701Y-66511598D01*
X195167699Y-66511597D01*
X195167698Y-66511597D01*
X195036271Y-66490781D01*
X194996611Y-66484500D01*
X194823389Y-66484500D01*
X194783728Y-66490781D01*
X194652302Y-66511597D01*
X194487552Y-66565128D01*
X194333211Y-66643768D01*
X194253256Y-66701859D01*
X194193072Y-66745586D01*
X194193070Y-66745588D01*
X194193069Y-66745588D01*
X194070588Y-66868069D01*
X194070588Y-66868070D01*
X194070586Y-66868072D01*
X194026859Y-66928256D01*
X193968768Y-67008211D01*
X193890128Y-67162552D01*
X193836597Y-67327302D01*
X193809500Y-67498389D01*
X192415304Y-67498389D01*
X192415304Y-64812486D01*
X200209500Y-64812486D01*
X200209500Y-65107513D01*
X200241571Y-65351113D01*
X200248007Y-65399993D01*
X200248008Y-65399995D01*
X200324361Y-65684951D01*
X200324364Y-65684961D01*
X200437254Y-65957500D01*
X200437258Y-65957510D01*
X200584761Y-66212993D01*
X200764352Y-66447040D01*
X200764358Y-66447047D01*
X200972952Y-66655641D01*
X200972959Y-66655647D01*
X201207006Y-66835238D01*
X201462489Y-66982741D01*
X201462490Y-66982741D01*
X201462493Y-66982743D01*
X201735048Y-67095639D01*
X202020007Y-67171993D01*
X202312494Y-67210500D01*
X202312501Y-67210500D01*
X202607499Y-67210500D01*
X202607506Y-67210500D01*
X202899993Y-67171993D01*
X203184952Y-67095639D01*
X203457507Y-66982743D01*
X203712994Y-66835238D01*
X203947042Y-66655646D01*
X204155646Y-66447042D01*
X204335238Y-66212994D01*
X204482743Y-65957507D01*
X204595639Y-65684952D01*
X204671993Y-65399993D01*
X204710500Y-65107506D01*
X204710500Y-64812494D01*
X204671993Y-64520007D01*
X204595639Y-64235048D01*
X204482743Y-63962493D01*
X204335238Y-63707006D01*
X204155646Y-63472958D01*
X204155641Y-63472952D01*
X203947047Y-63264358D01*
X203947040Y-63264352D01*
X203712993Y-63084761D01*
X203457510Y-62937258D01*
X203457500Y-62937254D01*
X203184961Y-62824364D01*
X203184954Y-62824362D01*
X203184952Y-62824361D01*
X202899993Y-62748007D01*
X202851113Y-62741571D01*
X202607513Y-62709500D01*
X202607506Y-62709500D01*
X202312494Y-62709500D01*
X202312486Y-62709500D01*
X202034085Y-62746153D01*
X202020007Y-62748007D01*
X201735048Y-62824361D01*
X201735038Y-62824364D01*
X201462499Y-62937254D01*
X201462489Y-62937258D01*
X201207006Y-63084761D01*
X200972959Y-63264352D01*
X200972952Y-63264358D01*
X200764358Y-63472952D01*
X200764352Y-63472959D01*
X200584761Y-63707006D01*
X200437258Y-63962489D01*
X200437254Y-63962499D01*
X200324364Y-64235038D01*
X200324361Y-64235048D01*
X200248008Y-64520004D01*
X200248006Y-64520015D01*
X200209500Y-64812486D01*
X192415304Y-64812486D01*
X192415304Y-63360014D01*
X197656640Y-63367460D01*
X197659775Y-61160500D01*
X206235500Y-61160500D01*
X206302539Y-61180185D01*
G37*
%TD.AperFunction*%
%TD*%
%TA.AperFunction,Conductor*%
%TO.N,GND*%
G36*
X169411089Y-110632931D02*
G01*
X168157274Y-110634218D01*
X168157274Y-110634217D01*
X142094606Y-110660991D01*
X116183571Y-110687608D01*
X116153908Y-110678931D01*
X116123721Y-110672278D01*
X116118991Y-110668717D01*
X116116512Y-110667992D01*
X116095524Y-110651050D01*
X116077503Y-110632931D01*
X116068996Y-110624377D01*
X116035678Y-110562963D01*
X116032919Y-110536138D01*
X116087579Y-102106792D01*
X116107697Y-102039886D01*
X116124459Y-102019358D01*
X116152006Y-101992166D01*
X116213544Y-101959080D01*
X116239919Y-101956418D01*
X116686306Y-101959312D01*
X116753214Y-101979430D01*
X116798626Y-102032530D01*
X116809500Y-102083309D01*
X116809500Y-102158422D01*
X116840290Y-102352826D01*
X116901117Y-102540029D01*
X116990475Y-102715403D01*
X116990476Y-102715405D01*
X117106172Y-102874646D01*
X117245354Y-103013828D01*
X117404595Y-103129524D01*
X117487455Y-103171743D01*
X117579970Y-103218882D01*
X117579972Y-103218882D01*
X117579975Y-103218884D01*
X117680317Y-103251487D01*
X117767173Y-103279709D01*
X117961578Y-103310500D01*
X117961583Y-103310500D01*
X118158422Y-103310500D01*
X118352826Y-103279709D01*
X118398849Y-103264755D01*
X118540025Y-103218884D01*
X118715405Y-103129524D01*
X118874646Y-103013828D01*
X119013828Y-102874646D01*
X119129524Y-102715405D01*
X119171737Y-102632555D01*
X119219711Y-102581760D01*
X119287531Y-102564964D01*
X119353666Y-102587501D01*
X119392707Y-102632555D01*
X119448141Y-102741350D01*
X119448147Y-102741359D01*
X119480523Y-102785921D01*
X119480524Y-102785922D01*
X120160000Y-102106446D01*
X120160000Y-102112661D01*
X120187259Y-102214394D01*
X120239920Y-102305606D01*
X120314394Y-102380080D01*
X120405606Y-102432741D01*
X120507339Y-102460000D01*
X120513553Y-102460000D01*
X119834076Y-103139474D01*
X119878650Y-103171859D01*
X120060968Y-103264755D01*
X120255582Y-103327990D01*
X120457683Y-103360000D01*
X120662317Y-103360000D01*
X120864417Y-103327990D01*
X121059031Y-103264755D01*
X121241349Y-103171859D01*
X121285921Y-103139474D01*
X120606447Y-102460000D01*
X120612661Y-102460000D01*
X120714394Y-102432741D01*
X120805606Y-102380080D01*
X120880080Y-102305606D01*
X120932741Y-102214394D01*
X120960000Y-102112661D01*
X120960000Y-102106448D01*
X121639474Y-102785922D01*
X121639474Y-102785921D01*
X121671859Y-102741349D01*
X121764755Y-102559031D01*
X121827990Y-102364417D01*
X121860000Y-102162317D01*
X121860000Y-101957682D01*
X121827990Y-101755582D01*
X121764755Y-101560968D01*
X121671859Y-101378650D01*
X121639474Y-101334077D01*
X121639474Y-101334076D01*
X120960000Y-102013551D01*
X120960000Y-102007339D01*
X120932741Y-101905606D01*
X120880080Y-101814394D01*
X120805606Y-101739920D01*
X120714394Y-101687259D01*
X120612661Y-101660000D01*
X120606446Y-101660000D01*
X121285922Y-100980524D01*
X121285921Y-100980523D01*
X121241359Y-100948147D01*
X121241350Y-100948141D01*
X121059031Y-100855244D01*
X120864417Y-100792009D01*
X120662317Y-100760000D01*
X120457683Y-100760000D01*
X120255582Y-100792009D01*
X120060968Y-100855244D01*
X119878644Y-100948143D01*
X119834077Y-100980523D01*
X119834077Y-100980524D01*
X120513554Y-101660000D01*
X120507339Y-101660000D01*
X120405606Y-101687259D01*
X120314394Y-101739920D01*
X120239920Y-101814394D01*
X120187259Y-101905606D01*
X120160000Y-102007339D01*
X120160000Y-102013553D01*
X119448667Y-101302220D01*
X119444427Y-101300310D01*
X119432421Y-101281838D01*
X119416731Y-101266365D01*
X119412933Y-101251854D01*
X119406351Y-101241726D01*
X119401149Y-101206822D01*
X119391050Y-99239540D01*
X119410390Y-99172403D01*
X119426914Y-99151679D01*
X119454142Y-99124171D01*
X119515290Y-99090374D01*
X119541629Y-99087405D01*
X126718163Y-99050563D01*
X135106059Y-99007503D01*
X169398966Y-98831460D01*
X169411089Y-110632931D01*
G37*
%TD.AperFunction*%
%TD*%
%TA.AperFunction,Conductor*%
%TO.N,GND*%
G36*
X192415304Y-63360014D02*
G01*
X192415304Y-91361308D01*
X183644481Y-91376007D01*
X182381819Y-90113345D01*
X182348334Y-90052022D01*
X182345500Y-90025664D01*
X182345500Y-89011903D01*
X182365185Y-88944864D01*
X182417989Y-88899109D01*
X182487147Y-88889165D01*
X182550703Y-88918190D01*
X182572599Y-88943009D01*
X182604399Y-88990601D01*
X182687260Y-89045966D01*
X182687264Y-89045967D01*
X182760321Y-89060499D01*
X182760324Y-89060500D01*
X182760326Y-89060500D01*
X184509676Y-89060500D01*
X184509677Y-89060499D01*
X184582740Y-89045966D01*
X184665601Y-88990601D01*
X184720966Y-88907740D01*
X184735500Y-88834674D01*
X184735500Y-87085326D01*
X184735500Y-87085323D01*
X184735499Y-87085321D01*
X184720967Y-87012264D01*
X184720966Y-87012260D01*
X184665601Y-86929399D01*
X184582740Y-86874034D01*
X184582739Y-86874033D01*
X184582735Y-86874032D01*
X184509677Y-86859500D01*
X184509674Y-86859500D01*
X182760326Y-86859500D01*
X182760323Y-86859500D01*
X182687264Y-86874032D01*
X182687260Y-86874033D01*
X182604399Y-86929399D01*
X182549033Y-87012260D01*
X182549032Y-87012264D01*
X182534500Y-87085321D01*
X182534500Y-87560715D01*
X182514815Y-87627754D01*
X182462011Y-87673509D01*
X182392853Y-87683453D01*
X182329297Y-87654428D01*
X182292569Y-87599034D01*
X182253882Y-87479970D01*
X182164523Y-87304594D01*
X182048828Y-87145354D01*
X181909646Y-87006172D01*
X181750405Y-86890476D01*
X181689611Y-86859500D01*
X181575029Y-86801117D01*
X181387826Y-86740290D01*
X181193422Y-86709500D01*
X181193417Y-86709500D01*
X180996583Y-86709500D01*
X180996578Y-86709500D01*
X180802173Y-86740290D01*
X180614970Y-86801117D01*
X180439594Y-86890476D01*
X180386022Y-86929399D01*
X180280354Y-87006172D01*
X180280352Y-87006174D01*
X180280351Y-87006174D01*
X180141174Y-87145351D01*
X180141174Y-87145352D01*
X180141172Y-87145354D01*
X180106681Y-87192827D01*
X180025476Y-87304594D01*
X179936117Y-87479970D01*
X179875290Y-87667173D01*
X179844500Y-87861577D01*
X179844500Y-90693422D01*
X179875290Y-90887826D01*
X179936117Y-91075030D01*
X180025476Y-91250405D01*
X180121021Y-91381912D01*
X168125047Y-91402017D01*
X151397299Y-91430052D01*
X134820912Y-91457833D01*
X134791451Y-91449236D01*
X134761460Y-91442765D01*
X134756439Y-91439019D01*
X134753839Y-91438261D01*
X134733174Y-91421666D01*
X134705760Y-91394343D01*
X134672174Y-91333079D01*
X134669296Y-91306733D01*
X134654626Y-82553753D01*
X153510000Y-82553753D01*
X153510000Y-82766246D01*
X153543242Y-82976127D01*
X153543242Y-82976130D01*
X153608904Y-83178217D01*
X153705375Y-83367550D01*
X153744728Y-83421716D01*
X154377037Y-82789408D01*
X154394075Y-82852993D01*
X154459901Y-82967007D01*
X154552993Y-83060099D01*
X154667007Y-83125925D01*
X154730590Y-83142962D01*
X154098282Y-83775269D01*
X154098282Y-83775270D01*
X154152449Y-83814624D01*
X154341782Y-83911095D01*
X154543870Y-83976757D01*
X154753754Y-84010000D01*
X154966246Y-84010000D01*
X155176127Y-83976757D01*
X155176130Y-83976757D01*
X155378217Y-83911095D01*
X155567554Y-83814622D01*
X155621716Y-83775270D01*
X155621717Y-83775270D01*
X154989408Y-83142962D01*
X155052993Y-83125925D01*
X155167007Y-83060099D01*
X155260099Y-82967007D01*
X155325925Y-82852993D01*
X155342962Y-82789408D01*
X155975270Y-83421717D01*
X155975270Y-83421716D01*
X156014622Y-83367554D01*
X156111095Y-83178217D01*
X156176757Y-82976130D01*
X156176757Y-82976127D01*
X156210000Y-82766246D01*
X156210000Y-82553753D01*
X156176757Y-82343872D01*
X156176757Y-82343869D01*
X156111095Y-82141782D01*
X156014624Y-81952449D01*
X155975270Y-81898282D01*
X155975269Y-81898282D01*
X155342962Y-82530590D01*
X155325925Y-82467007D01*
X155260099Y-82352993D01*
X155167007Y-82259901D01*
X155052993Y-82194075D01*
X154989409Y-82177037D01*
X155621716Y-81544728D01*
X155567550Y-81505375D01*
X155378217Y-81408904D01*
X155176129Y-81343242D01*
X154966246Y-81310000D01*
X154753754Y-81310000D01*
X154543872Y-81343242D01*
X154543869Y-81343242D01*
X154341782Y-81408904D01*
X154152439Y-81505380D01*
X154098282Y-81544727D01*
X154098282Y-81544728D01*
X154730591Y-82177037D01*
X154667007Y-82194075D01*
X154552993Y-82259901D01*
X154459901Y-82352993D01*
X154394075Y-82467007D01*
X154377037Y-82530591D01*
X153744728Y-81898282D01*
X153744727Y-81898282D01*
X153705380Y-81952439D01*
X153608904Y-82141782D01*
X153543242Y-82343869D01*
X153543242Y-82343872D01*
X153510000Y-82553753D01*
X134654626Y-82553753D01*
X134650868Y-80311421D01*
X134659478Y-80281912D01*
X134665987Y-80251877D01*
X134669688Y-80246923D01*
X134670440Y-80244349D01*
X134687106Y-80223614D01*
X134714285Y-80196389D01*
X134775579Y-80162856D01*
X134802037Y-80160000D01*
X141159999Y-80160000D01*
X141160000Y-80160000D01*
X141362701Y-77208538D01*
X141372634Y-77181673D01*
X141379680Y-77153910D01*
X141385646Y-77146484D01*
X141386933Y-77143006D01*
X141401788Y-77126398D01*
X141437171Y-77093363D01*
X141499606Y-77062001D01*
X141521793Y-77060000D01*
X150760000Y-77060000D01*
X150760000Y-69211362D01*
X150768644Y-69181921D01*
X150775168Y-69151935D01*
X150778922Y-69146919D01*
X150779685Y-69144323D01*
X150796319Y-69123681D01*
X150823681Y-69096319D01*
X150885004Y-69062834D01*
X150911362Y-69060000D01*
X156615304Y-69060000D01*
X156615304Y-63309157D01*
X192415304Y-63360014D01*
G37*
%TD.AperFunction*%
%TD*%
%TA.AperFunction,Conductor*%
%TO.N,GND*%
G36*
X197656640Y-63367460D02*
G01*
X156615304Y-63309157D01*
X148853282Y-63298131D01*
X141191260Y-63287247D01*
X141191259Y-63287247D01*
X141191257Y-63287246D01*
X141091260Y-63287104D01*
X141091260Y-63287105D01*
X141069139Y-66370110D01*
X141067060Y-66659850D01*
X141048104Y-69301778D01*
X141039251Y-69331145D01*
X141032526Y-69361066D01*
X141028722Y-69366073D01*
X141027939Y-69368674D01*
X141011180Y-69389173D01*
X140983571Y-69416403D01*
X140922018Y-69449463D01*
X140895678Y-69452115D01*
X134003509Y-69406558D01*
X131939502Y-69392913D01*
X131880413Y-69375138D01*
X131880408Y-69375151D01*
X131880280Y-69375098D01*
X131872594Y-69372786D01*
X131871436Y-69372021D01*
X131869126Y-69370478D01*
X131869125Y-69370477D01*
X131796061Y-69355944D01*
X131796059Y-69355944D01*
X127746711Y-69355944D01*
X127746707Y-69355944D01*
X127714056Y-69362438D01*
X127689050Y-69364817D01*
X127111139Y-69360998D01*
X127081930Y-69352211D01*
X127052140Y-69345619D01*
X127046915Y-69341678D01*
X127044231Y-69340871D01*
X127023970Y-69324373D01*
X126996088Y-69296290D01*
X126962826Y-69234851D01*
X126960086Y-69208860D01*
X126960115Y-69160000D01*
X126963048Y-64058599D01*
X127271385Y-64058599D01*
X127271385Y-64856444D01*
X128322903Y-64856444D01*
X128312274Y-64874853D01*
X128271385Y-65027453D01*
X128271385Y-65185435D01*
X128312274Y-65338035D01*
X128322903Y-65356444D01*
X127271385Y-65356444D01*
X127271385Y-66154288D01*
X127277786Y-66213816D01*
X127277788Y-66213823D01*
X127328030Y-66348530D01*
X127328034Y-66348537D01*
X127414194Y-66463631D01*
X127414197Y-66463634D01*
X127529291Y-66549794D01*
X127529298Y-66549798D01*
X127664005Y-66600040D01*
X127664012Y-66600042D01*
X127723540Y-66606443D01*
X127723557Y-66606444D01*
X129521385Y-66606444D01*
X129521385Y-65706444D01*
X130021385Y-65706444D01*
X130021385Y-66606444D01*
X131819213Y-66606444D01*
X131819229Y-66606443D01*
X131878757Y-66600042D01*
X131878764Y-66600040D01*
X132013471Y-66549798D01*
X132013478Y-66549794D01*
X132128572Y-66463634D01*
X132128575Y-66463631D01*
X132214735Y-66348537D01*
X132214739Y-66348530D01*
X132264981Y-66213823D01*
X132264983Y-66213816D01*
X132271384Y-66154288D01*
X132271385Y-66154271D01*
X132271385Y-65356444D01*
X131219867Y-65356444D01*
X131230496Y-65338035D01*
X131271385Y-65185435D01*
X131271385Y-65042014D01*
X136760000Y-65042014D01*
X136760000Y-65277985D01*
X136790799Y-65511914D01*
X136851870Y-65739837D01*
X136942160Y-65957819D01*
X136942165Y-65957828D01*
X137060144Y-66162171D01*
X137060145Y-66162172D01*
X137122721Y-66243723D01*
X137958958Y-65407487D01*
X137983978Y-65467890D01*
X138055112Y-65574351D01*
X138145649Y-65664888D01*
X138252110Y-65736022D01*
X138312511Y-65761041D01*
X137476275Y-66597277D01*
X137557827Y-66659854D01*
X137557828Y-66659855D01*
X137762171Y-66777834D01*
X137762180Y-66777839D01*
X137980163Y-66868129D01*
X137980161Y-66868129D01*
X138208085Y-66929200D01*
X138442014Y-66959999D01*
X138442029Y-66960000D01*
X138677971Y-66960000D01*
X138677985Y-66959999D01*
X138911914Y-66929200D01*
X139139837Y-66868129D01*
X139357819Y-66777839D01*
X139357828Y-66777834D01*
X139562181Y-66659850D01*
X139643723Y-66597279D01*
X139643723Y-66597276D01*
X138807487Y-65761041D01*
X138867890Y-65736022D01*
X138974351Y-65664888D01*
X139064888Y-65574351D01*
X139136022Y-65467890D01*
X139161041Y-65407488D01*
X139997276Y-66243723D01*
X139997279Y-66243723D01*
X140059850Y-66162181D01*
X140177834Y-65957828D01*
X140177839Y-65957819D01*
X140268129Y-65739837D01*
X140329200Y-65511914D01*
X140359999Y-65277985D01*
X140360000Y-65277971D01*
X140360000Y-65042028D01*
X140359999Y-65042014D01*
X140329200Y-64808085D01*
X140268129Y-64580162D01*
X140177839Y-64362180D01*
X140177834Y-64362171D01*
X140059855Y-64157828D01*
X140059854Y-64157827D01*
X139997277Y-64076275D01*
X139161041Y-64912511D01*
X139136022Y-64852110D01*
X139064888Y-64745649D01*
X138974351Y-64655112D01*
X138867890Y-64583978D01*
X138807488Y-64558958D01*
X139643723Y-63722721D01*
X139562172Y-63660145D01*
X139562171Y-63660144D01*
X139357828Y-63542165D01*
X139357819Y-63542160D01*
X139139836Y-63451870D01*
X139139838Y-63451870D01*
X138911914Y-63390799D01*
X138677985Y-63360000D01*
X138442014Y-63360000D01*
X138208085Y-63390799D01*
X137980162Y-63451870D01*
X137762180Y-63542160D01*
X137762171Y-63542165D01*
X137557828Y-63660144D01*
X137557818Y-63660150D01*
X137476275Y-63722720D01*
X137476275Y-63722721D01*
X138312512Y-64558958D01*
X138252110Y-64583978D01*
X138145649Y-64655112D01*
X138055112Y-64745649D01*
X137983978Y-64852110D01*
X137958958Y-64912511D01*
X137122721Y-64076275D01*
X137122720Y-64076275D01*
X137060150Y-64157818D01*
X137060144Y-64157828D01*
X136942165Y-64362171D01*
X136942160Y-64362180D01*
X136851870Y-64580162D01*
X136790799Y-64808085D01*
X136760000Y-65042014D01*
X131271385Y-65042014D01*
X131271385Y-65027453D01*
X131230496Y-64874853D01*
X131219867Y-64856444D01*
X132271385Y-64856444D01*
X132271385Y-64058616D01*
X132271384Y-64058599D01*
X132264983Y-63999071D01*
X132264981Y-63999064D01*
X132214739Y-63864357D01*
X132214737Y-63864354D01*
X132200238Y-63844986D01*
X132200237Y-63844985D01*
X132128571Y-63749253D01*
X132013478Y-63663093D01*
X132013471Y-63663089D01*
X131878764Y-63612847D01*
X131878757Y-63612845D01*
X131819229Y-63606444D01*
X130021385Y-63606444D01*
X130021385Y-64506444D01*
X129521385Y-64506444D01*
X129521385Y-63606444D01*
X127723540Y-63606444D01*
X127664012Y-63612845D01*
X127664005Y-63612847D01*
X127529298Y-63663089D01*
X127529291Y-63663093D01*
X127414197Y-63749253D01*
X127414194Y-63749256D01*
X127328034Y-63864350D01*
X127328030Y-63864357D01*
X127277788Y-63999064D01*
X127277786Y-63999071D01*
X127271385Y-64058599D01*
X126963048Y-64058599D01*
X126963421Y-63409157D01*
X126963552Y-63181022D01*
X126964643Y-61284429D01*
X126984366Y-61217401D01*
X127037196Y-61171676D01*
X127088643Y-61160500D01*
X197659774Y-61160500D01*
X197656640Y-63367460D01*
G37*
%TD.AperFunction*%
%TD*%
%TA.AperFunction,Conductor*%
%TO.N,GND*%
G36*
X189360000Y-97371405D02*
G01*
X189336859Y-97403256D01*
X189278768Y-97483211D01*
X189200128Y-97637552D01*
X189146597Y-97802302D01*
X189136349Y-97867007D01*
X189119500Y-97973389D01*
X189119500Y-98146611D01*
X189146598Y-98317701D01*
X189200127Y-98482445D01*
X189278768Y-98636788D01*
X189360000Y-98748593D01*
X189360000Y-127961309D01*
X176763542Y-127954708D01*
X176758134Y-128860000D01*
X168187816Y-128860000D01*
X168157275Y-110634218D01*
X169411089Y-110632931D01*
X169407930Y-107557682D01*
X180360000Y-107557682D01*
X180360000Y-107762317D01*
X180392009Y-107964417D01*
X180455244Y-108159031D01*
X180548141Y-108341350D01*
X180548147Y-108341359D01*
X180580523Y-108385921D01*
X180580524Y-108385922D01*
X181260000Y-107706446D01*
X181260000Y-107712661D01*
X181287259Y-107814394D01*
X181339920Y-107905606D01*
X181414394Y-107980080D01*
X181505606Y-108032741D01*
X181607339Y-108060000D01*
X181613553Y-108060000D01*
X180934076Y-108739474D01*
X180978650Y-108771859D01*
X181160968Y-108864755D01*
X181355582Y-108927990D01*
X181557683Y-108960000D01*
X181762317Y-108960000D01*
X181964417Y-108927990D01*
X182159031Y-108864755D01*
X182341349Y-108771859D01*
X182385921Y-108739474D01*
X181706447Y-108060000D01*
X181712661Y-108060000D01*
X181814394Y-108032741D01*
X181905606Y-107980080D01*
X181980080Y-107905606D01*
X182032741Y-107814394D01*
X182060000Y-107712661D01*
X182060000Y-107706448D01*
X182739474Y-108385922D01*
X182739474Y-108385921D01*
X182771859Y-108341349D01*
X182864755Y-108159031D01*
X182927990Y-107964417D01*
X182960000Y-107762317D01*
X182960000Y-107557682D01*
X182927990Y-107355582D01*
X182864755Y-107160968D01*
X182771859Y-106978650D01*
X182739474Y-106934077D01*
X182739474Y-106934076D01*
X182060000Y-107613551D01*
X182060000Y-107607339D01*
X182032741Y-107505606D01*
X181980080Y-107414394D01*
X181905606Y-107339920D01*
X181814394Y-107287259D01*
X181712661Y-107260000D01*
X181706446Y-107260000D01*
X182385922Y-106580524D01*
X182385921Y-106580523D01*
X182341359Y-106548147D01*
X182341350Y-106548141D01*
X182159031Y-106455244D01*
X181964417Y-106392009D01*
X181762317Y-106360000D01*
X181557683Y-106360000D01*
X181355582Y-106392009D01*
X181160968Y-106455244D01*
X180978644Y-106548143D01*
X180934077Y-106580523D01*
X180934077Y-106580524D01*
X181613554Y-107260000D01*
X181607339Y-107260000D01*
X181505606Y-107287259D01*
X181414394Y-107339920D01*
X181339920Y-107414394D01*
X181287259Y-107505606D01*
X181260000Y-107607339D01*
X181260000Y-107613553D01*
X180580524Y-106934077D01*
X180580523Y-106934077D01*
X180548143Y-106978644D01*
X180455244Y-107160968D01*
X180392009Y-107355582D01*
X180360000Y-107557682D01*
X169407930Y-107557682D01*
X169398966Y-98831460D01*
X168137508Y-98837935D01*
X168125048Y-91402017D01*
X180121022Y-91381912D01*
X180141172Y-91409646D01*
X180141174Y-91409648D01*
X183853181Y-95121655D01*
X183886666Y-95182978D01*
X183889500Y-95209336D01*
X183889500Y-97177852D01*
X183869815Y-97244891D01*
X183817011Y-97290646D01*
X183755771Y-97301470D01*
X183715269Y-97298282D01*
X183082962Y-97930590D01*
X183065925Y-97867007D01*
X183000099Y-97752993D01*
X182907007Y-97659901D01*
X182792993Y-97594075D01*
X182729409Y-97577037D01*
X183361716Y-96944728D01*
X183307550Y-96905375D01*
X183118217Y-96808904D01*
X182916129Y-96743242D01*
X182706246Y-96710000D01*
X182493754Y-96710000D01*
X182283872Y-96743242D01*
X182283869Y-96743242D01*
X182081782Y-96808904D01*
X181892439Y-96905380D01*
X181838282Y-96944727D01*
X181838282Y-96944728D01*
X182470591Y-97577037D01*
X182407007Y-97594075D01*
X182292993Y-97659901D01*
X182199901Y-97752993D01*
X182134075Y-97867007D01*
X182117037Y-97930591D01*
X181484728Y-97298282D01*
X181484727Y-97298282D01*
X181445380Y-97352439D01*
X181348904Y-97541783D01*
X181316760Y-97640712D01*
X181277322Y-97698388D01*
X181212964Y-97725586D01*
X181144117Y-97713671D01*
X181092642Y-97666427D01*
X181080898Y-97640712D01*
X181079873Y-97637555D01*
X181001232Y-97483212D01*
X180899414Y-97343072D01*
X180776928Y-97220586D01*
X180636788Y-97118768D01*
X180482445Y-97040127D01*
X180317701Y-96986598D01*
X180317699Y-96986597D01*
X180317698Y-96986597D01*
X180186271Y-96965781D01*
X180146611Y-96959500D01*
X179973389Y-96959500D01*
X179933728Y-96965781D01*
X179802302Y-96986597D01*
X179637552Y-97040128D01*
X179483211Y-97118768D01*
X179403256Y-97176859D01*
X179343072Y-97220586D01*
X179343070Y-97220588D01*
X179343069Y-97220588D01*
X179220588Y-97343069D01*
X179220588Y-97343070D01*
X179220586Y-97343072D01*
X179176859Y-97403256D01*
X179118768Y-97483211D01*
X179040128Y-97637552D01*
X178986597Y-97802302D01*
X178976349Y-97867007D01*
X178959500Y-97973389D01*
X178959500Y-98146611D01*
X178986598Y-98317701D01*
X179040127Y-98482445D01*
X179118768Y-98636788D01*
X179220586Y-98776928D01*
X179343072Y-98899414D01*
X179483212Y-99001232D01*
X179637555Y-99079873D01*
X179802299Y-99133402D01*
X179973389Y-99160500D01*
X179973390Y-99160500D01*
X180146610Y-99160500D01*
X180146611Y-99160500D01*
X180317701Y-99133402D01*
X180482445Y-99079873D01*
X180636788Y-99001232D01*
X180776928Y-98899414D01*
X180899414Y-98776928D01*
X181001232Y-98636788D01*
X181079873Y-98482445D01*
X181080896Y-98479294D01*
X181081610Y-98478250D01*
X181081734Y-98477952D01*
X181081796Y-98477977D01*
X181120327Y-98421618D01*
X181184683Y-98394415D01*
X181253530Y-98406323D01*
X181305011Y-98453562D01*
X181316760Y-98479287D01*
X181348904Y-98578217D01*
X181445375Y-98767550D01*
X181484728Y-98821716D01*
X182117037Y-98189408D01*
X182134075Y-98252993D01*
X182199901Y-98367007D01*
X182292993Y-98460099D01*
X182407007Y-98525925D01*
X182470590Y-98542962D01*
X181838282Y-99175269D01*
X181838282Y-99175270D01*
X181892449Y-99214624D01*
X182081782Y-99311095D01*
X182283870Y-99376757D01*
X182493754Y-99410000D01*
X182706246Y-99410000D01*
X182916127Y-99376757D01*
X182916130Y-99376757D01*
X183118217Y-99311095D01*
X183307554Y-99214622D01*
X183361716Y-99175270D01*
X183361717Y-99175270D01*
X182729408Y-98542962D01*
X182792993Y-98525925D01*
X182907007Y-98460099D01*
X183000099Y-98367007D01*
X183065925Y-98252993D01*
X183082962Y-98189408D01*
X183715269Y-98821716D01*
X183755771Y-98818529D01*
X183824148Y-98832893D01*
X183873905Y-98881944D01*
X183889500Y-98942147D01*
X183889500Y-100927755D01*
X183869815Y-100994794D01*
X183817011Y-101040549D01*
X183747853Y-101050493D01*
X183716577Y-101036210D01*
X183689474Y-101034076D01*
X183010000Y-101713551D01*
X183010000Y-101707339D01*
X182982741Y-101605606D01*
X182930080Y-101514394D01*
X182855606Y-101439920D01*
X182764394Y-101387259D01*
X182662661Y-101360000D01*
X182656446Y-101360000D01*
X183335922Y-100680524D01*
X183335921Y-100680523D01*
X183291359Y-100648147D01*
X183291350Y-100648141D01*
X183109031Y-100555244D01*
X182914417Y-100492009D01*
X182712317Y-100460000D01*
X182507683Y-100460000D01*
X182305582Y-100492009D01*
X182110968Y-100555244D01*
X181928644Y-100648143D01*
X181884077Y-100680523D01*
X181884077Y-100680524D01*
X182563554Y-101360000D01*
X182557339Y-101360000D01*
X182455606Y-101387259D01*
X182364394Y-101439920D01*
X182289920Y-101514394D01*
X182237259Y-101605606D01*
X182210000Y-101707339D01*
X182210000Y-101713553D01*
X181530524Y-101034077D01*
X181530523Y-101034077D01*
X181498143Y-101078644D01*
X181405244Y-101260968D01*
X181342009Y-101455582D01*
X181310000Y-101657682D01*
X181310000Y-101862317D01*
X181342009Y-102064417D01*
X181405244Y-102259031D01*
X181498141Y-102441350D01*
X181498147Y-102441359D01*
X181530523Y-102485921D01*
X181530524Y-102485922D01*
X182210000Y-101806446D01*
X182210000Y-101812661D01*
X182237259Y-101914394D01*
X182289920Y-102005606D01*
X182364394Y-102080080D01*
X182455606Y-102132741D01*
X182557339Y-102160000D01*
X182563553Y-102160000D01*
X181884076Y-102839474D01*
X181928650Y-102871859D01*
X182110968Y-102964755D01*
X182305582Y-103027990D01*
X182507683Y-103060000D01*
X182712317Y-103060000D01*
X182914417Y-103027990D01*
X183109031Y-102964755D01*
X183291349Y-102871859D01*
X183335921Y-102839474D01*
X182656447Y-102160000D01*
X182662661Y-102160000D01*
X182764394Y-102132741D01*
X182855606Y-102080080D01*
X182930080Y-102005606D01*
X182982741Y-101914394D01*
X183010000Y-101812661D01*
X183010000Y-101806448D01*
X183689473Y-102485921D01*
X183725771Y-102483065D01*
X183794148Y-102497429D01*
X183843905Y-102546480D01*
X183859500Y-102606683D01*
X183859500Y-106208422D01*
X183890290Y-106402826D01*
X183951117Y-106590030D01*
X184033876Y-106752452D01*
X184040476Y-106765405D01*
X184156172Y-106924646D01*
X184156174Y-106924648D01*
X185636629Y-108405103D01*
X185665127Y-108449444D01*
X185666204Y-108452331D01*
X185666205Y-108452332D01*
X185666206Y-108452335D01*
X185752452Y-108567544D01*
X185752455Y-108567547D01*
X185867666Y-108653794D01*
X185867669Y-108653796D01*
X185918995Y-108672939D01*
X185948549Y-108688804D01*
X186004590Y-108729521D01*
X186004592Y-108729522D01*
X186004595Y-108729524D01*
X186085723Y-108770861D01*
X186179969Y-108818882D01*
X186179971Y-108818882D01*
X186179974Y-108818884D01*
X186280318Y-108851487D01*
X186367173Y-108879709D01*
X186561578Y-108910500D01*
X186561583Y-108910500D01*
X186758422Y-108910500D01*
X186952826Y-108879709D01*
X187140026Y-108818884D01*
X187315405Y-108729524D01*
X187371451Y-108688802D01*
X187401001Y-108672939D01*
X187452331Y-108653796D01*
X187452331Y-108653795D01*
X187452333Y-108653795D01*
X187452333Y-108653794D01*
X187567546Y-108567546D01*
X187653796Y-108452331D01*
X187672939Y-108401001D01*
X187688802Y-108371451D01*
X187729524Y-108315405D01*
X187818884Y-108140026D01*
X187879709Y-107952826D01*
X187887188Y-107905606D01*
X187910500Y-107758422D01*
X187910500Y-107561577D01*
X187879709Y-107367173D01*
X187818882Y-107179969D01*
X187729522Y-107004592D01*
X187729521Y-107004590D01*
X187688804Y-106948549D01*
X187672939Y-106918995D01*
X187653796Y-106867669D01*
X187653794Y-106867666D01*
X187567547Y-106752455D01*
X187567544Y-106752452D01*
X187452335Y-106666206D01*
X187452332Y-106666205D01*
X187452331Y-106666204D01*
X187449444Y-106665127D01*
X187405103Y-106636629D01*
X186396819Y-105628345D01*
X186363334Y-105567022D01*
X186360500Y-105540664D01*
X186360500Y-102027589D01*
X186362027Y-102008191D01*
X186390500Y-101828422D01*
X186390500Y-98435523D01*
X186410185Y-98368484D01*
X186462989Y-98322729D01*
X186532147Y-98312785D01*
X186595703Y-98341810D01*
X186632430Y-98397203D01*
X186660127Y-98482445D01*
X186738768Y-98636788D01*
X186840586Y-98776928D01*
X186963072Y-98899414D01*
X187103212Y-99001232D01*
X187257555Y-99079873D01*
X187422299Y-99133402D01*
X187593389Y-99160500D01*
X187593390Y-99160500D01*
X187766610Y-99160500D01*
X187766611Y-99160500D01*
X187937701Y-99133402D01*
X188102445Y-99079873D01*
X188256788Y-99001232D01*
X188396928Y-98899414D01*
X188519414Y-98776928D01*
X188621232Y-98636788D01*
X188699873Y-98482445D01*
X188753402Y-98317701D01*
X188780500Y-98146611D01*
X188780500Y-97973389D01*
X188753402Y-97802299D01*
X188699873Y-97637555D01*
X188621232Y-97483212D01*
X188519414Y-97343072D01*
X188396928Y-97220586D01*
X188256788Y-97118768D01*
X188102445Y-97040127D01*
X187937701Y-96986598D01*
X187937699Y-96986597D01*
X187937698Y-96986597D01*
X187806271Y-96965781D01*
X187766611Y-96959500D01*
X187593389Y-96959500D01*
X187553728Y-96965781D01*
X187422302Y-96986597D01*
X187257552Y-97040128D01*
X187103211Y-97118768D01*
X187023256Y-97176859D01*
X186963072Y-97220586D01*
X186963070Y-97220588D01*
X186963069Y-97220588D01*
X186840588Y-97343069D01*
X186840588Y-97343070D01*
X186840586Y-97343072D01*
X186796859Y-97403256D01*
X186738768Y-97483211D01*
X186660128Y-97637550D01*
X186632431Y-97722795D01*
X186592993Y-97780470D01*
X186528634Y-97807668D01*
X186459788Y-97795753D01*
X186408312Y-97748509D01*
X186390500Y-97684476D01*
X186390500Y-94541577D01*
X186372586Y-94428483D01*
X186359709Y-94347174D01*
X186359708Y-94347170D01*
X186359708Y-94347169D01*
X186300391Y-94164612D01*
X186299329Y-94160847D01*
X186209523Y-93984594D01*
X186093828Y-93825354D01*
X183644481Y-91376007D01*
X189360000Y-91366428D01*
X189360000Y-97371405D01*
G37*
%TD.AperFunction*%
%TD*%
D38*
X114860000Y-60660000D02*
X206860000Y-60660000D01*
X206860000Y-145660000D01*
X114860000Y-145660000D01*
X114860000Y-60660000D01*
M02*
