M48
; DRILL file KiCad 10.0.3 date 2026-09-16T10:22:03
; FORMAT={-:-/ absolute / metric / decimal}
; #@! TF.CreationDate,2026-09-16T10:22:03-03:00
; #@! TF.GenerationSoftware,Kicad,Pcbnew,10.0.3
; #@! TF.FileFunction,MixedPlating,1,2
FMAT,2
METRIC
; #@! TA.AperFunction,Plated,PTH,ViaDrill
T1C0.300
; #@! TA.AperFunction,Plated,PTH,ViaDrill
T2C0.800
; #@! TA.AperFunction,Plated,PTH,ComponentDrill
T3C0.800
; #@! TA.AperFunction,Plated,PTH,ComponentDrill
T4C0.900
; #@! TA.AperFunction,Plated,PTH,ComponentDrill
T5C1.000
; #@! TA.AperFunction,Plated,PTH,ComponentDrill
T6C1.100
; #@! TA.AperFunction,Plated,PTH,ComponentDrill
T7C1.200
; #@! TA.AperFunction,Plated,PTH,ComponentDrill
T8C1.300
; #@! TA.AperFunction,Plated,PTH,ComponentDrill
T9C1.600
; #@! TA.AperFunction,Plated,PTH,ComponentDrill
T10C2.000
; #@! TA.AperFunction,Plated,PTH,ComponentDrill
T11C3.200
; #@! TA.AperFunction,NonPlated,NPTH,ComponentDrill
T12C4.000
%
G90
G05
T1
X137.56Y-116.96
X140.26Y-131.06
X141.46Y-126.46
X150.86Y-122.06
X152.31Y-122.166
X155.66Y-118.86
X158.26Y-122.66
X158.96Y-93.26
X163.76Y-93.16
T2
X153.26Y-119.46
X163.56Y-79.96
X172.772Y-115.672
X180.32Y-137.65
X180.41Y-140.79
X180.43Y-134.52
X180.43Y-143.84
X181.75Y-131.53
X185.33Y-130.24
X189.06Y-131.53
X190.26Y-134.27
X190.53Y-143.93
X190.63Y-140.71
X190.66Y-137.66
T3
X118.06Y-91.46
X118.06Y-102.06
X120.56Y-102.06
X123.06Y-91.46
X131.705Y-75.71
X134.16Y-119.81
X134.16Y-122.31
X134.16Y-125.31
X134.16Y-127.81
X134.16Y-130.86
X134.16Y-133.36
X134.205Y-75.71
X137.305Y-75.71
X139.805Y-75.71
X139.86Y-119.96
X142.36Y-119.96
X143.36Y-75.36
X146.18Y-122.04
X146.18Y-124.54
X148.36Y-75.36
X154.94Y-126.885
X154.94Y-129.385
X181.66Y-107.66
X182.61Y-101.76
X185.11Y-101.76
X186.66Y-107.66
T4
X118.36Y-70.82
X118.36Y-73.36
X118.36Y-75.9
X118.36Y-78.26
X118.36Y-80.8
X118.36Y-83.34
T5
X118.04Y-97.22
X118.04Y-112.46
X120.58Y-97.22
X120.58Y-112.46
X123.12Y-97.22
X123.12Y-112.46
X125.66Y-97.22
X125.66Y-112.46
X125.695Y-116.16
X128.2Y-97.22
X128.2Y-112.46
X128.235Y-116.16
X130.74Y-97.22
X130.74Y-112.46
X133.16Y-84.36
X133.16Y-86.9
X133.28Y-97.22
X133.28Y-112.46
X134.74Y-137.49
X135.82Y-97.22
X135.82Y-112.46
X136.125Y-140.33
X137.51Y-137.49
X138.36Y-97.22
X138.36Y-112.46
X138.895Y-140.33
X140.28Y-137.49
X140.9Y-97.22
X140.9Y-112.46
X141.665Y-140.33
X143.05Y-137.49
X143.44Y-97.22
X143.44Y-112.46
X144.435Y-140.33
X145.82Y-137.49
X145.98Y-97.22
X145.98Y-112.46
X148.52Y-97.22
X148.52Y-112.46
X148.66Y-65.02
X148.66Y-67.56
X151.06Y-97.22
X151.06Y-112.46
X153.6Y-97.22
X153.6Y-112.46
X154.86Y-82.66
X154.935Y-67.635
X156.14Y-97.22
X156.14Y-112.46
X158.68Y-97.22
X158.68Y-112.46
X161.22Y-97.22
X161.22Y-112.46
X163.76Y-97.22
X163.76Y-112.46
X166.3Y-97.22
X166.3Y-112.46
X166.341Y-120.035
X166.341Y-122.575
X180.06Y-98.06
X181.095Y-87.96
X182.6Y-98.06
X183.635Y-87.96
X185.14Y-98.06
X187.68Y-98.06
X190.22Y-98.06
X192.76Y-98.06
X194.91Y-67.585
X194.91Y-82.66
X195.3Y-98.06
T6
X133.165Y-78.86
X135.705Y-78.86
X138.245Y-78.86
T8
X138.56Y-65.16
X143.56Y-65.16
T9
X183.0Y-138.76
X183.0Y-143.84
X185.54Y-141.3
X188.08Y-138.76
X188.08Y-143.84
T10
X203.18Y-129.86
T11
X127.78Y-140.33
X152.78Y-140.33
T12
X118.86Y-141.66
X118.96Y-64.76
X202.46Y-64.96
X202.56Y-141.26
T7
G00X125.071Y-69.006
M15
G01X125.071Y-67.206
M16
G05
G00X130.671Y-65.106
M15
G01X128.871Y-65.106
M16
G05
G00X130.921Y-71.106
M15
G01X128.621Y-71.106
M16
G05
M30
