%TF.GenerationSoftware,KiCad,Pcbnew,10.0.3*%
%TF.CreationDate,2026-09-16T10:22:22-03:00*%
%TF.ProjectId,Modulo_SIMA7670SA,4d6f6475-6c6f-45f5-9349-4d4137363730,rev?*%
%TF.SameCoordinates,Original*%
%TF.FileFunction,Legend,Top*%
%TF.FilePolarity,Positive*%
%FSLAX46Y46*%
G04 Gerber Fmt 4.6, Leading zero omitted, Abs format (unit mm)*
G04 Created by KiCad (PCBNEW 10.0.3) date 2026-09-16 10:22:22*
%MOMM*%
%LPD*%
G01*
G04 APERTURE LIST*
%ADD10C,0.300000*%
%ADD11C,0.150000*%
%ADD12C,0.100000*%
%ADD13C,0.125000*%
%ADD14C,0.120000*%
%ADD15C,0.200000*%
%TA.AperFunction,Profile*%
%ADD16C,0.500000*%
%TD*%
G04 APERTURE END LIST*
D10*
X127114510Y-68689400D02*
X128257368Y-68689400D01*
X127685939Y-69260828D02*
X127685939Y-68117971D01*
X129757368Y-69260828D02*
X128900225Y-69260828D01*
X129328796Y-69260828D02*
X129328796Y-67760828D01*
X129328796Y-67760828D02*
X129185939Y-67975114D01*
X129185939Y-67975114D02*
X129043082Y-68117971D01*
X129043082Y-68117971D02*
X128900225Y-68189400D01*
X130328796Y-67903685D02*
X130400224Y-67832257D01*
X130400224Y-67832257D02*
X130543082Y-67760828D01*
X130543082Y-67760828D02*
X130900224Y-67760828D01*
X130900224Y-67760828D02*
X131043082Y-67832257D01*
X131043082Y-67832257D02*
X131114510Y-67903685D01*
X131114510Y-67903685D02*
X131185939Y-68046542D01*
X131185939Y-68046542D02*
X131185939Y-68189400D01*
X131185939Y-68189400D02*
X131114510Y-68403685D01*
X131114510Y-68403685D02*
X130257367Y-69260828D01*
X130257367Y-69260828D02*
X131185939Y-69260828D01*
X131614510Y-67760828D02*
X132114510Y-69260828D01*
X132114510Y-69260828D02*
X132614510Y-67760828D01*
X128800225Y-61632257D02*
X128657368Y-61560828D01*
X128657368Y-61560828D02*
X128443082Y-61560828D01*
X128443082Y-61560828D02*
X128228796Y-61632257D01*
X128228796Y-61632257D02*
X128085939Y-61775114D01*
X128085939Y-61775114D02*
X128014510Y-61917971D01*
X128014510Y-61917971D02*
X127943082Y-62203685D01*
X127943082Y-62203685D02*
X127943082Y-62417971D01*
X127943082Y-62417971D02*
X128014510Y-62703685D01*
X128014510Y-62703685D02*
X128085939Y-62846542D01*
X128085939Y-62846542D02*
X128228796Y-62989400D01*
X128228796Y-62989400D02*
X128443082Y-63060828D01*
X128443082Y-63060828D02*
X128585939Y-63060828D01*
X128585939Y-63060828D02*
X128800225Y-62989400D01*
X128800225Y-62989400D02*
X128871653Y-62917971D01*
X128871653Y-62917971D02*
X128871653Y-62417971D01*
X128871653Y-62417971D02*
X128585939Y-62417971D01*
X129514510Y-63060828D02*
X129514510Y-61560828D01*
X129514510Y-61560828D02*
X130371653Y-63060828D01*
X130371653Y-63060828D02*
X130371653Y-61560828D01*
X131085939Y-63060828D02*
X131085939Y-61560828D01*
X131085939Y-61560828D02*
X131443082Y-61560828D01*
X131443082Y-61560828D02*
X131657368Y-61632257D01*
X131657368Y-61632257D02*
X131800225Y-61775114D01*
X131800225Y-61775114D02*
X131871654Y-61917971D01*
X131871654Y-61917971D02*
X131943082Y-62203685D01*
X131943082Y-62203685D02*
X131943082Y-62417971D01*
X131943082Y-62417971D02*
X131871654Y-62703685D01*
X131871654Y-62703685D02*
X131800225Y-62846542D01*
X131800225Y-62846542D02*
X131657368Y-62989400D01*
X131657368Y-62989400D02*
X131443082Y-63060828D01*
X131443082Y-63060828D02*
X131085939Y-63060828D01*
X136900225Y-61532257D02*
X136757368Y-61460828D01*
X136757368Y-61460828D02*
X136543082Y-61460828D01*
X136543082Y-61460828D02*
X136328796Y-61532257D01*
X136328796Y-61532257D02*
X136185939Y-61675114D01*
X136185939Y-61675114D02*
X136114510Y-61817971D01*
X136114510Y-61817971D02*
X136043082Y-62103685D01*
X136043082Y-62103685D02*
X136043082Y-62317971D01*
X136043082Y-62317971D02*
X136114510Y-62603685D01*
X136114510Y-62603685D02*
X136185939Y-62746542D01*
X136185939Y-62746542D02*
X136328796Y-62889400D01*
X136328796Y-62889400D02*
X136543082Y-62960828D01*
X136543082Y-62960828D02*
X136685939Y-62960828D01*
X136685939Y-62960828D02*
X136900225Y-62889400D01*
X136900225Y-62889400D02*
X136971653Y-62817971D01*
X136971653Y-62817971D02*
X136971653Y-62317971D01*
X136971653Y-62317971D02*
X136685939Y-62317971D01*
X137614510Y-62960828D02*
X137614510Y-61460828D01*
X137614510Y-61460828D02*
X138471653Y-62960828D01*
X138471653Y-62960828D02*
X138471653Y-61460828D01*
X139185939Y-62960828D02*
X139185939Y-61460828D01*
X139185939Y-61460828D02*
X139543082Y-61460828D01*
X139543082Y-61460828D02*
X139757368Y-61532257D01*
X139757368Y-61532257D02*
X139900225Y-61675114D01*
X139900225Y-61675114D02*
X139971654Y-61817971D01*
X139971654Y-61817971D02*
X140043082Y-62103685D01*
X140043082Y-62103685D02*
X140043082Y-62317971D01*
X140043082Y-62317971D02*
X139971654Y-62603685D01*
X139971654Y-62603685D02*
X139900225Y-62746542D01*
X139900225Y-62746542D02*
X139757368Y-62889400D01*
X139757368Y-62889400D02*
X139543082Y-62960828D01*
X139543082Y-62960828D02*
X139185939Y-62960828D01*
X141645770Y-62516505D02*
X142788628Y-62516505D01*
X142217199Y-63087933D02*
X142217199Y-61945076D01*
X144288628Y-63087933D02*
X143431485Y-63087933D01*
X143860056Y-63087933D02*
X143860056Y-61587933D01*
X143860056Y-61587933D02*
X143717199Y-61802219D01*
X143717199Y-61802219D02*
X143574342Y-61945076D01*
X143574342Y-61945076D02*
X143431485Y-62016505D01*
X144860056Y-61730790D02*
X144931484Y-61659362D01*
X144931484Y-61659362D02*
X145074342Y-61587933D01*
X145074342Y-61587933D02*
X145431484Y-61587933D01*
X145431484Y-61587933D02*
X145574342Y-61659362D01*
X145574342Y-61659362D02*
X145645770Y-61730790D01*
X145645770Y-61730790D02*
X145717199Y-61873647D01*
X145717199Y-61873647D02*
X145717199Y-62016505D01*
X145717199Y-62016505D02*
X145645770Y-62230790D01*
X145645770Y-62230790D02*
X144788627Y-63087933D01*
X144788627Y-63087933D02*
X145717199Y-63087933D01*
X146145770Y-61587933D02*
X146645770Y-63087933D01*
X146645770Y-63087933D02*
X147145770Y-61587933D01*
X154914510Y-63060828D02*
X154914510Y-61560828D01*
X154914510Y-61560828D02*
X155414510Y-62632257D01*
X155414510Y-62632257D02*
X155914510Y-61560828D01*
X155914510Y-61560828D02*
X155914510Y-63060828D01*
X156914511Y-61560828D02*
X157200225Y-61560828D01*
X157200225Y-61560828D02*
X157343082Y-61632257D01*
X157343082Y-61632257D02*
X157485939Y-61775114D01*
X157485939Y-61775114D02*
X157557368Y-62060828D01*
X157557368Y-62060828D02*
X157557368Y-62560828D01*
X157557368Y-62560828D02*
X157485939Y-62846542D01*
X157485939Y-62846542D02*
X157343082Y-62989400D01*
X157343082Y-62989400D02*
X157200225Y-63060828D01*
X157200225Y-63060828D02*
X156914511Y-63060828D01*
X156914511Y-63060828D02*
X156771654Y-62989400D01*
X156771654Y-62989400D02*
X156628796Y-62846542D01*
X156628796Y-62846542D02*
X156557368Y-62560828D01*
X156557368Y-62560828D02*
X156557368Y-62060828D01*
X156557368Y-62060828D02*
X156628796Y-61775114D01*
X156628796Y-61775114D02*
X156771654Y-61632257D01*
X156771654Y-61632257D02*
X156914511Y-61560828D01*
X158200225Y-63060828D02*
X158200225Y-61560828D01*
X158200225Y-61560828D02*
X158557368Y-61560828D01*
X158557368Y-61560828D02*
X158771654Y-61632257D01*
X158771654Y-61632257D02*
X158914511Y-61775114D01*
X158914511Y-61775114D02*
X158985940Y-61917971D01*
X158985940Y-61917971D02*
X159057368Y-62203685D01*
X159057368Y-62203685D02*
X159057368Y-62417971D01*
X159057368Y-62417971D02*
X158985940Y-62703685D01*
X158985940Y-62703685D02*
X158914511Y-62846542D01*
X158914511Y-62846542D02*
X158771654Y-62989400D01*
X158771654Y-62989400D02*
X158557368Y-63060828D01*
X158557368Y-63060828D02*
X158200225Y-63060828D01*
X159700225Y-62275114D02*
X160200225Y-62275114D01*
X160414511Y-63060828D02*
X159700225Y-63060828D01*
X159700225Y-63060828D02*
X159700225Y-61560828D01*
X159700225Y-61560828D02*
X160414511Y-61560828D01*
X161057368Y-63060828D02*
X161057368Y-61560828D01*
X161057368Y-61560828D02*
X161557368Y-62632257D01*
X161557368Y-62632257D02*
X162057368Y-61560828D01*
X162057368Y-61560828D02*
X162057368Y-63060828D01*
X162771654Y-62275114D02*
X163271654Y-62275114D01*
X163485940Y-63060828D02*
X162771654Y-63060828D01*
X162771654Y-63060828D02*
X162771654Y-61560828D01*
X162771654Y-61560828D02*
X163485940Y-61560828D01*
X164414512Y-62346542D02*
X164414512Y-63060828D01*
X163914512Y-61560828D02*
X164414512Y-62346542D01*
X164414512Y-62346542D02*
X164914512Y-61560828D01*
X165343083Y-62989400D02*
X165557369Y-63060828D01*
X165557369Y-63060828D02*
X165914511Y-63060828D01*
X165914511Y-63060828D02*
X166057369Y-62989400D01*
X166057369Y-62989400D02*
X166128797Y-62917971D01*
X166128797Y-62917971D02*
X166200226Y-62775114D01*
X166200226Y-62775114D02*
X166200226Y-62632257D01*
X166200226Y-62632257D02*
X166128797Y-62489400D01*
X166128797Y-62489400D02*
X166057369Y-62417971D01*
X166057369Y-62417971D02*
X165914511Y-62346542D01*
X165914511Y-62346542D02*
X165628797Y-62275114D01*
X165628797Y-62275114D02*
X165485940Y-62203685D01*
X165485940Y-62203685D02*
X165414511Y-62132257D01*
X165414511Y-62132257D02*
X165343083Y-61989400D01*
X165343083Y-61989400D02*
X165343083Y-61846542D01*
X165343083Y-61846542D02*
X165414511Y-61703685D01*
X165414511Y-61703685D02*
X165485940Y-61632257D01*
X165485940Y-61632257D02*
X165628797Y-61560828D01*
X165628797Y-61560828D02*
X165985940Y-61560828D01*
X165985940Y-61560828D02*
X166200226Y-61632257D01*
X166843082Y-62275114D02*
X167343082Y-62275114D01*
X167557368Y-63060828D02*
X166843082Y-63060828D01*
X166843082Y-63060828D02*
X166843082Y-61560828D01*
X166843082Y-61560828D02*
X167557368Y-61560828D01*
X168843083Y-62060828D02*
X168843083Y-63060828D01*
X168485940Y-61489400D02*
X168128797Y-62560828D01*
X168128797Y-62560828D02*
X169057368Y-62560828D01*
X170414511Y-61632257D02*
X170271654Y-61560828D01*
X170271654Y-61560828D02*
X170057368Y-61560828D01*
X170057368Y-61560828D02*
X169843082Y-61632257D01*
X169843082Y-61632257D02*
X169700225Y-61775114D01*
X169700225Y-61775114D02*
X169628796Y-61917971D01*
X169628796Y-61917971D02*
X169557368Y-62203685D01*
X169557368Y-62203685D02*
X169557368Y-62417971D01*
X169557368Y-62417971D02*
X169628796Y-62703685D01*
X169628796Y-62703685D02*
X169700225Y-62846542D01*
X169700225Y-62846542D02*
X169843082Y-62989400D01*
X169843082Y-62989400D02*
X170057368Y-63060828D01*
X170057368Y-63060828D02*
X170200225Y-63060828D01*
X170200225Y-63060828D02*
X170414511Y-62989400D01*
X170414511Y-62989400D02*
X170485939Y-62917971D01*
X170485939Y-62917971D02*
X170485939Y-62417971D01*
X170485939Y-62417971D02*
X170200225Y-62417971D01*
X170771654Y-63203685D02*
X171914511Y-63203685D01*
X172985939Y-63060828D02*
X172271653Y-63060828D01*
X172271653Y-63060828D02*
X172271653Y-61560828D01*
X173271654Y-61560828D02*
X174128797Y-61560828D01*
X173700225Y-63060828D02*
X173700225Y-61560828D01*
X174628796Y-62275114D02*
X175128796Y-62275114D01*
X175343082Y-63060828D02*
X174628796Y-63060828D01*
X174628796Y-63060828D02*
X174628796Y-61560828D01*
X174628796Y-61560828D02*
X175343082Y-61560828D01*
X175628797Y-63203685D02*
X176771654Y-63203685D01*
X177985939Y-62917971D02*
X177914511Y-62989400D01*
X177914511Y-62989400D02*
X177700225Y-63060828D01*
X177700225Y-63060828D02*
X177557368Y-63060828D01*
X177557368Y-63060828D02*
X177343082Y-62989400D01*
X177343082Y-62989400D02*
X177200225Y-62846542D01*
X177200225Y-62846542D02*
X177128796Y-62703685D01*
X177128796Y-62703685D02*
X177057368Y-62417971D01*
X177057368Y-62417971D02*
X177057368Y-62203685D01*
X177057368Y-62203685D02*
X177128796Y-61917971D01*
X177128796Y-61917971D02*
X177200225Y-61775114D01*
X177200225Y-61775114D02*
X177343082Y-61632257D01*
X177343082Y-61632257D02*
X177557368Y-61560828D01*
X177557368Y-61560828D02*
X177700225Y-61560828D01*
X177700225Y-61560828D02*
X177914511Y-61632257D01*
X177914511Y-61632257D02*
X177985939Y-61703685D01*
X179271654Y-63060828D02*
X179271654Y-62275114D01*
X179271654Y-62275114D02*
X179200225Y-62132257D01*
X179200225Y-62132257D02*
X179057368Y-62060828D01*
X179057368Y-62060828D02*
X178771654Y-62060828D01*
X178771654Y-62060828D02*
X178628796Y-62132257D01*
X179271654Y-62989400D02*
X179128796Y-63060828D01*
X179128796Y-63060828D02*
X178771654Y-63060828D01*
X178771654Y-63060828D02*
X178628796Y-62989400D01*
X178628796Y-62989400D02*
X178557368Y-62846542D01*
X178557368Y-62846542D02*
X178557368Y-62703685D01*
X178557368Y-62703685D02*
X178628796Y-62560828D01*
X178628796Y-62560828D02*
X178771654Y-62489400D01*
X178771654Y-62489400D02*
X179128796Y-62489400D01*
X179128796Y-62489400D02*
X179271654Y-62417971D01*
X179771654Y-62060828D02*
X180343082Y-62060828D01*
X179985939Y-61560828D02*
X179985939Y-62846542D01*
X179985939Y-62846542D02*
X180057368Y-62989400D01*
X180057368Y-62989400D02*
X180200225Y-63060828D01*
X180200225Y-63060828D02*
X180343082Y-63060828D01*
X181628797Y-63060828D02*
X180771654Y-63060828D01*
X181200225Y-63060828D02*
X181200225Y-61560828D01*
X181200225Y-61560828D02*
X181057368Y-61775114D01*
X181057368Y-61775114D02*
X180914511Y-61917971D01*
X180914511Y-61917971D02*
X180771654Y-61989400D01*
X181914511Y-63203685D02*
X183057368Y-63203685D01*
X183343082Y-62989400D02*
X183485939Y-63060828D01*
X183485939Y-63060828D02*
X183771653Y-63060828D01*
X183771653Y-63060828D02*
X183914510Y-62989400D01*
X183914510Y-62989400D02*
X183985939Y-62846542D01*
X183985939Y-62846542D02*
X183985939Y-62775114D01*
X183985939Y-62775114D02*
X183914510Y-62632257D01*
X183914510Y-62632257D02*
X183771653Y-62560828D01*
X183771653Y-62560828D02*
X183557368Y-62560828D01*
X183557368Y-62560828D02*
X183414510Y-62489400D01*
X183414510Y-62489400D02*
X183343082Y-62346542D01*
X183343082Y-62346542D02*
X183343082Y-62275114D01*
X183343082Y-62275114D02*
X183414510Y-62132257D01*
X183414510Y-62132257D02*
X183557368Y-62060828D01*
X183557368Y-62060828D02*
X183771653Y-62060828D01*
X183771653Y-62060828D02*
X183914510Y-62132257D01*
X184628796Y-63060828D02*
X184628796Y-62060828D01*
X184628796Y-61560828D02*
X184557368Y-61632257D01*
X184557368Y-61632257D02*
X184628796Y-61703685D01*
X184628796Y-61703685D02*
X184700225Y-61632257D01*
X184700225Y-61632257D02*
X184628796Y-61560828D01*
X184628796Y-61560828D02*
X184628796Y-61703685D01*
X185343082Y-63060828D02*
X185343082Y-62060828D01*
X185343082Y-62203685D02*
X185414511Y-62132257D01*
X185414511Y-62132257D02*
X185557368Y-62060828D01*
X185557368Y-62060828D02*
X185771654Y-62060828D01*
X185771654Y-62060828D02*
X185914511Y-62132257D01*
X185914511Y-62132257D02*
X185985940Y-62275114D01*
X185985940Y-62275114D02*
X185985940Y-63060828D01*
X185985940Y-62275114D02*
X186057368Y-62132257D01*
X186057368Y-62132257D02*
X186200225Y-62060828D01*
X186200225Y-62060828D02*
X186414511Y-62060828D01*
X186414511Y-62060828D02*
X186557368Y-62132257D01*
X186557368Y-62132257D02*
X186628797Y-62275114D01*
X186628797Y-62275114D02*
X186628797Y-63060828D01*
X187271654Y-62632257D02*
X187985940Y-62632257D01*
X187128797Y-63060828D02*
X187628797Y-61560828D01*
X187628797Y-61560828D02*
X188128797Y-63060828D01*
X188485939Y-61560828D02*
X189485939Y-61560828D01*
X189485939Y-61560828D02*
X188843082Y-63060828D01*
X190700225Y-61560828D02*
X190414510Y-61560828D01*
X190414510Y-61560828D02*
X190271653Y-61632257D01*
X190271653Y-61632257D02*
X190200225Y-61703685D01*
X190200225Y-61703685D02*
X190057367Y-61917971D01*
X190057367Y-61917971D02*
X189985939Y-62203685D01*
X189985939Y-62203685D02*
X189985939Y-62775114D01*
X189985939Y-62775114D02*
X190057367Y-62917971D01*
X190057367Y-62917971D02*
X190128796Y-62989400D01*
X190128796Y-62989400D02*
X190271653Y-63060828D01*
X190271653Y-63060828D02*
X190557367Y-63060828D01*
X190557367Y-63060828D02*
X190700225Y-62989400D01*
X190700225Y-62989400D02*
X190771653Y-62917971D01*
X190771653Y-62917971D02*
X190843082Y-62775114D01*
X190843082Y-62775114D02*
X190843082Y-62417971D01*
X190843082Y-62417971D02*
X190771653Y-62275114D01*
X190771653Y-62275114D02*
X190700225Y-62203685D01*
X190700225Y-62203685D02*
X190557367Y-62132257D01*
X190557367Y-62132257D02*
X190271653Y-62132257D01*
X190271653Y-62132257D02*
X190128796Y-62203685D01*
X190128796Y-62203685D02*
X190057367Y-62275114D01*
X190057367Y-62275114D02*
X189985939Y-62417971D01*
X191343081Y-61560828D02*
X192343081Y-61560828D01*
X192343081Y-61560828D02*
X191700224Y-63060828D01*
X193200224Y-61560828D02*
X193343081Y-61560828D01*
X193343081Y-61560828D02*
X193485938Y-61632257D01*
X193485938Y-61632257D02*
X193557367Y-61703685D01*
X193557367Y-61703685D02*
X193628795Y-61846542D01*
X193628795Y-61846542D02*
X193700224Y-62132257D01*
X193700224Y-62132257D02*
X193700224Y-62489400D01*
X193700224Y-62489400D02*
X193628795Y-62775114D01*
X193628795Y-62775114D02*
X193557367Y-62917971D01*
X193557367Y-62917971D02*
X193485938Y-62989400D01*
X193485938Y-62989400D02*
X193343081Y-63060828D01*
X193343081Y-63060828D02*
X193200224Y-63060828D01*
X193200224Y-63060828D02*
X193057367Y-62989400D01*
X193057367Y-62989400D02*
X192985938Y-62917971D01*
X192985938Y-62917971D02*
X192914509Y-62775114D01*
X192914509Y-62775114D02*
X192843081Y-62489400D01*
X192843081Y-62489400D02*
X192843081Y-62132257D01*
X192843081Y-62132257D02*
X192914509Y-61846542D01*
X192914509Y-61846542D02*
X192985938Y-61703685D01*
X192985938Y-61703685D02*
X193057367Y-61632257D01*
X193057367Y-61632257D02*
X193200224Y-61560828D01*
X194271652Y-62989400D02*
X194485938Y-63060828D01*
X194485938Y-63060828D02*
X194843080Y-63060828D01*
X194843080Y-63060828D02*
X194985938Y-62989400D01*
X194985938Y-62989400D02*
X195057366Y-62917971D01*
X195057366Y-62917971D02*
X195128795Y-62775114D01*
X195128795Y-62775114D02*
X195128795Y-62632257D01*
X195128795Y-62632257D02*
X195057366Y-62489400D01*
X195057366Y-62489400D02*
X194985938Y-62417971D01*
X194985938Y-62417971D02*
X194843080Y-62346542D01*
X194843080Y-62346542D02*
X194557366Y-62275114D01*
X194557366Y-62275114D02*
X194414509Y-62203685D01*
X194414509Y-62203685D02*
X194343080Y-62132257D01*
X194343080Y-62132257D02*
X194271652Y-61989400D01*
X194271652Y-61989400D02*
X194271652Y-61846542D01*
X194271652Y-61846542D02*
X194343080Y-61703685D01*
X194343080Y-61703685D02*
X194414509Y-61632257D01*
X194414509Y-61632257D02*
X194557366Y-61560828D01*
X194557366Y-61560828D02*
X194914509Y-61560828D01*
X194914509Y-61560828D02*
X195128795Y-61632257D01*
X195700223Y-62632257D02*
X196414509Y-62632257D01*
X195557366Y-63060828D02*
X196057366Y-61560828D01*
X196057366Y-61560828D02*
X196557366Y-63060828D01*
X204860828Y-124305489D02*
X203360828Y-124305489D01*
X203360828Y-124305489D02*
X204432257Y-123805489D01*
X204432257Y-123805489D02*
X203360828Y-123305489D01*
X203360828Y-123305489D02*
X204860828Y-123305489D01*
X203360828Y-122305488D02*
X203360828Y-122019774D01*
X203360828Y-122019774D02*
X203432257Y-121876917D01*
X203432257Y-121876917D02*
X203575114Y-121734060D01*
X203575114Y-121734060D02*
X203860828Y-121662631D01*
X203860828Y-121662631D02*
X204360828Y-121662631D01*
X204360828Y-121662631D02*
X204646542Y-121734060D01*
X204646542Y-121734060D02*
X204789400Y-121876917D01*
X204789400Y-121876917D02*
X204860828Y-122019774D01*
X204860828Y-122019774D02*
X204860828Y-122305488D01*
X204860828Y-122305488D02*
X204789400Y-122448346D01*
X204789400Y-122448346D02*
X204646542Y-122591203D01*
X204646542Y-122591203D02*
X204360828Y-122662631D01*
X204360828Y-122662631D02*
X203860828Y-122662631D01*
X203860828Y-122662631D02*
X203575114Y-122591203D01*
X203575114Y-122591203D02*
X203432257Y-122448346D01*
X203432257Y-122448346D02*
X203360828Y-122305488D01*
X204860828Y-121019774D02*
X203360828Y-121019774D01*
X203360828Y-121019774D02*
X203360828Y-120662631D01*
X203360828Y-120662631D02*
X203432257Y-120448345D01*
X203432257Y-120448345D02*
X203575114Y-120305488D01*
X203575114Y-120305488D02*
X203717971Y-120234059D01*
X203717971Y-120234059D02*
X204003685Y-120162631D01*
X204003685Y-120162631D02*
X204217971Y-120162631D01*
X204217971Y-120162631D02*
X204503685Y-120234059D01*
X204503685Y-120234059D02*
X204646542Y-120305488D01*
X204646542Y-120305488D02*
X204789400Y-120448345D01*
X204789400Y-120448345D02*
X204860828Y-120662631D01*
X204860828Y-120662631D02*
X204860828Y-121019774D01*
X204075114Y-119519774D02*
X204075114Y-119019774D01*
X204860828Y-118805488D02*
X204860828Y-119519774D01*
X204860828Y-119519774D02*
X203360828Y-119519774D01*
X203360828Y-119519774D02*
X203360828Y-118805488D01*
X204860828Y-118162631D02*
X203360828Y-118162631D01*
X203360828Y-118162631D02*
X204432257Y-117662631D01*
X204432257Y-117662631D02*
X203360828Y-117162631D01*
X203360828Y-117162631D02*
X204860828Y-117162631D01*
X204075114Y-116448345D02*
X204075114Y-115948345D01*
X204860828Y-115734059D02*
X204860828Y-116448345D01*
X204860828Y-116448345D02*
X203360828Y-116448345D01*
X203360828Y-116448345D02*
X203360828Y-115734059D01*
X204146542Y-114805487D02*
X204860828Y-114805487D01*
X203360828Y-115305487D02*
X204146542Y-114805487D01*
X204146542Y-114805487D02*
X203360828Y-114305487D01*
X204789400Y-113876916D02*
X204860828Y-113662631D01*
X204860828Y-113662631D02*
X204860828Y-113305488D01*
X204860828Y-113305488D02*
X204789400Y-113162631D01*
X204789400Y-113162631D02*
X204717971Y-113091202D01*
X204717971Y-113091202D02*
X204575114Y-113019773D01*
X204575114Y-113019773D02*
X204432257Y-113019773D01*
X204432257Y-113019773D02*
X204289400Y-113091202D01*
X204289400Y-113091202D02*
X204217971Y-113162631D01*
X204217971Y-113162631D02*
X204146542Y-113305488D01*
X204146542Y-113305488D02*
X204075114Y-113591202D01*
X204075114Y-113591202D02*
X204003685Y-113734059D01*
X204003685Y-113734059D02*
X203932257Y-113805488D01*
X203932257Y-113805488D02*
X203789400Y-113876916D01*
X203789400Y-113876916D02*
X203646542Y-113876916D01*
X203646542Y-113876916D02*
X203503685Y-113805488D01*
X203503685Y-113805488D02*
X203432257Y-113734059D01*
X203432257Y-113734059D02*
X203360828Y-113591202D01*
X203360828Y-113591202D02*
X203360828Y-113234059D01*
X203360828Y-113234059D02*
X203432257Y-113019773D01*
X204075114Y-112376917D02*
X204075114Y-111876917D01*
X204860828Y-111662631D02*
X204860828Y-112376917D01*
X204860828Y-112376917D02*
X203360828Y-112376917D01*
X203360828Y-112376917D02*
X203360828Y-111662631D01*
X203860828Y-110376917D02*
X204860828Y-110376917D01*
X203289400Y-110734059D02*
X204360828Y-111091202D01*
X204360828Y-111091202D02*
X204360828Y-110162631D01*
X203432257Y-108805488D02*
X203360828Y-108948346D01*
X203360828Y-108948346D02*
X203360828Y-109162631D01*
X203360828Y-109162631D02*
X203432257Y-109376917D01*
X203432257Y-109376917D02*
X203575114Y-109519774D01*
X203575114Y-109519774D02*
X203717971Y-109591203D01*
X203717971Y-109591203D02*
X204003685Y-109662631D01*
X204003685Y-109662631D02*
X204217971Y-109662631D01*
X204217971Y-109662631D02*
X204503685Y-109591203D01*
X204503685Y-109591203D02*
X204646542Y-109519774D01*
X204646542Y-109519774D02*
X204789400Y-109376917D01*
X204789400Y-109376917D02*
X204860828Y-109162631D01*
X204860828Y-109162631D02*
X204860828Y-109019774D01*
X204860828Y-109019774D02*
X204789400Y-108805488D01*
X204789400Y-108805488D02*
X204717971Y-108734060D01*
X204717971Y-108734060D02*
X204217971Y-108734060D01*
X204217971Y-108734060D02*
X204217971Y-109019774D01*
X205003685Y-108448346D02*
X205003685Y-107305488D01*
X204860828Y-106234060D02*
X204860828Y-106948346D01*
X204860828Y-106948346D02*
X203360828Y-106948346D01*
X203360828Y-105948345D02*
X203360828Y-105091203D01*
X204860828Y-105519774D02*
X203360828Y-105519774D01*
X204075114Y-104591203D02*
X204075114Y-104091203D01*
X204860828Y-103876917D02*
X204860828Y-104591203D01*
X204860828Y-104591203D02*
X203360828Y-104591203D01*
X203360828Y-104591203D02*
X203360828Y-103876917D01*
X205003685Y-103591203D02*
X205003685Y-102448345D01*
X204717971Y-101234060D02*
X204789400Y-101305488D01*
X204789400Y-101305488D02*
X204860828Y-101519774D01*
X204860828Y-101519774D02*
X204860828Y-101662631D01*
X204860828Y-101662631D02*
X204789400Y-101876917D01*
X204789400Y-101876917D02*
X204646542Y-102019774D01*
X204646542Y-102019774D02*
X204503685Y-102091203D01*
X204503685Y-102091203D02*
X204217971Y-102162631D01*
X204217971Y-102162631D02*
X204003685Y-102162631D01*
X204003685Y-102162631D02*
X203717971Y-102091203D01*
X203717971Y-102091203D02*
X203575114Y-102019774D01*
X203575114Y-102019774D02*
X203432257Y-101876917D01*
X203432257Y-101876917D02*
X203360828Y-101662631D01*
X203360828Y-101662631D02*
X203360828Y-101519774D01*
X203360828Y-101519774D02*
X203432257Y-101305488D01*
X203432257Y-101305488D02*
X203503685Y-101234060D01*
X204860828Y-99948346D02*
X204075114Y-99948346D01*
X204075114Y-99948346D02*
X203932257Y-100019774D01*
X203932257Y-100019774D02*
X203860828Y-100162631D01*
X203860828Y-100162631D02*
X203860828Y-100448346D01*
X203860828Y-100448346D02*
X203932257Y-100591203D01*
X204789400Y-99948346D02*
X204860828Y-100091203D01*
X204860828Y-100091203D02*
X204860828Y-100448346D01*
X204860828Y-100448346D02*
X204789400Y-100591203D01*
X204789400Y-100591203D02*
X204646542Y-100662631D01*
X204646542Y-100662631D02*
X204503685Y-100662631D01*
X204503685Y-100662631D02*
X204360828Y-100591203D01*
X204360828Y-100591203D02*
X204289400Y-100448346D01*
X204289400Y-100448346D02*
X204289400Y-100091203D01*
X204289400Y-100091203D02*
X204217971Y-99948346D01*
X203860828Y-99448345D02*
X203860828Y-98876917D01*
X203360828Y-99234060D02*
X204646542Y-99234060D01*
X204646542Y-99234060D02*
X204789400Y-99162631D01*
X204789400Y-99162631D02*
X204860828Y-99019774D01*
X204860828Y-99019774D02*
X204860828Y-98876917D01*
X204860828Y-97591202D02*
X204860828Y-98448345D01*
X204860828Y-98019774D02*
X203360828Y-98019774D01*
X203360828Y-98019774D02*
X203575114Y-98162631D01*
X203575114Y-98162631D02*
X203717971Y-98305488D01*
X203717971Y-98305488D02*
X203789400Y-98448345D01*
X205003685Y-97305489D02*
X205003685Y-96162631D01*
X204789400Y-95876917D02*
X204860828Y-95734060D01*
X204860828Y-95734060D02*
X204860828Y-95448346D01*
X204860828Y-95448346D02*
X204789400Y-95305489D01*
X204789400Y-95305489D02*
X204646542Y-95234060D01*
X204646542Y-95234060D02*
X204575114Y-95234060D01*
X204575114Y-95234060D02*
X204432257Y-95305489D01*
X204432257Y-95305489D02*
X204360828Y-95448346D01*
X204360828Y-95448346D02*
X204360828Y-95662632D01*
X204360828Y-95662632D02*
X204289400Y-95805489D01*
X204289400Y-95805489D02*
X204146542Y-95876917D01*
X204146542Y-95876917D02*
X204075114Y-95876917D01*
X204075114Y-95876917D02*
X203932257Y-95805489D01*
X203932257Y-95805489D02*
X203860828Y-95662632D01*
X203860828Y-95662632D02*
X203860828Y-95448346D01*
X203860828Y-95448346D02*
X203932257Y-95305489D01*
X204860828Y-94591203D02*
X203860828Y-94591203D01*
X203360828Y-94591203D02*
X203432257Y-94662631D01*
X203432257Y-94662631D02*
X203503685Y-94591203D01*
X203503685Y-94591203D02*
X203432257Y-94519774D01*
X203432257Y-94519774D02*
X203360828Y-94591203D01*
X203360828Y-94591203D02*
X203503685Y-94591203D01*
X204860828Y-93876917D02*
X203860828Y-93876917D01*
X204003685Y-93876917D02*
X203932257Y-93805488D01*
X203932257Y-93805488D02*
X203860828Y-93662631D01*
X203860828Y-93662631D02*
X203860828Y-93448345D01*
X203860828Y-93448345D02*
X203932257Y-93305488D01*
X203932257Y-93305488D02*
X204075114Y-93234060D01*
X204075114Y-93234060D02*
X204860828Y-93234060D01*
X204075114Y-93234060D02*
X203932257Y-93162631D01*
X203932257Y-93162631D02*
X203860828Y-93019774D01*
X203860828Y-93019774D02*
X203860828Y-92805488D01*
X203860828Y-92805488D02*
X203932257Y-92662631D01*
X203932257Y-92662631D02*
X204075114Y-92591202D01*
X204075114Y-92591202D02*
X204860828Y-92591202D01*
X204432257Y-91948345D02*
X204432257Y-91234060D01*
X204860828Y-92091202D02*
X203360828Y-91591202D01*
X203360828Y-91591202D02*
X204860828Y-91091202D01*
X203360828Y-90734060D02*
X203360828Y-89734060D01*
X203360828Y-89734060D02*
X204860828Y-90376917D01*
X203360828Y-88519775D02*
X203360828Y-88805489D01*
X203360828Y-88805489D02*
X203432257Y-88948346D01*
X203432257Y-88948346D02*
X203503685Y-89019775D01*
X203503685Y-89019775D02*
X203717971Y-89162632D01*
X203717971Y-89162632D02*
X204003685Y-89234060D01*
X204003685Y-89234060D02*
X204575114Y-89234060D01*
X204575114Y-89234060D02*
X204717971Y-89162632D01*
X204717971Y-89162632D02*
X204789400Y-89091203D01*
X204789400Y-89091203D02*
X204860828Y-88948346D01*
X204860828Y-88948346D02*
X204860828Y-88662632D01*
X204860828Y-88662632D02*
X204789400Y-88519775D01*
X204789400Y-88519775D02*
X204717971Y-88448346D01*
X204717971Y-88448346D02*
X204575114Y-88376917D01*
X204575114Y-88376917D02*
X204217971Y-88376917D01*
X204217971Y-88376917D02*
X204075114Y-88448346D01*
X204075114Y-88448346D02*
X204003685Y-88519775D01*
X204003685Y-88519775D02*
X203932257Y-88662632D01*
X203932257Y-88662632D02*
X203932257Y-88948346D01*
X203932257Y-88948346D02*
X204003685Y-89091203D01*
X204003685Y-89091203D02*
X204075114Y-89162632D01*
X204075114Y-89162632D02*
X204217971Y-89234060D01*
X203360828Y-87876918D02*
X203360828Y-86876918D01*
X203360828Y-86876918D02*
X204860828Y-87519775D01*
X203360828Y-86019775D02*
X203360828Y-85876918D01*
X203360828Y-85876918D02*
X203432257Y-85734061D01*
X203432257Y-85734061D02*
X203503685Y-85662633D01*
X203503685Y-85662633D02*
X203646542Y-85591204D01*
X203646542Y-85591204D02*
X203932257Y-85519775D01*
X203932257Y-85519775D02*
X204289400Y-85519775D01*
X204289400Y-85519775D02*
X204575114Y-85591204D01*
X204575114Y-85591204D02*
X204717971Y-85662633D01*
X204717971Y-85662633D02*
X204789400Y-85734061D01*
X204789400Y-85734061D02*
X204860828Y-85876918D01*
X204860828Y-85876918D02*
X204860828Y-86019775D01*
X204860828Y-86019775D02*
X204789400Y-86162633D01*
X204789400Y-86162633D02*
X204717971Y-86234061D01*
X204717971Y-86234061D02*
X204575114Y-86305490D01*
X204575114Y-86305490D02*
X204289400Y-86376918D01*
X204289400Y-86376918D02*
X203932257Y-86376918D01*
X203932257Y-86376918D02*
X203646542Y-86305490D01*
X203646542Y-86305490D02*
X203503685Y-86234061D01*
X203503685Y-86234061D02*
X203432257Y-86162633D01*
X203432257Y-86162633D02*
X203360828Y-86019775D01*
X204789400Y-84948347D02*
X204860828Y-84734062D01*
X204860828Y-84734062D02*
X204860828Y-84376919D01*
X204860828Y-84376919D02*
X204789400Y-84234062D01*
X204789400Y-84234062D02*
X204717971Y-84162633D01*
X204717971Y-84162633D02*
X204575114Y-84091204D01*
X204575114Y-84091204D02*
X204432257Y-84091204D01*
X204432257Y-84091204D02*
X204289400Y-84162633D01*
X204289400Y-84162633D02*
X204217971Y-84234062D01*
X204217971Y-84234062D02*
X204146542Y-84376919D01*
X204146542Y-84376919D02*
X204075114Y-84662633D01*
X204075114Y-84662633D02*
X204003685Y-84805490D01*
X204003685Y-84805490D02*
X203932257Y-84876919D01*
X203932257Y-84876919D02*
X203789400Y-84948347D01*
X203789400Y-84948347D02*
X203646542Y-84948347D01*
X203646542Y-84948347D02*
X203503685Y-84876919D01*
X203503685Y-84876919D02*
X203432257Y-84805490D01*
X203432257Y-84805490D02*
X203360828Y-84662633D01*
X203360828Y-84662633D02*
X203360828Y-84305490D01*
X203360828Y-84305490D02*
X203432257Y-84091204D01*
X204432257Y-83519776D02*
X204432257Y-82805491D01*
X204860828Y-83662633D02*
X203360828Y-83162633D01*
X203360828Y-83162633D02*
X204860828Y-82662633D01*
X203360828Y-81234062D02*
X204860828Y-80734062D01*
X204860828Y-80734062D02*
X203360828Y-80234062D01*
X203503685Y-79805491D02*
X203432257Y-79734063D01*
X203432257Y-79734063D02*
X203360828Y-79591206D01*
X203360828Y-79591206D02*
X203360828Y-79234063D01*
X203360828Y-79234063D02*
X203432257Y-79091206D01*
X203432257Y-79091206D02*
X203503685Y-79019777D01*
X203503685Y-79019777D02*
X203646542Y-78948348D01*
X203646542Y-78948348D02*
X203789400Y-78948348D01*
X203789400Y-78948348D02*
X204003685Y-79019777D01*
X204003685Y-79019777D02*
X204860828Y-79876920D01*
X204860828Y-79876920D02*
X204860828Y-78948348D01*
D11*
X132119580Y-126476666D02*
X132167200Y-126524285D01*
X132167200Y-126524285D02*
X132214819Y-126667142D01*
X132214819Y-126667142D02*
X132214819Y-126762380D01*
X132214819Y-126762380D02*
X132167200Y-126905237D01*
X132167200Y-126905237D02*
X132071961Y-127000475D01*
X132071961Y-127000475D02*
X131976723Y-127048094D01*
X131976723Y-127048094D02*
X131786247Y-127095713D01*
X131786247Y-127095713D02*
X131643390Y-127095713D01*
X131643390Y-127095713D02*
X131452914Y-127048094D01*
X131452914Y-127048094D02*
X131357676Y-127000475D01*
X131357676Y-127000475D02*
X131262438Y-126905237D01*
X131262438Y-126905237D02*
X131214819Y-126762380D01*
X131214819Y-126762380D02*
X131214819Y-126667142D01*
X131214819Y-126667142D02*
X131262438Y-126524285D01*
X131262438Y-126524285D02*
X131310057Y-126476666D01*
X131310057Y-126095713D02*
X131262438Y-126048094D01*
X131262438Y-126048094D02*
X131214819Y-125952856D01*
X131214819Y-125952856D02*
X131214819Y-125714761D01*
X131214819Y-125714761D02*
X131262438Y-125619523D01*
X131262438Y-125619523D02*
X131310057Y-125571904D01*
X131310057Y-125571904D02*
X131405295Y-125524285D01*
X131405295Y-125524285D02*
X131500533Y-125524285D01*
X131500533Y-125524285D02*
X131643390Y-125571904D01*
X131643390Y-125571904D02*
X132214819Y-126143332D01*
X132214819Y-126143332D02*
X132214819Y-125524285D01*
X125804642Y-79714819D02*
X125471309Y-79238628D01*
X125233214Y-79714819D02*
X125233214Y-78714819D01*
X125233214Y-78714819D02*
X125614166Y-78714819D01*
X125614166Y-78714819D02*
X125709404Y-78762438D01*
X125709404Y-78762438D02*
X125757023Y-78810057D01*
X125757023Y-78810057D02*
X125804642Y-78905295D01*
X125804642Y-78905295D02*
X125804642Y-79048152D01*
X125804642Y-79048152D02*
X125757023Y-79143390D01*
X125757023Y-79143390D02*
X125709404Y-79191009D01*
X125709404Y-79191009D02*
X125614166Y-79238628D01*
X125614166Y-79238628D02*
X125233214Y-79238628D01*
X126757023Y-79714819D02*
X126185595Y-79714819D01*
X126471309Y-79714819D02*
X126471309Y-78714819D01*
X126471309Y-78714819D02*
X126376071Y-78857676D01*
X126376071Y-78857676D02*
X126280833Y-78952914D01*
X126280833Y-78952914D02*
X126185595Y-79000533D01*
X127614166Y-78714819D02*
X127423690Y-78714819D01*
X127423690Y-78714819D02*
X127328452Y-78762438D01*
X127328452Y-78762438D02*
X127280833Y-78810057D01*
X127280833Y-78810057D02*
X127185595Y-78952914D01*
X127185595Y-78952914D02*
X127137976Y-79143390D01*
X127137976Y-79143390D02*
X127137976Y-79524342D01*
X127137976Y-79524342D02*
X127185595Y-79619580D01*
X127185595Y-79619580D02*
X127233214Y-79667200D01*
X127233214Y-79667200D02*
X127328452Y-79714819D01*
X127328452Y-79714819D02*
X127518928Y-79714819D01*
X127518928Y-79714819D02*
X127614166Y-79667200D01*
X127614166Y-79667200D02*
X127661785Y-79619580D01*
X127661785Y-79619580D02*
X127709404Y-79524342D01*
X127709404Y-79524342D02*
X127709404Y-79286247D01*
X127709404Y-79286247D02*
X127661785Y-79191009D01*
X127661785Y-79191009D02*
X127614166Y-79143390D01*
X127614166Y-79143390D02*
X127518928Y-79095771D01*
X127518928Y-79095771D02*
X127328452Y-79095771D01*
X127328452Y-79095771D02*
X127233214Y-79143390D01*
X127233214Y-79143390D02*
X127185595Y-79191009D01*
X127185595Y-79191009D02*
X127137976Y-79286247D01*
X153299580Y-128301666D02*
X153347200Y-128349285D01*
X153347200Y-128349285D02*
X153394819Y-128492142D01*
X153394819Y-128492142D02*
X153394819Y-128587380D01*
X153394819Y-128587380D02*
X153347200Y-128730237D01*
X153347200Y-128730237D02*
X153251961Y-128825475D01*
X153251961Y-128825475D02*
X153156723Y-128873094D01*
X153156723Y-128873094D02*
X152966247Y-128920713D01*
X152966247Y-128920713D02*
X152823390Y-128920713D01*
X152823390Y-128920713D02*
X152632914Y-128873094D01*
X152632914Y-128873094D02*
X152537676Y-128825475D01*
X152537676Y-128825475D02*
X152442438Y-128730237D01*
X152442438Y-128730237D02*
X152394819Y-128587380D01*
X152394819Y-128587380D02*
X152394819Y-128492142D01*
X152394819Y-128492142D02*
X152442438Y-128349285D01*
X152442438Y-128349285D02*
X152490057Y-128301666D01*
X153394819Y-127825475D02*
X153394819Y-127634999D01*
X153394819Y-127634999D02*
X153347200Y-127539761D01*
X153347200Y-127539761D02*
X153299580Y-127492142D01*
X153299580Y-127492142D02*
X153156723Y-127396904D01*
X153156723Y-127396904D02*
X152966247Y-127349285D01*
X152966247Y-127349285D02*
X152585295Y-127349285D01*
X152585295Y-127349285D02*
X152490057Y-127396904D01*
X152490057Y-127396904D02*
X152442438Y-127444523D01*
X152442438Y-127444523D02*
X152394819Y-127539761D01*
X152394819Y-127539761D02*
X152394819Y-127730237D01*
X152394819Y-127730237D02*
X152442438Y-127825475D01*
X152442438Y-127825475D02*
X152490057Y-127873094D01*
X152490057Y-127873094D02*
X152585295Y-127920713D01*
X152585295Y-127920713D02*
X152823390Y-127920713D01*
X152823390Y-127920713D02*
X152918628Y-127873094D01*
X152918628Y-127873094D02*
X152966247Y-127825475D01*
X152966247Y-127825475D02*
X153013866Y-127730237D01*
X153013866Y-127730237D02*
X153013866Y-127539761D01*
X153013866Y-127539761D02*
X152966247Y-127444523D01*
X152966247Y-127444523D02*
X152918628Y-127396904D01*
X152918628Y-127396904D02*
X152823390Y-127349285D01*
X188119819Y-134958333D02*
X188834104Y-134958333D01*
X188834104Y-134958333D02*
X188976961Y-135005952D01*
X188976961Y-135005952D02*
X189072200Y-135101190D01*
X189072200Y-135101190D02*
X189119819Y-135244047D01*
X189119819Y-135244047D02*
X189119819Y-135339285D01*
X188119819Y-134577380D02*
X188119819Y-133958333D01*
X188119819Y-133958333D02*
X188500771Y-134291666D01*
X188500771Y-134291666D02*
X188500771Y-134148809D01*
X188500771Y-134148809D02*
X188548390Y-134053571D01*
X188548390Y-134053571D02*
X188596009Y-134005952D01*
X188596009Y-134005952D02*
X188691247Y-133958333D01*
X188691247Y-133958333D02*
X188929342Y-133958333D01*
X188929342Y-133958333D02*
X189024580Y-134005952D01*
X189024580Y-134005952D02*
X189072200Y-134053571D01*
X189072200Y-134053571D02*
X189119819Y-134148809D01*
X189119819Y-134148809D02*
X189119819Y-134434523D01*
X189119819Y-134434523D02*
X189072200Y-134529761D01*
X189072200Y-134529761D02*
X189024580Y-134577380D01*
X148026666Y-69514819D02*
X148026666Y-70229104D01*
X148026666Y-70229104D02*
X147979047Y-70371961D01*
X147979047Y-70371961D02*
X147883809Y-70467200D01*
X147883809Y-70467200D02*
X147740952Y-70514819D01*
X147740952Y-70514819D02*
X147645714Y-70514819D01*
X148502857Y-70514819D02*
X148502857Y-69514819D01*
X148502857Y-69514819D02*
X148883809Y-69514819D01*
X148883809Y-69514819D02*
X148979047Y-69562438D01*
X148979047Y-69562438D02*
X149026666Y-69610057D01*
X149026666Y-69610057D02*
X149074285Y-69705295D01*
X149074285Y-69705295D02*
X149074285Y-69848152D01*
X149074285Y-69848152D02*
X149026666Y-69943390D01*
X149026666Y-69943390D02*
X148979047Y-69991009D01*
X148979047Y-69991009D02*
X148883809Y-70038628D01*
X148883809Y-70038628D02*
X148502857Y-70038628D01*
X149931428Y-69848152D02*
X149931428Y-70514819D01*
X149693333Y-69467200D02*
X149455238Y-70181485D01*
X149455238Y-70181485D02*
X150074285Y-70181485D01*
X119821905Y-85614819D02*
X119821905Y-84614819D01*
X119821905Y-84614819D02*
X120060000Y-84614819D01*
X120060000Y-84614819D02*
X120202857Y-84662438D01*
X120202857Y-84662438D02*
X120298095Y-84757676D01*
X120298095Y-84757676D02*
X120345714Y-84852914D01*
X120345714Y-84852914D02*
X120393333Y-85043390D01*
X120393333Y-85043390D02*
X120393333Y-85186247D01*
X120393333Y-85186247D02*
X120345714Y-85376723D01*
X120345714Y-85376723D02*
X120298095Y-85471961D01*
X120298095Y-85471961D02*
X120202857Y-85567200D01*
X120202857Y-85567200D02*
X120060000Y-85614819D01*
X120060000Y-85614819D02*
X119821905Y-85614819D01*
X120774286Y-84710057D02*
X120821905Y-84662438D01*
X120821905Y-84662438D02*
X120917143Y-84614819D01*
X120917143Y-84614819D02*
X121155238Y-84614819D01*
X121155238Y-84614819D02*
X121250476Y-84662438D01*
X121250476Y-84662438D02*
X121298095Y-84710057D01*
X121298095Y-84710057D02*
X121345714Y-84805295D01*
X121345714Y-84805295D02*
X121345714Y-84900533D01*
X121345714Y-84900533D02*
X121298095Y-85043390D01*
X121298095Y-85043390D02*
X120726667Y-85614819D01*
X120726667Y-85614819D02*
X121345714Y-85614819D01*
X141283095Y-78014819D02*
X141283095Y-78824342D01*
X141283095Y-78824342D02*
X141330714Y-78919580D01*
X141330714Y-78919580D02*
X141378333Y-78967200D01*
X141378333Y-78967200D02*
X141473571Y-79014819D01*
X141473571Y-79014819D02*
X141664047Y-79014819D01*
X141664047Y-79014819D02*
X141759285Y-78967200D01*
X141759285Y-78967200D02*
X141806904Y-78919580D01*
X141806904Y-78919580D02*
X141854523Y-78824342D01*
X141854523Y-78824342D02*
X141854523Y-78014819D01*
X142235476Y-78014819D02*
X142902142Y-78014819D01*
X142902142Y-78014819D02*
X142473571Y-79014819D01*
X151334819Y-125994166D02*
X150858628Y-126327499D01*
X151334819Y-126565594D02*
X150334819Y-126565594D01*
X150334819Y-126565594D02*
X150334819Y-126184642D01*
X150334819Y-126184642D02*
X150382438Y-126089404D01*
X150382438Y-126089404D02*
X150430057Y-126041785D01*
X150430057Y-126041785D02*
X150525295Y-125994166D01*
X150525295Y-125994166D02*
X150668152Y-125994166D01*
X150668152Y-125994166D02*
X150763390Y-126041785D01*
X150763390Y-126041785D02*
X150811009Y-126089404D01*
X150811009Y-126089404D02*
X150858628Y-126184642D01*
X150858628Y-126184642D02*
X150858628Y-126565594D01*
X150430057Y-125613213D02*
X150382438Y-125565594D01*
X150382438Y-125565594D02*
X150334819Y-125470356D01*
X150334819Y-125470356D02*
X150334819Y-125232261D01*
X150334819Y-125232261D02*
X150382438Y-125137023D01*
X150382438Y-125137023D02*
X150430057Y-125089404D01*
X150430057Y-125089404D02*
X150525295Y-125041785D01*
X150525295Y-125041785D02*
X150620533Y-125041785D01*
X150620533Y-125041785D02*
X150763390Y-125089404D01*
X150763390Y-125089404D02*
X151334819Y-125660832D01*
X151334819Y-125660832D02*
X151334819Y-125041785D01*
X188993333Y-106519580D02*
X188945714Y-106567200D01*
X188945714Y-106567200D02*
X188802857Y-106614819D01*
X188802857Y-106614819D02*
X188707619Y-106614819D01*
X188707619Y-106614819D02*
X188564762Y-106567200D01*
X188564762Y-106567200D02*
X188469524Y-106471961D01*
X188469524Y-106471961D02*
X188421905Y-106376723D01*
X188421905Y-106376723D02*
X188374286Y-106186247D01*
X188374286Y-106186247D02*
X188374286Y-106043390D01*
X188374286Y-106043390D02*
X188421905Y-105852914D01*
X188421905Y-105852914D02*
X188469524Y-105757676D01*
X188469524Y-105757676D02*
X188564762Y-105662438D01*
X188564762Y-105662438D02*
X188707619Y-105614819D01*
X188707619Y-105614819D02*
X188802857Y-105614819D01*
X188802857Y-105614819D02*
X188945714Y-105662438D01*
X188945714Y-105662438D02*
X188993333Y-105710057D01*
X189326667Y-105614819D02*
X189993333Y-105614819D01*
X189993333Y-105614819D02*
X189564762Y-106614819D01*
X145532142Y-80519580D02*
X145484523Y-80567200D01*
X145484523Y-80567200D02*
X145341666Y-80614819D01*
X145341666Y-80614819D02*
X145246428Y-80614819D01*
X145246428Y-80614819D02*
X145103571Y-80567200D01*
X145103571Y-80567200D02*
X145008333Y-80471961D01*
X145008333Y-80471961D02*
X144960714Y-80376723D01*
X144960714Y-80376723D02*
X144913095Y-80186247D01*
X144913095Y-80186247D02*
X144913095Y-80043390D01*
X144913095Y-80043390D02*
X144960714Y-79852914D01*
X144960714Y-79852914D02*
X145008333Y-79757676D01*
X145008333Y-79757676D02*
X145103571Y-79662438D01*
X145103571Y-79662438D02*
X145246428Y-79614819D01*
X145246428Y-79614819D02*
X145341666Y-79614819D01*
X145341666Y-79614819D02*
X145484523Y-79662438D01*
X145484523Y-79662438D02*
X145532142Y-79710057D01*
X146484523Y-80614819D02*
X145913095Y-80614819D01*
X146198809Y-80614819D02*
X146198809Y-79614819D01*
X146198809Y-79614819D02*
X146103571Y-79757676D01*
X146103571Y-79757676D02*
X146008333Y-79852914D01*
X146008333Y-79852914D02*
X145913095Y-79900533D01*
X146865476Y-79710057D02*
X146913095Y-79662438D01*
X146913095Y-79662438D02*
X147008333Y-79614819D01*
X147008333Y-79614819D02*
X147246428Y-79614819D01*
X147246428Y-79614819D02*
X147341666Y-79662438D01*
X147341666Y-79662438D02*
X147389285Y-79710057D01*
X147389285Y-79710057D02*
X147436904Y-79805295D01*
X147436904Y-79805295D02*
X147436904Y-79900533D01*
X147436904Y-79900533D02*
X147389285Y-80043390D01*
X147389285Y-80043390D02*
X146817857Y-80614819D01*
X146817857Y-80614819D02*
X147436904Y-80614819D01*
X130214819Y-85893333D02*
X130929104Y-85893333D01*
X130929104Y-85893333D02*
X131071961Y-85940952D01*
X131071961Y-85940952D02*
X131167200Y-86036190D01*
X131167200Y-86036190D02*
X131214819Y-86179047D01*
X131214819Y-86179047D02*
X131214819Y-86274285D01*
X131214819Y-85417142D02*
X130214819Y-85417142D01*
X130214819Y-85417142D02*
X130214819Y-85036190D01*
X130214819Y-85036190D02*
X130262438Y-84940952D01*
X130262438Y-84940952D02*
X130310057Y-84893333D01*
X130310057Y-84893333D02*
X130405295Y-84845714D01*
X130405295Y-84845714D02*
X130548152Y-84845714D01*
X130548152Y-84845714D02*
X130643390Y-84893333D01*
X130643390Y-84893333D02*
X130691009Y-84940952D01*
X130691009Y-84940952D02*
X130738628Y-85036190D01*
X130738628Y-85036190D02*
X130738628Y-85417142D01*
X131214819Y-83893333D02*
X131214819Y-84464761D01*
X131214819Y-84179047D02*
X130214819Y-84179047D01*
X130214819Y-84179047D02*
X130357676Y-84274285D01*
X130357676Y-84274285D02*
X130452914Y-84369523D01*
X130452914Y-84369523D02*
X130500533Y-84464761D01*
X123638051Y-63361263D02*
X123638051Y-64075548D01*
X123638051Y-64075548D02*
X123590432Y-64218405D01*
X123590432Y-64218405D02*
X123495194Y-64313644D01*
X123495194Y-64313644D02*
X123352337Y-64361263D01*
X123352337Y-64361263D02*
X123257099Y-64361263D01*
X124590432Y-63361263D02*
X124114242Y-63361263D01*
X124114242Y-63361263D02*
X124066623Y-63837453D01*
X124066623Y-63837453D02*
X124114242Y-63789834D01*
X124114242Y-63789834D02*
X124209480Y-63742215D01*
X124209480Y-63742215D02*
X124447575Y-63742215D01*
X124447575Y-63742215D02*
X124542813Y-63789834D01*
X124542813Y-63789834D02*
X124590432Y-63837453D01*
X124590432Y-63837453D02*
X124638051Y-63932691D01*
X124638051Y-63932691D02*
X124638051Y-64170786D01*
X124638051Y-64170786D02*
X124590432Y-64266024D01*
X124590432Y-64266024D02*
X124542813Y-64313644D01*
X124542813Y-64313644D02*
X124447575Y-64361263D01*
X124447575Y-64361263D02*
X124209480Y-64361263D01*
X124209480Y-64361263D02*
X124114242Y-64313644D01*
X124114242Y-64313644D02*
X124066623Y-64266024D01*
X157493333Y-74414819D02*
X157160000Y-73938628D01*
X156921905Y-74414819D02*
X156921905Y-73414819D01*
X156921905Y-73414819D02*
X157302857Y-73414819D01*
X157302857Y-73414819D02*
X157398095Y-73462438D01*
X157398095Y-73462438D02*
X157445714Y-73510057D01*
X157445714Y-73510057D02*
X157493333Y-73605295D01*
X157493333Y-73605295D02*
X157493333Y-73748152D01*
X157493333Y-73748152D02*
X157445714Y-73843390D01*
X157445714Y-73843390D02*
X157398095Y-73891009D01*
X157398095Y-73891009D02*
X157302857Y-73938628D01*
X157302857Y-73938628D02*
X156921905Y-73938628D01*
X158350476Y-73748152D02*
X158350476Y-74414819D01*
X158112381Y-73367200D02*
X157874286Y-74081485D01*
X157874286Y-74081485D02*
X158493333Y-74081485D01*
X121821905Y-71514819D02*
X121821905Y-70514819D01*
X121821905Y-70514819D02*
X122060000Y-70514819D01*
X122060000Y-70514819D02*
X122202857Y-70562438D01*
X122202857Y-70562438D02*
X122298095Y-70657676D01*
X122298095Y-70657676D02*
X122345714Y-70752914D01*
X122345714Y-70752914D02*
X122393333Y-70943390D01*
X122393333Y-70943390D02*
X122393333Y-71086247D01*
X122393333Y-71086247D02*
X122345714Y-71276723D01*
X122345714Y-71276723D02*
X122298095Y-71371961D01*
X122298095Y-71371961D02*
X122202857Y-71467200D01*
X122202857Y-71467200D02*
X122060000Y-71514819D01*
X122060000Y-71514819D02*
X121821905Y-71514819D01*
X122726667Y-70514819D02*
X123345714Y-70514819D01*
X123345714Y-70514819D02*
X123012381Y-70895771D01*
X123012381Y-70895771D02*
X123155238Y-70895771D01*
X123155238Y-70895771D02*
X123250476Y-70943390D01*
X123250476Y-70943390D02*
X123298095Y-70991009D01*
X123298095Y-70991009D02*
X123345714Y-71086247D01*
X123345714Y-71086247D02*
X123345714Y-71324342D01*
X123345714Y-71324342D02*
X123298095Y-71419580D01*
X123298095Y-71419580D02*
X123250476Y-71467200D01*
X123250476Y-71467200D02*
X123155238Y-71514819D01*
X123155238Y-71514819D02*
X122869524Y-71514819D01*
X122869524Y-71514819D02*
X122774286Y-71467200D01*
X122774286Y-71467200D02*
X122726667Y-71419580D01*
X132519580Y-132126666D02*
X132567200Y-132174285D01*
X132567200Y-132174285D02*
X132614819Y-132317142D01*
X132614819Y-132317142D02*
X132614819Y-132412380D01*
X132614819Y-132412380D02*
X132567200Y-132555237D01*
X132567200Y-132555237D02*
X132471961Y-132650475D01*
X132471961Y-132650475D02*
X132376723Y-132698094D01*
X132376723Y-132698094D02*
X132186247Y-132745713D01*
X132186247Y-132745713D02*
X132043390Y-132745713D01*
X132043390Y-132745713D02*
X131852914Y-132698094D01*
X131852914Y-132698094D02*
X131757676Y-132650475D01*
X131757676Y-132650475D02*
X131662438Y-132555237D01*
X131662438Y-132555237D02*
X131614819Y-132412380D01*
X131614819Y-132412380D02*
X131614819Y-132317142D01*
X131614819Y-132317142D02*
X131662438Y-132174285D01*
X131662438Y-132174285D02*
X131710057Y-132126666D01*
X131948152Y-131269523D02*
X132614819Y-131269523D01*
X131567200Y-131507618D02*
X132281485Y-131745713D01*
X132281485Y-131745713D02*
X132281485Y-131126666D01*
X170183511Y-125472557D02*
X170088273Y-125424938D01*
X170088273Y-125424938D02*
X169993035Y-125329700D01*
X169993035Y-125329700D02*
X169850178Y-125186842D01*
X169850178Y-125186842D02*
X169754940Y-125139223D01*
X169754940Y-125139223D02*
X169659702Y-125139223D01*
X169707321Y-125377319D02*
X169612083Y-125329700D01*
X169612083Y-125329700D02*
X169516845Y-125234461D01*
X169516845Y-125234461D02*
X169469226Y-125043985D01*
X169469226Y-125043985D02*
X169469226Y-124710652D01*
X169469226Y-124710652D02*
X169516845Y-124520176D01*
X169516845Y-124520176D02*
X169612083Y-124424938D01*
X169612083Y-124424938D02*
X169707321Y-124377319D01*
X169707321Y-124377319D02*
X169897797Y-124377319D01*
X169897797Y-124377319D02*
X169993035Y-124424938D01*
X169993035Y-124424938D02*
X170088273Y-124520176D01*
X170088273Y-124520176D02*
X170135892Y-124710652D01*
X170135892Y-124710652D02*
X170135892Y-125043985D01*
X170135892Y-125043985D02*
X170088273Y-125234461D01*
X170088273Y-125234461D02*
X169993035Y-125329700D01*
X169993035Y-125329700D02*
X169897797Y-125377319D01*
X169897797Y-125377319D02*
X169707321Y-125377319D01*
X170469226Y-124377319D02*
X171088273Y-124377319D01*
X171088273Y-124377319D02*
X170754940Y-124758271D01*
X170754940Y-124758271D02*
X170897797Y-124758271D01*
X170897797Y-124758271D02*
X170993035Y-124805890D01*
X170993035Y-124805890D02*
X171040654Y-124853509D01*
X171040654Y-124853509D02*
X171088273Y-124948747D01*
X171088273Y-124948747D02*
X171088273Y-125186842D01*
X171088273Y-125186842D02*
X171040654Y-125282080D01*
X171040654Y-125282080D02*
X170993035Y-125329700D01*
X170993035Y-125329700D02*
X170897797Y-125377319D01*
X170897797Y-125377319D02*
X170612083Y-125377319D01*
X170612083Y-125377319D02*
X170516845Y-125329700D01*
X170516845Y-125329700D02*
X170469226Y-125282080D01*
X158617142Y-121114819D02*
X158283809Y-120638628D01*
X158045714Y-121114819D02*
X158045714Y-120114819D01*
X158045714Y-120114819D02*
X158426666Y-120114819D01*
X158426666Y-120114819D02*
X158521904Y-120162438D01*
X158521904Y-120162438D02*
X158569523Y-120210057D01*
X158569523Y-120210057D02*
X158617142Y-120305295D01*
X158617142Y-120305295D02*
X158617142Y-120448152D01*
X158617142Y-120448152D02*
X158569523Y-120543390D01*
X158569523Y-120543390D02*
X158521904Y-120591009D01*
X158521904Y-120591009D02*
X158426666Y-120638628D01*
X158426666Y-120638628D02*
X158045714Y-120638628D01*
X159569523Y-121114819D02*
X158998095Y-121114819D01*
X159283809Y-121114819D02*
X159283809Y-120114819D01*
X159283809Y-120114819D02*
X159188571Y-120257676D01*
X159188571Y-120257676D02*
X159093333Y-120352914D01*
X159093333Y-120352914D02*
X158998095Y-120400533D01*
X160140952Y-120543390D02*
X160045714Y-120495771D01*
X160045714Y-120495771D02*
X159998095Y-120448152D01*
X159998095Y-120448152D02*
X159950476Y-120352914D01*
X159950476Y-120352914D02*
X159950476Y-120305295D01*
X159950476Y-120305295D02*
X159998095Y-120210057D01*
X159998095Y-120210057D02*
X160045714Y-120162438D01*
X160045714Y-120162438D02*
X160140952Y-120114819D01*
X160140952Y-120114819D02*
X160331428Y-120114819D01*
X160331428Y-120114819D02*
X160426666Y-120162438D01*
X160426666Y-120162438D02*
X160474285Y-120210057D01*
X160474285Y-120210057D02*
X160521904Y-120305295D01*
X160521904Y-120305295D02*
X160521904Y-120352914D01*
X160521904Y-120352914D02*
X160474285Y-120448152D01*
X160474285Y-120448152D02*
X160426666Y-120495771D01*
X160426666Y-120495771D02*
X160331428Y-120543390D01*
X160331428Y-120543390D02*
X160140952Y-120543390D01*
X160140952Y-120543390D02*
X160045714Y-120591009D01*
X160045714Y-120591009D02*
X159998095Y-120638628D01*
X159998095Y-120638628D02*
X159950476Y-120733866D01*
X159950476Y-120733866D02*
X159950476Y-120924342D01*
X159950476Y-120924342D02*
X159998095Y-121019580D01*
X159998095Y-121019580D02*
X160045714Y-121067200D01*
X160045714Y-121067200D02*
X160140952Y-121114819D01*
X160140952Y-121114819D02*
X160331428Y-121114819D01*
X160331428Y-121114819D02*
X160426666Y-121067200D01*
X160426666Y-121067200D02*
X160474285Y-121019580D01*
X160474285Y-121019580D02*
X160521904Y-120924342D01*
X160521904Y-120924342D02*
X160521904Y-120733866D01*
X160521904Y-120733866D02*
X160474285Y-120638628D01*
X160474285Y-120638628D02*
X160426666Y-120591009D01*
X160426666Y-120591009D02*
X160331428Y-120543390D01*
X125626666Y-133814819D02*
X125626666Y-134529104D01*
X125626666Y-134529104D02*
X125579047Y-134671961D01*
X125579047Y-134671961D02*
X125483809Y-134767200D01*
X125483809Y-134767200D02*
X125340952Y-134814819D01*
X125340952Y-134814819D02*
X125245714Y-134814819D01*
X126055238Y-133910057D02*
X126102857Y-133862438D01*
X126102857Y-133862438D02*
X126198095Y-133814819D01*
X126198095Y-133814819D02*
X126436190Y-133814819D01*
X126436190Y-133814819D02*
X126531428Y-133862438D01*
X126531428Y-133862438D02*
X126579047Y-133910057D01*
X126579047Y-133910057D02*
X126626666Y-134005295D01*
X126626666Y-134005295D02*
X126626666Y-134100533D01*
X126626666Y-134100533D02*
X126579047Y-134243390D01*
X126579047Y-134243390D02*
X126007619Y-134814819D01*
X126007619Y-134814819D02*
X126626666Y-134814819D01*
X132300951Y-109451009D02*
X132443808Y-109498628D01*
X132443808Y-109498628D02*
X132491427Y-109546247D01*
X132491427Y-109546247D02*
X132539046Y-109641485D01*
X132539046Y-109641485D02*
X132539046Y-109784342D01*
X132539046Y-109784342D02*
X132491427Y-109879580D01*
X132491427Y-109879580D02*
X132443808Y-109927200D01*
X132443808Y-109927200D02*
X132348570Y-109974819D01*
X132348570Y-109974819D02*
X131967618Y-109974819D01*
X131967618Y-109974819D02*
X131967618Y-108974819D01*
X131967618Y-108974819D02*
X132300951Y-108974819D01*
X132300951Y-108974819D02*
X132396189Y-109022438D01*
X132396189Y-109022438D02*
X132443808Y-109070057D01*
X132443808Y-109070057D02*
X132491427Y-109165295D01*
X132491427Y-109165295D02*
X132491427Y-109260533D01*
X132491427Y-109260533D02*
X132443808Y-109355771D01*
X132443808Y-109355771D02*
X132396189Y-109403390D01*
X132396189Y-109403390D02*
X132300951Y-109451009D01*
X132300951Y-109451009D02*
X131967618Y-109451009D01*
X133110475Y-109974819D02*
X133015237Y-109927200D01*
X133015237Y-109927200D02*
X132967618Y-109831961D01*
X132967618Y-109831961D02*
X132967618Y-108974819D01*
X133919999Y-109974819D02*
X133919999Y-109451009D01*
X133919999Y-109451009D02*
X133872380Y-109355771D01*
X133872380Y-109355771D02*
X133777142Y-109308152D01*
X133777142Y-109308152D02*
X133586666Y-109308152D01*
X133586666Y-109308152D02*
X133491428Y-109355771D01*
X133919999Y-109927200D02*
X133824761Y-109974819D01*
X133824761Y-109974819D02*
X133586666Y-109974819D01*
X133586666Y-109974819D02*
X133491428Y-109927200D01*
X133491428Y-109927200D02*
X133443809Y-109831961D01*
X133443809Y-109831961D02*
X133443809Y-109736723D01*
X133443809Y-109736723D02*
X133491428Y-109641485D01*
X133491428Y-109641485D02*
X133586666Y-109593866D01*
X133586666Y-109593866D02*
X133824761Y-109593866D01*
X133824761Y-109593866D02*
X133919999Y-109546247D01*
X134824761Y-109927200D02*
X134729523Y-109974819D01*
X134729523Y-109974819D02*
X134539047Y-109974819D01*
X134539047Y-109974819D02*
X134443809Y-109927200D01*
X134443809Y-109927200D02*
X134396190Y-109879580D01*
X134396190Y-109879580D02*
X134348571Y-109784342D01*
X134348571Y-109784342D02*
X134348571Y-109498628D01*
X134348571Y-109498628D02*
X134396190Y-109403390D01*
X134396190Y-109403390D02*
X134443809Y-109355771D01*
X134443809Y-109355771D02*
X134539047Y-109308152D01*
X134539047Y-109308152D02*
X134729523Y-109308152D01*
X134729523Y-109308152D02*
X134824761Y-109355771D01*
X135253333Y-109974819D02*
X135253333Y-108974819D01*
X135348571Y-109593866D02*
X135634285Y-109974819D01*
X135634285Y-109308152D02*
X135253333Y-109689104D01*
X135824762Y-110070057D02*
X136586666Y-110070057D01*
X136824762Y-109974819D02*
X136824762Y-108974819D01*
X136824762Y-108974819D02*
X137205714Y-108974819D01*
X137205714Y-108974819D02*
X137300952Y-109022438D01*
X137300952Y-109022438D02*
X137348571Y-109070057D01*
X137348571Y-109070057D02*
X137396190Y-109165295D01*
X137396190Y-109165295D02*
X137396190Y-109308152D01*
X137396190Y-109308152D02*
X137348571Y-109403390D01*
X137348571Y-109403390D02*
X137300952Y-109451009D01*
X137300952Y-109451009D02*
X137205714Y-109498628D01*
X137205714Y-109498628D02*
X136824762Y-109498628D01*
X137824762Y-109974819D02*
X137824762Y-109308152D01*
X137824762Y-108974819D02*
X137777143Y-109022438D01*
X137777143Y-109022438D02*
X137824762Y-109070057D01*
X137824762Y-109070057D02*
X137872381Y-109022438D01*
X137872381Y-109022438D02*
X137824762Y-108974819D01*
X137824762Y-108974819D02*
X137824762Y-109070057D01*
X138443809Y-109974819D02*
X138348571Y-109927200D01*
X138348571Y-109927200D02*
X138300952Y-109831961D01*
X138300952Y-109831961D02*
X138300952Y-108974819D01*
X138967619Y-109974819D02*
X138872381Y-109927200D01*
X138872381Y-109927200D02*
X138824762Y-109831961D01*
X138824762Y-109831961D02*
X138824762Y-108974819D01*
X139110477Y-110070057D02*
X139872381Y-110070057D01*
X140062858Y-109927200D02*
X140205715Y-109974819D01*
X140205715Y-109974819D02*
X140443810Y-109974819D01*
X140443810Y-109974819D02*
X140539048Y-109927200D01*
X140539048Y-109927200D02*
X140586667Y-109879580D01*
X140586667Y-109879580D02*
X140634286Y-109784342D01*
X140634286Y-109784342D02*
X140634286Y-109689104D01*
X140634286Y-109689104D02*
X140586667Y-109593866D01*
X140586667Y-109593866D02*
X140539048Y-109546247D01*
X140539048Y-109546247D02*
X140443810Y-109498628D01*
X140443810Y-109498628D02*
X140253334Y-109451009D01*
X140253334Y-109451009D02*
X140158096Y-109403390D01*
X140158096Y-109403390D02*
X140110477Y-109355771D01*
X140110477Y-109355771D02*
X140062858Y-109260533D01*
X140062858Y-109260533D02*
X140062858Y-109165295D01*
X140062858Y-109165295D02*
X140110477Y-109070057D01*
X140110477Y-109070057D02*
X140158096Y-109022438D01*
X140158096Y-109022438D02*
X140253334Y-108974819D01*
X140253334Y-108974819D02*
X140491429Y-108974819D01*
X140491429Y-108974819D02*
X140634286Y-109022438D01*
X140920001Y-108974819D02*
X141491429Y-108974819D01*
X141205715Y-109974819D02*
X141205715Y-108974819D01*
X141824763Y-109974819D02*
X141824763Y-108974819D01*
X141824763Y-108974819D02*
X142158096Y-109689104D01*
X142158096Y-109689104D02*
X142491429Y-108974819D01*
X142491429Y-108974819D02*
X142491429Y-109974819D01*
X142872382Y-108974819D02*
X143491429Y-108974819D01*
X143491429Y-108974819D02*
X143158096Y-109355771D01*
X143158096Y-109355771D02*
X143300953Y-109355771D01*
X143300953Y-109355771D02*
X143396191Y-109403390D01*
X143396191Y-109403390D02*
X143443810Y-109451009D01*
X143443810Y-109451009D02*
X143491429Y-109546247D01*
X143491429Y-109546247D02*
X143491429Y-109784342D01*
X143491429Y-109784342D02*
X143443810Y-109879580D01*
X143443810Y-109879580D02*
X143396191Y-109927200D01*
X143396191Y-109927200D02*
X143300953Y-109974819D01*
X143300953Y-109974819D02*
X143015239Y-109974819D01*
X143015239Y-109974819D02*
X142920001Y-109927200D01*
X142920001Y-109927200D02*
X142872382Y-109879580D01*
X143872382Y-109070057D02*
X143920001Y-109022438D01*
X143920001Y-109022438D02*
X144015239Y-108974819D01*
X144015239Y-108974819D02*
X144253334Y-108974819D01*
X144253334Y-108974819D02*
X144348572Y-109022438D01*
X144348572Y-109022438D02*
X144396191Y-109070057D01*
X144396191Y-109070057D02*
X144443810Y-109165295D01*
X144443810Y-109165295D02*
X144443810Y-109260533D01*
X144443810Y-109260533D02*
X144396191Y-109403390D01*
X144396191Y-109403390D02*
X143824763Y-109974819D01*
X143824763Y-109974819D02*
X144443810Y-109974819D01*
X145205715Y-109451009D02*
X144872382Y-109451009D01*
X144872382Y-109974819D02*
X144872382Y-108974819D01*
X144872382Y-108974819D02*
X145348572Y-108974819D01*
X146158096Y-109308152D02*
X146158096Y-109974819D01*
X145920001Y-108927200D02*
X145681906Y-109641485D01*
X145681906Y-109641485D02*
X146300953Y-109641485D01*
X147205715Y-109974819D02*
X146634287Y-109974819D01*
X146920001Y-109974819D02*
X146920001Y-108974819D01*
X146920001Y-108974819D02*
X146824763Y-109117676D01*
X146824763Y-109117676D02*
X146729525Y-109212914D01*
X146729525Y-109212914D02*
X146634287Y-109260533D01*
X148158096Y-109974819D02*
X147586668Y-109974819D01*
X147872382Y-109974819D02*
X147872382Y-108974819D01*
X147872382Y-108974819D02*
X147777144Y-109117676D01*
X147777144Y-109117676D02*
X147681906Y-109212914D01*
X147681906Y-109212914D02*
X147586668Y-109260533D01*
X149158096Y-109879580D02*
X149110477Y-109927200D01*
X149110477Y-109927200D02*
X148967620Y-109974819D01*
X148967620Y-109974819D02*
X148872382Y-109974819D01*
X148872382Y-109974819D02*
X148729525Y-109927200D01*
X148729525Y-109927200D02*
X148634287Y-109831961D01*
X148634287Y-109831961D02*
X148586668Y-109736723D01*
X148586668Y-109736723D02*
X148539049Y-109546247D01*
X148539049Y-109546247D02*
X148539049Y-109403390D01*
X148539049Y-109403390D02*
X148586668Y-109212914D01*
X148586668Y-109212914D02*
X148634287Y-109117676D01*
X148634287Y-109117676D02*
X148729525Y-109022438D01*
X148729525Y-109022438D02*
X148872382Y-108974819D01*
X148872382Y-108974819D02*
X148967620Y-108974819D01*
X148967620Y-108974819D02*
X149110477Y-109022438D01*
X149110477Y-109022438D02*
X149158096Y-109070057D01*
X149586668Y-109451009D02*
X149920001Y-109451009D01*
X150062858Y-109974819D02*
X149586668Y-109974819D01*
X149586668Y-109974819D02*
X149586668Y-108974819D01*
X149586668Y-108974819D02*
X150062858Y-108974819D01*
X150491430Y-108974819D02*
X150491430Y-109784342D01*
X150491430Y-109784342D02*
X150539049Y-109879580D01*
X150539049Y-109879580D02*
X150586668Y-109927200D01*
X150586668Y-109927200D02*
X150681906Y-109974819D01*
X150681906Y-109974819D02*
X150872382Y-109974819D01*
X150872382Y-109974819D02*
X150967620Y-109927200D01*
X150967620Y-109927200D02*
X151015239Y-109879580D01*
X151015239Y-109879580D02*
X151062858Y-109784342D01*
X151062858Y-109784342D02*
X151062858Y-108974819D01*
X151443811Y-109974819D02*
X151967620Y-109308152D01*
X151443811Y-109308152D02*
X151967620Y-109974819D01*
X148393333Y-123219580D02*
X148345714Y-123267200D01*
X148345714Y-123267200D02*
X148202857Y-123314819D01*
X148202857Y-123314819D02*
X148107619Y-123314819D01*
X148107619Y-123314819D02*
X147964762Y-123267200D01*
X147964762Y-123267200D02*
X147869524Y-123171961D01*
X147869524Y-123171961D02*
X147821905Y-123076723D01*
X147821905Y-123076723D02*
X147774286Y-122886247D01*
X147774286Y-122886247D02*
X147774286Y-122743390D01*
X147774286Y-122743390D02*
X147821905Y-122552914D01*
X147821905Y-122552914D02*
X147869524Y-122457676D01*
X147869524Y-122457676D02*
X147964762Y-122362438D01*
X147964762Y-122362438D02*
X148107619Y-122314819D01*
X148107619Y-122314819D02*
X148202857Y-122314819D01*
X148202857Y-122314819D02*
X148345714Y-122362438D01*
X148345714Y-122362438D02*
X148393333Y-122410057D01*
X149298095Y-122314819D02*
X148821905Y-122314819D01*
X148821905Y-122314819D02*
X148774286Y-122791009D01*
X148774286Y-122791009D02*
X148821905Y-122743390D01*
X148821905Y-122743390D02*
X148917143Y-122695771D01*
X148917143Y-122695771D02*
X149155238Y-122695771D01*
X149155238Y-122695771D02*
X149250476Y-122743390D01*
X149250476Y-122743390D02*
X149298095Y-122791009D01*
X149298095Y-122791009D02*
X149345714Y-122886247D01*
X149345714Y-122886247D02*
X149345714Y-123124342D01*
X149345714Y-123124342D02*
X149298095Y-123219580D01*
X149298095Y-123219580D02*
X149250476Y-123267200D01*
X149250476Y-123267200D02*
X149155238Y-123314819D01*
X149155238Y-123314819D02*
X148917143Y-123314819D01*
X148917143Y-123314819D02*
X148821905Y-123267200D01*
X148821905Y-123267200D02*
X148774286Y-123219580D01*
X147426666Y-117791009D02*
X147093333Y-117791009D01*
X147093333Y-118314819D02*
X147093333Y-117314819D01*
X147093333Y-117314819D02*
X147569523Y-117314819D01*
X148474285Y-118314819D02*
X147902857Y-118314819D01*
X148188571Y-118314819D02*
X148188571Y-117314819D01*
X148188571Y-117314819D02*
X148093333Y-117457676D01*
X148093333Y-117457676D02*
X147998095Y-117552914D01*
X147998095Y-117552914D02*
X147902857Y-117600533D01*
X177742142Y-114127319D02*
X177408809Y-113651128D01*
X177170714Y-114127319D02*
X177170714Y-113127319D01*
X177170714Y-113127319D02*
X177551666Y-113127319D01*
X177551666Y-113127319D02*
X177646904Y-113174938D01*
X177646904Y-113174938D02*
X177694523Y-113222557D01*
X177694523Y-113222557D02*
X177742142Y-113317795D01*
X177742142Y-113317795D02*
X177742142Y-113460652D01*
X177742142Y-113460652D02*
X177694523Y-113555890D01*
X177694523Y-113555890D02*
X177646904Y-113603509D01*
X177646904Y-113603509D02*
X177551666Y-113651128D01*
X177551666Y-113651128D02*
X177170714Y-113651128D01*
X178694523Y-114127319D02*
X178123095Y-114127319D01*
X178408809Y-114127319D02*
X178408809Y-113127319D01*
X178408809Y-113127319D02*
X178313571Y-113270176D01*
X178313571Y-113270176D02*
X178218333Y-113365414D01*
X178218333Y-113365414D02*
X178123095Y-113413033D01*
X179075476Y-113222557D02*
X179123095Y-113174938D01*
X179123095Y-113174938D02*
X179218333Y-113127319D01*
X179218333Y-113127319D02*
X179456428Y-113127319D01*
X179456428Y-113127319D02*
X179551666Y-113174938D01*
X179551666Y-113174938D02*
X179599285Y-113222557D01*
X179599285Y-113222557D02*
X179646904Y-113317795D01*
X179646904Y-113317795D02*
X179646904Y-113413033D01*
X179646904Y-113413033D02*
X179599285Y-113555890D01*
X179599285Y-113555890D02*
X179027857Y-114127319D01*
X179027857Y-114127319D02*
X179646904Y-114127319D01*
X132162142Y-74119580D02*
X132114523Y-74167200D01*
X132114523Y-74167200D02*
X131971666Y-74214819D01*
X131971666Y-74214819D02*
X131876428Y-74214819D01*
X131876428Y-74214819D02*
X131733571Y-74167200D01*
X131733571Y-74167200D02*
X131638333Y-74071961D01*
X131638333Y-74071961D02*
X131590714Y-73976723D01*
X131590714Y-73976723D02*
X131543095Y-73786247D01*
X131543095Y-73786247D02*
X131543095Y-73643390D01*
X131543095Y-73643390D02*
X131590714Y-73452914D01*
X131590714Y-73452914D02*
X131638333Y-73357676D01*
X131638333Y-73357676D02*
X131733571Y-73262438D01*
X131733571Y-73262438D02*
X131876428Y-73214819D01*
X131876428Y-73214819D02*
X131971666Y-73214819D01*
X131971666Y-73214819D02*
X132114523Y-73262438D01*
X132114523Y-73262438D02*
X132162142Y-73310057D01*
X133114523Y-74214819D02*
X132543095Y-74214819D01*
X132828809Y-74214819D02*
X132828809Y-73214819D01*
X132828809Y-73214819D02*
X132733571Y-73357676D01*
X132733571Y-73357676D02*
X132638333Y-73452914D01*
X132638333Y-73452914D02*
X132543095Y-73500533D01*
X134066904Y-74214819D02*
X133495476Y-74214819D01*
X133781190Y-74214819D02*
X133781190Y-73214819D01*
X133781190Y-73214819D02*
X133685952Y-73357676D01*
X133685952Y-73357676D02*
X133590714Y-73452914D01*
X133590714Y-73452914D02*
X133495476Y-73500533D01*
X140943333Y-118219580D02*
X140895714Y-118267200D01*
X140895714Y-118267200D02*
X140752857Y-118314819D01*
X140752857Y-118314819D02*
X140657619Y-118314819D01*
X140657619Y-118314819D02*
X140514762Y-118267200D01*
X140514762Y-118267200D02*
X140419524Y-118171961D01*
X140419524Y-118171961D02*
X140371905Y-118076723D01*
X140371905Y-118076723D02*
X140324286Y-117886247D01*
X140324286Y-117886247D02*
X140324286Y-117743390D01*
X140324286Y-117743390D02*
X140371905Y-117552914D01*
X140371905Y-117552914D02*
X140419524Y-117457676D01*
X140419524Y-117457676D02*
X140514762Y-117362438D01*
X140514762Y-117362438D02*
X140657619Y-117314819D01*
X140657619Y-117314819D02*
X140752857Y-117314819D01*
X140752857Y-117314819D02*
X140895714Y-117362438D01*
X140895714Y-117362438D02*
X140943333Y-117410057D01*
X141276667Y-117314819D02*
X141895714Y-117314819D01*
X141895714Y-117314819D02*
X141562381Y-117695771D01*
X141562381Y-117695771D02*
X141705238Y-117695771D01*
X141705238Y-117695771D02*
X141800476Y-117743390D01*
X141800476Y-117743390D02*
X141848095Y-117791009D01*
X141848095Y-117791009D02*
X141895714Y-117886247D01*
X141895714Y-117886247D02*
X141895714Y-118124342D01*
X141895714Y-118124342D02*
X141848095Y-118219580D01*
X141848095Y-118219580D02*
X141800476Y-118267200D01*
X141800476Y-118267200D02*
X141705238Y-118314819D01*
X141705238Y-118314819D02*
X141419524Y-118314819D01*
X141419524Y-118314819D02*
X141324286Y-118267200D01*
X141324286Y-118267200D02*
X141276667Y-118219580D01*
X157564761Y-71510057D02*
X157469523Y-71462438D01*
X157469523Y-71462438D02*
X157374285Y-71367200D01*
X157374285Y-71367200D02*
X157231428Y-71224342D01*
X157231428Y-71224342D02*
X157136190Y-71176723D01*
X157136190Y-71176723D02*
X157040952Y-71176723D01*
X157088571Y-71414819D02*
X156993333Y-71367200D01*
X156993333Y-71367200D02*
X156898095Y-71271961D01*
X156898095Y-71271961D02*
X156850476Y-71081485D01*
X156850476Y-71081485D02*
X156850476Y-70748152D01*
X156850476Y-70748152D02*
X156898095Y-70557676D01*
X156898095Y-70557676D02*
X156993333Y-70462438D01*
X156993333Y-70462438D02*
X157088571Y-70414819D01*
X157088571Y-70414819D02*
X157279047Y-70414819D01*
X157279047Y-70414819D02*
X157374285Y-70462438D01*
X157374285Y-70462438D02*
X157469523Y-70557676D01*
X157469523Y-70557676D02*
X157517142Y-70748152D01*
X157517142Y-70748152D02*
X157517142Y-71081485D01*
X157517142Y-71081485D02*
X157469523Y-71271961D01*
X157469523Y-71271961D02*
X157374285Y-71367200D01*
X157374285Y-71367200D02*
X157279047Y-71414819D01*
X157279047Y-71414819D02*
X157088571Y-71414819D01*
X157898095Y-70510057D02*
X157945714Y-70462438D01*
X157945714Y-70462438D02*
X158040952Y-70414819D01*
X158040952Y-70414819D02*
X158279047Y-70414819D01*
X158279047Y-70414819D02*
X158374285Y-70462438D01*
X158374285Y-70462438D02*
X158421904Y-70510057D01*
X158421904Y-70510057D02*
X158469523Y-70605295D01*
X158469523Y-70605295D02*
X158469523Y-70700533D01*
X158469523Y-70700533D02*
X158421904Y-70843390D01*
X158421904Y-70843390D02*
X157850476Y-71414819D01*
X157850476Y-71414819D02*
X158469523Y-71414819D01*
X158093333Y-82514819D02*
X157760000Y-82038628D01*
X157521905Y-82514819D02*
X157521905Y-81514819D01*
X157521905Y-81514819D02*
X157902857Y-81514819D01*
X157902857Y-81514819D02*
X157998095Y-81562438D01*
X157998095Y-81562438D02*
X158045714Y-81610057D01*
X158045714Y-81610057D02*
X158093333Y-81705295D01*
X158093333Y-81705295D02*
X158093333Y-81848152D01*
X158093333Y-81848152D02*
X158045714Y-81943390D01*
X158045714Y-81943390D02*
X157998095Y-81991009D01*
X157998095Y-81991009D02*
X157902857Y-82038628D01*
X157902857Y-82038628D02*
X157521905Y-82038628D01*
X158426667Y-81514819D02*
X159093333Y-81514819D01*
X159093333Y-81514819D02*
X158664762Y-82514819D01*
X187493333Y-102519580D02*
X187445714Y-102567200D01*
X187445714Y-102567200D02*
X187302857Y-102614819D01*
X187302857Y-102614819D02*
X187207619Y-102614819D01*
X187207619Y-102614819D02*
X187064762Y-102567200D01*
X187064762Y-102567200D02*
X186969524Y-102471961D01*
X186969524Y-102471961D02*
X186921905Y-102376723D01*
X186921905Y-102376723D02*
X186874286Y-102186247D01*
X186874286Y-102186247D02*
X186874286Y-102043390D01*
X186874286Y-102043390D02*
X186921905Y-101852914D01*
X186921905Y-101852914D02*
X186969524Y-101757676D01*
X186969524Y-101757676D02*
X187064762Y-101662438D01*
X187064762Y-101662438D02*
X187207619Y-101614819D01*
X187207619Y-101614819D02*
X187302857Y-101614819D01*
X187302857Y-101614819D02*
X187445714Y-101662438D01*
X187445714Y-101662438D02*
X187493333Y-101710057D01*
X188350476Y-101614819D02*
X188160000Y-101614819D01*
X188160000Y-101614819D02*
X188064762Y-101662438D01*
X188064762Y-101662438D02*
X188017143Y-101710057D01*
X188017143Y-101710057D02*
X187921905Y-101852914D01*
X187921905Y-101852914D02*
X187874286Y-102043390D01*
X187874286Y-102043390D02*
X187874286Y-102424342D01*
X187874286Y-102424342D02*
X187921905Y-102519580D01*
X187921905Y-102519580D02*
X187969524Y-102567200D01*
X187969524Y-102567200D02*
X188064762Y-102614819D01*
X188064762Y-102614819D02*
X188255238Y-102614819D01*
X188255238Y-102614819D02*
X188350476Y-102567200D01*
X188350476Y-102567200D02*
X188398095Y-102519580D01*
X188398095Y-102519580D02*
X188445714Y-102424342D01*
X188445714Y-102424342D02*
X188445714Y-102186247D01*
X188445714Y-102186247D02*
X188398095Y-102091009D01*
X188398095Y-102091009D02*
X188350476Y-102043390D01*
X188350476Y-102043390D02*
X188255238Y-101995771D01*
X188255238Y-101995771D02*
X188064762Y-101995771D01*
X188064762Y-101995771D02*
X187969524Y-102043390D01*
X187969524Y-102043390D02*
X187921905Y-102091009D01*
X187921905Y-102091009D02*
X187874286Y-102186247D01*
X148326666Y-61814819D02*
X148326666Y-62529104D01*
X148326666Y-62529104D02*
X148279047Y-62671961D01*
X148279047Y-62671961D02*
X148183809Y-62767200D01*
X148183809Y-62767200D02*
X148040952Y-62814819D01*
X148040952Y-62814819D02*
X147945714Y-62814819D01*
X149326666Y-62814819D02*
X148755238Y-62814819D01*
X149040952Y-62814819D02*
X149040952Y-61814819D01*
X149040952Y-61814819D02*
X148945714Y-61957676D01*
X148945714Y-61957676D02*
X148850476Y-62052914D01*
X148850476Y-62052914D02*
X148755238Y-62100533D01*
X145421905Y-131814819D02*
X145421905Y-130814819D01*
X145421905Y-130814819D02*
X145660000Y-130814819D01*
X145660000Y-130814819D02*
X145802857Y-130862438D01*
X145802857Y-130862438D02*
X145898095Y-130957676D01*
X145898095Y-130957676D02*
X145945714Y-131052914D01*
X145945714Y-131052914D02*
X145993333Y-131243390D01*
X145993333Y-131243390D02*
X145993333Y-131386247D01*
X145993333Y-131386247D02*
X145945714Y-131576723D01*
X145945714Y-131576723D02*
X145898095Y-131671961D01*
X145898095Y-131671961D02*
X145802857Y-131767200D01*
X145802857Y-131767200D02*
X145660000Y-131814819D01*
X145660000Y-131814819D02*
X145421905Y-131814819D01*
X146850476Y-131148152D02*
X146850476Y-131814819D01*
X146612381Y-130767200D02*
X146374286Y-131481485D01*
X146374286Y-131481485D02*
X146993333Y-131481485D01*
X137912142Y-74069580D02*
X137864523Y-74117200D01*
X137864523Y-74117200D02*
X137721666Y-74164819D01*
X137721666Y-74164819D02*
X137626428Y-74164819D01*
X137626428Y-74164819D02*
X137483571Y-74117200D01*
X137483571Y-74117200D02*
X137388333Y-74021961D01*
X137388333Y-74021961D02*
X137340714Y-73926723D01*
X137340714Y-73926723D02*
X137293095Y-73736247D01*
X137293095Y-73736247D02*
X137293095Y-73593390D01*
X137293095Y-73593390D02*
X137340714Y-73402914D01*
X137340714Y-73402914D02*
X137388333Y-73307676D01*
X137388333Y-73307676D02*
X137483571Y-73212438D01*
X137483571Y-73212438D02*
X137626428Y-73164819D01*
X137626428Y-73164819D02*
X137721666Y-73164819D01*
X137721666Y-73164819D02*
X137864523Y-73212438D01*
X137864523Y-73212438D02*
X137912142Y-73260057D01*
X138864523Y-74164819D02*
X138293095Y-74164819D01*
X138578809Y-74164819D02*
X138578809Y-73164819D01*
X138578809Y-73164819D02*
X138483571Y-73307676D01*
X138483571Y-73307676D02*
X138388333Y-73402914D01*
X138388333Y-73402914D02*
X138293095Y-73450533D01*
X139483571Y-73164819D02*
X139578809Y-73164819D01*
X139578809Y-73164819D02*
X139674047Y-73212438D01*
X139674047Y-73212438D02*
X139721666Y-73260057D01*
X139721666Y-73260057D02*
X139769285Y-73355295D01*
X139769285Y-73355295D02*
X139816904Y-73545771D01*
X139816904Y-73545771D02*
X139816904Y-73783866D01*
X139816904Y-73783866D02*
X139769285Y-73974342D01*
X139769285Y-73974342D02*
X139721666Y-74069580D01*
X139721666Y-74069580D02*
X139674047Y-74117200D01*
X139674047Y-74117200D02*
X139578809Y-74164819D01*
X139578809Y-74164819D02*
X139483571Y-74164819D01*
X139483571Y-74164819D02*
X139388333Y-74117200D01*
X139388333Y-74117200D02*
X139340714Y-74069580D01*
X139340714Y-74069580D02*
X139293095Y-73974342D01*
X139293095Y-73974342D02*
X139245476Y-73783866D01*
X139245476Y-73783866D02*
X139245476Y-73545771D01*
X139245476Y-73545771D02*
X139293095Y-73355295D01*
X139293095Y-73355295D02*
X139340714Y-73260057D01*
X139340714Y-73260057D02*
X139388333Y-73212438D01*
X139388333Y-73212438D02*
X139483571Y-73164819D01*
X125804642Y-81714819D02*
X125471309Y-81238628D01*
X125233214Y-81714819D02*
X125233214Y-80714819D01*
X125233214Y-80714819D02*
X125614166Y-80714819D01*
X125614166Y-80714819D02*
X125709404Y-80762438D01*
X125709404Y-80762438D02*
X125757023Y-80810057D01*
X125757023Y-80810057D02*
X125804642Y-80905295D01*
X125804642Y-80905295D02*
X125804642Y-81048152D01*
X125804642Y-81048152D02*
X125757023Y-81143390D01*
X125757023Y-81143390D02*
X125709404Y-81191009D01*
X125709404Y-81191009D02*
X125614166Y-81238628D01*
X125614166Y-81238628D02*
X125233214Y-81238628D01*
X126757023Y-81714819D02*
X126185595Y-81714819D01*
X126471309Y-81714819D02*
X126471309Y-80714819D01*
X126471309Y-80714819D02*
X126376071Y-80857676D01*
X126376071Y-80857676D02*
X126280833Y-80952914D01*
X126280833Y-80952914D02*
X126185595Y-81000533D01*
X127661785Y-80714819D02*
X127185595Y-80714819D01*
X127185595Y-80714819D02*
X127137976Y-81191009D01*
X127137976Y-81191009D02*
X127185595Y-81143390D01*
X127185595Y-81143390D02*
X127280833Y-81095771D01*
X127280833Y-81095771D02*
X127518928Y-81095771D01*
X127518928Y-81095771D02*
X127614166Y-81143390D01*
X127614166Y-81143390D02*
X127661785Y-81191009D01*
X127661785Y-81191009D02*
X127709404Y-81286247D01*
X127709404Y-81286247D02*
X127709404Y-81524342D01*
X127709404Y-81524342D02*
X127661785Y-81619580D01*
X127661785Y-81619580D02*
X127614166Y-81667200D01*
X127614166Y-81667200D02*
X127518928Y-81714819D01*
X127518928Y-81714819D02*
X127280833Y-81714819D01*
X127280833Y-81714819D02*
X127185595Y-81667200D01*
X127185595Y-81667200D02*
X127137976Y-81619580D01*
X191684819Y-118071904D02*
X192494342Y-118071904D01*
X192494342Y-118071904D02*
X192589580Y-118024285D01*
X192589580Y-118024285D02*
X192637200Y-117976666D01*
X192637200Y-117976666D02*
X192684819Y-117881428D01*
X192684819Y-117881428D02*
X192684819Y-117690952D01*
X192684819Y-117690952D02*
X192637200Y-117595714D01*
X192637200Y-117595714D02*
X192589580Y-117548095D01*
X192589580Y-117548095D02*
X192494342Y-117500476D01*
X192494342Y-117500476D02*
X191684819Y-117500476D01*
X191684819Y-117119523D02*
X191684819Y-116500476D01*
X191684819Y-116500476D02*
X192065771Y-116833809D01*
X192065771Y-116833809D02*
X192065771Y-116690952D01*
X192065771Y-116690952D02*
X192113390Y-116595714D01*
X192113390Y-116595714D02*
X192161009Y-116548095D01*
X192161009Y-116548095D02*
X192256247Y-116500476D01*
X192256247Y-116500476D02*
X192494342Y-116500476D01*
X192494342Y-116500476D02*
X192589580Y-116548095D01*
X192589580Y-116548095D02*
X192637200Y-116595714D01*
X192637200Y-116595714D02*
X192684819Y-116690952D01*
X192684819Y-116690952D02*
X192684819Y-116976666D01*
X192684819Y-116976666D02*
X192637200Y-117071904D01*
X192637200Y-117071904D02*
X192589580Y-117119523D01*
D12*
X179480200Y-99116265D02*
X179432580Y-99259122D01*
X179432580Y-99259122D02*
X179432580Y-99497217D01*
X179432580Y-99497217D02*
X179480200Y-99592455D01*
X179480200Y-99592455D02*
X179527819Y-99640074D01*
X179527819Y-99640074D02*
X179623057Y-99687693D01*
X179623057Y-99687693D02*
X179718295Y-99687693D01*
X179718295Y-99687693D02*
X179813533Y-99640074D01*
X179813533Y-99640074D02*
X179861152Y-99592455D01*
X179861152Y-99592455D02*
X179908771Y-99497217D01*
X179908771Y-99497217D02*
X179956390Y-99306741D01*
X179956390Y-99306741D02*
X180004009Y-99211503D01*
X180004009Y-99211503D02*
X180051628Y-99163884D01*
X180051628Y-99163884D02*
X180146866Y-99116265D01*
X180146866Y-99116265D02*
X180242104Y-99116265D01*
X180242104Y-99116265D02*
X180337342Y-99163884D01*
X180337342Y-99163884D02*
X180384961Y-99211503D01*
X180384961Y-99211503D02*
X180432580Y-99306741D01*
X180432580Y-99306741D02*
X180432580Y-99544836D01*
X180432580Y-99544836D02*
X180384961Y-99687693D01*
X179432580Y-100592455D02*
X179432580Y-100116265D01*
X179432580Y-100116265D02*
X180432580Y-100116265D01*
X179956390Y-100925789D02*
X179956390Y-101259122D01*
X179432580Y-101401979D02*
X179432580Y-100925789D01*
X179432580Y-100925789D02*
X180432580Y-100925789D01*
X180432580Y-100925789D02*
X180432580Y-101401979D01*
X179956390Y-101830551D02*
X179956390Y-102163884D01*
X179432580Y-102306741D02*
X179432580Y-101830551D01*
X179432580Y-101830551D02*
X180432580Y-101830551D01*
X180432580Y-101830551D02*
X180432580Y-102306741D01*
X179432580Y-102735313D02*
X180432580Y-102735313D01*
X180432580Y-102735313D02*
X180432580Y-103116265D01*
X180432580Y-103116265D02*
X180384961Y-103211503D01*
X180384961Y-103211503D02*
X180337342Y-103259122D01*
X180337342Y-103259122D02*
X180242104Y-103306741D01*
X180242104Y-103306741D02*
X180099247Y-103306741D01*
X180099247Y-103306741D02*
X180004009Y-103259122D01*
X180004009Y-103259122D02*
X179956390Y-103211503D01*
X179956390Y-103211503D02*
X179908771Y-103116265D01*
X179908771Y-103116265D02*
X179908771Y-102735313D01*
X183059961Y-99587693D02*
X183107580Y-99492455D01*
X183107580Y-99492455D02*
X183107580Y-99349598D01*
X183107580Y-99349598D02*
X183059961Y-99206741D01*
X183059961Y-99206741D02*
X182964723Y-99111503D01*
X182964723Y-99111503D02*
X182869485Y-99063884D01*
X182869485Y-99063884D02*
X182679009Y-99016265D01*
X182679009Y-99016265D02*
X182536152Y-99016265D01*
X182536152Y-99016265D02*
X182345676Y-99063884D01*
X182345676Y-99063884D02*
X182250438Y-99111503D01*
X182250438Y-99111503D02*
X182155200Y-99206741D01*
X182155200Y-99206741D02*
X182107580Y-99349598D01*
X182107580Y-99349598D02*
X182107580Y-99444836D01*
X182107580Y-99444836D02*
X182155200Y-99587693D01*
X182155200Y-99587693D02*
X182202819Y-99635312D01*
X182202819Y-99635312D02*
X182536152Y-99635312D01*
X182536152Y-99635312D02*
X182536152Y-99444836D01*
X182107580Y-100063884D02*
X183107580Y-100063884D01*
X183107580Y-100063884D02*
X182107580Y-100635312D01*
X182107580Y-100635312D02*
X183107580Y-100635312D01*
X182107580Y-101111503D02*
X183107580Y-101111503D01*
X183107580Y-101111503D02*
X183107580Y-101349598D01*
X183107580Y-101349598D02*
X183059961Y-101492455D01*
X183059961Y-101492455D02*
X182964723Y-101587693D01*
X182964723Y-101587693D02*
X182869485Y-101635312D01*
X182869485Y-101635312D02*
X182679009Y-101682931D01*
X182679009Y-101682931D02*
X182536152Y-101682931D01*
X182536152Y-101682931D02*
X182345676Y-101635312D01*
X182345676Y-101635312D02*
X182250438Y-101587693D01*
X182250438Y-101587693D02*
X182155200Y-101492455D01*
X182155200Y-101492455D02*
X182107580Y-101349598D01*
X182107580Y-101349598D02*
X182107580Y-101111503D01*
X185707580Y-99021027D02*
X184707580Y-99354360D01*
X184707580Y-99354360D02*
X185707580Y-99687693D01*
X184802819Y-100592455D02*
X184755200Y-100544836D01*
X184755200Y-100544836D02*
X184707580Y-100401979D01*
X184707580Y-100401979D02*
X184707580Y-100306741D01*
X184707580Y-100306741D02*
X184755200Y-100163884D01*
X184755200Y-100163884D02*
X184850438Y-100068646D01*
X184850438Y-100068646D02*
X184945676Y-100021027D01*
X184945676Y-100021027D02*
X185136152Y-99973408D01*
X185136152Y-99973408D02*
X185279009Y-99973408D01*
X185279009Y-99973408D02*
X185469485Y-100021027D01*
X185469485Y-100021027D02*
X185564723Y-100068646D01*
X185564723Y-100068646D02*
X185659961Y-100163884D01*
X185659961Y-100163884D02*
X185707580Y-100306741D01*
X185707580Y-100306741D02*
X185707580Y-100401979D01*
X185707580Y-100401979D02*
X185659961Y-100544836D01*
X185659961Y-100544836D02*
X185612342Y-100592455D01*
X184802819Y-101592455D02*
X184755200Y-101544836D01*
X184755200Y-101544836D02*
X184707580Y-101401979D01*
X184707580Y-101401979D02*
X184707580Y-101306741D01*
X184707580Y-101306741D02*
X184755200Y-101163884D01*
X184755200Y-101163884D02*
X184850438Y-101068646D01*
X184850438Y-101068646D02*
X184945676Y-101021027D01*
X184945676Y-101021027D02*
X185136152Y-100973408D01*
X185136152Y-100973408D02*
X185279009Y-100973408D01*
X185279009Y-100973408D02*
X185469485Y-101021027D01*
X185469485Y-101021027D02*
X185564723Y-101068646D01*
X185564723Y-101068646D02*
X185659961Y-101163884D01*
X185659961Y-101163884D02*
X185707580Y-101306741D01*
X185707580Y-101306741D02*
X185707580Y-101401979D01*
X185707580Y-101401979D02*
X185659961Y-101544836D01*
X185659961Y-101544836D02*
X185612342Y-101592455D01*
X187057580Y-99263884D02*
X188057580Y-99263884D01*
X188057580Y-99263884D02*
X188057580Y-99644836D01*
X188057580Y-99644836D02*
X188009961Y-99740074D01*
X188009961Y-99740074D02*
X187962342Y-99787693D01*
X187962342Y-99787693D02*
X187867104Y-99835312D01*
X187867104Y-99835312D02*
X187724247Y-99835312D01*
X187724247Y-99835312D02*
X187629009Y-99787693D01*
X187629009Y-99787693D02*
X187581390Y-99740074D01*
X187581390Y-99740074D02*
X187533771Y-99644836D01*
X187533771Y-99644836D02*
X187533771Y-99263884D01*
X188057580Y-100168646D02*
X187057580Y-100406741D01*
X187057580Y-100406741D02*
X187771866Y-100597217D01*
X187771866Y-100597217D02*
X187057580Y-100787693D01*
X187057580Y-100787693D02*
X188057580Y-101025789D01*
X187057580Y-101978169D02*
X187533771Y-101644836D01*
X187057580Y-101406741D02*
X188057580Y-101406741D01*
X188057580Y-101406741D02*
X188057580Y-101787693D01*
X188057580Y-101787693D02*
X188009961Y-101882931D01*
X188009961Y-101882931D02*
X187962342Y-101930550D01*
X187962342Y-101930550D02*
X187867104Y-101978169D01*
X187867104Y-101978169D02*
X187724247Y-101978169D01*
X187724247Y-101978169D02*
X187629009Y-101930550D01*
X187629009Y-101930550D02*
X187581390Y-101882931D01*
X187581390Y-101882931D02*
X187533771Y-101787693D01*
X187533771Y-101787693D02*
X187533771Y-101406741D01*
X187057580Y-102406741D02*
X188057580Y-102406741D01*
X187057580Y-102978169D02*
X187629009Y-102549598D01*
X188057580Y-102978169D02*
X187486152Y-102406741D01*
X187581390Y-103406741D02*
X187581390Y-103740074D01*
X187057580Y-103882931D02*
X187057580Y-103406741D01*
X187057580Y-103406741D02*
X188057580Y-103406741D01*
X188057580Y-103406741D02*
X188057580Y-103882931D01*
X187533771Y-104501979D02*
X187057580Y-104501979D01*
X188057580Y-104168646D02*
X187533771Y-104501979D01*
X187533771Y-104501979D02*
X188057580Y-104835312D01*
X190707580Y-99021027D02*
X190707580Y-99592455D01*
X189707580Y-99306741D02*
X190707580Y-99306741D01*
X189707580Y-99830551D02*
X190374247Y-100354360D01*
X190374247Y-99830551D02*
X189707580Y-100354360D01*
X189707580Y-100735313D02*
X190707580Y-100735313D01*
X190707580Y-100735313D02*
X190707580Y-100973408D01*
X190707580Y-100973408D02*
X190659961Y-101116265D01*
X190659961Y-101116265D02*
X190564723Y-101211503D01*
X190564723Y-101211503D02*
X190469485Y-101259122D01*
X190469485Y-101259122D02*
X190279009Y-101306741D01*
X190279009Y-101306741D02*
X190136152Y-101306741D01*
X190136152Y-101306741D02*
X189945676Y-101259122D01*
X189945676Y-101259122D02*
X189850438Y-101211503D01*
X189850438Y-101211503D02*
X189755200Y-101116265D01*
X189755200Y-101116265D02*
X189707580Y-100973408D01*
X189707580Y-100973408D02*
X189707580Y-100735313D01*
X192307580Y-99635312D02*
X192783771Y-99301979D01*
X192307580Y-99063884D02*
X193307580Y-99063884D01*
X193307580Y-99063884D02*
X193307580Y-99444836D01*
X193307580Y-99444836D02*
X193259961Y-99540074D01*
X193259961Y-99540074D02*
X193212342Y-99587693D01*
X193212342Y-99587693D02*
X193117104Y-99635312D01*
X193117104Y-99635312D02*
X192974247Y-99635312D01*
X192974247Y-99635312D02*
X192879009Y-99587693D01*
X192879009Y-99587693D02*
X192831390Y-99540074D01*
X192831390Y-99540074D02*
X192783771Y-99444836D01*
X192783771Y-99444836D02*
X192783771Y-99063884D01*
X192307580Y-99968646D02*
X192974247Y-100492455D01*
X192974247Y-99968646D02*
X192307580Y-100492455D01*
X192307580Y-100873408D02*
X193307580Y-100873408D01*
X193307580Y-100873408D02*
X193307580Y-101111503D01*
X193307580Y-101111503D02*
X193259961Y-101254360D01*
X193259961Y-101254360D02*
X193164723Y-101349598D01*
X193164723Y-101349598D02*
X193069485Y-101397217D01*
X193069485Y-101397217D02*
X192879009Y-101444836D01*
X192879009Y-101444836D02*
X192736152Y-101444836D01*
X192736152Y-101444836D02*
X192545676Y-101397217D01*
X192545676Y-101397217D02*
X192450438Y-101349598D01*
X192450438Y-101349598D02*
X192355200Y-101254360D01*
X192355200Y-101254360D02*
X192307580Y-101111503D01*
X192307580Y-101111503D02*
X192307580Y-100873408D01*
X195859961Y-99587693D02*
X195907580Y-99492455D01*
X195907580Y-99492455D02*
X195907580Y-99349598D01*
X195907580Y-99349598D02*
X195859961Y-99206741D01*
X195859961Y-99206741D02*
X195764723Y-99111503D01*
X195764723Y-99111503D02*
X195669485Y-99063884D01*
X195669485Y-99063884D02*
X195479009Y-99016265D01*
X195479009Y-99016265D02*
X195336152Y-99016265D01*
X195336152Y-99016265D02*
X195145676Y-99063884D01*
X195145676Y-99063884D02*
X195050438Y-99111503D01*
X195050438Y-99111503D02*
X194955200Y-99206741D01*
X194955200Y-99206741D02*
X194907580Y-99349598D01*
X194907580Y-99349598D02*
X194907580Y-99444836D01*
X194907580Y-99444836D02*
X194955200Y-99587693D01*
X194955200Y-99587693D02*
X195002819Y-99635312D01*
X195002819Y-99635312D02*
X195336152Y-99635312D01*
X195336152Y-99635312D02*
X195336152Y-99444836D01*
X194907580Y-100063884D02*
X195907580Y-100063884D01*
X195907580Y-100063884D02*
X194907580Y-100635312D01*
X194907580Y-100635312D02*
X195907580Y-100635312D01*
X194907580Y-101111503D02*
X195907580Y-101111503D01*
X195907580Y-101111503D02*
X195907580Y-101349598D01*
X195907580Y-101349598D02*
X195859961Y-101492455D01*
X195859961Y-101492455D02*
X195764723Y-101587693D01*
X195764723Y-101587693D02*
X195669485Y-101635312D01*
X195669485Y-101635312D02*
X195479009Y-101682931D01*
X195479009Y-101682931D02*
X195336152Y-101682931D01*
X195336152Y-101682931D02*
X195145676Y-101635312D01*
X195145676Y-101635312D02*
X195050438Y-101587693D01*
X195050438Y-101587693D02*
X194955200Y-101492455D01*
X194955200Y-101492455D02*
X194907580Y-101349598D01*
X194907580Y-101349598D02*
X194907580Y-101111503D01*
D11*
X165407916Y-124564819D02*
X165407916Y-125279104D01*
X165407916Y-125279104D02*
X165360297Y-125421961D01*
X165360297Y-125421961D02*
X165265059Y-125517200D01*
X165265059Y-125517200D02*
X165122202Y-125564819D01*
X165122202Y-125564819D02*
X165026964Y-125564819D01*
X165884107Y-125564819D02*
X165884107Y-124564819D01*
X165884107Y-124564819D02*
X166265059Y-124564819D01*
X166265059Y-124564819D02*
X166360297Y-124612438D01*
X166360297Y-124612438D02*
X166407916Y-124660057D01*
X166407916Y-124660057D02*
X166455535Y-124755295D01*
X166455535Y-124755295D02*
X166455535Y-124898152D01*
X166455535Y-124898152D02*
X166407916Y-124993390D01*
X166407916Y-124993390D02*
X166360297Y-125041009D01*
X166360297Y-125041009D02*
X166265059Y-125088628D01*
X166265059Y-125088628D02*
X165884107Y-125088628D01*
X167360297Y-124564819D02*
X166884107Y-124564819D01*
X166884107Y-124564819D02*
X166836488Y-125041009D01*
X166836488Y-125041009D02*
X166884107Y-124993390D01*
X166884107Y-124993390D02*
X166979345Y-124945771D01*
X166979345Y-124945771D02*
X167217440Y-124945771D01*
X167217440Y-124945771D02*
X167312678Y-124993390D01*
X167312678Y-124993390D02*
X167360297Y-125041009D01*
X167360297Y-125041009D02*
X167407916Y-125136247D01*
X167407916Y-125136247D02*
X167407916Y-125374342D01*
X167407916Y-125374342D02*
X167360297Y-125469580D01*
X167360297Y-125469580D02*
X167312678Y-125517200D01*
X167312678Y-125517200D02*
X167217440Y-125564819D01*
X167217440Y-125564819D02*
X166979345Y-125564819D01*
X166979345Y-125564819D02*
X166884107Y-125517200D01*
X166884107Y-125517200D02*
X166836488Y-125469580D01*
X158193333Y-80514819D02*
X157860000Y-80038628D01*
X157621905Y-80514819D02*
X157621905Y-79514819D01*
X157621905Y-79514819D02*
X158002857Y-79514819D01*
X158002857Y-79514819D02*
X158098095Y-79562438D01*
X158098095Y-79562438D02*
X158145714Y-79610057D01*
X158145714Y-79610057D02*
X158193333Y-79705295D01*
X158193333Y-79705295D02*
X158193333Y-79848152D01*
X158193333Y-79848152D02*
X158145714Y-79943390D01*
X158145714Y-79943390D02*
X158098095Y-79991009D01*
X158098095Y-79991009D02*
X158002857Y-80038628D01*
X158002857Y-80038628D02*
X157621905Y-80038628D01*
X159050476Y-79514819D02*
X158860000Y-79514819D01*
X158860000Y-79514819D02*
X158764762Y-79562438D01*
X158764762Y-79562438D02*
X158717143Y-79610057D01*
X158717143Y-79610057D02*
X158621905Y-79752914D01*
X158621905Y-79752914D02*
X158574286Y-79943390D01*
X158574286Y-79943390D02*
X158574286Y-80324342D01*
X158574286Y-80324342D02*
X158621905Y-80419580D01*
X158621905Y-80419580D02*
X158669524Y-80467200D01*
X158669524Y-80467200D02*
X158764762Y-80514819D01*
X158764762Y-80514819D02*
X158955238Y-80514819D01*
X158955238Y-80514819D02*
X159050476Y-80467200D01*
X159050476Y-80467200D02*
X159098095Y-80419580D01*
X159098095Y-80419580D02*
X159145714Y-80324342D01*
X159145714Y-80324342D02*
X159145714Y-80086247D01*
X159145714Y-80086247D02*
X159098095Y-79991009D01*
X159098095Y-79991009D02*
X159050476Y-79943390D01*
X159050476Y-79943390D02*
X158955238Y-79895771D01*
X158955238Y-79895771D02*
X158764762Y-79895771D01*
X158764762Y-79895771D02*
X158669524Y-79943390D01*
X158669524Y-79943390D02*
X158621905Y-79991009D01*
X158621905Y-79991009D02*
X158574286Y-80086247D01*
X117717142Y-87319580D02*
X117669523Y-87367200D01*
X117669523Y-87367200D02*
X117526666Y-87414819D01*
X117526666Y-87414819D02*
X117431428Y-87414819D01*
X117431428Y-87414819D02*
X117288571Y-87367200D01*
X117288571Y-87367200D02*
X117193333Y-87271961D01*
X117193333Y-87271961D02*
X117145714Y-87176723D01*
X117145714Y-87176723D02*
X117098095Y-86986247D01*
X117098095Y-86986247D02*
X117098095Y-86843390D01*
X117098095Y-86843390D02*
X117145714Y-86652914D01*
X117145714Y-86652914D02*
X117193333Y-86557676D01*
X117193333Y-86557676D02*
X117288571Y-86462438D01*
X117288571Y-86462438D02*
X117431428Y-86414819D01*
X117431428Y-86414819D02*
X117526666Y-86414819D01*
X117526666Y-86414819D02*
X117669523Y-86462438D01*
X117669523Y-86462438D02*
X117717142Y-86510057D01*
X118669523Y-87414819D02*
X118098095Y-87414819D01*
X118383809Y-87414819D02*
X118383809Y-86414819D01*
X118383809Y-86414819D02*
X118288571Y-86557676D01*
X118288571Y-86557676D02*
X118193333Y-86652914D01*
X118193333Y-86652914D02*
X118098095Y-86700533D01*
X119002857Y-86414819D02*
X119621904Y-86414819D01*
X119621904Y-86414819D02*
X119288571Y-86795771D01*
X119288571Y-86795771D02*
X119431428Y-86795771D01*
X119431428Y-86795771D02*
X119526666Y-86843390D01*
X119526666Y-86843390D02*
X119574285Y-86891009D01*
X119574285Y-86891009D02*
X119621904Y-86986247D01*
X119621904Y-86986247D02*
X119621904Y-87224342D01*
X119621904Y-87224342D02*
X119574285Y-87319580D01*
X119574285Y-87319580D02*
X119526666Y-87367200D01*
X119526666Y-87367200D02*
X119431428Y-87414819D01*
X119431428Y-87414819D02*
X119145714Y-87414819D01*
X119145714Y-87414819D02*
X119050476Y-87367200D01*
X119050476Y-87367200D02*
X119002857Y-87319580D01*
X125804642Y-84014819D02*
X125471309Y-83538628D01*
X125233214Y-84014819D02*
X125233214Y-83014819D01*
X125233214Y-83014819D02*
X125614166Y-83014819D01*
X125614166Y-83014819D02*
X125709404Y-83062438D01*
X125709404Y-83062438D02*
X125757023Y-83110057D01*
X125757023Y-83110057D02*
X125804642Y-83205295D01*
X125804642Y-83205295D02*
X125804642Y-83348152D01*
X125804642Y-83348152D02*
X125757023Y-83443390D01*
X125757023Y-83443390D02*
X125709404Y-83491009D01*
X125709404Y-83491009D02*
X125614166Y-83538628D01*
X125614166Y-83538628D02*
X125233214Y-83538628D01*
X126757023Y-84014819D02*
X126185595Y-84014819D01*
X126471309Y-84014819D02*
X126471309Y-83014819D01*
X126471309Y-83014819D02*
X126376071Y-83157676D01*
X126376071Y-83157676D02*
X126280833Y-83252914D01*
X126280833Y-83252914D02*
X126185595Y-83300533D01*
X127614166Y-83348152D02*
X127614166Y-84014819D01*
X127376071Y-82967200D02*
X127137976Y-83681485D01*
X127137976Y-83681485D02*
X127757023Y-83681485D01*
D13*
X141884809Y-134781428D02*
X141646714Y-134948094D01*
X141884809Y-135067142D02*
X141384809Y-135067142D01*
X141384809Y-135067142D02*
X141384809Y-134876666D01*
X141384809Y-134876666D02*
X141408619Y-134829047D01*
X141408619Y-134829047D02*
X141432428Y-134805237D01*
X141432428Y-134805237D02*
X141480047Y-134781428D01*
X141480047Y-134781428D02*
X141551476Y-134781428D01*
X141551476Y-134781428D02*
X141599095Y-134805237D01*
X141599095Y-134805237D02*
X141622904Y-134829047D01*
X141622904Y-134829047D02*
X141646714Y-134876666D01*
X141646714Y-134876666D02*
X141646714Y-135067142D01*
X141432428Y-134590951D02*
X141408619Y-134567142D01*
X141408619Y-134567142D02*
X141384809Y-134519523D01*
X141384809Y-134519523D02*
X141384809Y-134400475D01*
X141384809Y-134400475D02*
X141408619Y-134352856D01*
X141408619Y-134352856D02*
X141432428Y-134329047D01*
X141432428Y-134329047D02*
X141480047Y-134305237D01*
X141480047Y-134305237D02*
X141527666Y-134305237D01*
X141527666Y-134305237D02*
X141599095Y-134329047D01*
X141599095Y-134329047D02*
X141884809Y-134614761D01*
X141884809Y-134614761D02*
X141884809Y-134305237D01*
X141384809Y-133995714D02*
X141384809Y-133948095D01*
X141384809Y-133948095D02*
X141408619Y-133900476D01*
X141408619Y-133900476D02*
X141432428Y-133876666D01*
X141432428Y-133876666D02*
X141480047Y-133852857D01*
X141480047Y-133852857D02*
X141575285Y-133829047D01*
X141575285Y-133829047D02*
X141694333Y-133829047D01*
X141694333Y-133829047D02*
X141789571Y-133852857D01*
X141789571Y-133852857D02*
X141837190Y-133876666D01*
X141837190Y-133876666D02*
X141861000Y-133900476D01*
X141861000Y-133900476D02*
X141884809Y-133948095D01*
X141884809Y-133948095D02*
X141884809Y-133995714D01*
X141884809Y-133995714D02*
X141861000Y-134043333D01*
X141861000Y-134043333D02*
X141837190Y-134067142D01*
X141837190Y-134067142D02*
X141789571Y-134090952D01*
X141789571Y-134090952D02*
X141694333Y-134114761D01*
X141694333Y-134114761D02*
X141575285Y-134114761D01*
X141575285Y-134114761D02*
X141480047Y-134090952D01*
X141480047Y-134090952D02*
X141432428Y-134067142D01*
X141432428Y-134067142D02*
X141408619Y-134043333D01*
X141408619Y-134043333D02*
X141384809Y-133995714D01*
D11*
X127664819Y-108826666D02*
X127188628Y-109159999D01*
X127664819Y-109398094D02*
X126664819Y-109398094D01*
X126664819Y-109398094D02*
X126664819Y-109017142D01*
X126664819Y-109017142D02*
X126712438Y-108921904D01*
X126712438Y-108921904D02*
X126760057Y-108874285D01*
X126760057Y-108874285D02*
X126855295Y-108826666D01*
X126855295Y-108826666D02*
X126998152Y-108826666D01*
X126998152Y-108826666D02*
X127093390Y-108874285D01*
X127093390Y-108874285D02*
X127141009Y-108921904D01*
X127141009Y-108921904D02*
X127188628Y-109017142D01*
X127188628Y-109017142D02*
X127188628Y-109398094D01*
X127093390Y-108255237D02*
X127045771Y-108350475D01*
X127045771Y-108350475D02*
X126998152Y-108398094D01*
X126998152Y-108398094D02*
X126902914Y-108445713D01*
X126902914Y-108445713D02*
X126855295Y-108445713D01*
X126855295Y-108445713D02*
X126760057Y-108398094D01*
X126760057Y-108398094D02*
X126712438Y-108350475D01*
X126712438Y-108350475D02*
X126664819Y-108255237D01*
X126664819Y-108255237D02*
X126664819Y-108064761D01*
X126664819Y-108064761D02*
X126712438Y-107969523D01*
X126712438Y-107969523D02*
X126760057Y-107921904D01*
X126760057Y-107921904D02*
X126855295Y-107874285D01*
X126855295Y-107874285D02*
X126902914Y-107874285D01*
X126902914Y-107874285D02*
X126998152Y-107921904D01*
X126998152Y-107921904D02*
X127045771Y-107969523D01*
X127045771Y-107969523D02*
X127093390Y-108064761D01*
X127093390Y-108064761D02*
X127093390Y-108255237D01*
X127093390Y-108255237D02*
X127141009Y-108350475D01*
X127141009Y-108350475D02*
X127188628Y-108398094D01*
X127188628Y-108398094D02*
X127283866Y-108445713D01*
X127283866Y-108445713D02*
X127474342Y-108445713D01*
X127474342Y-108445713D02*
X127569580Y-108398094D01*
X127569580Y-108398094D02*
X127617200Y-108350475D01*
X127617200Y-108350475D02*
X127664819Y-108255237D01*
X127664819Y-108255237D02*
X127664819Y-108064761D01*
X127664819Y-108064761D02*
X127617200Y-107969523D01*
X127617200Y-107969523D02*
X127569580Y-107921904D01*
X127569580Y-107921904D02*
X127474342Y-107874285D01*
X127474342Y-107874285D02*
X127283866Y-107874285D01*
X127283866Y-107874285D02*
X127188628Y-107921904D01*
X127188628Y-107921904D02*
X127141009Y-107969523D01*
X127141009Y-107969523D02*
X127093390Y-108064761D01*
X178024819Y-88493333D02*
X178739104Y-88493333D01*
X178739104Y-88493333D02*
X178881961Y-88540952D01*
X178881961Y-88540952D02*
X178977200Y-88636190D01*
X178977200Y-88636190D02*
X179024819Y-88779047D01*
X179024819Y-88779047D02*
X179024819Y-88874285D01*
X179024819Y-88017142D02*
X178024819Y-88017142D01*
X178024819Y-88017142D02*
X178024819Y-87636190D01*
X178024819Y-87636190D02*
X178072438Y-87540952D01*
X178072438Y-87540952D02*
X178120057Y-87493333D01*
X178120057Y-87493333D02*
X178215295Y-87445714D01*
X178215295Y-87445714D02*
X178358152Y-87445714D01*
X178358152Y-87445714D02*
X178453390Y-87493333D01*
X178453390Y-87493333D02*
X178501009Y-87540952D01*
X178501009Y-87540952D02*
X178548628Y-87636190D01*
X178548628Y-87636190D02*
X178548628Y-88017142D01*
X178120057Y-87064761D02*
X178072438Y-87017142D01*
X178072438Y-87017142D02*
X178024819Y-86921904D01*
X178024819Y-86921904D02*
X178024819Y-86683809D01*
X178024819Y-86683809D02*
X178072438Y-86588571D01*
X178072438Y-86588571D02*
X178120057Y-86540952D01*
X178120057Y-86540952D02*
X178215295Y-86493333D01*
X178215295Y-86493333D02*
X178310533Y-86493333D01*
X178310533Y-86493333D02*
X178453390Y-86540952D01*
X178453390Y-86540952D02*
X179024819Y-87112380D01*
X179024819Y-87112380D02*
X179024819Y-86493333D01*
D13*
X141884809Y-133181428D02*
X141646714Y-133348094D01*
X141884809Y-133467142D02*
X141384809Y-133467142D01*
X141384809Y-133467142D02*
X141384809Y-133276666D01*
X141384809Y-133276666D02*
X141408619Y-133229047D01*
X141408619Y-133229047D02*
X141432428Y-133205237D01*
X141432428Y-133205237D02*
X141480047Y-133181428D01*
X141480047Y-133181428D02*
X141551476Y-133181428D01*
X141551476Y-133181428D02*
X141599095Y-133205237D01*
X141599095Y-133205237D02*
X141622904Y-133229047D01*
X141622904Y-133229047D02*
X141646714Y-133276666D01*
X141646714Y-133276666D02*
X141646714Y-133467142D01*
X141884809Y-132705237D02*
X141884809Y-132990951D01*
X141884809Y-132848094D02*
X141384809Y-132848094D01*
X141384809Y-132848094D02*
X141456238Y-132895713D01*
X141456238Y-132895713D02*
X141503857Y-132943332D01*
X141503857Y-132943332D02*
X141527666Y-132990951D01*
X141884809Y-132467142D02*
X141884809Y-132371904D01*
X141884809Y-132371904D02*
X141861000Y-132324285D01*
X141861000Y-132324285D02*
X141837190Y-132300476D01*
X141837190Y-132300476D02*
X141765761Y-132252857D01*
X141765761Y-132252857D02*
X141670523Y-132229047D01*
X141670523Y-132229047D02*
X141480047Y-132229047D01*
X141480047Y-132229047D02*
X141432428Y-132252857D01*
X141432428Y-132252857D02*
X141408619Y-132276666D01*
X141408619Y-132276666D02*
X141384809Y-132324285D01*
X141384809Y-132324285D02*
X141384809Y-132419523D01*
X141384809Y-132419523D02*
X141408619Y-132467142D01*
X141408619Y-132467142D02*
X141432428Y-132490952D01*
X141432428Y-132490952D02*
X141480047Y-132514761D01*
X141480047Y-132514761D02*
X141599095Y-132514761D01*
X141599095Y-132514761D02*
X141646714Y-132490952D01*
X141646714Y-132490952D02*
X141670523Y-132467142D01*
X141670523Y-132467142D02*
X141694333Y-132419523D01*
X141694333Y-132419523D02*
X141694333Y-132324285D01*
X141694333Y-132324285D02*
X141670523Y-132276666D01*
X141670523Y-132276666D02*
X141646714Y-132252857D01*
X141646714Y-132252857D02*
X141599095Y-132229047D01*
D11*
X190016666Y-141984819D02*
X190016666Y-142699104D01*
X190016666Y-142699104D02*
X189969047Y-142841961D01*
X189969047Y-142841961D02*
X189873809Y-142937200D01*
X189873809Y-142937200D02*
X189730952Y-142984819D01*
X189730952Y-142984819D02*
X189635714Y-142984819D01*
X190921428Y-142318152D02*
X190921428Y-142984819D01*
X190683333Y-141937200D02*
X190445238Y-142651485D01*
X190445238Y-142651485D02*
X191064285Y-142651485D01*
X146293333Y-129242319D02*
X145960000Y-128766128D01*
X145721905Y-129242319D02*
X145721905Y-128242319D01*
X145721905Y-128242319D02*
X146102857Y-128242319D01*
X146102857Y-128242319D02*
X146198095Y-128289938D01*
X146198095Y-128289938D02*
X146245714Y-128337557D01*
X146245714Y-128337557D02*
X146293333Y-128432795D01*
X146293333Y-128432795D02*
X146293333Y-128575652D01*
X146293333Y-128575652D02*
X146245714Y-128670890D01*
X146245714Y-128670890D02*
X146198095Y-128718509D01*
X146198095Y-128718509D02*
X146102857Y-128766128D01*
X146102857Y-128766128D02*
X145721905Y-128766128D01*
X147245714Y-129242319D02*
X146674286Y-129242319D01*
X146960000Y-129242319D02*
X146960000Y-128242319D01*
X146960000Y-128242319D02*
X146864762Y-128385176D01*
X146864762Y-128385176D02*
X146769524Y-128480414D01*
X146769524Y-128480414D02*
X146674286Y-128528033D01*
X155547142Y-124639819D02*
X155213809Y-124163628D01*
X154975714Y-124639819D02*
X154975714Y-123639819D01*
X154975714Y-123639819D02*
X155356666Y-123639819D01*
X155356666Y-123639819D02*
X155451904Y-123687438D01*
X155451904Y-123687438D02*
X155499523Y-123735057D01*
X155499523Y-123735057D02*
X155547142Y-123830295D01*
X155547142Y-123830295D02*
X155547142Y-123973152D01*
X155547142Y-123973152D02*
X155499523Y-124068390D01*
X155499523Y-124068390D02*
X155451904Y-124116009D01*
X155451904Y-124116009D02*
X155356666Y-124163628D01*
X155356666Y-124163628D02*
X154975714Y-124163628D01*
X156499523Y-124639819D02*
X155928095Y-124639819D01*
X156213809Y-124639819D02*
X156213809Y-123639819D01*
X156213809Y-123639819D02*
X156118571Y-123782676D01*
X156118571Y-123782676D02*
X156023333Y-123877914D01*
X156023333Y-123877914D02*
X155928095Y-123925533D01*
X156832857Y-123639819D02*
X157451904Y-123639819D01*
X157451904Y-123639819D02*
X157118571Y-124020771D01*
X157118571Y-124020771D02*
X157261428Y-124020771D01*
X157261428Y-124020771D02*
X157356666Y-124068390D01*
X157356666Y-124068390D02*
X157404285Y-124116009D01*
X157404285Y-124116009D02*
X157451904Y-124211247D01*
X157451904Y-124211247D02*
X157451904Y-124449342D01*
X157451904Y-124449342D02*
X157404285Y-124544580D01*
X157404285Y-124544580D02*
X157356666Y-124592200D01*
X157356666Y-124592200D02*
X157261428Y-124639819D01*
X157261428Y-124639819D02*
X156975714Y-124639819D01*
X156975714Y-124639819D02*
X156880476Y-124592200D01*
X156880476Y-124592200D02*
X156832857Y-124544580D01*
X179698095Y-74114819D02*
X179698095Y-74924342D01*
X179698095Y-74924342D02*
X179745714Y-75019580D01*
X179745714Y-75019580D02*
X179793333Y-75067200D01*
X179793333Y-75067200D02*
X179888571Y-75114819D01*
X179888571Y-75114819D02*
X180079047Y-75114819D01*
X180079047Y-75114819D02*
X180174285Y-75067200D01*
X180174285Y-75067200D02*
X180221904Y-75019580D01*
X180221904Y-75019580D02*
X180269523Y-74924342D01*
X180269523Y-74924342D02*
X180269523Y-74114819D01*
X181174285Y-74114819D02*
X180983809Y-74114819D01*
X180983809Y-74114819D02*
X180888571Y-74162438D01*
X180888571Y-74162438D02*
X180840952Y-74210057D01*
X180840952Y-74210057D02*
X180745714Y-74352914D01*
X180745714Y-74352914D02*
X180698095Y-74543390D01*
X180698095Y-74543390D02*
X180698095Y-74924342D01*
X180698095Y-74924342D02*
X180745714Y-75019580D01*
X180745714Y-75019580D02*
X180793333Y-75067200D01*
X180793333Y-75067200D02*
X180888571Y-75114819D01*
X180888571Y-75114819D02*
X181079047Y-75114819D01*
X181079047Y-75114819D02*
X181174285Y-75067200D01*
X181174285Y-75067200D02*
X181221904Y-75019580D01*
X181221904Y-75019580D02*
X181269523Y-74924342D01*
X181269523Y-74924342D02*
X181269523Y-74686247D01*
X181269523Y-74686247D02*
X181221904Y-74591009D01*
X181221904Y-74591009D02*
X181174285Y-74543390D01*
X181174285Y-74543390D02*
X181079047Y-74495771D01*
X181079047Y-74495771D02*
X180888571Y-74495771D01*
X180888571Y-74495771D02*
X180793333Y-74543390D01*
X180793333Y-74543390D02*
X180745714Y-74591009D01*
X180745714Y-74591009D02*
X180698095Y-74686247D01*
X175621903Y-77414819D02*
X175145713Y-77414819D01*
X175145713Y-77414819D02*
X175145713Y-76414819D01*
X175955237Y-77414819D02*
X175955237Y-76414819D01*
X175955237Y-76414819D02*
X176288570Y-77129104D01*
X176288570Y-77129104D02*
X176621903Y-76414819D01*
X176621903Y-76414819D02*
X176621903Y-77414819D01*
X177050475Y-76510057D02*
X177098094Y-76462438D01*
X177098094Y-76462438D02*
X177193332Y-76414819D01*
X177193332Y-76414819D02*
X177431427Y-76414819D01*
X177431427Y-76414819D02*
X177526665Y-76462438D01*
X177526665Y-76462438D02*
X177574284Y-76510057D01*
X177574284Y-76510057D02*
X177621903Y-76605295D01*
X177621903Y-76605295D02*
X177621903Y-76700533D01*
X177621903Y-76700533D02*
X177574284Y-76843390D01*
X177574284Y-76843390D02*
X177002856Y-77414819D01*
X177002856Y-77414819D02*
X177621903Y-77414819D01*
X178526665Y-76414819D02*
X178050475Y-76414819D01*
X178050475Y-76414819D02*
X178002856Y-76891009D01*
X178002856Y-76891009D02*
X178050475Y-76843390D01*
X178050475Y-76843390D02*
X178145713Y-76795771D01*
X178145713Y-76795771D02*
X178383808Y-76795771D01*
X178383808Y-76795771D02*
X178479046Y-76843390D01*
X178479046Y-76843390D02*
X178526665Y-76891009D01*
X178526665Y-76891009D02*
X178574284Y-76986247D01*
X178574284Y-76986247D02*
X178574284Y-77224342D01*
X178574284Y-77224342D02*
X178526665Y-77319580D01*
X178526665Y-77319580D02*
X178479046Y-77367200D01*
X178479046Y-77367200D02*
X178383808Y-77414819D01*
X178383808Y-77414819D02*
X178145713Y-77414819D01*
X178145713Y-77414819D02*
X178050475Y-77367200D01*
X178050475Y-77367200D02*
X178002856Y-77319580D01*
X179050475Y-77414819D02*
X179240951Y-77414819D01*
X179240951Y-77414819D02*
X179336189Y-77367200D01*
X179336189Y-77367200D02*
X179383808Y-77319580D01*
X179383808Y-77319580D02*
X179479046Y-77176723D01*
X179479046Y-77176723D02*
X179526665Y-76986247D01*
X179526665Y-76986247D02*
X179526665Y-76605295D01*
X179526665Y-76605295D02*
X179479046Y-76510057D01*
X179479046Y-76510057D02*
X179431427Y-76462438D01*
X179431427Y-76462438D02*
X179336189Y-76414819D01*
X179336189Y-76414819D02*
X179145713Y-76414819D01*
X179145713Y-76414819D02*
X179050475Y-76462438D01*
X179050475Y-76462438D02*
X179002856Y-76510057D01*
X179002856Y-76510057D02*
X178955237Y-76605295D01*
X178955237Y-76605295D02*
X178955237Y-76843390D01*
X178955237Y-76843390D02*
X179002856Y-76938628D01*
X179002856Y-76938628D02*
X179050475Y-76986247D01*
X179050475Y-76986247D02*
X179145713Y-77033866D01*
X179145713Y-77033866D02*
X179336189Y-77033866D01*
X179336189Y-77033866D02*
X179431427Y-76986247D01*
X179431427Y-76986247D02*
X179479046Y-76938628D01*
X179479046Y-76938628D02*
X179526665Y-76843390D01*
X180383808Y-76414819D02*
X180193332Y-76414819D01*
X180193332Y-76414819D02*
X180098094Y-76462438D01*
X180098094Y-76462438D02*
X180050475Y-76510057D01*
X180050475Y-76510057D02*
X179955237Y-76652914D01*
X179955237Y-76652914D02*
X179907618Y-76843390D01*
X179907618Y-76843390D02*
X179907618Y-77224342D01*
X179907618Y-77224342D02*
X179955237Y-77319580D01*
X179955237Y-77319580D02*
X180002856Y-77367200D01*
X180002856Y-77367200D02*
X180098094Y-77414819D01*
X180098094Y-77414819D02*
X180288570Y-77414819D01*
X180288570Y-77414819D02*
X180383808Y-77367200D01*
X180383808Y-77367200D02*
X180431427Y-77319580D01*
X180431427Y-77319580D02*
X180479046Y-77224342D01*
X180479046Y-77224342D02*
X180479046Y-76986247D01*
X180479046Y-76986247D02*
X180431427Y-76891009D01*
X180431427Y-76891009D02*
X180383808Y-76843390D01*
X180383808Y-76843390D02*
X180288570Y-76795771D01*
X180288570Y-76795771D02*
X180098094Y-76795771D01*
X180098094Y-76795771D02*
X180002856Y-76843390D01*
X180002856Y-76843390D02*
X179955237Y-76891009D01*
X179955237Y-76891009D02*
X179907618Y-76986247D01*
X180859999Y-77367200D02*
X181002856Y-77414819D01*
X181002856Y-77414819D02*
X181240951Y-77414819D01*
X181240951Y-77414819D02*
X181336189Y-77367200D01*
X181336189Y-77367200D02*
X181383808Y-77319580D01*
X181383808Y-77319580D02*
X181431427Y-77224342D01*
X181431427Y-77224342D02*
X181431427Y-77129104D01*
X181431427Y-77129104D02*
X181383808Y-77033866D01*
X181383808Y-77033866D02*
X181336189Y-76986247D01*
X181336189Y-76986247D02*
X181240951Y-76938628D01*
X181240951Y-76938628D02*
X181050475Y-76891009D01*
X181050475Y-76891009D02*
X180955237Y-76843390D01*
X180955237Y-76843390D02*
X180907618Y-76795771D01*
X180907618Y-76795771D02*
X180859999Y-76700533D01*
X180859999Y-76700533D02*
X180859999Y-76605295D01*
X180859999Y-76605295D02*
X180907618Y-76510057D01*
X180907618Y-76510057D02*
X180955237Y-76462438D01*
X180955237Y-76462438D02*
X181050475Y-76414819D01*
X181050475Y-76414819D02*
X181288570Y-76414819D01*
X181288570Y-76414819D02*
X181431427Y-76462438D01*
X181621904Y-77510057D02*
X182383808Y-77510057D01*
X182621904Y-77414819D02*
X182621904Y-76414819D01*
X182621904Y-76414819D02*
X182955237Y-77129104D01*
X182955237Y-77129104D02*
X183288570Y-76414819D01*
X183288570Y-76414819D02*
X183288570Y-77414819D01*
X183907618Y-77414819D02*
X183812380Y-77367200D01*
X183812380Y-77367200D02*
X183764761Y-77319580D01*
X183764761Y-77319580D02*
X183717142Y-77224342D01*
X183717142Y-77224342D02*
X183717142Y-76938628D01*
X183717142Y-76938628D02*
X183764761Y-76843390D01*
X183764761Y-76843390D02*
X183812380Y-76795771D01*
X183812380Y-76795771D02*
X183907618Y-76748152D01*
X183907618Y-76748152D02*
X184050475Y-76748152D01*
X184050475Y-76748152D02*
X184145713Y-76795771D01*
X184145713Y-76795771D02*
X184193332Y-76843390D01*
X184193332Y-76843390D02*
X184240951Y-76938628D01*
X184240951Y-76938628D02*
X184240951Y-77224342D01*
X184240951Y-77224342D02*
X184193332Y-77319580D01*
X184193332Y-77319580D02*
X184145713Y-77367200D01*
X184145713Y-77367200D02*
X184050475Y-77414819D01*
X184050475Y-77414819D02*
X183907618Y-77414819D01*
X185098094Y-77414819D02*
X185098094Y-76414819D01*
X185098094Y-77367200D02*
X185002856Y-77414819D01*
X185002856Y-77414819D02*
X184812380Y-77414819D01*
X184812380Y-77414819D02*
X184717142Y-77367200D01*
X184717142Y-77367200D02*
X184669523Y-77319580D01*
X184669523Y-77319580D02*
X184621904Y-77224342D01*
X184621904Y-77224342D02*
X184621904Y-76938628D01*
X184621904Y-76938628D02*
X184669523Y-76843390D01*
X184669523Y-76843390D02*
X184717142Y-76795771D01*
X184717142Y-76795771D02*
X184812380Y-76748152D01*
X184812380Y-76748152D02*
X185002856Y-76748152D01*
X185002856Y-76748152D02*
X185098094Y-76795771D01*
X186002856Y-76748152D02*
X186002856Y-77414819D01*
X185574285Y-76748152D02*
X185574285Y-77271961D01*
X185574285Y-77271961D02*
X185621904Y-77367200D01*
X185621904Y-77367200D02*
X185717142Y-77414819D01*
X185717142Y-77414819D02*
X185859999Y-77414819D01*
X185859999Y-77414819D02*
X185955237Y-77367200D01*
X185955237Y-77367200D02*
X186002856Y-77319580D01*
X186621904Y-77414819D02*
X186526666Y-77367200D01*
X186526666Y-77367200D02*
X186479047Y-77271961D01*
X186479047Y-77271961D02*
X186479047Y-76414819D01*
X187145714Y-77414819D02*
X187050476Y-77367200D01*
X187050476Y-77367200D02*
X187002857Y-77319580D01*
X187002857Y-77319580D02*
X186955238Y-77224342D01*
X186955238Y-77224342D02*
X186955238Y-76938628D01*
X186955238Y-76938628D02*
X187002857Y-76843390D01*
X187002857Y-76843390D02*
X187050476Y-76795771D01*
X187050476Y-76795771D02*
X187145714Y-76748152D01*
X187145714Y-76748152D02*
X187288571Y-76748152D01*
X187288571Y-76748152D02*
X187383809Y-76795771D01*
X187383809Y-76795771D02*
X187431428Y-76843390D01*
X187431428Y-76843390D02*
X187479047Y-76938628D01*
X187479047Y-76938628D02*
X187479047Y-77224342D01*
X187479047Y-77224342D02*
X187431428Y-77319580D01*
X187431428Y-77319580D02*
X187383809Y-77367200D01*
X187383809Y-77367200D02*
X187288571Y-77414819D01*
X187288571Y-77414819D02*
X187145714Y-77414819D01*
X187669524Y-77510057D02*
X188431428Y-77510057D01*
X189240952Y-77414819D02*
X188907619Y-76938628D01*
X188669524Y-77414819D02*
X188669524Y-76414819D01*
X188669524Y-76414819D02*
X189050476Y-76414819D01*
X189050476Y-76414819D02*
X189145714Y-76462438D01*
X189145714Y-76462438D02*
X189193333Y-76510057D01*
X189193333Y-76510057D02*
X189240952Y-76605295D01*
X189240952Y-76605295D02*
X189240952Y-76748152D01*
X189240952Y-76748152D02*
X189193333Y-76843390D01*
X189193333Y-76843390D02*
X189145714Y-76891009D01*
X189145714Y-76891009D02*
X189050476Y-76938628D01*
X189050476Y-76938628D02*
X188669524Y-76938628D01*
X190050476Y-77367200D02*
X189955238Y-77414819D01*
X189955238Y-77414819D02*
X189764762Y-77414819D01*
X189764762Y-77414819D02*
X189669524Y-77367200D01*
X189669524Y-77367200D02*
X189621905Y-77271961D01*
X189621905Y-77271961D02*
X189621905Y-76891009D01*
X189621905Y-76891009D02*
X189669524Y-76795771D01*
X189669524Y-76795771D02*
X189764762Y-76748152D01*
X189764762Y-76748152D02*
X189955238Y-76748152D01*
X189955238Y-76748152D02*
X190050476Y-76795771D01*
X190050476Y-76795771D02*
X190098095Y-76891009D01*
X190098095Y-76891009D02*
X190098095Y-76986247D01*
X190098095Y-76986247D02*
X189621905Y-77081485D01*
X190955238Y-76748152D02*
X190955238Y-77557676D01*
X190955238Y-77557676D02*
X190907619Y-77652914D01*
X190907619Y-77652914D02*
X190860000Y-77700533D01*
X190860000Y-77700533D02*
X190764762Y-77748152D01*
X190764762Y-77748152D02*
X190621905Y-77748152D01*
X190621905Y-77748152D02*
X190526667Y-77700533D01*
X190955238Y-77367200D02*
X190860000Y-77414819D01*
X190860000Y-77414819D02*
X190669524Y-77414819D01*
X190669524Y-77414819D02*
X190574286Y-77367200D01*
X190574286Y-77367200D02*
X190526667Y-77319580D01*
X190526667Y-77319580D02*
X190479048Y-77224342D01*
X190479048Y-77224342D02*
X190479048Y-76938628D01*
X190479048Y-76938628D02*
X190526667Y-76843390D01*
X190526667Y-76843390D02*
X190574286Y-76795771D01*
X190574286Y-76795771D02*
X190669524Y-76748152D01*
X190669524Y-76748152D02*
X190860000Y-76748152D01*
X190860000Y-76748152D02*
X190955238Y-76795771D01*
X191860000Y-76748152D02*
X191860000Y-77414819D01*
X191431429Y-76748152D02*
X191431429Y-77271961D01*
X191431429Y-77271961D02*
X191479048Y-77367200D01*
X191479048Y-77367200D02*
X191574286Y-77414819D01*
X191574286Y-77414819D02*
X191717143Y-77414819D01*
X191717143Y-77414819D02*
X191812381Y-77367200D01*
X191812381Y-77367200D02*
X191860000Y-77319580D01*
X192479048Y-77414819D02*
X192383810Y-77367200D01*
X192383810Y-77367200D02*
X192336191Y-77271961D01*
X192336191Y-77271961D02*
X192336191Y-76414819D01*
X193288572Y-77414819D02*
X193288572Y-76891009D01*
X193288572Y-76891009D02*
X193240953Y-76795771D01*
X193240953Y-76795771D02*
X193145715Y-76748152D01*
X193145715Y-76748152D02*
X192955239Y-76748152D01*
X192955239Y-76748152D02*
X192860001Y-76795771D01*
X193288572Y-77367200D02*
X193193334Y-77414819D01*
X193193334Y-77414819D02*
X192955239Y-77414819D01*
X192955239Y-77414819D02*
X192860001Y-77367200D01*
X192860001Y-77367200D02*
X192812382Y-77271961D01*
X192812382Y-77271961D02*
X192812382Y-77176723D01*
X192812382Y-77176723D02*
X192860001Y-77081485D01*
X192860001Y-77081485D02*
X192955239Y-77033866D01*
X192955239Y-77033866D02*
X193193334Y-77033866D01*
X193193334Y-77033866D02*
X193288572Y-76986247D01*
X193764763Y-77414819D02*
X193764763Y-76414819D01*
X193764763Y-76795771D02*
X193860001Y-76748152D01*
X193860001Y-76748152D02*
X194050477Y-76748152D01*
X194050477Y-76748152D02*
X194145715Y-76795771D01*
X194145715Y-76795771D02*
X194193334Y-76843390D01*
X194193334Y-76843390D02*
X194240953Y-76938628D01*
X194240953Y-76938628D02*
X194240953Y-77224342D01*
X194240953Y-77224342D02*
X194193334Y-77319580D01*
X194193334Y-77319580D02*
X194145715Y-77367200D01*
X194145715Y-77367200D02*
X194050477Y-77414819D01*
X194050477Y-77414819D02*
X193860001Y-77414819D01*
X193860001Y-77414819D02*
X193764763Y-77367200D01*
X194812382Y-77414819D02*
X194717144Y-77367200D01*
X194717144Y-77367200D02*
X194669525Y-77271961D01*
X194669525Y-77271961D02*
X194669525Y-76414819D01*
X195574287Y-77367200D02*
X195479049Y-77414819D01*
X195479049Y-77414819D02*
X195288573Y-77414819D01*
X195288573Y-77414819D02*
X195193335Y-77367200D01*
X195193335Y-77367200D02*
X195145716Y-77271961D01*
X195145716Y-77271961D02*
X195145716Y-76891009D01*
X195145716Y-76891009D02*
X195193335Y-76795771D01*
X195193335Y-76795771D02*
X195288573Y-76748152D01*
X195288573Y-76748152D02*
X195479049Y-76748152D01*
X195479049Y-76748152D02*
X195574287Y-76795771D01*
X195574287Y-76795771D02*
X195621906Y-76891009D01*
X195621906Y-76891009D02*
X195621906Y-76986247D01*
X195621906Y-76986247D02*
X195145716Y-77081485D01*
D12*
X153862693Y-83980038D02*
X153767455Y-83932419D01*
X153767455Y-83932419D02*
X153624598Y-83932419D01*
X153624598Y-83932419D02*
X153481741Y-83980038D01*
X153481741Y-83980038D02*
X153386503Y-84075276D01*
X153386503Y-84075276D02*
X153338884Y-84170514D01*
X153338884Y-84170514D02*
X153291265Y-84360990D01*
X153291265Y-84360990D02*
X153291265Y-84503847D01*
X153291265Y-84503847D02*
X153338884Y-84694323D01*
X153338884Y-84694323D02*
X153386503Y-84789561D01*
X153386503Y-84789561D02*
X153481741Y-84884800D01*
X153481741Y-84884800D02*
X153624598Y-84932419D01*
X153624598Y-84932419D02*
X153719836Y-84932419D01*
X153719836Y-84932419D02*
X153862693Y-84884800D01*
X153862693Y-84884800D02*
X153910312Y-84837180D01*
X153910312Y-84837180D02*
X153910312Y-84503847D01*
X153910312Y-84503847D02*
X153719836Y-84503847D01*
X154338884Y-84932419D02*
X154338884Y-83932419D01*
X154338884Y-83932419D02*
X154910312Y-84932419D01*
X154910312Y-84932419D02*
X154910312Y-83932419D01*
X155386503Y-84932419D02*
X155386503Y-83932419D01*
X155386503Y-83932419D02*
X155624598Y-83932419D01*
X155624598Y-83932419D02*
X155767455Y-83980038D01*
X155767455Y-83980038D02*
X155862693Y-84075276D01*
X155862693Y-84075276D02*
X155910312Y-84170514D01*
X155910312Y-84170514D02*
X155957931Y-84360990D01*
X155957931Y-84360990D02*
X155957931Y-84503847D01*
X155957931Y-84503847D02*
X155910312Y-84694323D01*
X155910312Y-84694323D02*
X155862693Y-84789561D01*
X155862693Y-84789561D02*
X155767455Y-84884800D01*
X155767455Y-84884800D02*
X155624598Y-84932419D01*
X155624598Y-84932419D02*
X155386503Y-84932419D01*
X154196027Y-65432419D02*
X154529360Y-66432419D01*
X154529360Y-66432419D02*
X154862693Y-65432419D01*
X155196027Y-66432419D02*
X155196027Y-65432419D01*
X155672217Y-66432419D02*
X155672217Y-65432419D01*
X155672217Y-65432419D02*
X156243645Y-66432419D01*
X156243645Y-66432419D02*
X156243645Y-65432419D01*
X194162693Y-83880038D02*
X194067455Y-83832419D01*
X194067455Y-83832419D02*
X193924598Y-83832419D01*
X193924598Y-83832419D02*
X193781741Y-83880038D01*
X193781741Y-83880038D02*
X193686503Y-83975276D01*
X193686503Y-83975276D02*
X193638884Y-84070514D01*
X193638884Y-84070514D02*
X193591265Y-84260990D01*
X193591265Y-84260990D02*
X193591265Y-84403847D01*
X193591265Y-84403847D02*
X193638884Y-84594323D01*
X193638884Y-84594323D02*
X193686503Y-84689561D01*
X193686503Y-84689561D02*
X193781741Y-84784800D01*
X193781741Y-84784800D02*
X193924598Y-84832419D01*
X193924598Y-84832419D02*
X194019836Y-84832419D01*
X194019836Y-84832419D02*
X194162693Y-84784800D01*
X194162693Y-84784800D02*
X194210312Y-84737180D01*
X194210312Y-84737180D02*
X194210312Y-84403847D01*
X194210312Y-84403847D02*
X194019836Y-84403847D01*
X194638884Y-84832419D02*
X194638884Y-83832419D01*
X194638884Y-83832419D02*
X195210312Y-84832419D01*
X195210312Y-84832419D02*
X195210312Y-83832419D01*
X195686503Y-84832419D02*
X195686503Y-83832419D01*
X195686503Y-83832419D02*
X195924598Y-83832419D01*
X195924598Y-83832419D02*
X196067455Y-83880038D01*
X196067455Y-83880038D02*
X196162693Y-83975276D01*
X196162693Y-83975276D02*
X196210312Y-84070514D01*
X196210312Y-84070514D02*
X196257931Y-84260990D01*
X196257931Y-84260990D02*
X196257931Y-84403847D01*
X196257931Y-84403847D02*
X196210312Y-84594323D01*
X196210312Y-84594323D02*
X196162693Y-84689561D01*
X196162693Y-84689561D02*
X196067455Y-84784800D01*
X196067455Y-84784800D02*
X195924598Y-84832419D01*
X195924598Y-84832419D02*
X195686503Y-84832419D01*
X193596027Y-65232419D02*
X193929360Y-66232419D01*
X193929360Y-66232419D02*
X194262693Y-65232419D01*
X194786503Y-65232419D02*
X194976979Y-65232419D01*
X194976979Y-65232419D02*
X195072217Y-65280038D01*
X195072217Y-65280038D02*
X195167455Y-65375276D01*
X195167455Y-65375276D02*
X195215074Y-65565752D01*
X195215074Y-65565752D02*
X195215074Y-65899085D01*
X195215074Y-65899085D02*
X195167455Y-66089561D01*
X195167455Y-66089561D02*
X195072217Y-66184800D01*
X195072217Y-66184800D02*
X194976979Y-66232419D01*
X194976979Y-66232419D02*
X194786503Y-66232419D01*
X194786503Y-66232419D02*
X194691265Y-66184800D01*
X194691265Y-66184800D02*
X194596027Y-66089561D01*
X194596027Y-66089561D02*
X194548408Y-65899085D01*
X194548408Y-65899085D02*
X194548408Y-65565752D01*
X194548408Y-65565752D02*
X194596027Y-65375276D01*
X194596027Y-65375276D02*
X194691265Y-65280038D01*
X194691265Y-65280038D02*
X194786503Y-65232419D01*
X195643646Y-65232419D02*
X195643646Y-66041942D01*
X195643646Y-66041942D02*
X195691265Y-66137180D01*
X195691265Y-66137180D02*
X195738884Y-66184800D01*
X195738884Y-66184800D02*
X195834122Y-66232419D01*
X195834122Y-66232419D02*
X196024598Y-66232419D01*
X196024598Y-66232419D02*
X196119836Y-66184800D01*
X196119836Y-66184800D02*
X196167455Y-66137180D01*
X196167455Y-66137180D02*
X196215074Y-66041942D01*
X196215074Y-66041942D02*
X196215074Y-65232419D01*
X196548408Y-65232419D02*
X197119836Y-65232419D01*
X196834122Y-66232419D02*
X196834122Y-65232419D01*
D11*
X118993333Y-104719580D02*
X118945714Y-104767200D01*
X118945714Y-104767200D02*
X118802857Y-104814819D01*
X118802857Y-104814819D02*
X118707619Y-104814819D01*
X118707619Y-104814819D02*
X118564762Y-104767200D01*
X118564762Y-104767200D02*
X118469524Y-104671961D01*
X118469524Y-104671961D02*
X118421905Y-104576723D01*
X118421905Y-104576723D02*
X118374286Y-104386247D01*
X118374286Y-104386247D02*
X118374286Y-104243390D01*
X118374286Y-104243390D02*
X118421905Y-104052914D01*
X118421905Y-104052914D02*
X118469524Y-103957676D01*
X118469524Y-103957676D02*
X118564762Y-103862438D01*
X118564762Y-103862438D02*
X118707619Y-103814819D01*
X118707619Y-103814819D02*
X118802857Y-103814819D01*
X118802857Y-103814819D02*
X118945714Y-103862438D01*
X118945714Y-103862438D02*
X118993333Y-103910057D01*
X119564762Y-104243390D02*
X119469524Y-104195771D01*
X119469524Y-104195771D02*
X119421905Y-104148152D01*
X119421905Y-104148152D02*
X119374286Y-104052914D01*
X119374286Y-104052914D02*
X119374286Y-104005295D01*
X119374286Y-104005295D02*
X119421905Y-103910057D01*
X119421905Y-103910057D02*
X119469524Y-103862438D01*
X119469524Y-103862438D02*
X119564762Y-103814819D01*
X119564762Y-103814819D02*
X119755238Y-103814819D01*
X119755238Y-103814819D02*
X119850476Y-103862438D01*
X119850476Y-103862438D02*
X119898095Y-103910057D01*
X119898095Y-103910057D02*
X119945714Y-104005295D01*
X119945714Y-104005295D02*
X119945714Y-104052914D01*
X119945714Y-104052914D02*
X119898095Y-104148152D01*
X119898095Y-104148152D02*
X119850476Y-104195771D01*
X119850476Y-104195771D02*
X119755238Y-104243390D01*
X119755238Y-104243390D02*
X119564762Y-104243390D01*
X119564762Y-104243390D02*
X119469524Y-104291009D01*
X119469524Y-104291009D02*
X119421905Y-104338628D01*
X119421905Y-104338628D02*
X119374286Y-104433866D01*
X119374286Y-104433866D02*
X119374286Y-104624342D01*
X119374286Y-104624342D02*
X119421905Y-104719580D01*
X119421905Y-104719580D02*
X119469524Y-104767200D01*
X119469524Y-104767200D02*
X119564762Y-104814819D01*
X119564762Y-104814819D02*
X119755238Y-104814819D01*
X119755238Y-104814819D02*
X119850476Y-104767200D01*
X119850476Y-104767200D02*
X119898095Y-104719580D01*
X119898095Y-104719580D02*
X119945714Y-104624342D01*
X119945714Y-104624342D02*
X119945714Y-104433866D01*
X119945714Y-104433866D02*
X119898095Y-104338628D01*
X119898095Y-104338628D02*
X119850476Y-104291009D01*
X119850476Y-104291009D02*
X119755238Y-104243390D01*
X159198095Y-132214819D02*
X159198095Y-133024342D01*
X159198095Y-133024342D02*
X159245714Y-133119580D01*
X159245714Y-133119580D02*
X159293333Y-133167200D01*
X159293333Y-133167200D02*
X159388571Y-133214819D01*
X159388571Y-133214819D02*
X159579047Y-133214819D01*
X159579047Y-133214819D02*
X159674285Y-133167200D01*
X159674285Y-133167200D02*
X159721904Y-133119580D01*
X159721904Y-133119580D02*
X159769523Y-133024342D01*
X159769523Y-133024342D02*
X159769523Y-132214819D01*
X160198095Y-132310057D02*
X160245714Y-132262438D01*
X160245714Y-132262438D02*
X160340952Y-132214819D01*
X160340952Y-132214819D02*
X160579047Y-132214819D01*
X160579047Y-132214819D02*
X160674285Y-132262438D01*
X160674285Y-132262438D02*
X160721904Y-132310057D01*
X160721904Y-132310057D02*
X160769523Y-132405295D01*
X160769523Y-132405295D02*
X160769523Y-132500533D01*
X160769523Y-132500533D02*
X160721904Y-132643390D01*
X160721904Y-132643390D02*
X160150476Y-133214819D01*
X160150476Y-133214819D02*
X160769523Y-133214819D01*
X162110057Y-131555237D02*
X162062438Y-131507618D01*
X162062438Y-131507618D02*
X162014819Y-131412380D01*
X162014819Y-131412380D02*
X162014819Y-131174285D01*
X162014819Y-131174285D02*
X162062438Y-131079047D01*
X162062438Y-131079047D02*
X162110057Y-131031428D01*
X162110057Y-131031428D02*
X162205295Y-130983809D01*
X162205295Y-130983809D02*
X162300533Y-130983809D01*
X162300533Y-130983809D02*
X162443390Y-131031428D01*
X162443390Y-131031428D02*
X163014819Y-131602856D01*
X163014819Y-131602856D02*
X163014819Y-130983809D01*
X162348152Y-130126666D02*
X163014819Y-130126666D01*
X161967200Y-130364761D02*
X162681485Y-130602856D01*
X162681485Y-130602856D02*
X162681485Y-129983809D01*
X163014819Y-129126666D02*
X163014819Y-129602856D01*
X163014819Y-129602856D02*
X162014819Y-129602856D01*
X162919580Y-128221904D02*
X162967200Y-128269523D01*
X162967200Y-128269523D02*
X163014819Y-128412380D01*
X163014819Y-128412380D02*
X163014819Y-128507618D01*
X163014819Y-128507618D02*
X162967200Y-128650475D01*
X162967200Y-128650475D02*
X162871961Y-128745713D01*
X162871961Y-128745713D02*
X162776723Y-128793332D01*
X162776723Y-128793332D02*
X162586247Y-128840951D01*
X162586247Y-128840951D02*
X162443390Y-128840951D01*
X162443390Y-128840951D02*
X162252914Y-128793332D01*
X162252914Y-128793332D02*
X162157676Y-128745713D01*
X162157676Y-128745713D02*
X162062438Y-128650475D01*
X162062438Y-128650475D02*
X162014819Y-128507618D01*
X162014819Y-128507618D02*
X162014819Y-128412380D01*
X162014819Y-128412380D02*
X162062438Y-128269523D01*
X162062438Y-128269523D02*
X162110057Y-128221904D01*
X162014819Y-127317142D02*
X162014819Y-127793332D01*
X162014819Y-127793332D02*
X162491009Y-127840951D01*
X162491009Y-127840951D02*
X162443390Y-127793332D01*
X162443390Y-127793332D02*
X162395771Y-127698094D01*
X162395771Y-127698094D02*
X162395771Y-127459999D01*
X162395771Y-127459999D02*
X162443390Y-127364761D01*
X162443390Y-127364761D02*
X162491009Y-127317142D01*
X162491009Y-127317142D02*
X162586247Y-127269523D01*
X162586247Y-127269523D02*
X162824342Y-127269523D01*
X162824342Y-127269523D02*
X162919580Y-127317142D01*
X162919580Y-127317142D02*
X162967200Y-127364761D01*
X162967200Y-127364761D02*
X163014819Y-127459999D01*
X163014819Y-127459999D02*
X163014819Y-127698094D01*
X163014819Y-127698094D02*
X162967200Y-127793332D01*
X162967200Y-127793332D02*
X162919580Y-127840951D01*
X163014819Y-126317142D02*
X163014819Y-126888570D01*
X163014819Y-126602856D02*
X162014819Y-126602856D01*
X162014819Y-126602856D02*
X162157676Y-126698094D01*
X162157676Y-126698094D02*
X162252914Y-126793332D01*
X162252914Y-126793332D02*
X162300533Y-126888570D01*
X162110057Y-125936189D02*
X162062438Y-125888570D01*
X162062438Y-125888570D02*
X162014819Y-125793332D01*
X162014819Y-125793332D02*
X162014819Y-125555237D01*
X162014819Y-125555237D02*
X162062438Y-125459999D01*
X162062438Y-125459999D02*
X162110057Y-125412380D01*
X162110057Y-125412380D02*
X162205295Y-125364761D01*
X162205295Y-125364761D02*
X162300533Y-125364761D01*
X162300533Y-125364761D02*
X162443390Y-125412380D01*
X162443390Y-125412380D02*
X163014819Y-125983808D01*
X163014819Y-125983808D02*
X163014819Y-125364761D01*
X177596069Y-123077857D02*
X177119878Y-123411190D01*
X177596069Y-123649285D02*
X176596069Y-123649285D01*
X176596069Y-123649285D02*
X176596069Y-123268333D01*
X176596069Y-123268333D02*
X176643688Y-123173095D01*
X176643688Y-123173095D02*
X176691307Y-123125476D01*
X176691307Y-123125476D02*
X176786545Y-123077857D01*
X176786545Y-123077857D02*
X176929402Y-123077857D01*
X176929402Y-123077857D02*
X177024640Y-123125476D01*
X177024640Y-123125476D02*
X177072259Y-123173095D01*
X177072259Y-123173095D02*
X177119878Y-123268333D01*
X177119878Y-123268333D02*
X177119878Y-123649285D01*
X177596069Y-122125476D02*
X177596069Y-122696904D01*
X177596069Y-122411190D02*
X176596069Y-122411190D01*
X176596069Y-122411190D02*
X176738926Y-122506428D01*
X176738926Y-122506428D02*
X176834164Y-122601666D01*
X176834164Y-122601666D02*
X176881783Y-122696904D01*
X176596069Y-121506428D02*
X176596069Y-121411190D01*
X176596069Y-121411190D02*
X176643688Y-121315952D01*
X176643688Y-121315952D02*
X176691307Y-121268333D01*
X176691307Y-121268333D02*
X176786545Y-121220714D01*
X176786545Y-121220714D02*
X176977021Y-121173095D01*
X176977021Y-121173095D02*
X177215116Y-121173095D01*
X177215116Y-121173095D02*
X177405592Y-121220714D01*
X177405592Y-121220714D02*
X177500830Y-121268333D01*
X177500830Y-121268333D02*
X177548450Y-121315952D01*
X177548450Y-121315952D02*
X177596069Y-121411190D01*
X177596069Y-121411190D02*
X177596069Y-121506428D01*
X177596069Y-121506428D02*
X177548450Y-121601666D01*
X177548450Y-121601666D02*
X177500830Y-121649285D01*
X177500830Y-121649285D02*
X177405592Y-121696904D01*
X177405592Y-121696904D02*
X177215116Y-121744523D01*
X177215116Y-121744523D02*
X176977021Y-121744523D01*
X176977021Y-121744523D02*
X176786545Y-121696904D01*
X176786545Y-121696904D02*
X176691307Y-121649285D01*
X176691307Y-121649285D02*
X176643688Y-121601666D01*
X176643688Y-121601666D02*
X176596069Y-121506428D01*
X177704642Y-116127319D02*
X177371309Y-115651128D01*
X177133214Y-116127319D02*
X177133214Y-115127319D01*
X177133214Y-115127319D02*
X177514166Y-115127319D01*
X177514166Y-115127319D02*
X177609404Y-115174938D01*
X177609404Y-115174938D02*
X177657023Y-115222557D01*
X177657023Y-115222557D02*
X177704642Y-115317795D01*
X177704642Y-115317795D02*
X177704642Y-115460652D01*
X177704642Y-115460652D02*
X177657023Y-115555890D01*
X177657023Y-115555890D02*
X177609404Y-115603509D01*
X177609404Y-115603509D02*
X177514166Y-115651128D01*
X177514166Y-115651128D02*
X177133214Y-115651128D01*
X178657023Y-116127319D02*
X178085595Y-116127319D01*
X178371309Y-116127319D02*
X178371309Y-115127319D01*
X178371309Y-115127319D02*
X178276071Y-115270176D01*
X178276071Y-115270176D02*
X178180833Y-115365414D01*
X178180833Y-115365414D02*
X178085595Y-115413033D01*
X179609404Y-116127319D02*
X179037976Y-116127319D01*
X179323690Y-116127319D02*
X179323690Y-115127319D01*
X179323690Y-115127319D02*
X179228452Y-115270176D01*
X179228452Y-115270176D02*
X179133214Y-115365414D01*
X179133214Y-115365414D02*
X179037976Y-115413033D01*
X158464761Y-77810057D02*
X158369523Y-77762438D01*
X158369523Y-77762438D02*
X158274285Y-77667200D01*
X158274285Y-77667200D02*
X158131428Y-77524342D01*
X158131428Y-77524342D02*
X158036190Y-77476723D01*
X158036190Y-77476723D02*
X157940952Y-77476723D01*
X157988571Y-77714819D02*
X157893333Y-77667200D01*
X157893333Y-77667200D02*
X157798095Y-77571961D01*
X157798095Y-77571961D02*
X157750476Y-77381485D01*
X157750476Y-77381485D02*
X157750476Y-77048152D01*
X157750476Y-77048152D02*
X157798095Y-76857676D01*
X157798095Y-76857676D02*
X157893333Y-76762438D01*
X157893333Y-76762438D02*
X157988571Y-76714819D01*
X157988571Y-76714819D02*
X158179047Y-76714819D01*
X158179047Y-76714819D02*
X158274285Y-76762438D01*
X158274285Y-76762438D02*
X158369523Y-76857676D01*
X158369523Y-76857676D02*
X158417142Y-77048152D01*
X158417142Y-77048152D02*
X158417142Y-77381485D01*
X158417142Y-77381485D02*
X158369523Y-77571961D01*
X158369523Y-77571961D02*
X158274285Y-77667200D01*
X158274285Y-77667200D02*
X158179047Y-77714819D01*
X158179047Y-77714819D02*
X157988571Y-77714819D01*
X159369523Y-77714819D02*
X158798095Y-77714819D01*
X159083809Y-77714819D02*
X159083809Y-76714819D01*
X159083809Y-76714819D02*
X158988571Y-76857676D01*
X158988571Y-76857676D02*
X158893333Y-76952914D01*
X158893333Y-76952914D02*
X158798095Y-77000533D01*
X155764819Y-101226666D02*
X155288628Y-101559999D01*
X155764819Y-101798094D02*
X154764819Y-101798094D01*
X154764819Y-101798094D02*
X154764819Y-101417142D01*
X154764819Y-101417142D02*
X154812438Y-101321904D01*
X154812438Y-101321904D02*
X154860057Y-101274285D01*
X154860057Y-101274285D02*
X154955295Y-101226666D01*
X154955295Y-101226666D02*
X155098152Y-101226666D01*
X155098152Y-101226666D02*
X155193390Y-101274285D01*
X155193390Y-101274285D02*
X155241009Y-101321904D01*
X155241009Y-101321904D02*
X155288628Y-101417142D01*
X155288628Y-101417142D02*
X155288628Y-101798094D01*
X154764819Y-100893332D02*
X154764819Y-100274285D01*
X154764819Y-100274285D02*
X155145771Y-100607618D01*
X155145771Y-100607618D02*
X155145771Y-100464761D01*
X155145771Y-100464761D02*
X155193390Y-100369523D01*
X155193390Y-100369523D02*
X155241009Y-100321904D01*
X155241009Y-100321904D02*
X155336247Y-100274285D01*
X155336247Y-100274285D02*
X155574342Y-100274285D01*
X155574342Y-100274285D02*
X155669580Y-100321904D01*
X155669580Y-100321904D02*
X155717200Y-100369523D01*
X155717200Y-100369523D02*
X155764819Y-100464761D01*
X155764819Y-100464761D02*
X155764819Y-100750475D01*
X155764819Y-100750475D02*
X155717200Y-100845713D01*
X155717200Y-100845713D02*
X155669580Y-100893332D01*
X136598095Y-120214819D02*
X136598095Y-121024342D01*
X136598095Y-121024342D02*
X136645714Y-121119580D01*
X136645714Y-121119580D02*
X136693333Y-121167200D01*
X136693333Y-121167200D02*
X136788571Y-121214819D01*
X136788571Y-121214819D02*
X136979047Y-121214819D01*
X136979047Y-121214819D02*
X137074285Y-121167200D01*
X137074285Y-121167200D02*
X137121904Y-121119580D01*
X137121904Y-121119580D02*
X137169523Y-121024342D01*
X137169523Y-121024342D02*
X137169523Y-120214819D01*
X138169523Y-121214819D02*
X137598095Y-121214819D01*
X137883809Y-121214819D02*
X137883809Y-120214819D01*
X137883809Y-120214819D02*
X137788571Y-120357676D01*
X137788571Y-120357676D02*
X137693333Y-120452914D01*
X137693333Y-120452914D02*
X137598095Y-120500533D01*
X136814819Y-130055237D02*
X135814819Y-130055237D01*
X135814819Y-130055237D02*
X136529104Y-129721904D01*
X136529104Y-129721904D02*
X135814819Y-129388571D01*
X135814819Y-129388571D02*
X136814819Y-129388571D01*
X136529104Y-128959999D02*
X136529104Y-128483809D01*
X136814819Y-129055237D02*
X135814819Y-128721904D01*
X135814819Y-128721904D02*
X136814819Y-128388571D01*
X135814819Y-128150475D02*
X136814819Y-127483809D01*
X135814819Y-127483809D02*
X136814819Y-128150475D01*
X135814819Y-127198094D02*
X135814819Y-126579047D01*
X135814819Y-126579047D02*
X136195771Y-126912380D01*
X136195771Y-126912380D02*
X136195771Y-126769523D01*
X136195771Y-126769523D02*
X136243390Y-126674285D01*
X136243390Y-126674285D02*
X136291009Y-126626666D01*
X136291009Y-126626666D02*
X136386247Y-126579047D01*
X136386247Y-126579047D02*
X136624342Y-126579047D01*
X136624342Y-126579047D02*
X136719580Y-126626666D01*
X136719580Y-126626666D02*
X136767200Y-126674285D01*
X136767200Y-126674285D02*
X136814819Y-126769523D01*
X136814819Y-126769523D02*
X136814819Y-127055237D01*
X136814819Y-127055237D02*
X136767200Y-127150475D01*
X136767200Y-127150475D02*
X136719580Y-127198094D01*
X135910057Y-126198094D02*
X135862438Y-126150475D01*
X135862438Y-126150475D02*
X135814819Y-126055237D01*
X135814819Y-126055237D02*
X135814819Y-125817142D01*
X135814819Y-125817142D02*
X135862438Y-125721904D01*
X135862438Y-125721904D02*
X135910057Y-125674285D01*
X135910057Y-125674285D02*
X136005295Y-125626666D01*
X136005295Y-125626666D02*
X136100533Y-125626666D01*
X136100533Y-125626666D02*
X136243390Y-125674285D01*
X136243390Y-125674285D02*
X136814819Y-126245713D01*
X136814819Y-126245713D02*
X136814819Y-125626666D01*
X135814819Y-125293332D02*
X135814819Y-124674285D01*
X135814819Y-124674285D02*
X136195771Y-125007618D01*
X136195771Y-125007618D02*
X136195771Y-124864761D01*
X136195771Y-124864761D02*
X136243390Y-124769523D01*
X136243390Y-124769523D02*
X136291009Y-124721904D01*
X136291009Y-124721904D02*
X136386247Y-124674285D01*
X136386247Y-124674285D02*
X136624342Y-124674285D01*
X136624342Y-124674285D02*
X136719580Y-124721904D01*
X136719580Y-124721904D02*
X136767200Y-124769523D01*
X136767200Y-124769523D02*
X136814819Y-124864761D01*
X136814819Y-124864761D02*
X136814819Y-125150475D01*
X136814819Y-125150475D02*
X136767200Y-125245713D01*
X136767200Y-125245713D02*
X136719580Y-125293332D01*
X135910057Y-124293332D02*
X135862438Y-124245713D01*
X135862438Y-124245713D02*
X135814819Y-124150475D01*
X135814819Y-124150475D02*
X135814819Y-123912380D01*
X135814819Y-123912380D02*
X135862438Y-123817142D01*
X135862438Y-123817142D02*
X135910057Y-123769523D01*
X135910057Y-123769523D02*
X136005295Y-123721904D01*
X136005295Y-123721904D02*
X136100533Y-123721904D01*
X136100533Y-123721904D02*
X136243390Y-123769523D01*
X136243390Y-123769523D02*
X136814819Y-124340951D01*
X136814819Y-124340951D02*
X136814819Y-123721904D01*
X136291009Y-123293332D02*
X136291009Y-122959999D01*
X136814819Y-122817142D02*
X136814819Y-123293332D01*
X136814819Y-123293332D02*
X135814819Y-123293332D01*
X135814819Y-123293332D02*
X135814819Y-122817142D01*
X130249819Y-117393333D02*
X130964104Y-117393333D01*
X130964104Y-117393333D02*
X131106961Y-117440952D01*
X131106961Y-117440952D02*
X131202200Y-117536190D01*
X131202200Y-117536190D02*
X131249819Y-117679047D01*
X131249819Y-117679047D02*
X131249819Y-117774285D01*
X131249819Y-116917142D02*
X130249819Y-116917142D01*
X130249819Y-116917142D02*
X130249819Y-116536190D01*
X130249819Y-116536190D02*
X130297438Y-116440952D01*
X130297438Y-116440952D02*
X130345057Y-116393333D01*
X130345057Y-116393333D02*
X130440295Y-116345714D01*
X130440295Y-116345714D02*
X130583152Y-116345714D01*
X130583152Y-116345714D02*
X130678390Y-116393333D01*
X130678390Y-116393333D02*
X130726009Y-116440952D01*
X130726009Y-116440952D02*
X130773628Y-116536190D01*
X130773628Y-116536190D02*
X130773628Y-116917142D01*
X130249819Y-116012380D02*
X130249819Y-115393333D01*
X130249819Y-115393333D02*
X130630771Y-115726666D01*
X130630771Y-115726666D02*
X130630771Y-115583809D01*
X130630771Y-115583809D02*
X130678390Y-115488571D01*
X130678390Y-115488571D02*
X130726009Y-115440952D01*
X130726009Y-115440952D02*
X130821247Y-115393333D01*
X130821247Y-115393333D02*
X131059342Y-115393333D01*
X131059342Y-115393333D02*
X131154580Y-115440952D01*
X131154580Y-115440952D02*
X131202200Y-115488571D01*
X131202200Y-115488571D02*
X131249819Y-115583809D01*
X131249819Y-115583809D02*
X131249819Y-115869523D01*
X131249819Y-115869523D02*
X131202200Y-115964761D01*
X131202200Y-115964761D02*
X131154580Y-116012380D01*
X132069580Y-120776666D02*
X132117200Y-120824285D01*
X132117200Y-120824285D02*
X132164819Y-120967142D01*
X132164819Y-120967142D02*
X132164819Y-121062380D01*
X132164819Y-121062380D02*
X132117200Y-121205237D01*
X132117200Y-121205237D02*
X132021961Y-121300475D01*
X132021961Y-121300475D02*
X131926723Y-121348094D01*
X131926723Y-121348094D02*
X131736247Y-121395713D01*
X131736247Y-121395713D02*
X131593390Y-121395713D01*
X131593390Y-121395713D02*
X131402914Y-121348094D01*
X131402914Y-121348094D02*
X131307676Y-121300475D01*
X131307676Y-121300475D02*
X131212438Y-121205237D01*
X131212438Y-121205237D02*
X131164819Y-121062380D01*
X131164819Y-121062380D02*
X131164819Y-120967142D01*
X131164819Y-120967142D02*
X131212438Y-120824285D01*
X131212438Y-120824285D02*
X131260057Y-120776666D01*
X132164819Y-119824285D02*
X132164819Y-120395713D01*
X132164819Y-120109999D02*
X131164819Y-120109999D01*
X131164819Y-120109999D02*
X131307676Y-120205237D01*
X131307676Y-120205237D02*
X131402914Y-120300475D01*
X131402914Y-120300475D02*
X131450533Y-120395713D01*
X173174583Y-125227319D02*
X172841250Y-124751128D01*
X172603155Y-125227319D02*
X172603155Y-124227319D01*
X172603155Y-124227319D02*
X172984107Y-124227319D01*
X172984107Y-124227319D02*
X173079345Y-124274938D01*
X173079345Y-124274938D02*
X173126964Y-124322557D01*
X173126964Y-124322557D02*
X173174583Y-124417795D01*
X173174583Y-124417795D02*
X173174583Y-124560652D01*
X173174583Y-124560652D02*
X173126964Y-124655890D01*
X173126964Y-124655890D02*
X173079345Y-124703509D01*
X173079345Y-124703509D02*
X172984107Y-124751128D01*
X172984107Y-124751128D02*
X172603155Y-124751128D01*
X173650774Y-125227319D02*
X173841250Y-125227319D01*
X173841250Y-125227319D02*
X173936488Y-125179700D01*
X173936488Y-125179700D02*
X173984107Y-125132080D01*
X173984107Y-125132080D02*
X174079345Y-124989223D01*
X174079345Y-124989223D02*
X174126964Y-124798747D01*
X174126964Y-124798747D02*
X174126964Y-124417795D01*
X174126964Y-124417795D02*
X174079345Y-124322557D01*
X174079345Y-124322557D02*
X174031726Y-124274938D01*
X174031726Y-124274938D02*
X173936488Y-124227319D01*
X173936488Y-124227319D02*
X173746012Y-124227319D01*
X173746012Y-124227319D02*
X173650774Y-124274938D01*
X173650774Y-124274938D02*
X173603155Y-124322557D01*
X173603155Y-124322557D02*
X173555536Y-124417795D01*
X173555536Y-124417795D02*
X173555536Y-124655890D01*
X173555536Y-124655890D02*
X173603155Y-124751128D01*
X173603155Y-124751128D02*
X173650774Y-124798747D01*
X173650774Y-124798747D02*
X173746012Y-124846366D01*
X173746012Y-124846366D02*
X173936488Y-124846366D01*
X173936488Y-124846366D02*
X174031726Y-124798747D01*
X174031726Y-124798747D02*
X174079345Y-124751128D01*
X174079345Y-124751128D02*
X174126964Y-124655890D01*
X157493333Y-76414819D02*
X157160000Y-75938628D01*
X156921905Y-76414819D02*
X156921905Y-75414819D01*
X156921905Y-75414819D02*
X157302857Y-75414819D01*
X157302857Y-75414819D02*
X157398095Y-75462438D01*
X157398095Y-75462438D02*
X157445714Y-75510057D01*
X157445714Y-75510057D02*
X157493333Y-75605295D01*
X157493333Y-75605295D02*
X157493333Y-75748152D01*
X157493333Y-75748152D02*
X157445714Y-75843390D01*
X157445714Y-75843390D02*
X157398095Y-75891009D01*
X157398095Y-75891009D02*
X157302857Y-75938628D01*
X157302857Y-75938628D02*
X156921905Y-75938628D01*
X158398095Y-75414819D02*
X157921905Y-75414819D01*
X157921905Y-75414819D02*
X157874286Y-75891009D01*
X157874286Y-75891009D02*
X157921905Y-75843390D01*
X157921905Y-75843390D02*
X158017143Y-75795771D01*
X158017143Y-75795771D02*
X158255238Y-75795771D01*
X158255238Y-75795771D02*
X158350476Y-75843390D01*
X158350476Y-75843390D02*
X158398095Y-75891009D01*
X158398095Y-75891009D02*
X158445714Y-75986247D01*
X158445714Y-75986247D02*
X158445714Y-76224342D01*
X158445714Y-76224342D02*
X158398095Y-76319580D01*
X158398095Y-76319580D02*
X158350476Y-76367200D01*
X158350476Y-76367200D02*
X158255238Y-76414819D01*
X158255238Y-76414819D02*
X158017143Y-76414819D01*
X158017143Y-76414819D02*
X157921905Y-76367200D01*
X157921905Y-76367200D02*
X157874286Y-76319580D01*
X125804642Y-77614819D02*
X125471309Y-77138628D01*
X125233214Y-77614819D02*
X125233214Y-76614819D01*
X125233214Y-76614819D02*
X125614166Y-76614819D01*
X125614166Y-76614819D02*
X125709404Y-76662438D01*
X125709404Y-76662438D02*
X125757023Y-76710057D01*
X125757023Y-76710057D02*
X125804642Y-76805295D01*
X125804642Y-76805295D02*
X125804642Y-76948152D01*
X125804642Y-76948152D02*
X125757023Y-77043390D01*
X125757023Y-77043390D02*
X125709404Y-77091009D01*
X125709404Y-77091009D02*
X125614166Y-77138628D01*
X125614166Y-77138628D02*
X125233214Y-77138628D01*
X126757023Y-77614819D02*
X126185595Y-77614819D01*
X126471309Y-77614819D02*
X126471309Y-76614819D01*
X126471309Y-76614819D02*
X126376071Y-76757676D01*
X126376071Y-76757676D02*
X126280833Y-76852914D01*
X126280833Y-76852914D02*
X126185595Y-76900533D01*
X127090357Y-76614819D02*
X127757023Y-76614819D01*
X127757023Y-76614819D02*
X127328452Y-77614819D01*
X136031905Y-131814819D02*
X136031905Y-130814819D01*
X136031905Y-130814819D02*
X136270000Y-130814819D01*
X136270000Y-130814819D02*
X136412857Y-130862438D01*
X136412857Y-130862438D02*
X136508095Y-130957676D01*
X136508095Y-130957676D02*
X136555714Y-131052914D01*
X136555714Y-131052914D02*
X136603333Y-131243390D01*
X136603333Y-131243390D02*
X136603333Y-131386247D01*
X136603333Y-131386247D02*
X136555714Y-131576723D01*
X136555714Y-131576723D02*
X136508095Y-131671961D01*
X136508095Y-131671961D02*
X136412857Y-131767200D01*
X136412857Y-131767200D02*
X136270000Y-131814819D01*
X136270000Y-131814819D02*
X136031905Y-131814819D01*
X137555714Y-131814819D02*
X136984286Y-131814819D01*
X137270000Y-131814819D02*
X137270000Y-130814819D01*
X137270000Y-130814819D02*
X137174762Y-130957676D01*
X137174762Y-130957676D02*
X137079524Y-131052914D01*
X137079524Y-131052914D02*
X136984286Y-131100533D01*
X177964761Y-119185057D02*
X177869523Y-119137438D01*
X177869523Y-119137438D02*
X177774285Y-119042200D01*
X177774285Y-119042200D02*
X177631428Y-118899342D01*
X177631428Y-118899342D02*
X177536190Y-118851723D01*
X177536190Y-118851723D02*
X177440952Y-118851723D01*
X177488571Y-119089819D02*
X177393333Y-119042200D01*
X177393333Y-119042200D02*
X177298095Y-118946961D01*
X177298095Y-118946961D02*
X177250476Y-118756485D01*
X177250476Y-118756485D02*
X177250476Y-118423152D01*
X177250476Y-118423152D02*
X177298095Y-118232676D01*
X177298095Y-118232676D02*
X177393333Y-118137438D01*
X177393333Y-118137438D02*
X177488571Y-118089819D01*
X177488571Y-118089819D02*
X177679047Y-118089819D01*
X177679047Y-118089819D02*
X177774285Y-118137438D01*
X177774285Y-118137438D02*
X177869523Y-118232676D01*
X177869523Y-118232676D02*
X177917142Y-118423152D01*
X177917142Y-118423152D02*
X177917142Y-118756485D01*
X177917142Y-118756485D02*
X177869523Y-118946961D01*
X177869523Y-118946961D02*
X177774285Y-119042200D01*
X177774285Y-119042200D02*
X177679047Y-119089819D01*
X177679047Y-119089819D02*
X177488571Y-119089819D01*
X178774285Y-118423152D02*
X178774285Y-119089819D01*
X178536190Y-118042200D02*
X178298095Y-118756485D01*
X178298095Y-118756485D02*
X178917142Y-118756485D01*
%TO.C,C2*%
D14*
X132790000Y-123940000D02*
X135530000Y-123940000D01*
X132790000Y-129180000D02*
X132790000Y-123940000D01*
X135530000Y-123940000D02*
X135530000Y-129180000D01*
X135530000Y-129180000D02*
X132790000Y-129180000D01*
%TO.C,R16*%
X123587064Y-78425000D02*
X123132936Y-78425000D01*
X123587064Y-79895000D02*
X123132936Y-79895000D01*
%TO.C,C9*%
X153570000Y-125515000D02*
X156310000Y-125515000D01*
X153570000Y-130755000D02*
X153570000Y-125515000D01*
X156310000Y-125515000D02*
X156310000Y-130755000D01*
X156310000Y-130755000D02*
X153570000Y-130755000D01*
%TO.C,J3*%
X184145000Y-135940000D02*
X184785000Y-135940000D01*
X184195000Y-133220000D02*
X186895000Y-133220000D01*
X184785000Y-135940000D02*
X184785000Y-136570000D01*
X186945000Y-135940000D02*
X186305000Y-135940000D01*
%TO.C,JP4*%
X147280000Y-63640000D02*
X148660000Y-63640000D01*
X147280000Y-65020000D02*
X147280000Y-63640000D01*
X147280000Y-66290000D02*
X147280000Y-68940000D01*
X147280000Y-66290000D02*
X150040000Y-66290000D01*
X147280000Y-68940000D02*
X150040000Y-68940000D01*
X150040000Y-66290000D02*
X150040000Y-68940000D01*
%TO.C,D2*%
X117280000Y-78240000D02*
X116815000Y-78240000D01*
X119905000Y-78240000D02*
X119440000Y-78240000D01*
X117280000Y-83054684D02*
G75*
G02*
X117280000Y-78545316I1080000J2254684D01*
G01*
X117280000Y-83588136D02*
G75*
G02*
X116815170Y-78240000I1080000J2788136D01*
G01*
X119440000Y-78545316D02*
G75*
G02*
X119440000Y-83054684I-1080000J-2254684D01*
G01*
X119904830Y-78240000D02*
G75*
G02*
X119440000Y-83588136I-1544830J-2560000D01*
G01*
%TO.C,U7*%
X130595000Y-77500000D02*
X140815000Y-77500000D01*
X130595000Y-82120000D02*
X130595000Y-77500000D01*
X133855000Y-82120000D02*
X133855000Y-80740000D01*
X137555000Y-82120000D02*
X137555000Y-80740000D01*
X140815000Y-77500000D02*
X140815000Y-82120000D01*
X140815000Y-80740000D02*
X130595000Y-80740000D01*
X140815000Y-82120000D02*
X130595000Y-82120000D01*
%TO.C,R2*%
X148525000Y-126474564D02*
X148525000Y-126020436D01*
X149995000Y-126474564D02*
X149995000Y-126020436D01*
%TO.C,C7*%
X180080000Y-108193000D02*
X180080000Y-107127000D01*
X180120000Y-108428000D02*
X180120000Y-106892000D01*
X180160000Y-108607000D02*
X180160000Y-106713000D01*
X180200000Y-108757000D02*
X180200000Y-106563000D01*
X180240000Y-108888000D02*
X180240000Y-106432000D01*
X180280000Y-109006000D02*
X180280000Y-106314000D01*
X180320000Y-109113000D02*
X180320000Y-106207000D01*
X180360000Y-109212000D02*
X180360000Y-106108000D01*
X180400000Y-109304000D02*
X180400000Y-106016000D01*
X180440000Y-109391000D02*
X180440000Y-105929000D01*
X180480000Y-109473000D02*
X180480000Y-105847000D01*
X180520000Y-109550000D02*
X180520000Y-105770000D01*
X180560000Y-109624000D02*
X180560000Y-105696000D01*
X180600000Y-109694000D02*
X180600000Y-105626000D01*
X180640000Y-106620000D02*
X180640000Y-105559000D01*
X180640000Y-109761000D02*
X180640000Y-108700000D01*
X180680000Y-106620000D02*
X180680000Y-105495000D01*
X180680000Y-109825000D02*
X180680000Y-108700000D01*
X180720000Y-106620000D02*
X180720000Y-105433000D01*
X180720000Y-109887000D02*
X180720000Y-108700000D01*
X180760000Y-106620000D02*
X180760000Y-105373000D01*
X180760000Y-109947000D02*
X180760000Y-108700000D01*
X180800000Y-106620000D02*
X180800000Y-105316000D01*
X180800000Y-110004000D02*
X180800000Y-108700000D01*
X180840000Y-106620000D02*
X180840000Y-105260000D01*
X180840000Y-110060000D02*
X180840000Y-108700000D01*
X180880000Y-106620000D02*
X180880000Y-105207000D01*
X180880000Y-110113000D02*
X180880000Y-108700000D01*
X180920000Y-106620000D02*
X180920000Y-105155000D01*
X180920000Y-110165000D02*
X180920000Y-108700000D01*
X180960000Y-106620000D02*
X180960000Y-105105000D01*
X180960000Y-110215000D02*
X180960000Y-108700000D01*
X181000000Y-106620000D02*
X181000000Y-105056000D01*
X181000000Y-110264000D02*
X181000000Y-108700000D01*
X181040000Y-106620000D02*
X181040000Y-105009000D01*
X181040000Y-110311000D02*
X181040000Y-108700000D01*
X181080000Y-106620000D02*
X181080000Y-104964000D01*
X181080000Y-110356000D02*
X181080000Y-108700000D01*
X181120000Y-106620000D02*
X181120000Y-104919000D01*
X181120000Y-110401000D02*
X181120000Y-108700000D01*
X181160000Y-106620000D02*
X181160000Y-104876000D01*
X181160000Y-110444000D02*
X181160000Y-108700000D01*
X181200000Y-106620000D02*
X181200000Y-104834000D01*
X181200000Y-110486000D02*
X181200000Y-108700000D01*
X181240000Y-106620000D02*
X181240000Y-104793000D01*
X181240000Y-110527000D02*
X181240000Y-108700000D01*
X181280000Y-106620000D02*
X181280000Y-104754000D01*
X181280000Y-110566000D02*
X181280000Y-108700000D01*
X181320000Y-106620000D02*
X181320000Y-104715000D01*
X181320000Y-110605000D02*
X181320000Y-108700000D01*
X181360000Y-106620000D02*
X181360000Y-104678000D01*
X181360000Y-110642000D02*
X181360000Y-108700000D01*
X181400000Y-106620000D02*
X181400000Y-104641000D01*
X181400000Y-110679000D02*
X181400000Y-108700000D01*
X181440000Y-106620000D02*
X181440000Y-104605000D01*
X181440000Y-110715000D02*
X181440000Y-108700000D01*
X181480000Y-106620000D02*
X181480000Y-104571000D01*
X181480000Y-110749000D02*
X181480000Y-108700000D01*
X181520000Y-106620000D02*
X181520000Y-104537000D01*
X181520000Y-110783000D02*
X181520000Y-108700000D01*
X181560000Y-106620000D02*
X181560000Y-104504000D01*
X181560000Y-110816000D02*
X181560000Y-108700000D01*
X181600000Y-106620000D02*
X181600000Y-104472000D01*
X181600000Y-110848000D02*
X181600000Y-108700000D01*
X181640000Y-106620000D02*
X181640000Y-104441000D01*
X181640000Y-110879000D02*
X181640000Y-108700000D01*
X181680000Y-106620000D02*
X181680000Y-104410000D01*
X181680000Y-110910000D02*
X181680000Y-108700000D01*
X181720000Y-106620000D02*
X181720000Y-104380000D01*
X181720000Y-110940000D02*
X181720000Y-108700000D01*
X181760000Y-106620000D02*
X181760000Y-104351000D01*
X181760000Y-110969000D02*
X181760000Y-108700000D01*
X181800000Y-106620000D02*
X181800000Y-104323000D01*
X181800000Y-110997000D02*
X181800000Y-108700000D01*
X181840000Y-106620000D02*
X181840000Y-104295000D01*
X181840000Y-111025000D02*
X181840000Y-108700000D01*
X181880000Y-106620000D02*
X181880000Y-104268000D01*
X181880000Y-111052000D02*
X181880000Y-108700000D01*
X181920000Y-106620000D02*
X181920000Y-104242000D01*
X181920000Y-111078000D02*
X181920000Y-108700000D01*
X181960000Y-106620000D02*
X181960000Y-104217000D01*
X181960000Y-111103000D02*
X181960000Y-108700000D01*
X182000000Y-106620000D02*
X182000000Y-104192000D01*
X182000000Y-111128000D02*
X182000000Y-108700000D01*
X182040000Y-106620000D02*
X182040000Y-104167000D01*
X182040000Y-111153000D02*
X182040000Y-108700000D01*
X182080000Y-106620000D02*
X182080000Y-104144000D01*
X182080000Y-111176000D02*
X182080000Y-108700000D01*
X182120000Y-106620000D02*
X182120000Y-104121000D01*
X182120000Y-111199000D02*
X182120000Y-108700000D01*
X182160000Y-106620000D02*
X182160000Y-104098000D01*
X182160000Y-111222000D02*
X182160000Y-108700000D01*
X182200000Y-106620000D02*
X182200000Y-104076000D01*
X182200000Y-111244000D02*
X182200000Y-108700000D01*
X182240000Y-106620000D02*
X182240000Y-104055000D01*
X182240000Y-111265000D02*
X182240000Y-108700000D01*
X182280000Y-106620000D02*
X182280000Y-104034000D01*
X182280000Y-111286000D02*
X182280000Y-108700000D01*
X182320000Y-106620000D02*
X182320000Y-104014000D01*
X182320000Y-111306000D02*
X182320000Y-108700000D01*
X182360000Y-106620000D02*
X182360000Y-103994000D01*
X182360000Y-111326000D02*
X182360000Y-108700000D01*
X182400000Y-106620000D02*
X182400000Y-103975000D01*
X182400000Y-111345000D02*
X182400000Y-108700000D01*
X182440000Y-106620000D02*
X182440000Y-103956000D01*
X182440000Y-111364000D02*
X182440000Y-108700000D01*
X182480000Y-106620000D02*
X182480000Y-103938000D01*
X182480000Y-111382000D02*
X182480000Y-108700000D01*
X182520000Y-106620000D02*
X182520000Y-103920000D01*
X182520000Y-111400000D02*
X182520000Y-108700000D01*
X182560000Y-106620000D02*
X182560000Y-103903000D01*
X182560000Y-111417000D02*
X182560000Y-108700000D01*
X182600000Y-106620000D02*
X182600000Y-103887000D01*
X182600000Y-111433000D02*
X182600000Y-108700000D01*
X182640000Y-106620000D02*
X182640000Y-103871000D01*
X182640000Y-111449000D02*
X182640000Y-108700000D01*
X182680000Y-106620000D02*
X182680000Y-103855000D01*
X182680000Y-111465000D02*
X182680000Y-108700000D01*
X182720000Y-111480000D02*
X182720000Y-103840000D01*
X182760000Y-111495000D02*
X182760000Y-103825000D01*
X182800000Y-111509000D02*
X182800000Y-103811000D01*
X182840000Y-111523000D02*
X182840000Y-103797000D01*
X182880000Y-111536000D02*
X182880000Y-103784000D01*
X182920000Y-111549000D02*
X182920000Y-103771000D01*
X182960000Y-111561000D02*
X182960000Y-103759000D01*
X183000000Y-111573000D02*
X183000000Y-103747000D01*
X183040000Y-111585000D02*
X183040000Y-103735000D01*
X183080000Y-111596000D02*
X183080000Y-103724000D01*
X183120000Y-111607000D02*
X183120000Y-103713000D01*
X183160000Y-111617000D02*
X183160000Y-103703000D01*
X183200000Y-111627000D02*
X183200000Y-103693000D01*
X183240000Y-111636000D02*
X183240000Y-103684000D01*
X183280000Y-111645000D02*
X183280000Y-103675000D01*
X183320000Y-111653000D02*
X183320000Y-103667000D01*
X183360000Y-111662000D02*
X183360000Y-103658000D01*
X183400000Y-111669000D02*
X183400000Y-103651000D01*
X183440000Y-111677000D02*
X183440000Y-103643000D01*
X183480000Y-111683000D02*
X183480000Y-103637000D01*
X183520000Y-111690000D02*
X183520000Y-103630000D01*
X183560000Y-111696000D02*
X183560000Y-103624000D01*
X183600000Y-111702000D02*
X183600000Y-103618000D01*
X183640000Y-111707000D02*
X183640000Y-103613000D01*
X183680000Y-111712000D02*
X183680000Y-103608000D01*
X183720000Y-111716000D02*
X183720000Y-103604000D01*
X183760000Y-111721000D02*
X183760000Y-103599000D01*
X183800000Y-111724000D02*
X183800000Y-103596000D01*
X183840000Y-111728000D02*
X183840000Y-103592000D01*
X183880000Y-111730000D02*
X183880000Y-103590000D01*
X183920000Y-111733000D02*
X183920000Y-103587000D01*
X183960000Y-111735000D02*
X183960000Y-103585000D01*
X184000000Y-111737000D02*
X184000000Y-103583000D01*
X184040000Y-111738000D02*
X184040000Y-103582000D01*
X184080000Y-111739000D02*
X184080000Y-103581000D01*
X184120000Y-111740000D02*
X184120000Y-103580000D01*
X184160000Y-111740000D02*
X184160000Y-103580000D01*
X188169698Y-110375000D02*
X188169698Y-109575000D01*
X188569698Y-109975000D02*
X187769698Y-109975000D01*
X188280000Y-107660000D02*
G75*
G02*
X180040000Y-107660000I-4120000J0D01*
G01*
X180040000Y-107660000D02*
G75*
G02*
X188280000Y-107660000I4120000J0D01*
G01*
%TO.C,C12*%
X141780000Y-75893000D02*
X141780000Y-74827000D01*
X141820000Y-76128000D02*
X141820000Y-74592000D01*
X141860000Y-76307000D02*
X141860000Y-74413000D01*
X141900000Y-76457000D02*
X141900000Y-74263000D01*
X141940000Y-76588000D02*
X141940000Y-74132000D01*
X141980000Y-76706000D02*
X141980000Y-74014000D01*
X142020000Y-76813000D02*
X142020000Y-73907000D01*
X142060000Y-76912000D02*
X142060000Y-73808000D01*
X142100000Y-77004000D02*
X142100000Y-73716000D01*
X142140000Y-77091000D02*
X142140000Y-73629000D01*
X142180000Y-77173000D02*
X142180000Y-73547000D01*
X142220000Y-77250000D02*
X142220000Y-73470000D01*
X142260000Y-77324000D02*
X142260000Y-73396000D01*
X142300000Y-77394000D02*
X142300000Y-73326000D01*
X142340000Y-74320000D02*
X142340000Y-73259000D01*
X142340000Y-77461000D02*
X142340000Y-76400000D01*
X142380000Y-74320000D02*
X142380000Y-73195000D01*
X142380000Y-77525000D02*
X142380000Y-76400000D01*
X142420000Y-74320000D02*
X142420000Y-73133000D01*
X142420000Y-77587000D02*
X142420000Y-76400000D01*
X142460000Y-74320000D02*
X142460000Y-73073000D01*
X142460000Y-77647000D02*
X142460000Y-76400000D01*
X142500000Y-74320000D02*
X142500000Y-73016000D01*
X142500000Y-77704000D02*
X142500000Y-76400000D01*
X142540000Y-74320000D02*
X142540000Y-72960000D01*
X142540000Y-77760000D02*
X142540000Y-76400000D01*
X142580000Y-74320000D02*
X142580000Y-72907000D01*
X142580000Y-77813000D02*
X142580000Y-76400000D01*
X142620000Y-74320000D02*
X142620000Y-72855000D01*
X142620000Y-77865000D02*
X142620000Y-76400000D01*
X142660000Y-74320000D02*
X142660000Y-72805000D01*
X142660000Y-77915000D02*
X142660000Y-76400000D01*
X142700000Y-74320000D02*
X142700000Y-72756000D01*
X142700000Y-77964000D02*
X142700000Y-76400000D01*
X142740000Y-74320000D02*
X142740000Y-72709000D01*
X142740000Y-78011000D02*
X142740000Y-76400000D01*
X142780000Y-74320000D02*
X142780000Y-72664000D01*
X142780000Y-78056000D02*
X142780000Y-76400000D01*
X142820000Y-74320000D02*
X142820000Y-72619000D01*
X142820000Y-78101000D02*
X142820000Y-76400000D01*
X142860000Y-74320000D02*
X142860000Y-72576000D01*
X142860000Y-78144000D02*
X142860000Y-76400000D01*
X142900000Y-74320000D02*
X142900000Y-72534000D01*
X142900000Y-78186000D02*
X142900000Y-76400000D01*
X142940000Y-74320000D02*
X142940000Y-72493000D01*
X142940000Y-78227000D02*
X142940000Y-76400000D01*
X142980000Y-74320000D02*
X142980000Y-72454000D01*
X142980000Y-78266000D02*
X142980000Y-76400000D01*
X143020000Y-74320000D02*
X143020000Y-72415000D01*
X143020000Y-78305000D02*
X143020000Y-76400000D01*
X143060000Y-74320000D02*
X143060000Y-72378000D01*
X143060000Y-78342000D02*
X143060000Y-76400000D01*
X143100000Y-74320000D02*
X143100000Y-72341000D01*
X143100000Y-78379000D02*
X143100000Y-76400000D01*
X143140000Y-74320000D02*
X143140000Y-72305000D01*
X143140000Y-78415000D02*
X143140000Y-76400000D01*
X143180000Y-74320000D02*
X143180000Y-72271000D01*
X143180000Y-78449000D02*
X143180000Y-76400000D01*
X143220000Y-74320000D02*
X143220000Y-72237000D01*
X143220000Y-78483000D02*
X143220000Y-76400000D01*
X143260000Y-74320000D02*
X143260000Y-72204000D01*
X143260000Y-78516000D02*
X143260000Y-76400000D01*
X143300000Y-74320000D02*
X143300000Y-72172000D01*
X143300000Y-78548000D02*
X143300000Y-76400000D01*
X143340000Y-74320000D02*
X143340000Y-72141000D01*
X143340000Y-78579000D02*
X143340000Y-76400000D01*
X143380000Y-74320000D02*
X143380000Y-72110000D01*
X143380000Y-78610000D02*
X143380000Y-76400000D01*
X143420000Y-74320000D02*
X143420000Y-72080000D01*
X143420000Y-78640000D02*
X143420000Y-76400000D01*
X143460000Y-74320000D02*
X143460000Y-72051000D01*
X143460000Y-78669000D02*
X143460000Y-76400000D01*
X143500000Y-74320000D02*
X143500000Y-72023000D01*
X143500000Y-78697000D02*
X143500000Y-76400000D01*
X143540000Y-74320000D02*
X143540000Y-71995000D01*
X143540000Y-78725000D02*
X143540000Y-76400000D01*
X143580000Y-74320000D02*
X143580000Y-71968000D01*
X143580000Y-78752000D02*
X143580000Y-76400000D01*
X143620000Y-74320000D02*
X143620000Y-71942000D01*
X143620000Y-78778000D02*
X143620000Y-76400000D01*
X143660000Y-74320000D02*
X143660000Y-71917000D01*
X143660000Y-78803000D02*
X143660000Y-76400000D01*
X143700000Y-74320000D02*
X143700000Y-71892000D01*
X143700000Y-78828000D02*
X143700000Y-76400000D01*
X143740000Y-74320000D02*
X143740000Y-71867000D01*
X143740000Y-78853000D02*
X143740000Y-76400000D01*
X143780000Y-74320000D02*
X143780000Y-71844000D01*
X143780000Y-78876000D02*
X143780000Y-76400000D01*
X143820000Y-74320000D02*
X143820000Y-71821000D01*
X143820000Y-78899000D02*
X143820000Y-76400000D01*
X143860000Y-74320000D02*
X143860000Y-71798000D01*
X143860000Y-78922000D02*
X143860000Y-76400000D01*
X143900000Y-74320000D02*
X143900000Y-71776000D01*
X143900000Y-78944000D02*
X143900000Y-76400000D01*
X143940000Y-74320000D02*
X143940000Y-71755000D01*
X143940000Y-78965000D02*
X143940000Y-76400000D01*
X143980000Y-74320000D02*
X143980000Y-71734000D01*
X143980000Y-78986000D02*
X143980000Y-76400000D01*
X144020000Y-74320000D02*
X144020000Y-71714000D01*
X144020000Y-79006000D02*
X144020000Y-76400000D01*
X144060000Y-74320000D02*
X144060000Y-71694000D01*
X144060000Y-79026000D02*
X144060000Y-76400000D01*
X144100000Y-74320000D02*
X144100000Y-71675000D01*
X144100000Y-79045000D02*
X144100000Y-76400000D01*
X144140000Y-74320000D02*
X144140000Y-71656000D01*
X144140000Y-79064000D02*
X144140000Y-76400000D01*
X144180000Y-74320000D02*
X144180000Y-71638000D01*
X144180000Y-79082000D02*
X144180000Y-76400000D01*
X144220000Y-74320000D02*
X144220000Y-71620000D01*
X144220000Y-79100000D02*
X144220000Y-76400000D01*
X144260000Y-74320000D02*
X144260000Y-71603000D01*
X144260000Y-79117000D02*
X144260000Y-76400000D01*
X144300000Y-74320000D02*
X144300000Y-71587000D01*
X144300000Y-79133000D02*
X144300000Y-76400000D01*
X144340000Y-74320000D02*
X144340000Y-71571000D01*
X144340000Y-79149000D02*
X144340000Y-76400000D01*
X144380000Y-74320000D02*
X144380000Y-71555000D01*
X144380000Y-79165000D02*
X144380000Y-76400000D01*
X144420000Y-79180000D02*
X144420000Y-71540000D01*
X144460000Y-79195000D02*
X144460000Y-71525000D01*
X144500000Y-79209000D02*
X144500000Y-71511000D01*
X144540000Y-79223000D02*
X144540000Y-71497000D01*
X144580000Y-79236000D02*
X144580000Y-71484000D01*
X144620000Y-79249000D02*
X144620000Y-71471000D01*
X144660000Y-79261000D02*
X144660000Y-71459000D01*
X144700000Y-79273000D02*
X144700000Y-71447000D01*
X144740000Y-79285000D02*
X144740000Y-71435000D01*
X144780000Y-79296000D02*
X144780000Y-71424000D01*
X144820000Y-79307000D02*
X144820000Y-71413000D01*
X144860000Y-79317000D02*
X144860000Y-71403000D01*
X144900000Y-79327000D02*
X144900000Y-71393000D01*
X144940000Y-79336000D02*
X144940000Y-71384000D01*
X144980000Y-79345000D02*
X144980000Y-71375000D01*
X145020000Y-79353000D02*
X145020000Y-71367000D01*
X145060000Y-79362000D02*
X145060000Y-71358000D01*
X145100000Y-79369000D02*
X145100000Y-71351000D01*
X145140000Y-79377000D02*
X145140000Y-71343000D01*
X145180000Y-79383000D02*
X145180000Y-71337000D01*
X145220000Y-79390000D02*
X145220000Y-71330000D01*
X145260000Y-79396000D02*
X145260000Y-71324000D01*
X145300000Y-79402000D02*
X145300000Y-71318000D01*
X145340000Y-79407000D02*
X145340000Y-71313000D01*
X145380000Y-79412000D02*
X145380000Y-71308000D01*
X145420000Y-79416000D02*
X145420000Y-71304000D01*
X145460000Y-79421000D02*
X145460000Y-71299000D01*
X145500000Y-79424000D02*
X145500000Y-71296000D01*
X145540000Y-79428000D02*
X145540000Y-71292000D01*
X145580000Y-79430000D02*
X145580000Y-71290000D01*
X145620000Y-79433000D02*
X145620000Y-71287000D01*
X145660000Y-79435000D02*
X145660000Y-71285000D01*
X145700000Y-79437000D02*
X145700000Y-71283000D01*
X145740000Y-79438000D02*
X145740000Y-71282000D01*
X145780000Y-79439000D02*
X145780000Y-71281000D01*
X145820000Y-79440000D02*
X145820000Y-71280000D01*
X145860000Y-79440000D02*
X145860000Y-71280000D01*
X149869698Y-78075000D02*
X149869698Y-77275000D01*
X150269698Y-77675000D02*
X149469698Y-77675000D01*
X149980000Y-75360000D02*
G75*
G02*
X141740000Y-75360000I-4120000J0D01*
G01*
X141740000Y-75360000D02*
G75*
G02*
X149980000Y-75360000I4120000J0D01*
G01*
%TO.C,JP1*%
X131780000Y-82980000D02*
X133160000Y-82980000D01*
X131780000Y-84360000D02*
X131780000Y-82980000D01*
X131780000Y-85630000D02*
X131780000Y-88280000D01*
X131780000Y-85630000D02*
X134540000Y-85630000D01*
X131780000Y-88280000D02*
X134540000Y-88280000D01*
X134540000Y-85630000D02*
X134540000Y-88280000D01*
%TO.C,J5*%
X125171385Y-57306444D02*
X134371385Y-57306444D01*
X125171385Y-66306444D02*
X125171385Y-57306444D01*
X125171385Y-71906444D02*
X125171385Y-69906444D01*
X127971385Y-71906444D02*
X125171385Y-71906444D01*
X134371385Y-57306444D02*
X134371385Y-71906444D01*
X134371385Y-71906444D02*
X131571385Y-71906444D01*
X134611385Y-70406444D02*
X134611385Y-72146444D01*
X134611385Y-72146444D02*
X132871385Y-72146444D01*
%TO.C,R4*%
X155187064Y-73225000D02*
X154732936Y-73225000D01*
X155187064Y-74695000D02*
X154732936Y-74695000D01*
%TO.C,D3*%
X117280000Y-70800000D02*
X116815000Y-70800000D01*
X119905000Y-70800000D02*
X119440000Y-70800000D01*
X117280000Y-75614684D02*
G75*
G02*
X117280000Y-71105316I1080000J2254684D01*
G01*
X117280000Y-76148136D02*
G75*
G02*
X116815170Y-70800000I1080000J2788136D01*
G01*
X119440000Y-71105316D02*
G75*
G02*
X119440000Y-75614684I-1080000J-2254684D01*
G01*
X119904830Y-70800000D02*
G75*
G02*
X119440000Y-76148136I-1544830J-2560000D01*
G01*
%TO.C,C4*%
X132790000Y-129490000D02*
X135530000Y-129490000D01*
X132790000Y-134730000D02*
X132790000Y-129490000D01*
X135530000Y-129490000D02*
X135530000Y-134730000D01*
X135530000Y-134730000D02*
X132790000Y-134730000D01*
%TO.C,Q3*%
X169518750Y-120962500D02*
X171038750Y-120962500D01*
X169518750Y-121962500D02*
X169518750Y-120962500D01*
X169518750Y-124082500D02*
X169518750Y-123082500D01*
X171038750Y-120962500D02*
X171038750Y-121012500D01*
X171038750Y-122132500D02*
X171038750Y-122912500D01*
X171038750Y-124032500D02*
X171038750Y-124082500D01*
X171038750Y-124082500D02*
X169518750Y-124082500D01*
X171578750Y-122902500D02*
X171338750Y-122572500D01*
X171818750Y-122572500D01*
X171578750Y-122902500D01*
G36*
X171578750Y-122902500D02*
G01*
X171338750Y-122572500D01*
X171818750Y-122572500D01*
X171578750Y-122902500D01*
G37*
%TO.C,R18*%
X155862936Y-119950000D02*
X156317064Y-119950000D01*
X155862936Y-121420000D02*
X156317064Y-121420000D01*
%TO.C,J2*%
X124795000Y-135630000D02*
X155765000Y-135630000D01*
X124795000Y-145210000D02*
X124795000Y-135630000D01*
X145570000Y-134735662D02*
X146070000Y-134735662D01*
X145820000Y-135168675D02*
X145570000Y-134735662D01*
X146070000Y-134735662D02*
X145820000Y-135168675D01*
X155765000Y-135630000D02*
X155765000Y-145210000D01*
%TO.C,U5*%
X116710000Y-98780000D02*
X116710000Y-103840000D01*
X116710000Y-105840000D02*
X116710000Y-110900000D01*
X116710000Y-110900000D02*
X167630000Y-110900000D01*
X167630000Y-98780000D02*
X116710000Y-98780000D01*
X167630000Y-110900000D02*
X167630000Y-98780000D01*
X116710000Y-103840000D02*
G75*
G02*
X116710000Y-105840000I0J-1000000D01*
G01*
%TO.C,C5*%
X144810000Y-120670000D02*
X147550000Y-120670000D01*
X144810000Y-125910000D02*
X144810000Y-120670000D01*
X147550000Y-120670000D02*
X147550000Y-125910000D01*
X147550000Y-125910000D02*
X144810000Y-125910000D01*
%TO.C,F1*%
X145260000Y-119560000D02*
X146260000Y-118560000D01*
X145260000Y-120360000D02*
X145260000Y-119560000D01*
X146260000Y-118560000D02*
X150260000Y-118560000D01*
X150260000Y-118560000D02*
X150260000Y-120360000D01*
X150260000Y-120360000D02*
X145260000Y-120360000D01*
%TO.C,R12*%
X175524564Y-112937500D02*
X175070436Y-112937500D01*
X175524564Y-114407500D02*
X175070436Y-114407500D01*
%TO.C,C11*%
X130335000Y-74340000D02*
X135575000Y-74340000D01*
X130335000Y-77080000D02*
X130335000Y-74340000D01*
X135575000Y-74340000D02*
X135575000Y-77080000D01*
X135575000Y-77080000D02*
X130335000Y-77080000D01*
%TO.C,C3*%
X138490000Y-118590000D02*
X143730000Y-118590000D01*
X138490000Y-121330000D02*
X138490000Y-118590000D01*
X143730000Y-118590000D02*
X143730000Y-121330000D01*
X143730000Y-121330000D02*
X138490000Y-121330000D01*
%TO.C,Q2*%
X153350000Y-70262500D02*
X154350000Y-70262500D01*
X153350000Y-71782500D02*
X153350000Y-70262500D01*
X153400000Y-71782500D02*
X153350000Y-71782500D01*
X155300000Y-71782500D02*
X154520000Y-71782500D01*
X155470000Y-70262500D02*
X156470000Y-70262500D01*
X156470000Y-70262500D02*
X156470000Y-71782500D01*
X156470000Y-71782500D02*
X156420000Y-71782500D01*
X154530000Y-72322500D02*
X154860000Y-72082500D01*
X154860000Y-72562500D01*
X154530000Y-72322500D01*
G36*
X154860000Y-72562500D02*
G01*
X154530000Y-72322500D01*
X154860000Y-72082500D01*
X154860000Y-72562500D01*
G37*
%TO.C,R7*%
X160795436Y-81250000D02*
X161249564Y-81250000D01*
X160795436Y-82720000D02*
X161249564Y-82720000D01*
%TO.C,C6*%
X181240000Y-100390000D02*
X186480000Y-100390000D01*
X181240000Y-103130000D02*
X181240000Y-100390000D01*
X186480000Y-100390000D02*
X186480000Y-103130000D01*
X186480000Y-103130000D02*
X181240000Y-103130000D01*
%TO.C,J1*%
X135940000Y-60040000D02*
X143260000Y-60040000D01*
X135940000Y-69280000D02*
X135940000Y-60040000D01*
X143860000Y-60040000D02*
X146180000Y-60040000D01*
X146180000Y-60040000D02*
X146180000Y-69280000D01*
X146180000Y-60560000D02*
X135940000Y-60560000D01*
X146180000Y-61660000D02*
X135940000Y-61660000D01*
X146180000Y-69280000D02*
X135940000Y-69280000D01*
X143560000Y-60040000D02*
X143120000Y-59430000D01*
X144000000Y-59430000D01*
X143560000Y-60040000D01*
G36*
X143560000Y-60040000D02*
G01*
X143120000Y-59430000D01*
X144000000Y-59430000D01*
X143560000Y-60040000D01*
G37*
%TO.C,D4*%
X146750000Y-134350000D02*
X146750000Y-135240000D01*
X146750000Y-135240000D02*
X144900000Y-135240000D01*
X146765000Y-132120000D02*
X144915000Y-132120000D01*
X146765000Y-132120000D02*
X146765000Y-133010000D01*
X144525000Y-132110000D02*
X144285000Y-131780000D01*
X144765000Y-131780000D01*
X144525000Y-132110000D01*
G36*
X144525000Y-132110000D02*
G01*
X144285000Y-131780000D01*
X144765000Y-131780000D01*
X144525000Y-132110000D01*
G37*
%TO.C,C10*%
X135935000Y-74340000D02*
X141175000Y-74340000D01*
X135935000Y-77080000D02*
X135935000Y-74340000D01*
X141175000Y-74340000D02*
X141175000Y-77080000D01*
X141175000Y-77080000D02*
X135935000Y-77080000D01*
%TO.C,R15*%
X123574564Y-80525000D02*
X123120436Y-80525000D01*
X123574564Y-81995000D02*
X123120436Y-81995000D01*
%TO.C,U3*%
X169680000Y-96360000D02*
X205680000Y-96360000D01*
X205680000Y-132360000D01*
X169680000Y-132360000D01*
X169680000Y-96360000D01*
%TO.C,JP5*%
X164961250Y-118655000D02*
X166341250Y-118655000D01*
X164961250Y-120035000D02*
X164961250Y-118655000D01*
X164961250Y-121305000D02*
X164961250Y-123955000D01*
X164961250Y-121305000D02*
X167721250Y-121305000D01*
X164961250Y-123955000D02*
X167721250Y-123955000D01*
X167721250Y-121305000D02*
X167721250Y-123955000D01*
%TO.C,R6*%
X160795436Y-79250000D02*
X161249564Y-79250000D01*
X160795436Y-80720000D02*
X161249564Y-80720000D01*
%TO.C,C13*%
X116150302Y-89145000D02*
X116950302Y-89145000D01*
X116550302Y-88745000D02*
X116550302Y-89545000D01*
X120560000Y-87380000D02*
X120560000Y-95540000D01*
X120600000Y-87380000D02*
X120600000Y-95540000D01*
X120640000Y-87381000D02*
X120640000Y-95539000D01*
X120680000Y-87382000D02*
X120680000Y-95538000D01*
X120720000Y-87383000D02*
X120720000Y-95537000D01*
X120760000Y-87385000D02*
X120760000Y-95535000D01*
X120800000Y-87387000D02*
X120800000Y-95533000D01*
X120840000Y-87390000D02*
X120840000Y-95530000D01*
X120880000Y-87392000D02*
X120880000Y-95528000D01*
X120920000Y-87396000D02*
X120920000Y-95524000D01*
X120960000Y-87399000D02*
X120960000Y-95521000D01*
X121000000Y-87404000D02*
X121000000Y-95516000D01*
X121040000Y-87408000D02*
X121040000Y-95512000D01*
X121080000Y-87413000D02*
X121080000Y-95507000D01*
X121120000Y-87418000D02*
X121120000Y-95502000D01*
X121160000Y-87424000D02*
X121160000Y-95496000D01*
X121200000Y-87430000D02*
X121200000Y-95490000D01*
X121240000Y-87437000D02*
X121240000Y-95483000D01*
X121280000Y-87443000D02*
X121280000Y-95477000D01*
X121320000Y-87451000D02*
X121320000Y-95469000D01*
X121360000Y-87458000D02*
X121360000Y-95462000D01*
X121400000Y-87467000D02*
X121400000Y-95453000D01*
X121440000Y-87475000D02*
X121440000Y-95445000D01*
X121480000Y-87484000D02*
X121480000Y-95436000D01*
X121520000Y-87493000D02*
X121520000Y-95427000D01*
X121560000Y-87503000D02*
X121560000Y-95417000D01*
X121600000Y-87513000D02*
X121600000Y-95407000D01*
X121640000Y-87524000D02*
X121640000Y-95396000D01*
X121680000Y-87535000D02*
X121680000Y-95385000D01*
X121720000Y-87547000D02*
X121720000Y-95373000D01*
X121760000Y-87559000D02*
X121760000Y-95361000D01*
X121800000Y-87571000D02*
X121800000Y-95349000D01*
X121840000Y-87584000D02*
X121840000Y-95336000D01*
X121880000Y-87597000D02*
X121880000Y-95323000D01*
X121920000Y-87611000D02*
X121920000Y-95309000D01*
X121960000Y-87625000D02*
X121960000Y-95295000D01*
X122000000Y-87640000D02*
X122000000Y-95280000D01*
X122040000Y-87655000D02*
X122040000Y-90420000D01*
X122040000Y-92500000D02*
X122040000Y-95265000D01*
X122080000Y-87671000D02*
X122080000Y-90420000D01*
X122080000Y-92500000D02*
X122080000Y-95249000D01*
X122120000Y-87687000D02*
X122120000Y-90420000D01*
X122120000Y-92500000D02*
X122120000Y-95233000D01*
X122160000Y-87703000D02*
X122160000Y-90420000D01*
X122160000Y-92500000D02*
X122160000Y-95217000D01*
X122200000Y-87720000D02*
X122200000Y-90420000D01*
X122200000Y-92500000D02*
X122200000Y-95200000D01*
X122240000Y-87738000D02*
X122240000Y-90420000D01*
X122240000Y-92500000D02*
X122240000Y-95182000D01*
X122280000Y-87756000D02*
X122280000Y-90420000D01*
X122280000Y-92500000D02*
X122280000Y-95164000D01*
X122320000Y-87775000D02*
X122320000Y-90420000D01*
X122320000Y-92500000D02*
X122320000Y-95145000D01*
X122360000Y-87794000D02*
X122360000Y-90420000D01*
X122360000Y-92500000D02*
X122360000Y-95126000D01*
X122400000Y-87814000D02*
X122400000Y-90420000D01*
X122400000Y-92500000D02*
X122400000Y-95106000D01*
X122440000Y-87834000D02*
X122440000Y-90420000D01*
X122440000Y-92500000D02*
X122440000Y-95086000D01*
X122480000Y-87855000D02*
X122480000Y-90420000D01*
X122480000Y-92500000D02*
X122480000Y-95065000D01*
X122520000Y-87876000D02*
X122520000Y-90420000D01*
X122520000Y-92500000D02*
X122520000Y-95044000D01*
X122560000Y-87898000D02*
X122560000Y-90420000D01*
X122560000Y-92500000D02*
X122560000Y-95022000D01*
X122600000Y-87921000D02*
X122600000Y-90420000D01*
X122600000Y-92500000D02*
X122600000Y-94999000D01*
X122640000Y-87944000D02*
X122640000Y-90420000D01*
X122640000Y-92500000D02*
X122640000Y-94976000D01*
X122680000Y-87967000D02*
X122680000Y-90420000D01*
X122680000Y-92500000D02*
X122680000Y-94953000D01*
X122720000Y-87992000D02*
X122720000Y-90420000D01*
X122720000Y-92500000D02*
X122720000Y-94928000D01*
X122760000Y-88017000D02*
X122760000Y-90420000D01*
X122760000Y-92500000D02*
X122760000Y-94903000D01*
X122800000Y-88042000D02*
X122800000Y-90420000D01*
X122800000Y-92500000D02*
X122800000Y-94878000D01*
X122840000Y-88068000D02*
X122840000Y-90420000D01*
X122840000Y-92500000D02*
X122840000Y-94852000D01*
X122880000Y-88095000D02*
X122880000Y-90420000D01*
X122880000Y-92500000D02*
X122880000Y-94825000D01*
X122920000Y-88123000D02*
X122920000Y-90420000D01*
X122920000Y-92500000D02*
X122920000Y-94797000D01*
X122960000Y-88151000D02*
X122960000Y-90420000D01*
X122960000Y-92500000D02*
X122960000Y-94769000D01*
X123000000Y-88180000D02*
X123000000Y-90420000D01*
X123000000Y-92500000D02*
X123000000Y-94740000D01*
X123040000Y-88210000D02*
X123040000Y-90420000D01*
X123040000Y-92500000D02*
X123040000Y-94710000D01*
X123080000Y-88241000D02*
X123080000Y-90420000D01*
X123080000Y-92500000D02*
X123080000Y-94679000D01*
X123120000Y-88272000D02*
X123120000Y-90420000D01*
X123120000Y-92500000D02*
X123120000Y-94648000D01*
X123160000Y-88304000D02*
X123160000Y-90420000D01*
X123160000Y-92500000D02*
X123160000Y-94616000D01*
X123200000Y-88337000D02*
X123200000Y-90420000D01*
X123200000Y-92500000D02*
X123200000Y-94583000D01*
X123240000Y-88371000D02*
X123240000Y-90420000D01*
X123240000Y-92500000D02*
X123240000Y-94549000D01*
X123280000Y-88405000D02*
X123280000Y-90420000D01*
X123280000Y-92500000D02*
X123280000Y-94515000D01*
X123320000Y-88441000D02*
X123320000Y-90420000D01*
X123320000Y-92500000D02*
X123320000Y-94479000D01*
X123360000Y-88478000D02*
X123360000Y-90420000D01*
X123360000Y-92500000D02*
X123360000Y-94442000D01*
X123400000Y-88515000D02*
X123400000Y-90420000D01*
X123400000Y-92500000D02*
X123400000Y-94405000D01*
X123440000Y-88554000D02*
X123440000Y-90420000D01*
X123440000Y-92500000D02*
X123440000Y-94366000D01*
X123480000Y-88593000D02*
X123480000Y-90420000D01*
X123480000Y-92500000D02*
X123480000Y-94327000D01*
X123520000Y-88634000D02*
X123520000Y-90420000D01*
X123520000Y-92500000D02*
X123520000Y-94286000D01*
X123560000Y-88676000D02*
X123560000Y-90420000D01*
X123560000Y-92500000D02*
X123560000Y-94244000D01*
X123600000Y-88719000D02*
X123600000Y-90420000D01*
X123600000Y-92500000D02*
X123600000Y-94201000D01*
X123640000Y-88764000D02*
X123640000Y-90420000D01*
X123640000Y-92500000D02*
X123640000Y-94156000D01*
X123680000Y-88809000D02*
X123680000Y-90420000D01*
X123680000Y-92500000D02*
X123680000Y-94111000D01*
X123720000Y-88856000D02*
X123720000Y-90420000D01*
X123720000Y-92500000D02*
X123720000Y-94064000D01*
X123760000Y-88905000D02*
X123760000Y-90420000D01*
X123760000Y-92500000D02*
X123760000Y-94015000D01*
X123800000Y-88955000D02*
X123800000Y-90420000D01*
X123800000Y-92500000D02*
X123800000Y-93965000D01*
X123840000Y-89007000D02*
X123840000Y-90420000D01*
X123840000Y-92500000D02*
X123840000Y-93913000D01*
X123880000Y-89060000D02*
X123880000Y-90420000D01*
X123880000Y-92500000D02*
X123880000Y-93860000D01*
X123920000Y-89116000D02*
X123920000Y-90420000D01*
X123920000Y-92500000D02*
X123920000Y-93804000D01*
X123960000Y-89173000D02*
X123960000Y-90420000D01*
X123960000Y-92500000D02*
X123960000Y-93747000D01*
X124000000Y-89233000D02*
X124000000Y-90420000D01*
X124000000Y-92500000D02*
X124000000Y-93687000D01*
X124040000Y-89295000D02*
X124040000Y-90420000D01*
X124040000Y-92500000D02*
X124040000Y-93625000D01*
X124080000Y-89359000D02*
X124080000Y-90420000D01*
X124080000Y-92500000D02*
X124080000Y-93561000D01*
X124120000Y-89426000D02*
X124120000Y-93494000D01*
X124160000Y-89496000D02*
X124160000Y-93424000D01*
X124200000Y-89570000D02*
X124200000Y-93350000D01*
X124240000Y-89647000D02*
X124240000Y-93273000D01*
X124280000Y-89729000D02*
X124280000Y-93191000D01*
X124320000Y-89816000D02*
X124320000Y-93104000D01*
X124360000Y-89908000D02*
X124360000Y-93012000D01*
X124400000Y-90007000D02*
X124400000Y-92913000D01*
X124440000Y-90114000D02*
X124440000Y-92806000D01*
X124480000Y-90232000D02*
X124480000Y-92688000D01*
X124520000Y-90363000D02*
X124520000Y-92557000D01*
X124560000Y-90513000D02*
X124560000Y-92407000D01*
X124600000Y-90692000D02*
X124600000Y-92228000D01*
X124640000Y-90927000D02*
X124640000Y-91993000D01*
X124680000Y-91460000D02*
G75*
G02*
X116440000Y-91460000I-4120000J0D01*
G01*
X116440000Y-91460000D02*
G75*
G02*
X124680000Y-91460000I4120000J0D01*
G01*
%TO.C,R14*%
X123574564Y-82625000D02*
X123120436Y-82625000D01*
X123574564Y-84095000D02*
X123120436Y-84095000D01*
%TO.C,R20*%
X139525000Y-133887064D02*
X139525000Y-133432936D01*
X140995000Y-133887064D02*
X140995000Y-133432936D01*
%TO.C,R8*%
X124825000Y-108432936D02*
X124825000Y-108887064D01*
X126295000Y-108432936D02*
X126295000Y-108887064D01*
%TO.C,JP2*%
X179715000Y-86580000D02*
X179715000Y-89340000D01*
X182365000Y-86580000D02*
X179715000Y-86580000D01*
X182365000Y-86580000D02*
X182365000Y-89340000D01*
X182365000Y-89340000D02*
X179715000Y-89340000D01*
X183635000Y-86580000D02*
X185015000Y-86580000D01*
X185015000Y-86580000D02*
X185015000Y-87960000D01*
%TO.C,R19*%
X142325000Y-133887064D02*
X142325000Y-133432936D01*
X143795000Y-133887064D02*
X143795000Y-133432936D01*
%TO.C,J4*%
D15*
X182040000Y-142500000D02*
X182040000Y-140100000D01*
X186740000Y-137800000D02*
X184340000Y-137800000D01*
X186740000Y-144800000D02*
X184340000Y-144800000D01*
X189040000Y-140100000D02*
X189040000Y-142500000D01*
%TO.C,R1*%
D14*
X146687064Y-126425000D02*
X146232936Y-126425000D01*
X146687064Y-127895000D02*
X146232936Y-127895000D01*
%TO.C,R13*%
X155862936Y-121950000D02*
X156317064Y-121950000D01*
X155862936Y-123420000D02*
X156317064Y-123420000D01*
%TO.C,U6*%
X152435000Y-85160000D02*
X152435000Y-65160000D01*
X197435000Y-65160000D02*
X152435000Y-65160000D01*
X197435000Y-65160000D02*
X197435000Y-85160000D01*
X197435000Y-85160000D02*
X152435000Y-85160000D01*
%TO.C,C8*%
X116690000Y-100690000D02*
X121930000Y-100690000D01*
X116690000Y-103430000D02*
X116690000Y-100690000D01*
X121930000Y-100690000D02*
X121930000Y-103430000D01*
X121930000Y-103430000D02*
X116690000Y-103430000D01*
%TO.C,U2*%
X156630000Y-126125000D02*
X156725000Y-126125000D01*
X156630000Y-130245000D02*
X156630000Y-126125000D01*
X156725000Y-130245000D02*
X156630000Y-130245000D01*
X161655000Y-126125000D02*
X161750000Y-126125000D01*
X161750000Y-126125000D02*
X161750000Y-130245000D01*
X161750000Y-130245000D02*
X161655000Y-130245000D01*
X156720000Y-130785000D02*
X156390000Y-131025000D01*
X156390000Y-130545000D01*
X156720000Y-130785000D01*
G36*
X156720000Y-130785000D02*
G01*
X156390000Y-131025000D01*
X156390000Y-130545000D01*
X156720000Y-130785000D01*
G37*
%TO.C,R10*%
X174606250Y-122749564D02*
X174606250Y-122295436D01*
X176076250Y-122749564D02*
X176076250Y-122295436D01*
%TO.C,R11*%
X175574564Y-114937500D02*
X175120436Y-114937500D01*
X175574564Y-116407500D02*
X175120436Y-116407500D01*
%TO.C,Q1*%
X159550000Y-76162500D02*
X160550000Y-76162500D01*
X159550000Y-77682500D02*
X159550000Y-76162500D01*
X159600000Y-77682500D02*
X159550000Y-77682500D01*
X161500000Y-77682500D02*
X160720000Y-77682500D01*
X161670000Y-76162500D02*
X162670000Y-76162500D01*
X162670000Y-76162500D02*
X162670000Y-77682500D01*
X162670000Y-77682500D02*
X162620000Y-77682500D01*
X160730000Y-78222500D02*
X161060000Y-77982500D01*
X161060000Y-78462500D01*
X160730000Y-78222500D01*
G36*
X161060000Y-78462500D02*
G01*
X160730000Y-78222500D01*
X161060000Y-77982500D01*
X161060000Y-78462500D01*
G37*
%TO.C,R3*%
X152925000Y-100832936D02*
X152925000Y-101287064D01*
X154395000Y-100832936D02*
X154395000Y-101287064D01*
%TO.C,U1*%
X138825000Y-121965000D02*
X142945000Y-121965000D01*
X138825000Y-122020000D02*
X138825000Y-121965000D01*
X138825000Y-132085000D02*
X138825000Y-132030000D01*
X142945000Y-121965000D02*
X142945000Y-122020000D01*
X142945000Y-132030000D02*
X142945000Y-132085000D01*
X142945000Y-132085000D02*
X138825000Y-132085000D01*
X138285000Y-122015000D02*
X138045000Y-121685000D01*
X138525000Y-121685000D01*
X138285000Y-122015000D01*
G36*
X138285000Y-122015000D02*
G01*
X138045000Y-121685000D01*
X138525000Y-121685000D01*
X138285000Y-122015000D01*
G37*
%TO.C,JP3*%
X124315000Y-114780000D02*
X124315000Y-117540000D01*
X126965000Y-114780000D02*
X124315000Y-114780000D01*
X126965000Y-114780000D02*
X126965000Y-117540000D01*
X126965000Y-117540000D02*
X124315000Y-117540000D01*
X128235000Y-114780000D02*
X129615000Y-114780000D01*
X129615000Y-114780000D02*
X129615000Y-116160000D01*
%TO.C,C1*%
X132790000Y-118440000D02*
X135530000Y-118440000D01*
X132790000Y-123680000D02*
X132790000Y-118440000D01*
X135530000Y-118440000D02*
X135530000Y-123680000D01*
X135530000Y-123680000D02*
X132790000Y-123680000D01*
%TO.C,R9*%
X172606250Y-122295436D02*
X172606250Y-122749564D01*
X174076250Y-122295436D02*
X174076250Y-122749564D01*
%TO.C,R5*%
X154732936Y-75225000D02*
X155187064Y-75225000D01*
X154732936Y-76695000D02*
X155187064Y-76695000D01*
%TO.C,R17*%
X123587064Y-76325000D02*
X123132936Y-76325000D01*
X123587064Y-77795000D02*
X123132936Y-77795000D01*
%TO.C,D1*%
X136555000Y-135150000D02*
X136555000Y-134260000D01*
X136555000Y-135150000D02*
X138405000Y-135150000D01*
X136570000Y-132030000D02*
X138420000Y-132030000D01*
X136570000Y-132920000D02*
X136570000Y-132030000D01*
X138795000Y-135160000D02*
X139035000Y-135490000D01*
X138555000Y-135490000D01*
X138795000Y-135160000D01*
G36*
X139035000Y-135490000D02*
G01*
X138555000Y-135490000D01*
X138795000Y-135160000D01*
X139035000Y-135490000D01*
G37*
%TO.C,Q4*%
X173787500Y-117875000D02*
X173837500Y-117875000D01*
X173787500Y-119395000D02*
X173787500Y-117875000D01*
X174787500Y-119395000D02*
X173787500Y-119395000D01*
X174957500Y-117875000D02*
X175737500Y-117875000D01*
X176857500Y-117875000D02*
X176907500Y-117875000D01*
X176907500Y-117875000D02*
X176907500Y-119395000D01*
X176907500Y-119395000D02*
X175907500Y-119395000D01*
X175727500Y-117335000D02*
X175397500Y-117575000D01*
X175397500Y-117095000D01*
X175727500Y-117335000D01*
G36*
X175727500Y-117335000D02*
G01*
X175397500Y-117575000D01*
X175397500Y-117095000D01*
X175727500Y-117335000D01*
G37*
%TD*%
D16*
X114860000Y-60660000D02*
X206860000Y-60660000D01*
X206860000Y-145660000D01*
X114860000Y-145660000D01*
X114860000Y-60660000D01*
M02*
