%TF.GenerationSoftware,KiCad,Pcbnew,10.0.3*%
%TF.CreationDate,2026-09-15T16:55:19-03:00*%
%TF.ProjectId,Modulo_SIMA7670SA,4d6f6475-6c6f-45f5-9349-4d4137363730,rev?*%
%TF.SameCoordinates,Original*%
%TF.FileFunction,Other,User*%
%FSLAX46Y46*%
G04 Gerber Fmt 4.6, Leading zero omitted, Abs format (unit mm)*
G04 Created by KiCad (PCBNEW 10.0.3) date 2026-09-15 16:55:19*
%MOMM*%
%LPD*%
G01*
G04 APERTURE LIST*
%ADD10C,0.050000*%
%TA.AperFunction,Profile*%
%ADD11C,0.500000*%
%TD*%
G04 APERTURE END LIST*
%TO.C,J2*%
D10*
X124350000Y-135180000D02*
X156210000Y-135180000D01*
X156210000Y-152340000D01*
X124350000Y-152340000D01*
X124350000Y-135180000D01*
%TO.C,R19*%
X142110000Y-131980000D02*
X144010000Y-131980000D01*
X144010000Y-135340000D01*
X142110000Y-135340000D01*
X142110000Y-131980000D01*
%TO.C,C5*%
X144680000Y-120540000D02*
X147680000Y-120540000D01*
X147680000Y-126040000D01*
X144680000Y-126040000D01*
X144680000Y-120540000D01*
%TO.C,U3*%
X169180000Y-95860000D02*
X206180000Y-95860000D01*
X206180000Y-132860000D01*
X169180000Y-132860000D01*
X169180000Y-95860000D01*
%TO.C,R20*%
X139310000Y-131980000D02*
X141210000Y-131980000D01*
X141210000Y-135340000D01*
X139310000Y-135340000D01*
X139310000Y-131980000D01*
%TO.C,F1*%
X150360000Y-118660000D02*
X150360000Y-120260000D01*
X145160000Y-118660000D02*
X150360000Y-118660000D01*
X150360000Y-120260000D02*
X145160000Y-120260000D01*
X145160000Y-120260000D02*
X145160000Y-118660000D01*
%TO.C,D4*%
X144205000Y-132060000D02*
X144205000Y-135260000D01*
X144205000Y-132060000D02*
X147405000Y-132060000D01*
X147405000Y-135260000D02*
X144205000Y-135260000D01*
X147405000Y-135260000D02*
X147405000Y-132060000D01*
%TO.C,D1*%
X139115000Y-135210000D02*
X139115000Y-132010000D01*
X139115000Y-135210000D02*
X135915000Y-135210000D01*
X135915000Y-132010000D02*
X139115000Y-132010000D01*
X135915000Y-132010000D02*
X135915000Y-135210000D01*
%TO.C,C4*%
X132660000Y-129360000D02*
X135660000Y-129360000D01*
X135660000Y-134860000D01*
X132660000Y-134860000D01*
X132660000Y-129360000D01*
%TO.C,C3*%
X138360000Y-118460000D02*
X143860000Y-118460000D01*
X143860000Y-121460000D01*
X138360000Y-121460000D01*
X138360000Y-118460000D01*
%TO.C,C2*%
X132660000Y-123810000D02*
X135660000Y-123810000D01*
X135660000Y-129310000D01*
X132660000Y-129310000D01*
X132660000Y-123810000D01*
%TO.C,C1*%
X132660000Y-118310000D02*
X135660000Y-118310000D01*
X135660000Y-123810000D01*
X132660000Y-123810000D01*
X132660000Y-118310000D01*
%TO.C,R16*%
X121680000Y-78210000D02*
X125040000Y-78210000D01*
X125040000Y-80110000D01*
X121680000Y-80110000D01*
X121680000Y-78210000D01*
%TO.C,C9*%
X153440000Y-125385000D02*
X156440000Y-125385000D01*
X156440000Y-130885000D01*
X153440000Y-130885000D01*
X153440000Y-125385000D01*
%TO.C,J3*%
X183045000Y-132975000D02*
X183045000Y-136175000D01*
X183745000Y-132975000D02*
X183045000Y-132975000D01*
X183745000Y-132975000D02*
X183745000Y-132775000D01*
X183745000Y-136175000D02*
X183045000Y-136175000D01*
X183745000Y-136375000D02*
X183745000Y-136175000D01*
X184545000Y-136375000D02*
X183745000Y-136375000D01*
X184545000Y-136375000D02*
X184545000Y-137075000D01*
X186545000Y-136375000D02*
X186545000Y-137075000D01*
X186545000Y-137075000D02*
X184545000Y-137075000D01*
X187345000Y-132775000D02*
X183745000Y-132775000D01*
X187345000Y-132975000D02*
X187345000Y-132775000D01*
X187345000Y-136375000D02*
X186545000Y-136375000D01*
X187345000Y-136375000D02*
X187345000Y-136175000D01*
X188045000Y-132975000D02*
X187345000Y-132975000D01*
X188045000Y-132975000D02*
X188045000Y-136175000D01*
X188045000Y-136175000D02*
X187345000Y-136175000D01*
%TO.C,JP4*%
X146890000Y-63250000D02*
X150430000Y-63250000D01*
X150430000Y-69340000D01*
X146890000Y-69340000D01*
X146890000Y-63250000D01*
%TO.C,D2*%
X115150000Y-77110000D02*
X121570000Y-77110000D01*
X121570000Y-84490000D01*
X115150000Y-84490000D01*
X115150000Y-77110000D01*
%TO.C,U7*%
X130455000Y-77360000D02*
X140955000Y-77360000D01*
X140955000Y-82260000D01*
X130455000Y-82260000D01*
X130455000Y-77360000D01*
%TO.C,R2*%
X148310000Y-124567500D02*
X150210000Y-124567500D01*
X150210000Y-127927500D01*
X148310000Y-127927500D01*
X148310000Y-124567500D01*
%TO.C,C7*%
X188410000Y-107660000D02*
G75*
G02*
X179910000Y-107660000I-4250000J0D01*
G01*
X179910000Y-107660000D02*
G75*
G02*
X188410000Y-107660000I4250000J0D01*
G01*
%TO.C,C12*%
X150110000Y-75360000D02*
G75*
G02*
X141610000Y-75360000I-4250000J0D01*
G01*
X141610000Y-75360000D02*
G75*
G02*
X150110000Y-75360000I4250000J0D01*
G01*
%TO.C,JP1*%
X131390000Y-82590000D02*
X134930000Y-82590000D01*
X134930000Y-88680000D01*
X131390000Y-88680000D01*
X131390000Y-82590000D01*
%TO.C,J5*%
X123271385Y-66306444D02*
X124771385Y-66306444D01*
X123271385Y-69906444D02*
X123271385Y-66306444D01*
X124771385Y-56906444D02*
X134771385Y-56906444D01*
X124771385Y-66306444D02*
X124771385Y-56906444D01*
X124771385Y-69906444D02*
X123271385Y-69906444D01*
X124771385Y-72306444D02*
X124771385Y-69906444D01*
X127971385Y-72306444D02*
X124771385Y-72306444D01*
X127971385Y-72906444D02*
X127971385Y-72306444D01*
X131571385Y-72306444D02*
X131571385Y-72906444D01*
X131571385Y-72906444D02*
X127971385Y-72906444D01*
X134771385Y-56906444D02*
X134771385Y-72306444D01*
X134771385Y-72306444D02*
X131571385Y-72306444D01*
%TO.C,R4*%
X153280000Y-73010000D02*
X156640000Y-73010000D01*
X156640000Y-74910000D01*
X153280000Y-74910000D01*
X153280000Y-73010000D01*
%TO.C,H4*%
X206810000Y-141260000D02*
G75*
G02*
X198310000Y-141260000I-4250000J0D01*
G01*
X198310000Y-141260000D02*
G75*
G02*
X206810000Y-141260000I4250000J0D01*
G01*
%TO.C,D3*%
X115150000Y-69670000D02*
X121570000Y-69670000D01*
X121570000Y-77050000D01*
X115150000Y-77050000D01*
X115150000Y-69670000D01*
%TO.C,H1*%
X123110000Y-141660000D02*
G75*
G02*
X114610000Y-141660000I-4250000J0D01*
G01*
X114610000Y-141660000D02*
G75*
G02*
X123110000Y-141660000I4250000J0D01*
G01*
%TO.C,H2*%
X123210000Y-64760000D02*
G75*
G02*
X114710000Y-64760000I-4250000J0D01*
G01*
X114710000Y-64760000D02*
G75*
G02*
X123210000Y-64760000I4250000J0D01*
G01*
%TO.C,Q3*%
X168348750Y-121972500D02*
X169378750Y-121972500D01*
X168348750Y-123072500D02*
X168348750Y-121972500D01*
X169378750Y-120822500D02*
X171178750Y-120822500D01*
X169378750Y-121972500D02*
X169378750Y-120822500D01*
X169378750Y-123072500D02*
X168348750Y-123072500D01*
X169378750Y-124222500D02*
X169378750Y-123072500D01*
X171178750Y-120822500D02*
X171178750Y-121022500D01*
X171178750Y-121022500D02*
X172208750Y-121022500D01*
X171178750Y-122132500D02*
X171178750Y-122912500D01*
X171178750Y-122912500D02*
X172208750Y-122912500D01*
X171178750Y-124022500D02*
X171178750Y-124222500D01*
X171178750Y-124222500D02*
X169378750Y-124222500D01*
X172208750Y-121022500D02*
X172208750Y-122132500D01*
X172208750Y-122132500D02*
X171178750Y-122132500D01*
X172208750Y-122912500D02*
X172208750Y-124022500D01*
X172208750Y-124022500D02*
X171178750Y-124022500D01*
%TO.C,R18*%
X154410000Y-119735000D02*
X157770000Y-119735000D01*
X157770000Y-121635000D01*
X154410000Y-121635000D01*
X154410000Y-119735000D01*
%TO.C,H3*%
X206710000Y-64960000D02*
G75*
G02*
X198210000Y-64960000I-4250000J0D01*
G01*
X198210000Y-64960000D02*
G75*
G02*
X206710000Y-64960000I4250000J0D01*
G01*
%TO.C,U5*%
X114880000Y-109260000D02*
X114880000Y-100260000D01*
X116430000Y-100260000D01*
X116455000Y-95945000D01*
X168755000Y-95945000D01*
X168730000Y-113925000D01*
X116430000Y-113925000D01*
X116430000Y-109260000D01*
X114880000Y-109260000D01*
%TO.C,R12*%
X173617500Y-112722500D02*
X176977500Y-112722500D01*
X176977500Y-114622500D01*
X173617500Y-114622500D01*
X173617500Y-112722500D01*
%TO.C,C11*%
X130205000Y-74210000D02*
X135705000Y-74210000D01*
X135705000Y-77210000D01*
X130205000Y-77210000D01*
X130205000Y-74210000D01*
%TO.C,Q2*%
X153210000Y-70122500D02*
X154360000Y-70122500D01*
X153210000Y-71922500D02*
X153210000Y-70122500D01*
X153410000Y-71922500D02*
X153210000Y-71922500D01*
X153410000Y-72952500D02*
X153410000Y-71922500D01*
X154360000Y-69092500D02*
X155460000Y-69092500D01*
X154360000Y-70122500D02*
X154360000Y-69092500D01*
X154520000Y-71922500D02*
X154520000Y-72952500D01*
X154520000Y-72952500D02*
X153410000Y-72952500D01*
X155300000Y-71922500D02*
X154520000Y-71922500D01*
X155300000Y-72952500D02*
X155300000Y-71922500D01*
X155460000Y-69092500D02*
X155460000Y-70122500D01*
X155460000Y-70122500D02*
X156610000Y-70122500D01*
X156410000Y-71922500D02*
X156410000Y-72952500D01*
X156410000Y-72952500D02*
X155300000Y-72952500D01*
X156610000Y-70122500D02*
X156610000Y-71922500D01*
X156610000Y-71922500D02*
X156410000Y-71922500D01*
%TO.C,R7*%
X159342500Y-81035000D02*
X162702500Y-81035000D01*
X162702500Y-82935000D01*
X159342500Y-82935000D01*
X159342500Y-81035000D01*
%TO.C,C6*%
X181110000Y-100260000D02*
X186610000Y-100260000D01*
X186610000Y-103260000D01*
X181110000Y-103260000D01*
X181110000Y-100260000D01*
%TO.C,J1*%
X135560000Y-59660000D02*
X146560000Y-59660000D01*
X146560000Y-69660000D01*
X135560000Y-69660000D01*
X135560000Y-59660000D01*
%TO.C,C10*%
X135805000Y-74210000D02*
X141305000Y-74210000D01*
X141305000Y-77210000D01*
X135805000Y-77210000D01*
X135805000Y-74210000D01*
%TO.C,R15*%
X121667500Y-80310000D02*
X125027500Y-80310000D01*
X125027500Y-82210000D01*
X121667500Y-82210000D01*
X121667500Y-80310000D01*
%TO.C,JP5*%
X164571250Y-118265000D02*
X168111250Y-118265000D01*
X168111250Y-124355000D01*
X164571250Y-124355000D01*
X164571250Y-118265000D01*
%TO.C,R6*%
X159342500Y-79035000D02*
X162702500Y-79035000D01*
X162702500Y-80935000D01*
X159342500Y-80935000D01*
X159342500Y-79035000D01*
%TO.C,C13*%
X124810000Y-91460000D02*
G75*
G02*
X116310000Y-91460000I-4250000J0D01*
G01*
X116310000Y-91460000D02*
G75*
G02*
X124810000Y-91460000I4250000J0D01*
G01*
%TO.C,R14*%
X121667500Y-82410000D02*
X125027500Y-82410000D01*
X125027500Y-84310000D01*
X121667500Y-84310000D01*
X121667500Y-82410000D01*
%TO.C,R8*%
X124610000Y-106980000D02*
X126510000Y-106980000D01*
X126510000Y-110340000D01*
X124610000Y-110340000D01*
X124610000Y-106980000D01*
%TO.C,JP2*%
X179315000Y-86190000D02*
X185405000Y-86190000D01*
X185405000Y-89730000D01*
X179315000Y-89730000D01*
X179315000Y-86190000D01*
%TO.C,J4*%
X181550000Y-137310000D02*
X189530000Y-137310000D01*
X181550000Y-145050000D02*
X181550000Y-137310000D01*
X181550000Y-145050000D02*
X182125000Y-145050000D01*
X182125000Y-145050000D02*
X182125000Y-153150000D01*
X182125000Y-153150000D02*
X188955000Y-153150000D01*
X188955000Y-145050000D02*
X189530000Y-145050000D01*
X188955000Y-153150000D02*
X188955000Y-145050000D01*
X189530000Y-137310000D02*
X189530000Y-145050000D01*
%TO.C,R1*%
X144780000Y-126210000D02*
X148140000Y-126210000D01*
X148140000Y-128110000D01*
X144780000Y-128110000D01*
X144780000Y-126210000D01*
%TO.C,R13*%
X154410000Y-121735000D02*
X157770000Y-121735000D01*
X157770000Y-123635000D01*
X154410000Y-123635000D01*
X154410000Y-121735000D01*
%TO.C,U6*%
X151935000Y-64660000D02*
X151935000Y-85660000D01*
X151935000Y-64660000D01*
X151935000Y-64660000D02*
X197935000Y-64660000D01*
X151935000Y-64660000D01*
X151935000Y-64660000D02*
X197935000Y-64660000D01*
X197935000Y-85660000D01*
X151935000Y-85660000D01*
X151935000Y-64660000D01*
X151935000Y-85660000D02*
X197935000Y-85660000D01*
X151935000Y-85660000D01*
%TO.C,C8*%
X116560000Y-98960000D02*
X122060000Y-98960000D01*
X122060000Y-101960000D01*
X116560000Y-101960000D01*
X116560000Y-98960000D01*
%TO.C,U2*%
X156490000Y-125985000D02*
X156730000Y-125985000D01*
X156490000Y-130385000D02*
X156490000Y-125985000D01*
X156730000Y-124485000D02*
X161650000Y-124485000D01*
X156730000Y-125985000D02*
X156730000Y-124485000D01*
X156730000Y-130385000D02*
X156490000Y-130385000D01*
X156730000Y-131885000D02*
X156730000Y-130385000D01*
X161650000Y-124485000D02*
X161650000Y-125985000D01*
X161650000Y-125985000D02*
X161890000Y-125985000D01*
X161650000Y-130385000D02*
X161650000Y-131885000D01*
X161650000Y-131885000D02*
X156730000Y-131885000D01*
X161890000Y-125985000D02*
X161890000Y-130385000D01*
X161890000Y-130385000D02*
X161650000Y-130385000D01*
%TO.C,R10*%
X174391250Y-120842500D02*
X176291250Y-120842500D01*
X176291250Y-124202500D01*
X174391250Y-124202500D01*
X174391250Y-120842500D01*
%TO.C,R11*%
X173667500Y-114722500D02*
X177027500Y-114722500D01*
X177027500Y-116622500D01*
X173667500Y-116622500D01*
X173667500Y-114722500D01*
%TO.C,Q1*%
X159410000Y-76022500D02*
X160560000Y-76022500D01*
X159410000Y-77822500D02*
X159410000Y-76022500D01*
X159610000Y-77822500D02*
X159410000Y-77822500D01*
X159610000Y-78852500D02*
X159610000Y-77822500D01*
X160560000Y-74992500D02*
X161660000Y-74992500D01*
X160560000Y-76022500D02*
X160560000Y-74992500D01*
X160720000Y-77822500D02*
X160720000Y-78852500D01*
X160720000Y-78852500D02*
X159610000Y-78852500D01*
X161500000Y-77822500D02*
X160720000Y-77822500D01*
X161500000Y-78852500D02*
X161500000Y-77822500D01*
X161660000Y-74992500D02*
X161660000Y-76022500D01*
X161660000Y-76022500D02*
X162810000Y-76022500D01*
X162610000Y-77822500D02*
X162610000Y-78852500D01*
X162610000Y-78852500D02*
X161500000Y-78852500D01*
X162810000Y-76022500D02*
X162810000Y-77822500D01*
X162810000Y-77822500D02*
X162610000Y-77822500D01*
%TO.C,R3*%
X152710000Y-99380000D02*
X154610000Y-99380000D01*
X154610000Y-102740000D01*
X152710000Y-102740000D01*
X152710000Y-99380000D01*
%TO.C,U1*%
X137185000Y-122025000D02*
X138685000Y-122025000D01*
X137185000Y-132025000D02*
X137185000Y-122025000D01*
X138685000Y-121825000D02*
X143085000Y-121825000D01*
X138685000Y-122025000D02*
X138685000Y-121825000D01*
X138685000Y-132025000D02*
X137185000Y-132025000D01*
X138685000Y-132225000D02*
X138685000Y-132025000D01*
X143085000Y-121825000D02*
X143085000Y-122025000D01*
X143085000Y-122025000D02*
X144585000Y-122025000D01*
X143085000Y-132025000D02*
X143085000Y-132225000D01*
X143085000Y-132225000D02*
X138685000Y-132225000D01*
X144585000Y-122025000D02*
X144585000Y-132025000D01*
X144585000Y-132025000D02*
X143085000Y-132025000D01*
%TO.C,JP3*%
X123915000Y-114390000D02*
X130005000Y-114390000D01*
X130005000Y-117930000D01*
X123915000Y-117930000D01*
X123915000Y-114390000D01*
%TO.C,R9*%
X172391250Y-120842500D02*
X174291250Y-120842500D01*
X174291250Y-124202500D01*
X172391250Y-124202500D01*
X172391250Y-120842500D01*
%TO.C,R5*%
X153280000Y-75010000D02*
X156640000Y-75010000D01*
X156640000Y-76910000D01*
X153280000Y-76910000D01*
X153280000Y-75010000D01*
%TO.C,R17*%
X121680000Y-76110000D02*
X125040000Y-76110000D01*
X125040000Y-78010000D01*
X121680000Y-78010000D01*
X121680000Y-76110000D01*
%TO.C,Q4*%
X173647500Y-117735000D02*
X173847500Y-117735000D01*
X173647500Y-119535000D02*
X173647500Y-117735000D01*
X173847500Y-116705000D02*
X174957500Y-116705000D01*
X173847500Y-117735000D02*
X173847500Y-116705000D01*
X174797500Y-119535000D02*
X173647500Y-119535000D01*
X174797500Y-120565000D02*
X174797500Y-119535000D01*
X174957500Y-116705000D02*
X174957500Y-117735000D01*
X174957500Y-117735000D02*
X175737500Y-117735000D01*
X175737500Y-116705000D02*
X176847500Y-116705000D01*
X175737500Y-117735000D02*
X175737500Y-116705000D01*
X175897500Y-119535000D02*
X175897500Y-120565000D01*
X175897500Y-120565000D02*
X174797500Y-120565000D01*
X176847500Y-116705000D02*
X176847500Y-117735000D01*
X176847500Y-117735000D02*
X177047500Y-117735000D01*
X177047500Y-117735000D02*
X177047500Y-119535000D01*
X177047500Y-119535000D02*
X175897500Y-119535000D01*
%TD*%
D11*
X114860000Y-60660000D02*
X206860000Y-60660000D01*
X206860000Y-145660000D01*
X114860000Y-145660000D01*
X114860000Y-60660000D01*
M02*
